<svg id="Capa_1" data-name="Capa 1" xmlns="http://www.w3.org/2000/svg" viewBox="0 0 155 49"><defs><style>.cls-1{fill:#040483;}.cls-2{fill:#040484;}.cls-3{fill:#020281;}.cls-4{fill:#020280;}.cls-5{fill:#030383;}.cls-6{fill:#030382;}.cls-7{fill:#00007e;}.cls-8{fill:#01017f;}.cls-9{fill:#060687;}.cls-10{fill:#050586;}.cls-11{fill:#050584;}.cls-12{fill:#050585;}.cls-13{fill:#f6f6fb;}</style></defs><path class="cls-1" d="M23,40.74c.08.25.27.53.23.77a1.55,1.55,0,0,1-.45.83c-.23.24-.58.36-.83.58,0,0,.18.51.29.51a6.3,6.3,0,0,0,1.17-.14c.36,1,0,2-1.2,3-1.41,1.21-2.27,1.4-3.47.66-1.58-1-2.63-2.24-2.14-3.8.24.13.48.38.7.36a1,1,0,0,0,.7-.44c.07-.12-.19-.63-.31-.64-1.61,0-.81-.87-.54-1.53,0-.11.12-.21.32-.58a14.54,14.54,0,0,0-2.61-.05,4.65,4.65,0,0,1-5.35-3,1.67,1.67,0,0,0-.57-.7A18.2,18.2,0,0,1,1.7,24.29,18.23,18.23,0,0,1,4.5,11.38,18.05,18.05,0,0,1,17,3.28,18.43,18.43,0,0,1,37.76,16c1.92,6.42.92,12.4-3.47,17.58-2.27,2.66-4.81,5.09-8.22,6.32C25.12,40.22,24.13,40.43,23,40.74Zm-2.7-6.84a11.79,11.79,0,0,0,9.2-4.38,12.42,12.42,0,0,0-.23-16.07,12.25,12.25,0,0,0-20.7,3.79,12.5,12.5,0,0,0,3.53,13.81,1.48,1.48,0,0,0,1,.3,4.12,4.12,0,0,1,4.31,1.73,2.09,2.09,0,0,0,1.92.88C19.69,34,20,33.92,20.32,33.9Zm2.57,2.45a10.74,10.74,0,0,0,5.1.21,8.74,8.74,0,0,0,3.44-1.19A17.57,17.57,0,0,0,37,16.1,17.49,17.49,0,0,0,26.49,4.9a16.66,16.66,0,0,0-9.38-1A17.94,17.94,0,0,0,2.19,21.85a16.2,16.2,0,0,0,1.67,7.34,17.44,17.44,0,0,0,5.36,6.62l.55-2.53,1.94-1.57a16.23,16.23,0,0,1-1.25-1.17A13,13,0,0,1,7.1,20.8a12.57,12.57,0,0,1,3.07-7.72A12.76,12.76,0,0,1,21.74,8.67a12.25,12.25,0,0,1,7.63,3.75,12.74,12.74,0,0,1,3.54,11.2,12.64,12.64,0,0,1-8.23,10.24C23.16,34.49,23,34.66,22.89,36.35Zm6.45.81a3.7,3.7,0,0,0-.61,0A15.12,15.12,0,0,1,22.59,37a23.33,23.33,0,0,1-7.36-3.2,2.2,2.2,0,0,0-3.15.53l1.89.87c.47.2,1,.49.59,1-.16.21-.87.22-1.21.05a11.23,11.23,0,0,1-1.74-1.23,2.58,2.58,0,0,0,1.6,3.19,16,16,0,0,0,11.28,1.37A10.16,10.16,0,0,0,29.34,37.16ZM17.18,44.34c.84,1.19,1.64,2.3,3,2.2a3.44,3.44,0,0,0,2.61-2.21c-.93-.08-1.6-.56-1.52-1.4,0-.51.66-1,1-1.45l.24.13-.27-.8H20.7a6.38,6.38,0,0,1-1.52-.1c-.92-.27-1.37,0-1.46,1A1.2,1.2,0,0,1,18.82,43C18.74,43.85,18.17,44.29,17.18,44.34Zm-2.87-4.75-1.71-.88a3.22,3.22,0,0,1-1.79-3.65,4.18,4.18,0,0,0-.2-1.2A3.81,3.81,0,0,0,14.31,39.59Zm2.55-6a3.54,3.54,0,0,0-6,.2,1.22,1.22,0,0,0,.8-.16,3.21,3.21,0,0,1,3.69-.55C15.79,33.24,16.28,33.37,16.86,33.56Zm2.36,1.27v.34l2.78,1,.53-1.73Z"/><path class="cls-2" d="M125.78,12.64A3.51,3.51,0,0,1,121,16.38a3.88,3.88,0,0,1-2.35-3.8,3.79,3.79,0,0,1,2.68-3.91,3.44,3.44,0,0,1,4.44,3.43Zm-1.16,0a7.67,7.67,0,0,0,0-1,2.38,2.38,0,0,0-3.12-2.07,2.5,2.5,0,0,0-1.57,2.1,3.25,3.25,0,0,0,.72,3.09,2,2,0,0,0,2.47.65A2.62,2.62,0,0,0,124.62,12.66Z"/><path class="cls-3" d="M89.1,16.36c-.73.18-1.28.17-1.51-.74a11.16,11.16,0,0,0-.68-1.45c-.37-.95-1.11-1.1-2-1V16.4l-1.11.07V8.68c.83,0,1.66,0,2.49,0a2.12,2.12,0,0,1,2.28,1.62,2,2,0,0,1-1.19,2.44c.32.6.65,1.18.94,1.79S88.82,15.72,89.1,16.36Zm-4.24-4.1c1,.05,2,.17,2.43-.78a1.59,1.59,0,0,0-.07-1.33c-.57-1-1.53-.37-2.36-.52Z"/><path class="cls-4" d="M62.34,16.38c-.81.25-1.22-.07-1.59-.73a49.06,49.06,0,0,0-3.12-5v5.7h-.9V8.79c.78-.33,1.18,0,1.54.65,1,1.71,2,3.39,3.07,5.26v-6l1-.06Z"/><path class="cls-5" d="M48.25,8.71h1c0,1.65,0,3.31,0,5,0,1.36.53,1.93,1.76,1.94s1.71-.61,1.72-1.91c0-1.63,0-3.26,0-5l1-.06c0,2.07.12,4.11,0,6.12-.11,1.38-1.34,1.94-3.2,1.79a2.29,2.29,0,0,1-2.24-2.27C48.21,12.45,48.25,10.6,48.25,8.71Z"/><path class="cls-3" d="M95.66,9.22l-.52.69a8.16,8.16,0,0,0-2-.35,1.61,1.61,0,0,0-1,.86c-.1.22.26.79.55,1a19.15,19.15,0,0,0,1.83,1,2.16,2.16,0,0,1,1.07,2.61,2.1,2.1,0,0,1-2.11,1.48,27.62,27.62,0,0,1-2.91-.51l.54-.87a9.71,9.71,0,0,0,2.22.39,1.54,1.54,0,0,0,1.08-.82,1.4,1.4,0,0,0-.41-1.18,8,8,0,0,0-1.63-1C91.05,11.9,90.61,11.05,91,10a2.48,2.48,0,0,1,2.89-1.45A15.54,15.54,0,0,1,95.66,9.22Z"/><path class="cls-6" d="M72.35,16.36c-.93.28-1.3,0-1.58-.86-.7-2.28-1.56-4.51-2.36-6.76.92-.28,1.28.09,1.52.92.51,1.79,1.14,3.55,1.8,5.55.7-2.05,1.33-3.88,2-5.71.3-.88.3-.88,1.33-.74Z"/><path class="cls-3" d="M77.06,16.38V8.72h4.19l0,.89H78.08v2.32h3v1h-3v2.53h3.32l.09.94Z"/><path class="cls-4" d="M129.36,12.87v3.51H128.3V8.72h4.16v.89h-3.09v2.32h2.9v.94Z"/><path class="cls-4" d="M110.72,12.28c.51-1,1-1.94,1.42-2.83s.42-.79,1.5-.75c-.59,1.14-1.08,2.29-1.74,3.32a5.19,5.19,0,0,0-.76,3.35c0,.32,0,.63,0,1l-1.07.05c.81-3.06-1.38-5.18-2.37-7.69.84-.28,1.29,0,1.62.8S110.18,11.25,110.72,12.28Z"/><path class="cls-7" d="M103.46,9.62h-2.38V8.71h5.54v.9h-2.19v6.78l-1,.05Z"/><path class="cls-3" d="M98.09,8.7h1v7.69l-1,.05Z"/><path class="cls-8" d="M66.46,16.41H65.4V8.71h1.06Z"/><path class="cls-6" d="M14.1,17.71c1.48,0,2.92,0,4.35,0,.86,0,1.34.72,1.35,1.84,0,2.17,0,4.34,0,6.72-.51-1.06-1.34-1.08-2.2-1.06-1.15,0-2.3,0-3.5,0Z"/><path class="cls-3" d="M26.06,17.71V25.1c-1.86.51-3.93-.53-5.67.73,0-2.12,0-4.45,0-6.77a1.24,1.24,0,0,1,1.31-1.34C23.17,17.69,24.61,17.71,26.06,17.71Z"/><path class="cls-1" d="M12.15,26.58c0-.08,0,.1-.13.16a.72.72,0,0,1-.58.08.65.65,0,0,1-.26-.52.92.92,0,0,1,.49-.46,6.51,6.51,0,0,1,.94-.32l-.09-.28a4,4,0,0,1-.45.15,1.37,1.37,0,0,1-.65.06c-.14-.07-.3-.45-.24-.53a2,2,0,0,1,.65-.42c.23-.12.48-.21.73-.31l-.15-.32c-.12.09-.23.22-.36.24a1.12,1.12,0,0,1-.68,0c-.12-.07-.21-.48-.13-.56a1.61,1.61,0,0,1,.67-.32c.23-.07.47-.1.71-.15l-.09-.37a2.75,2.75,0,0,1-.67.17.76.76,0,0,1-.57-.19.6.6,0,0,1,0-.58,1.16,1.16,0,0,1,.62-.17,5.28,5.28,0,0,1,.56,0v-.43a3.87,3.87,0,0,1-.59,0,1.54,1.54,0,0,1-.67-.2c-.08,0-.07-.43,0-.49a1.93,1.93,0,0,1,.68-.21c.19-.05.4-.05.53-.25-.44-.16-.88-.32-1.31-.51,0,0,.09-.47.17-.48a9.83,9.83,0,0,1,1.24,0c0-.52-.45-.43-.86-.51-.22,0-.38-.37-.56-.56.26-.12.52-.35.78-.33a7.33,7.33,0,0,1,1.35.31v7.93c1.72,0,3.38,0,5,0,.35,0,.68.34,1,.38a5.1,5.1,0,0,0,1.46,0c.33,0,.64-.35,1-.36,1.67,0,3.33,0,5,0v-8h.74V27c-1.78,0-3.57,0-5.36,0a2.71,2.71,0,0,0-1,.3A2,2,0,0,1,19,27.22a1.64,1.64,0,0,0-.87-.25c-1.6,0-3.21,0-4.81,0A5,5,0,0,1,12.15,26.58Z"/><path class="cls-5" d="M18.56,14.87h-5l-.71-2.24.27-.19,1.68,2,1-2.5.45,0,1.06,2.58,1.68-2,.27.17Z"/><path class="cls-5" d="M23.26,28.93l-.72,2.23h-5L16.89,29l.27-.2,1.63,1.9L20,27.87a17.86,17.86,0,0,1,1.15,1.84c.11.26,0,.64-.07,1l.29,0,1.68-2Z"/><path class="cls-6" d="M21.58,14.87l-.75-2.23.28-.17,1.68,1.93,1-2.52.47,0,1.05,2.63,1.6-2,.27.14-.63,2.22Z"/><path class="cls-9" d="M17.85,32.07a5.14,5.14,0,0,1,4.45,0A5.14,5.14,0,0,1,17.85,32.07Z"/><path class="cls-3" d="M18.47,15.89a8.76,8.76,0,0,1-4.68,0C14.55,15.17,17.25,15.11,18.47,15.89Z"/><path class="cls-6" d="M26.31,15.79a6.78,6.78,0,0,1-4.51.09C22.48,15.18,25,15.09,26.31,15.79Z"/><path class="cls-10" d="M5.29,26.43l-1.35.47c-.16-.65-.16-.65,2.62-1.66.36.62.36.62-1,2.35L7.21,27l.3.57-3,1.18c-.39-1.05.62-1.42.88-2.12l.12-.16Z"/><path class="cls-9" d="M8.61,14l-1.68.39.81,1.06-.27.26-2.8-1.5a14.79,14.79,0,0,1,.78-1.26c.35-.45,1-.51,1.21-.09C7.1,13.7,7.89,13.47,8.61,14Z"/><path class="cls-11" d="M31.57,13.49a1.87,1.87,0,0,1,1.77-1.74,1.85,1.85,0,0,1,1.51,1.59A1.83,1.83,0,0,1,32.92,15,1.45,1.45,0,0,1,31.57,13.49Zm2.68.07,0-.44c-.29-.2-.69-.63-.84-.55a5.59,5.59,0,0,0-1.22,1c.28.24.59.71.82.68A4.16,4.16,0,0,0,34.25,13.56Z"/><path class="cls-11" d="M24.53,5.19A1.33,1.33,0,0,1,26,6.67a1.73,1.73,0,0,1-1.58,1.81A1.54,1.54,0,0,1,22.9,6.86,1.51,1.51,0,0,1,24.53,5.19Zm1.14,1.48c-.53-.43-.81-.82-1.13-.87-.66-.09-.9.47-.83,1,0,.35.4.67.61,1Z"/><path class="cls-12" d="M31.7,29.39l2.42,2C33.45,32,33,33.06,32,32.84a2.09,2.09,0,0,1-1.31-1.16C30.29,30.72,30.94,30,31.7,29.39Zm1.52,2.14-1.64-1.18c-.56.67-.5,1.18.1,1.62S32.72,32.07,33.22,31.53Z"/><path class="cls-5" d="M32.13,28.13l1.68-.4c0-.59-1.4-.33-.65-1.34L36,27.7a3.78,3.78,0,0,1-.61,1.19,1.81,1.81,0,0,1-1.11.35c-.48-.86-1.3-.7-2.09-.69Z"/><path class="cls-5" d="M35.32,25.8a1.53,1.53,0,0,1-1.71-1.53,1.44,1.44,0,0,1,1.55-1.55A1.71,1.71,0,0,1,37,24.21,1.53,1.53,0,0,1,35.32,25.8Zm.14-.6.88-.91c-.39-.26-.75-.68-1.17-.75a1.14,1.14,0,0,0-.88.67C34.18,24.86,34.71,25.05,35.46,25.2Z"/><path class="cls-2" d="M6.52,31.82c.33-.24.66-.47,1-.72s.65-.5,1-.73c-.25-.73-.62-.83-1.17-.41a3.61,3.61,0,0,1-1,.62,2.29,2.29,0,0,1-.9,0l0-.24c.5-.34,1-.69,1.5-1a1.28,1.28,0,0,1,1.87.25,1.23,1.23,0,0,1-.41,1.79,9.53,9.53,0,0,1-1.17.83c-.18.1-.47,0-.71,0Z"/><path class="cls-6" d="M33.42,18.57l.68-1.39c-.54-.07-1.28-.09-1.13-1.15,1.18.59,2.23.6,2.79-1l.32.33-.55,1.5,1.17.72-.13.26c-.53-.1-1.12-.39-1.57-.24s-.84.73-1.25,1.12Z"/><path class="cls-12" d="M4.59,17.59l.91-1.27.26.17a2.78,2.78,0,0,0-.17.72,2.46,2.46,0,0,0,.22.68,2.6,2.6,0,0,0,.5-.55,3.61,3.61,0,0,0,.23-.82c.57.51.56.64-.09,2.29-.5-.16-1-.33-1.51-.48s-1-.26-1.59-.43c.64-.57.07-1.69,1.24-2L4.3,17.37Z"/><path class="cls-10" d="M8.6,9.66l-.88,1.25c1-.05,2-1,2.43.29.32.91-.4,1.38-1.19,1.67-.83-.8.84-.74.41-1.5-.68-.14-1.91,1-2.17-.5-.08-.44.58-1,.91-1.53Z"/><path class="cls-11" d="M3,22.45C3.24,21,4.48,21.64,5.06,21c-.49-.2-1-.38-1.52-.63-.19-.08-.31-.32-.45-.48.23-.05.5-.18.7-.11a16.63,16.63,0,0,1,2,.8.71.71,0,0,1,.38.53c0,.15-.25.37-.43.44C4.92,21.86,4.07,22.11,3,22.45Z"/><path class="cls-5" d="M28.07,7.91l.81.6-.08.31-1.3-.29c-.28.05-.11,1.41-1.15.64L28,6.49l1.63.92-.2.45-1.3-.31Z"/><path class="cls-12" d="M36.82,21.63l-.77-1.27-.25.12v1l-.3.1-.37-.82-1.31-.59a10.43,10.43,0,0,1,1.2-.38c.59-.1,1.2-.13,1.88-.19l.15,1.86Z"/><path class="cls-2" d="M13.68,9.29l-1.12-2.1-1-.08a4,4,0,0,1,.62-.67,4.65,4.65,0,0,1,1.1-.53c.16,0,.38.07.78.16l-.85.62c.34.79.66,1.53.95,2.28A3.37,3.37,0,0,1,13.68,9.29Z"/><path class="cls-12" d="M16.18,6l.67-1.27.24.12-.28,3.2a1.38,1.38,0,0,1-.51-.32c-.52-.77-1-1.57-1.5-2.38C15.54,4.68,15.7,5.93,16.18,6Z"/><path class="cls-1" d="M11.46,10.69,9.59,8.2l.51-.47C11.83,9.6,12.07,10.08,11.46,10.69Z"/><path class="cls-12" d="M3.06,24.69c.27-.42.38-.78.56-.82.86-.2,1.73-.3,2.61-.43.09.64.09.64-1.06.87Z"/><path class="cls-13" d="M5.29,26.43h.23l-.12.16Z"/><path class="cls-5" d="M127.2,32.07c2.1,2,4.13,4,6.22,5.93a3.87,3.87,0,0,0,3,1.09c1.41-.13,2.1-.67,2.13-2.08q.09-5.07,0-10.14c0-1.57-.54-2-2.36-2.42a2,2,0,0,1-.48-.32c.16-.11.33-.3.48-.3,3.43.08,6.86.14,10.29.32a8.26,8.26,0,0,1,2.72.76c5,2.18,5.84,8.61,1.69,12.35a9.31,9.31,0,0,1-6.27,2.4c-3.49.05-7,.09-10.47,0a7.63,7.63,0,0,1-3.14-1c-2.95-1.57-4.84-4.23-6.8-6.92a5,5,0,0,0,3.8-2.5,3.08,3.08,0,0,0,.27-1.84c-.33-1.88-2.38-3.06-5-2.91,0,.25,0,.52,0,.79q0,5.49,0,11c0,.23,0,.45,0,.68.08,1.3.49,1.77,1.77,2,.3.06.62.06.91.14s.29.24.44.36a2.82,2.82,0,0,1-.44.26.91.91,0,0,1-.33,0h-5v-1c0-3.72,0-7.43,0-11.15,0-.5-.07-1-.09-1.5A1.5,1.5,0,0,0,119,24.43c-.17,0-.32-.21-.47-.32.15-.1.31-.3.47-.3,2.82,0,5.63.08,8.45.17a4.46,4.46,0,0,1,1.37.35,3.52,3.52,0,0,1,1,6.17A20.23,20.23,0,0,1,127.2,32.07Zm14-1.08c0,1.78,0,3.57,0,5.36a6.56,6.56,0,0,0,.15,1.24,1.44,1.44,0,0,0,1.38,1.26,10.29,10.29,0,0,0,2.83-.09c2.63-.56,4.17-2.51,4.64-5.67a6.94,6.94,0,0,0-4.42-7.86A20.25,20.25,0,0,0,142,24.6c-.59-.09-.77.2-.76.77C141.23,27.24,141.21,29.11,141.21,31Z"/><path class="cls-5" d="M64.9,23.76c1.95,0,3.61,0,5.28,0,.2,0,.44.3.58.51,1,1.59,2,3.2,3.06,4.8l.63.91c.78-1.36,1.55-2.55,2.18-3.81.5-1,.19-1.48-.88-1.78a3.23,3.23,0,0,1-.64-.33l.1-.26h6.54l.15.16c-.17.14-.33.38-.52.4a5.61,5.61,0,0,0-4.16,2.66c-.73,1.05-1.44,2.12-2.12,3.21a.91.91,0,0,0,0,.79c1.11,1.77,2.26,3.53,3.4,5.28.2.3.44.57.67.86,1.81,2.32,4.41,2.28,7,1.39a2.29,2.29,0,0,0,1.39-2.38c0-3.15,0-6.31,0-9.46,0-1.6-.56-2.11-2.15-2.34a2.62,2.62,0,0,1-.72-.3l.09-.28H97.16l.15,3.4-.28,0c-.07-.1-.19-.19-.21-.3a2.7,2.7,0,0,0-2.71-2.3c-1.24-.11-2.5,0-3.81,0v6.15h4.41v3.67l-.22.07a3.79,3.79,0,0,1-.3-.69C93.91,32.39,93.49,32,92,32H90.3c0,1.9-.09,3.68,0,5.45.08,1.19.64,1.47,2.23,1.64a2.6,2.6,0,0,1,.74.31l-.1.32h-.82c-4.69,0-9.39,0-14.08,0A1.29,1.29,0,0,1,77,39c-1.23-2-2.52-3.94-3.86-6a17,17,0,0,0-3,4.68c-.23.63.22,1.08,1.15,1.35a3.88,3.88,0,0,1,.66.36l-.12.26H65.05l-.13-.21c.18-.13.36-.35.55-.37a5.44,5.44,0,0,0,4.16-2.63c.85-1.28,1.78-2.5,2.62-3.79a1.19,1.19,0,0,0,0-1c-.72-1.29-1.49-2.56-2.29-3.8-1.08-1.69-2.38-3.1-4.5-3.46C65.34,24.35,65.22,24.1,64.9,23.76Z"/><path class="cls-5" d="M98.78,31.42c-.11-5.2,4.47-8.8,10.13-8.22,3.59.38,6.28,2.11,7.36,5.64,2,6.49-2.31,11.78-9.08,11.43a9.23,9.23,0,0,1-4.33-1.14C100,37.46,98.78,34.9,98.78,31.42Zm3.2,0c0,.39,0,.79,0,1.17a7.87,7.87,0,0,0,2.41,5.45,5.2,5.2,0,0,0,8.39-1.84,11.63,11.63,0,0,0,.51-6.9,7.11,7.11,0,0,0-2-3.79,5.15,5.15,0,0,0-8.61,1.83A16.48,16.48,0,0,0,102,31.46Z"/><path class="cls-5" d="M64.12,31.82c.15,5-3.86,8.73-9.47,8.46a8.48,8.48,0,0,1-6.4-2.79,8.66,8.66,0,0,1-1.49-9c1.1-3,3.52-4.64,6.67-5.17a10.36,10.36,0,0,1,5.67.58C62.3,25.14,64.13,28.09,64.12,31.82ZM61,31.94a8.47,8.47,0,0,0-2.17-6.3,5.13,5.13,0,0,0-8.73,1.87,15.43,15.43,0,0,0-.66,4.84,7.49,7.49,0,0,0,2.37,5.7,5.15,5.15,0,0,0,8.35-1.71A17.23,17.23,0,0,0,61,31.94Z"/></svg>