<svg id="Capa_1" data-name="Capa 1" xmlns="http://www.w3.org/2000/svg" viewBox="0 0 155 46"><defs><style>.cls-1{fill:#222;}.cls-2{fill:#232323;}.cls-3{fill:#9f9f9e;}.cls-4{fill:#6c513d;}.cls-5{fill:#f7f7f6;}.cls-6{fill:#252525;}.cls-7{fill:#f1f1f1;}.cls-8{fill:#efefef;}.cls-9{fill:#f2dad6;}.cls-10{fill:#851310;}.cls-11{fill:#fafafa;}.cls-12{fill:#78221f;}.cls-13{fill:#702722;}.cls-14{fill:#791f1b;}.cls-15{fill:#f5f1f0;}.cls-16{fill:#f1ebea;}.cls-17{fill:#edc7c2;}.cls-18{font-size:2.93px;fill:#8b1818;font-family:Frutiger-Roman, Frutiger;letter-spacing:0.02em;}.cls-19{letter-spacing:-0.05em;}.cls-20{letter-spacing:0.03em;}.cls-21{letter-spacing:-0.03em;}</style></defs><path class="cls-1" d="M85.11,35.52c0-1.37,0-2.74,0-4.1a.86.86,0,0,0-.6-.89c-.17-.07-.33-.16-.49-.24l.61-.15h1.45l1.44.11a2.16,2.16,0,0,0-.47.36,2,2,0,0,0-.52.84,9.5,9.5,0,0,0,0,1.6c0,1.34-.07,2.67,0,4a2.33,2.33,0,0,0,1.65,2.28,2.81,2.81,0,0,0,3-.58A2.39,2.39,0,0,0,92,37c0-1.85,0-3.7,0-5.56a1.85,1.85,0,0,0-.28-.61l-.12-.24-.63-.22,0-.21h3l.11.13c-1.2.34-1,1.27-1,2.1,0,1.29,0,2.59,0,3.88a3.85,3.85,0,0,1-2.94,3.93c-2.37.57-5-1.4-4.93-3.54C85.18,36.3,85.13,35.91,85.11,35.52Z"/><path class="cls-2" d="M103.18,37.54a2.68,2.68,0,0,1-.15,2.19.45.45,0,0,1-.3.2,21.43,21.43,0,0,1-4.3.16c-3.12-.46-4.73-3.36-3.81-6.49.77-2.6,2.52-3.81,5.4-3.67,1.08.05,2.16.22,3.33.35L103.06,33h-.17c0-.11-.09-.21-.13-.32A2.79,2.79,0,0,0,100,30.52a3.87,3.87,0,0,0-4.26,3.85,5,5,0,0,0,4.16,5.22,2.67,2.67,0,0,0,3-1.55Z"/><path class="cls-2" d="M113.84,40.05h-3.37l0-.1.71-.41c-.38-1-.75-2-1.16-3a.54.54,0,0,0-.4-.24c-.78,0-1.56,0-2.43,0-.3,1-.61,1.94-.91,2.93-.18.59.36.55.67.8h-3c0-.05,0-.13.06-.13a2,2,0,0,0,1.56-1.54c.9-2.54,1.84-5.07,2.76-7.61a2.32,2.32,0,0,1,.45-.82c.11.27.23.54.34.82.95,2.34,1.87,4.7,2.85,7,.39.93.68,2,2,2.08Zm-4.22-4.47c-.36-1.17-.7-2.26-1.07-3.49l-1.12,3.46.28,0Z"/><path class="cls-3" d="M96.61,23.5c-1,0-1.93-.08-2.89-.09-.35,0-.53-.09-.5-.46v-.22l-.07-.46a.18.18,0,0,0,0-.1,1.21,1.21,0,0,0-1.22-1c-.3-.1-.83.18-.78-.49l.23-.27c.65.07,1.38-.06,1.85.53A3.78,3.78,0,0,1,94,22.22c.12.36.26.42.57.42.87,0,1.73,0,2.6,0a2.23,2.23,0,0,1,1.61,3.08,2.61,2.61,0,0,0-.06.27l-.16.2.18.08h14.79c.31,0,.65,0,.65.42s-.36.34-.62.34h-8.73c-2.5,0-5,0-7.51,0a2.2,2.2,0,0,1-.67-.3c.18-.17.34-.42.55-.49a1.58,1.58,0,0,0,.59-2.46C97.47,23.57,97,23.59,96.61,23.5Z"/><path class="cls-2" d="M83.66,30.29A13.12,13.12,0,0,0,79.89,35a3.89,3.89,0,0,0-.34,1.43c-.06.64,0,1.29,0,1.94,0,1.07.13,1.22,1.21,1.48l-.18.28H77.34c0-.1,0-.18,0-.19a1.44,1.44,0,0,0,.8-1.66,1.3,1.3,0,0,1,0-.44,5.87,5.87,0,0,0-1.57-4.52,11.71,11.71,0,0,0-2.61-3h2.9l.15.08c-.48.26-.47.55-.2.84l2.09,3.74c.67-1,1.28-2,1.84-2.93.32-.54.93-1.1.11-1.78h1l1.34,0,.42.08v0Z"/><path class="cls-4" d="M107.19,43.53h-6a1.6,1.6,0,0,1-.44,0,.52.52,0,0,1-.22-.26s.12-.15.21-.18a.91.91,0,0,1,.33,0c4.11,0,8.22,0,12.33,0a2.49,2.49,0,0,1,.7.23,2.34,2.34,0,0,1-.69.23C111.3,43.54,109.25,43.53,107.19,43.53Z"/><path class="cls-5" d="M80.22,40.1h.34l-.17.28Z"/><path class="cls-3" d="M58.32,22.86a11.5,11.5,0,0,1,1.41-.23c.79,0,1.58,0,2.41,0a2.19,2.19,0,0,1,1-1.82,7.39,7.39,0,0,1,1.12-.4c.18.47.21.74-.26.88A1.26,1.26,0,0,0,63,22.73c0,.54-.14.7-.68.68-1.07,0-2.14,0-3.22,0a1.16,1.16,0,0,0-1,1.31c0,.93.23,1.35,1,1.52.33.07.61.19.45.56-.06.14-.39.24-.59.24-2.28,0-4.55,0-6.83,0H42c-.29,0-.6,0-.55-.45s.38-.34.65-.34H57.63C57.22,25,57,23.74,58.32,22.86Z"/><path class="cls-6" d="M47.41,40.13H44.3a1.85,1.85,0,0,0,0-.2c.92-.19.9-.87.89-1.6,0-2.44,0-4.88,0-7.37A11.67,11.67,0,0,0,43,31c-.44.08-.81.54-1.3.9,0-.32,0-.66.09-1s.13-.68.2-1l.07,0,1.7.31H50L49.89,32a2.84,2.84,0,0,0-3.28-1v1.72c0,1.95,0,3.91,0,5.87,0,.73.36,1.07,1.14,1.26Z"/><path class="cls-7" d="M43.74,40.19l0,0,0,0Z"/><path class="cls-8" d="M41.29,42.75v0Z"/><path class="cls-2" d="M67.1,30.73c.44-.18.87-.37,1.32-.54a5.3,5.3,0,0,1,6.85,3.9A5,5,0,0,1,70,40.31a5.55,5.55,0,0,1-5-5.59c0-.48.12-.95.18-1.42A4.3,4.3,0,0,1,67.1,30.73Zm7,4.11a5,5,0,0,0-1.1-2.9,3.61,3.61,0,0,0-5.52-.2,5.89,5.89,0,0,0-.44.55,5.46,5.46,0,0,0,.91,6.3,3.52,3.52,0,0,0,5.25-.26A4.41,4.41,0,0,0,74.05,34.84Z"/><path class="cls-1" d="M57.36,31l0-.24.06-.55.41-.19a12.29,12.29,0,0,0,1.36.15c1.58,0,3.17,0,4.76,0,.15,0,.3,0,.49.05l-.18.52-.44.78-.37.64-.41,1h0c-.09,0-.23,0-.27.1a8.63,8.63,0,0,0-.51.82l-.08.12-.13.22-.54.78-.22.33-.25.33-1.69,2.43-.75,1c1.17,0,2.23,0,3.29,0a2.09,2.09,0,0,0,1.6-.47c.21-.21.39-.44.59-.66l.3-.36.14,0-.34,2.28H58l-1.2-.06,3.58-5.66.31-.46.12-.18,2-2.91c-.82,0-1.5,0-2.17,0a3.14,3.14,0,0,0-3.19,1.53l-.23-.32Z"/><path class="cls-6" d="M53.31,34.39,56,34.22l-.24,1.91-.14,0a2.32,2.32,0,0,0-.29-.51c-.15-.18-.34-.43-.54-.46-.58-.09-1.17-.08-1.83-.12,0,1.22,0,2.38,0,3.54a.52.52,0,0,0,.18.33,1.86,1.86,0,0,0,3-.48c0-.09.08-.16.25-.22,0,.29-.06.57-.1.86s-.09.58-.16,1H51.53l-.72,0a5.93,5.93,0,0,0,.7-1,2.17,2.17,0,0,0,0-.81V36.85c0-1.9,0-3.81,0-5.72,0-.18-.24-.39-.42-.53a3.54,3.54,0,0,0-.65-.31l0-.16c.23,0,.46,0,.7,0l3.66,0H56.2L56,31.18a3.16,3.16,0,0,1-.14.55c0,.05-.19,0-.29.05a.75.75,0,0,0-.71-.89c-.63-.05-1.27,0-1.93,0,0,1.07,0,2.12,0,3.17C52.91,34.35,53,34.46,53.31,34.39Z"/><path class="cls-4" d="M55.09,43.43a3.38,3.38,0,0,1-.54.09H42c-.15,0-.29,0-.44,0-.1-.28,0-.43.3-.43H55l.15,0v0Z"/><path class="cls-9" d="M55.13,43.11v0l.09.06Z"/><path class="cls-7" d="M109.62,35.58h-1.91l-.28,0,1.12-3.46C108.92,33.32,109.26,34.41,109.62,35.58Z"/><path class="cls-10" d="M65.27,24c-.75.44-1.26.15-1.27-.71a3.64,3.64,0,0,0,1.12-2.41,15,15,0,0,1,.3-1.84,16.29,16.29,0,0,1,1.7-4.71,5.2,5.2,0,0,0,.79-3.14,9.45,9.45,0,0,1,1.4-4.94A9.83,9.83,0,0,1,74.48,2.1a9.75,9.75,0,0,1,9.94,2,3.33,3.33,0,0,1,.25.28l.24.58.18.42-.4.11-1.12-1-.11-.09-.33-.24h0a8.92,8.92,0,0,0-9.27-.88,7.37,7.37,0,0,0-2.65,1.94h0l-.7.95a.11.11,0,0,0-.08,0,1.52,1.52,0,0,0-.22.22,9.42,9.42,0,0,0-1.56,5.42,12.18,12.18,0,0,0,0,1.6,2.38,2.38,0,0,0,.4.75l.12.34c.07.34.15.69.22,1a1.72,1.72,0,0,1,0,.39s-.12.06-.13,0a1.23,1.23,0,0,1-.23-.33c-.18-.45-.34-.91-.53-1.36,0-.06-.19-.06-.29-.1l-.51.65h0l-.15.31h0c-.43,1.2-.84,2.41-1.3,3.6a1.21,1.21,0,0,0,.55,1.62A24,24,0,0,0,69.05,22a13.82,13.82,0,0,0,5.81,2,12,12,0,0,0,1.31.16c1.48,0,3-.1,4.42-.16,1.07-.24,2.17-.39,3.22-.73a11.81,11.81,0,0,0,4.42-2.51,5.49,5.49,0,0,1,.6-.48c.59-.38.58-.89.39-1.49s-.37-1.34-.55-2c0-.39.19-.87-.41-1l0-.11L88,15.08h0c.19-.4-.16-.57-.35-.79a2.37,2.37,0,0,0-.39-.32l0,.52-.09.12a1,1,0,0,0-.22.19q-.24.34-.45.69c.07-.66.15-1.32.23-2a1.43,1.43,0,0,0,.2-.44c0-.35,0-.71,0-1.06V10.77L87,8.93l.34.11a8.7,8.7,0,0,1,.28,3.33,1.43,1.43,0,0,0,.17.82,12.06,12.06,0,0,1,1.68,3.75c.15.66.32,1.32.47,2-.18.35-.37.71-.54,1.07a1.76,1.76,0,0,0-.06.4l-.26.05.06.13.2-.18c.22,0,.45.53.67,0,.5,0,.09.39.22.56h-.47c-.25-.23-.47-.23-.62.12l-.17.16-.44.37L86.45,23l-.11.07h0L85,23.71s0,0-.07,0l-.49.19-.4.14-.23.07-.21.06-1,.28-.21.05-2.43.32h-5a1.68,1.68,0,0,0-.32-.09,15,15,0,0,1-8.16-3.7c-.11-.09-.23-.16-.47-.34,0,.46-.13.87,0,1.09a.9.9,0,0,1,0,1.12L65.27,24Zm.43-1.9c-.37,0-.63.11-.72.52,0,.16-.26.28-.34.44a2.18,2.18,0,0,0-.2.61c0,.08.1.17.16.25l.33-.36a1,1,0,0,0,.22-.24C65.33,22.92,66,22.73,65.7,22.11Zm23.79-4.57-.23,0,.14.95.16,0ZM89,16.6l-.13.09.36.56.17-.13Z"/><path class="cls-10" d="M88.63,22.77a15.93,15.93,0,0,1,1,1.76c.07.17-.17.56-.37.74a.51.51,0,0,1-.81-.13,14.63,14.63,0,0,1-.71-1.43.44.44,0,0,1,.13-.38A6.55,6.55,0,0,1,88.63,22.77Z"/><path class="cls-10" d="M84.69,5.48l.4-.11L84.91,5l-.24-.58A8.88,8.88,0,0,1,87.35,9L87,8.93h0l-.36-1.4-.17,0,0,1-1.29-2.4L85,6a.06.06,0,0,0,0-.06Z"/><path class="cls-10" d="M85.85,24.47,87,23.9c.26.54.51,1,.72,1.53a.67.67,0,0,1-1.26.47C86.25,25.44,86.06,25,85.85,24.47Z"/><path class="cls-10" d="M85.47,25.51c.07.2.13.41.2.62a.62.62,0,0,1-.44.9.59.59,0,0,1-.83-.47c-.09-.32-.17-.64-.29-.95s0-.56.36-.63l.75-.13h0Z"/><path class="cls-10" d="M83.34,25.51c.09.39.16.78.27,1.17s.11.66-.25.85a.69.69,0,0,1-1-.25c0-.13,0-.26-.05-.39-.22-1.16-.22-1.16.85-1.48h0Z"/><path class="cls-10" d="M90.24,21c-.13-.17.28-.54-.22-.56,0-.49,0-1,0-1.46a11.54,11.54,0,0,1,.42,1.9,4,4,0,0,0,.94,2.3A.62.62,0,0,1,91,24.19a.78.78,0,0,1-.67-.16,9.86,9.86,0,0,1-.9-1.46c-.08-.16,0-.41,0-.62l.1-.1h0l.21-.12-.11.55-.05,0,.05,0a9.66,9.66,0,0,1,.71,1.3c.14.34.36.51.59.31a.81.81,0,0,0,0-.77A2.53,2.53,0,0,1,90.24,21Z"/><path class="cls-10" d="M78.22,26h1.15c0,.56.09,1.07.1,1.58s-.25.56-.62.57-.64-.14-.66-.57,0-1-.08-1.43Zm.22.87c0,.24,0,.32,0,.38s.15.41.27.43c.31.07.4-.16.39-.44a4.12,4.12,0,0,0,0-.61.36.36,0,0,0-.22-.24c-.13,0-.35,0-.39.1A1.1,1.1,0,0,0,78.44,26.9Z"/><path class="cls-10" d="M75.42,26c0,.39-.06.77-.1,1.15-.08.94-.51,1.14-1.31.61h0L74.18,26Zm-1,1.88c.28-.22.51-.31.6-.48a1.15,1.15,0,0,0,.06-.64,1.86,1.86,0,0,0-.26-.53,1.79,1.79,0,0,0-.38.56A5.22,5.22,0,0,0,74.44,27.84Z"/><path class="cls-10" d="M76.44,26l.93.1c0,.53,0,1,0,1.55s-.31.55-.68.54a.55.55,0,0,1-.6-.63c0-.5.07-1,.11-1.49Zm-.09,1.77c.08,0,.32.2.4.14a1.06,1.06,0,0,0,.35-.56,1.35,1.35,0,0,0,0-.6,2.35,2.35,0,0,0-.24-.54,1.93,1.93,0,0,0-.4.56A5.25,5.25,0,0,0,76.35,27.76Z"/><path class="cls-10" d="M72.24,27.57l-.13-.06a3.51,3.51,0,0,1-.14-.84,5.1,5.1,0,0,1,.21-.94v-.11l0-.19h0l.2,0,.15,0,.74.17.14.23-.24,1.23,0,.21A.75.75,0,0,1,72.24,27.57Zm.93-1.26c-.06-.51-.29-.73-.61-.55a1.11,1.11,0,0,0-.23,1.29c.19.23.42.45.57-.05C73,26.76,73.08,26.54,73.17,26.31Z"/><path class="cls-10" d="M80.46,28c-.11-.66-.23-1.33-.34-2l1.21-.12a10.84,10.84,0,0,1,.22,1.37,2.19,2.19,0,0,1-.25.73Zm.15-1.85-.16.17a8.16,8.16,0,0,0,0,1,.68.68,0,0,0,.32.39.41.41,0,0,0,.37-.09,2.53,2.53,0,0,0,.13-1C81.23,26.34,80.84,26.24,80.61,26.1Z"/><path class="cls-10" d="M71.11,25.07l.31.05c.37.24-.16.47,0,.71l-.07.23-.1.34-.06.21-.09.23a.09.09,0,0,0,0,.08.83.83,0,0,1-1-.06c-.3-.28-.16-.6-.05-.91a1.55,1.55,0,0,0,0-.21h0l.21-.57c.19-.53.51-.3.81-.13-.86.48-1,.78-.67,1.85.27-.26.58-.43.7-.69S71.42,25.46,71.11,25.07Z"/><path class="cls-10" d="M90,18.93c0,.48,0,1,0,1.46-.22.53-.45,0-.67,0h0a1.76,1.76,0,0,1,.06-.4c.17-.36.36-.72.54-1.07l0,0Z"/><path class="cls-9" d="M85.47,25.51l-.25-.66Z"/><path class="cls-9" d="M84.41,23.93l.49-.19Z"/><path class="cls-11" d="M85,27.4l0,0,0,0Z"/><path class="cls-9" d="M86.34,23.06l.11-.07Z"/><path class="cls-10" d="M78.93,20.63c-.33,0-.67.11-1,.15a1.24,1.24,0,0,1-.51-.08,1.34,1.34,0,0,0-1.65.37A9,9,0,0,1,71.43,19c-.33-.27-.63-.57-1-.85a10.77,10.77,0,0,1-2.2-4c.1,0,.26,0,.29.1.19.45.35.91.53,1.36a1.23,1.23,0,0,0,.23.33s.13,0,.13,0a1.72,1.72,0,0,0,0-.39c-.07-.35-.15-.7-.22-1a9.14,9.14,0,0,0,3.08,4.13,8.28,8.28,0,0,0,3.47,1.66,7.37,7.37,0,0,0,3.17.11,8.45,8.45,0,0,0,5.77-3.12l1.23-1.89.1-.22h0l.07-.12.38-1.11.2-.45h0l-.23,2h0l-.43.2.42.46L86,17a10.84,10.84,0,0,1-3.34,3A9.68,9.68,0,0,1,78,21.31a5.43,5.43,0,0,1-2.27-.24h.39c.92,0,1.84,0,2.77,0m2-.51v-.15a8,8,0,0,0-.85,0c-.1,0-.19.16-.29.24.12.07.25.2.35.18A6.35,6.35,0,0,0,80.94,20.54Z"/><path class="cls-10" d="M89.79,21.73l0-.78h.47A2.53,2.53,0,0,0,91,23.12a.81.81,0,0,1,0,.77c-.23.2-.45,0-.59-.31a9.66,9.66,0,0,0-.71-1.3h0Z"/><path class="cls-10" d="M65.7,22.11c.26.62-.37.81-.55,1.22a1,1,0,0,1-.22.24l-.33.36c-.06-.08-.17-.17-.16-.25a2.18,2.18,0,0,1,.2-.61c.08-.16.3-.28.34-.44C65.07,22.22,65.33,22.12,65.7,22.11Z"/><path class="cls-12" d="M86.89,10.77,86.45,8.6l.56.33h0Z"/><path class="cls-13" d="M79.91,24.85h0Z"/><path class="cls-12" d="M68.66,11.81l.09.23,0,.23.31,1.89a2.38,2.38,0,0,1-.4-.75A12.18,12.18,0,0,1,68.66,11.81Z"/><path class="cls-10" d="M87.78,14.85c-.15-.17-.21-.5-.56-.36l0-.52a2.37,2.37,0,0,1,.39.32c.19.22.54.39.35.79Z"/><path class="cls-10" d="M87.13,14.61l-.66,1.48,0-.59h0q.21-.35.45-.69A1,1,0,0,1,87.13,14.61Z"/><path class="cls-10" d="M89.49,17.54l.07.95-.16,0-.14-.95Z"/><path class="cls-10" d="M88.36,16.16l-.1-.44c.6.15.39.63.41,1Z"/><path class="cls-12" d="M86.7,13c.06-.32.12-.64.19-1,0,.35,0,.71,0,1.06a1.43,1.43,0,0,1-.2.44h0v-.22Z"/><path class="cls-10" d="M89,16.6l.4.52-.17.13-.36-.56Z"/><path class="cls-12" d="M88.23,15.61,88,15.08Z"/><path class="cls-10" d="M89.35,20.39l-.2.18-.06-.13.26-.05Z"/><path class="cls-9" d="M67.77,14.83l-.15.31Z"/><path class="cls-10" d="M66.54,25.41c-.76-.38-.8-.51-.43-1.34L67,22.78l1,.73-.38.88h0l-.23.45h0l-.24.44Z"/><path class="cls-10" d="M68.88,26.29c-.89,0-1.16-.24-1-1l.1-.21.21-.46,0,0v0l.32-.61h0l1.1.46-.12.59-.24.58h0c-.12.23-.24.45-.37.67h0Zm.45-1.47c-.09-.12-.15-.27-.26-.32s-.32,0-.37,0a6.94,6.94,0,0,0-.61,1.06c0,.06.13.26.24.33a.38.38,0,0,0,.36,0C68.91,25.56,69.1,25.21,69.33,24.82Z"/><path class="cls-10" d="M71.11,25.07c.31.39.09.79-.06,1.13s-.43.43-.7.69C70,25.82,70.16,25.52,71,25A.08.08,0,0,1,71.11,25.07Z"/><path class="cls-14" d="M87,8.93l-.56-.33s0,0,0-.06l0-1,.17,0Z"/><path class="cls-9" d="M85.14,6.14,85,6Z"/><path class="cls-15" d="M83.17,25.41h0Z"/><path class="cls-10" d="M89.68,22.28l-.05,0,.05,0Z"/><path class="cls-10" d="M78.44,26.9a1.1,1.1,0,0,1,0-.38c0-.08.26-.12.39-.1a.36.36,0,0,1,.22.24,4.12,4.12,0,0,1,0,.61c0,.28-.08.51-.39.44-.12,0-.2-.27-.27-.43S78.44,27.14,78.44,26.9Z"/><path class="cls-10" d="M74.44,27.84a5.22,5.22,0,0,1,0-1.09,1.79,1.79,0,0,1,.38-.56,1.86,1.86,0,0,1,.26.53,1.15,1.15,0,0,1-.06.64C75,27.53,74.72,27.62,74.44,27.84Z"/><path class="cls-10" d="M76.35,27.76a5.25,5.25,0,0,1,.11-1,1.93,1.93,0,0,1,.4-.56,2.35,2.35,0,0,1,.24.54,1.35,1.35,0,0,1,0,.6,1.06,1.06,0,0,1-.35.56C76.67,28,76.43,27.79,76.35,27.76Z"/><path class="cls-10" d="M73.17,26.31c-.09.23-.19.45-.27.69-.15.5-.38.28-.57.05a1.11,1.11,0,0,1,.23-1.29C72.88,25.58,73.11,25.8,73.17,26.31Z"/><path class="cls-9" d="M72.24,25.44l.2,0Z"/><path class="cls-10" d="M80.61,26.1c.23.14.62.24.67.42a2.53,2.53,0,0,1-.13,1,.41.41,0,0,1-.37.09.68.68,0,0,1-.32-.39,8.16,8.16,0,0,1,0-1Z"/><path class="cls-10" d="M83.9,16.4l-1.79.12h-.83l-7.28,0v-.35l1.42,0H82l.09,0c.22-.42,0-.51-.37-.51H73.49l-.22.44-.43-.1c.07-.65.21-.79.88-.79h7.83c.63,0,1.16,0,1.34.85A1.72,1.72,0,0,0,83,15c-.11-.41-.49-.5-.89-.5-2.93,0-5.85,0-8.78,0a2.89,2.89,0,0,0-.9.3l.09-.59c.16-.12.4-.21.47-.37a13,13,0,0,0,.42-1.29l.38.24L73.5,14.1l.12.05.37-.56c.08-.06.21-.11.22-.17,0-.4,0-.81,0-1.21l.19,1.87h2.43v-1c-.21-.1-.4-.21-.6-.29a2.4,2.4,0,0,1-1.77-2.35,2.1,2.1,0,0,0-.08-.66c0-.13-.19-.22-.32-.37l-.41,1.87c-.18-.26-.37-.08-.56,0l.35-1c-.85-.42-.82-.41-.54-1.24a2,2,0,0,0,.12-1.07,1.16,1.16,0,0,1,.31-1.2l1.1-.11a10.39,10.39,0,0,1,1.29-1.17A.67.67,0,0,0,76,5.19a2.05,2.05,0,0,1,2.08-1,7,7,0,0,1,.91.2c.28.12.67.32.73.56a1.09,1.09,0,0,0,.59.77,1.13,1.13,0,0,1,.37.41c.2.36.34.75.82.87.13,0,.22.27.29.44a5.37,5.37,0,0,0,.48,1.29.91.91,0,0,1,0,1.15l0,0,0,0-.46.24.37.48c.14.11.26.3.41.34,1,.24,1.32,1.12,1.84,1.8.13.18,0,.55,0,.84h0v.15l.14.19.08.13.13.31v1.11A1.29,1.29,0,0,1,83.9,16.4Zm-1.38-3.31.12.07.77.95,0,.16.1.58v1.07a.59.59,0,0,0,.76-.48,1.39,1.39,0,0,0-.39-1.51l-.13-.12-.12-.09-1-.67a.09.09,0,0,0-.07,0l-.23-.1-.22-.11-.23-.1-.34-.11-.17-.1,0,.07.2,0,.31.12.23.11.21.12Zm-1.87-.8.2.08,0-.06-.18-.06-.19-.1L79.36,10.8a1.29,1.29,0,0,0,1,1.41ZM78.21,7.46l.14.2.1-.18.88,0,.3.19,0-.27v0c.29-.24.09-.3-.12-.31-.63,0-1.25,0-1.88,0-.42,0-.83-.08-1.28-.12l1,1.06.73-.55Zm-2.36,0h0l.67,2.14h0l.72,1.53.17-.07.14-.49a2.5,2.5,0,0,0-.67-2.67L76,7.25l-.74-1L75,6.68l.79.73A.07.07,0,0,0,75.85,7.48Zm-1.64.45c0-.16.16-.34.12-.46S74.1,7.1,74,7.08a.52.52,0,0,0-.45.29.68.68,0,0,0,.13.53c0,.08.23.08.35.11l.79.26c0,.59.07,1.18.12,1.77.12,1.54.7,2.22,2.14,2.41a1,1,0,0,0-.31-.55,3.23,3.23,0,0,1-1.45-2.49c0-.37-.12-.73-.18-1.09L75.36,8c.13.58.27,1.16.4,1.74a1.79,1.79,0,0,0,.73,1.28c-.2-.76-.4-1.62-.64-2.47a2.06,2.06,0,0,0-1-1.37l0-.46-.5.2C74.38,7.33,74.67,7.67,74.21,7.93Zm6.23-.77-.61.22L81,8.32a3.41,3.41,0,0,0,.43-.41c.08-.09.14-.31.1-.35-.26-.24-.46-.62-.91-.52-.18-.39-.18-.92-.79-.92-.27-.1-.6-.12-.77-.3a1,1,0,0,0-.89-.36c0-.13,0-.26,0-.39,0-.46-.18-.54-.54-.4l0,.78a.14.14,0,0,0-.08,0,.09.09,0,0,0-.1,0c-.42-.28-.51.24-.78.32l-.4,0c.34.53.66,1,1.29.93l.21,0,.65.07Zm-2.11,4.77-.23-1.09-.12,0-.28.78a4.87,4.87,0,0,0-.33,2.48h4.35l0-.13c-.42-.15-.85-.31-1.28-.45A3,3,0,0,1,78.33,11.93ZM78,8h-.37c.14.36.27.66.36,1a1.71,1.71,0,0,0,1.79,1.43l.26.05A1.48,1.48,0,0,0,81.22,12c.44.12.86.34,1.29.5a4.19,4.19,0,0,0,.51.11c0-.16-.06-.32-.07-.47s0-.33,0-.53l-.18.1-.37.24a1.72,1.72,0,0,0-.1-.39c-.06-.13-.15-.25-.23-.39a9.9,9.9,0,0,1-.95-1.71c-.36-1-.67-1.58-1.78-1.48Zm4.83,6.23.09-.14a6.68,6.68,0,0,0-.91-.7,12.91,12.91,0,0,0-1.6-.62,2,2,0,0,1-1.55-1.82,1.73,1.73,0,0,0-.16-.38c-.11.91,0,1.62.73,2.06a5,5,0,0,0,1.12.47,4.19,4.19,0,0,1,2,1A.83.83,0,0,0,82.83,14.18ZM73.49,8.41c0,.59.09.67.87.57l0-.57Zm7.7,4s-.06,0-.09,0,0,0-.06,0,.06,0,.09,0S81.17,12.44,81.19,12.42Z"/><path class="cls-10" d="M71.87,16.28a1.8,1.8,0,0,1-1-2.38A6.35,6.35,0,0,1,72,12.49c.3-.34.63-.64,1-1l.19-.19,0,.74-.49,1.85h-.41l.11-.44.37-.85-.13-.08L72,13a1.77,1.77,0,0,0-.21,2.78,2.5,2.5,0,0,0,.31.34,2,2,0,0,0,.41.2l-.1-.07Z"/><path class="cls-10" d="M72.49,16.36a2,2,0,0,1-.41-.2,2.5,2.5,0,0,1-.31-.34c.39.12.23-.17.24-.33l.48.21.35.22.43.1.74.08v.39l-.56.1Z"/><path class="cls-12" d="M71.87,16.28h0Z"/><path class="cls-16" d="M71.22,6l0,0-.05,0Z"/><path class="cls-10" d="M80.94,20.54a6.35,6.35,0,0,1-.8.28c-.1,0-.23-.11-.35-.18.1-.08.19-.22.29-.24a8,8,0,0,1,.85,0Z"/><path class="cls-10" d="M79.94,20.54c-.27.1-.94,0-.8.28.36.68-5.64.68-3.64-.32.09-.08,3.48-.08,3.58-.1a8,8,0,0,1,.85,0Z"/><path class="cls-10" d="M78.94,20.54a6.35,6.35,0,0,1-.8.28c-.1,0-.23-.11-.35-.18.1-.08.19-.22.29-.24a8,8,0,0,1,.85,0Z"/><path class="cls-14" d="M86.45,15.5l0,.59a.05.05,0,0,1,0,.07L86,15.7Z"/><path class="cls-7" d="M69.26,9.42l0-.06h0Z"/><path class="cls-10" d="M69.33,24.82c-.23.39-.42.74-.64,1.07a.38.38,0,0,1-.36,0c-.11-.07-.27-.27-.24-.33a6.94,6.94,0,0,1,.61-1.06c0-.07.27-.08.37,0S69.24,24.7,69.33,24.82Z"/><path class="cls-10" d="M73.69,11.27l.56.94c0,.4,0,.81,0,1.21,0,.06-.14.11-.22.17v-1H73.9l-.07.2-.38-.24-.33-.51,0-.74a.08.08,0,0,1,0-.08C73.32,11.19,73.51,11,73.69,11.27Z"/><path class="cls-10" d="M80.59,7c.45-.1.65.28.91.52,0,0,0,.26-.1.35a3.41,3.41,0,0,1-.43.41l-1.14-.94.61-.22Z"/><path class="cls-10" d="M78.08,7.43,77.35,8l-1-1.06c.45,0,.86.1,1.28.12.63,0,1.25,0,1.88,0,.21,0,.41.07.12.31l-2.17-.15V7.3Z"/><path class="cls-10" d="M74.89,7.21l.47.82-.27.29c-.12,0-.13-.49-.32-.05L74,8l.23-.08c.46-.26.17-.6.15-1l.5-.2Z"/><path class="cls-10" d="M72.63,13.94l-.07.32-.09.59h0l-.42.2,0-.68,0,.1.08,0c0-.14,0-.28,0-.42s0-.05,0-.06Z"/><path class="cls-3" d="M75.43,16.11h0Z"/><path class="cls-14" d="M79.33,7.5l.32-.08,0,.27Z"/><path class="cls-17" d="M83.45,14.27l.1.58Z"/><path class="cls-14" d="M78.21,7.46l.24,0-.1.18Z"/><path class="cls-17" d="M83.92,13.93l-.13-.12Z"/><path class="cls-16" d="M84.45,13.6v0Z"/><path class="cls-10" d="M72,15.49l0-.45.42-.2,0,.21-.17.1.15.12c0,.15.06.29.08.43Z"/><path class="cls-12" d="M72.41,15.27l-.15-.12.17-.1Z"/><path class="cls-10" d="M72.1,14.36l.1-.36c0,.14,0,.28,0,.42l-.08,0Z"/><text class="cls-18" transform="translate(56.16 44.35)">H. <tspan class="cls-19" x="3.97" y="0">A</tspan><tspan class="cls-20" x="5.93" y="0">YUN</tspan><tspan class="cls-21" x="12.34" y="0">T</tspan><tspan x="13.88" y="0">AMIENTO 2019-2021</tspan></text></svg>