<svg id="Capa_1" data-name="Capa 1" xmlns="http://www.w3.org/2000/svg" viewBox="0 0 155 46"><defs><style>.cls-1{fill:#295f99;}.cls-2{fill:#014681;}.cls-3{fill:#014d88;}.cls-4{fill:#16518e;}.cls-5{fill:#225a95;}.cls-6{fill:#1e5792;}.cls-7{fill:#023f74;}.cls-8{fill:#4b76a9;}.cls-9{fill:#3e6ca2;}.cls-10{fill:#32659d;}.cls-11{fill:#769ec7;}.cls-12{fill:#a9cee8;}.cls-13{fill:#b6d8ee;}.cls-14{fill:#c4e3f4;}.cls-15{fill:#8db6d8;}.cls-16{fill:#81aacf;}.cls-17{fill:#98c1df;}.cls-18{fill:#618ab8;}.cls-19{fill:#5880b1;}.cls-20{fill:#6b93bf;}.cls-21{fill:#d0ecf9;}.cls-22{fill:#fdfdfd;}</style></defs><path class="cls-1" d="M88.52,23.56A9.05,9.05,0,0,0,86.93,19a18.55,18.55,0,0,0-1.66-1.89c-.19-.19-.32-.35-.22-.65.26-.12.67,0,.77-.45l.27.16c-.08.27-.19.53-.25.8a.35.35,0,0,0,.15.26.36.36,0,0,0,.29-.09,3.6,3.6,0,0,0,.37-.41,3.37,3.37,0,0,0,.29.35l1.47,1.41c.18.17.41.3.59.48.35.37.67.77,1,1.13s1,.9,1.45,1.36,1,.94,1.43,1.41c.21.2.43.39.63.59.43.44.85.88,1.28,1.31.11.1.29.13.39.24s.43.56.67.82.35.2.43.34a1.44,1.44,0,0,0,.63.57.92.92,0,0,1,.22.22c.27.3.52.62.81.89a1.34,1.34,0,0,0,.51.18,14.22,14.22,0,0,1-1,3.37l-.12.31a1.87,1.87,0,0,1-.76-.45c-.72-.76-1.5-1.45-2.25-2.17-.13-.12-.22-.28-.35-.4-.5-.46-1-.91-1.5-1.39s-.68-.77-1-1.12-1-.92-1.54-1.4c-.35-.32-.67-.67-1-1C88.8,23.64,88.64,23.62,88.52,23.56Z"/><path class="cls-2" d="M52.44,37a4.57,4.57,0,0,1-6.22,1,6.06,6.06,0,0,1-2.53-3.92A7.21,7.21,0,0,1,45,28.05a4.57,4.57,0,0,1,1.87-1.5.55.55,0,0,1,.44.49c0,.08.09.16.13.24.14.25.3.49.42.75a5.41,5.41,0,0,1,.25.71,6.45,6.45,0,0,0-.8.67,4.56,4.56,0,0,0-1,3.17,4.62,4.62,0,0,0,.84,2.71,2.32,2.32,0,0,0,3.6.48c.2-.2.37-.42.55-.63.15.07.36.1.42.21C51.93,35.9,52.18,36.47,52.44,37Z"/><path class="cls-3" d="M67,30.79V34.9l0,3.67c-.86,0-.86,0-1.24-.72l-.57-1.11-.62.65s-.06-.11-.09-.11c-.24,0-.33-.15-.41-.35a.36.36,0,0,0-.13-.19,1.3,1.3,0,0,1-.43-.79.24.24,0,0,0-.29-.24,4.7,4.7,0,0,0,.35-.43,4.93,4.93,0,0,0,.6-4.45,3.7,3.7,0,0,0-1.05-1.69,2.34,2.34,0,0,0-2.47-.48c-.11-.23-.2-.45-.54-.27a.49.49,0,0,1-.41-.1,1.38,1.38,0,0,1-.17-1.23.67.67,0,0,0,.06-.64A3.8,3.8,0,0,1,62,26.16a4.83,4.83,0,0,1,3.21,2l.36-.64.56-1.06c.29-.27.61-.06,1-.13v4.43Z"/><path class="cls-2" d="M48.07,28.74a5.41,5.41,0,0,0-.25-.71c-.12-.26-.28-.5-.42-.75,0-.08-.12-.16-.13-.24a.55.55,0,0,0-.44-.49,4.37,4.37,0,0,1,4.34.22,6,6,0,0,1,.56.44,1.47,1.47,0,0,0,.25.08c.06,0,.16.07.19.13l1.07,2,1.21,2.33s.07,0,.1.05c0,1.31,0,2.63,0,3.94v2.8a5.87,5.87,0,0,1-.73,0,.46.46,0,0,1-.25-.21c-.3-.53-.58-1.07-.89-1.65l-.26.31c-.26-.56-.51-1.13-.79-1.68-.06-.11-.27-.14-.42-.21a1.17,1.17,0,0,0,.05-.11,5.06,5.06,0,0,0,.35-4.42C51,28.86,49.69,28.19,48.07,28.74Z"/><path class="cls-4" d="M90.51,13.79l-.07.05c-.22-.22-.53-.39-.53-.69-.17-.12-.3-.2-.42-.3s-.2-.3-.33-.33c-.33-.07-.35-.25-.18-.59l-.41.2a1.92,1.92,0,0,0-.16-.35l-1-1-.3-.27L86,9.39c-.14-.13-.28-.24-.41-.38s0-.1,0-.15c.22,0,.3-.14.34-.32l0,0,.39-.1c.07-.23.07-.23-.23-.48a.48.48,0,0,0,.06-.25.56.56,0,0,0-.17-.3c-.05,0-.19,0-.26.08s-.36.33-.52.48l-.46-.28c.57,0,.84-.69,1.43-.46l.49.35c0,.14,0,.41,0,.43a.8.8,0,0,0,.55,0,.5.5,0,0,1,.36,0,1.94,1.94,0,0,0,1,.22c.24-.06.65.19.77-.26l.34.05c.12,0,.27.06.35,0s.3-.06.46,0a19.67,19.67,0,0,1,4.37,4.27,1.33,1.33,0,0,1,.11.3c-.1,0-.2,0-.29,0-.49-.09-.52-.07-.66.46a4.41,4.41,0,0,0-.24-.54.57.57,0,0,0-1,0c0,.07,0,.23.07.33.17.33.38.65.55,1a1.09,1.09,0,0,1,0,.41c-.29-.11-.5-.37-.66-.15a1.65,1.65,0,0,0-.53,0c-.2.1-.14.31-.06.47s.08.38-.2.5c0-.35-.34-.55-.31-.9,0-.06-.06-.13-.1-.19s-.19-.21-.27-.33-.32-.21-.59,0C90.66,13.59,90.51,13.58,90.51,13.79Z"/><path class="cls-5" d="M86.09,16.12,85.82,16c0-.25,0-.5,0-.75s.08-.27.31-.33c.4-.1.92,0,1.14-.54a2.43,2.43,0,0,1,.24.32c.11.2.19.42.28.63l.49-.21c0-.1-.1-.18-.13-.26a2.33,2.33,0,0,1-.07-.25,1.15,1.15,0,0,1,.25.12,3.61,3.61,0,0,0,.62.56c.26.14.26.38.42.62H89c0,.07,0,.12,0,.17-.07.36-.06.37.3.38.07,0,.2.13.19.15-.11.26.08.38.22.52s.43.4.61.61.5.22.9.14l-.5-.54c-.06-.07-.15-.11-.2-.19s0-.12,0-.16a.17.17,0,0,1,.14,0c.14.13.28.26.41.4a5.2,5.2,0,0,1,.38.44c.22.3.59.49.69.9-.12,0-.31.06-.33.13s-.19.21-.35.22-.34.12-.31.38a1.27,1.27,0,0,1,0,.55c-.07.25,0,.32.24.32h1.36c.07.38.12.69.2,1,0,0,.12.09.19.1.36,0,.73-.15,1.09,0v.22c-.13,0-.23.11-.17.26a.73.73,0,0,0,.18.22l.2-.18a.9.9,0,0,1,.26.13c.38.37.75.75,1.13,1.13.82.79,1.63,1.59,2.46,2.38a2,2,0,0,0,.49.28c-.08.58-.15,1.16-.23,1.73,0,.15-.06.3-.08.45A1.34,1.34,0,0,1,98,27.8c-.29-.27-.54-.59-.81-.89a.92.92,0,0,0-.22-.22,1.44,1.44,0,0,1-.63-.57c-.08-.14-.31-.2-.43-.34s-.43-.56-.67-.82-.28-.14-.39-.24c-.43-.43-.85-.87-1.28-1.31-.2-.2-.42-.39-.63-.59-.48-.47-1-.95-1.43-1.41s-1-.89-1.45-1.36-.68-.76-1-1.13c-.18-.18-.41-.31-.59-.48L86.94,17a3.37,3.37,0,0,1-.29-.35c.06-.12.13-.23.18-.36a2.5,2.5,0,0,0,0-.29,1.08,1.08,0,0,0-.35,0A3.66,3.66,0,0,0,86.09,16.12Z"/><path class="cls-6" d="M92.19,18.66c-.1-.41-.47-.6-.69-.9a5.2,5.2,0,0,0-.38-.44c-.13-.14-.27-.27-.41-.4a.17.17,0,0,0-.14,0s-.06.13,0,.16.14.12.2.19l.5.54c-.4.08-.67.13-.9-.14s-.4-.41-.61-.61-.33-.26-.22-.52c0,0-.12-.15-.19-.15-.36,0-.37,0-.3-.38,0-.05,0-.1,0-.17h.34c-.16-.24-.16-.48-.42-.62a3.61,3.61,0,0,1-.62-.56,1.15,1.15,0,0,0-.25-.12,2.33,2.33,0,0,0,.07.25c0,.08.08.16.13.26l-.49.21c-.09-.21-.17-.43-.28-.63a2.43,2.43,0,0,0-.24-.32c0-.08.07-.17.11-.25.12-.26.05-.4-.24-.42v-.11c.09,0,.18-.11.26-.09a1.08,1.08,0,0,0,.94-.35c.23-.21.25-.29,0-.46a1.92,1.92,0,0,1-.17-.13l0-.07a1.17,1.17,0,0,1,.26.1,4.59,4.59,0,0,1,.91,1,.09.09,0,0,1,0,.06c.05.28.08.57.15.84s.14.41.21.41a1,1,0,0,0,.55-.2c.09-.05.1-.21.16-.31a1,1,0,0,1,.21-.28,3.25,3.25,0,0,1,.43-.29l.4.42,0,0c-.16.37.24.53.31.82,0,.11.2.18.31.27a.64.64,0,0,0,0,.28,1,1,0,0,0,.25.29,1.23,1.23,0,0,0,.23.11l-.09.19-.42.07c0-.44-.06-.5-.42-.47,0,.28.23.36.43.46.25,1,.22.95,1.15.94l-.13-.4.21-.18.2.27-.1.52.39-.1.43.21c0,.26-.13.55.27.62,0,0,.06.05.07.09.07.27.28.27.51.27a1.15,1.15,0,0,1,.32.12l-.12,0,2.17,2.27c.08.07.18.13.27.2l.28.2c.21.18.3.52.67.48a18.92,18.92,0,0,1,.07,4.05,2,2,0,0,1-.49-.28c-.83-.79-1.64-1.59-2.46-2.38-.38-.38-.75-.76-1.13-1.13a.9.9,0,0,0-.26-.13c.06-.19.08-.35-.21-.3v-.22l.35-.49A1.3,1.3,0,0,1,95,20.5a.72.72,0,0,0,.31-1,.4.4,0,0,1-.09-.44.35.35,0,0,0-.11-.32.4.4,0,0,0-.33.05,5.74,5.74,0,0,0-.49.4l-.08-.06a3,3,0,0,1,.21-.4c.18-.24.13-.42-.18-.46a1.41,1.41,0,0,0-.44.08l-.21,0a2.84,2.84,0,0,0-.42.08C92.83,18.6,92.56,18.93,92.19,18.66Zm0-1.84H92.1l-.77-.95-.1.06c.2.47.25,1,.76,1.35Zm0,.46-.07.16.89.46.18-.28Zm3.11,4.45.07.08c.59-.13.83-.39.74-.78Zm-5.06-4.81.14-.11c-.08-.09-.15-.19-.23-.27s-.1.06-.15.1Zm-.48-.5.11-.12L89.59,16l-.11.11Zm-2.05-1.94.17-.19L87.54,14l-.08.09Zm8.88,9.08,0-.12-.19,0s0,.07,0,.07Zm.29.14-.11,0,.07.19s.09,0,.09,0A1.21,1.21,0,0,0,96.91,23.7Z"/><path class="cls-2" d="M71.31,31.6c0,.21,0,.43,0,.65,0,2,0,4,0,5.94v.38H68.69V29.92a3,3,0,0,0,0-.43c0-.48,0-1,0-1.44V25l0-.07a1.59,1.59,0,0,1,.29.29c.16.26.27.55.42.82.29.52.61,1,.89,1.56s.53,1.09.8,1.63a1.07,1.07,0,0,0,.18.19l0,1.31Z"/><path class="cls-1" d="M74.57,10.71a4.2,4.2,0,0,0,.21-.66,1.42,1.42,0,0,1,.67-.88c.36-.13.39-.19.21-.54l0-.07.57-.48s.08-.09.07-.13,0-.23-.1-.27-.21-.52-.58-.37a.42.42,0,0,1-.29,0,.57.57,0,0,0-.65.26c-.11.24-.22.47-.33.68l-.7-.18.56-.8c.29.16.37.1.73-.52.14.48.31.55.74.28l.16-.08.24.12c.1,0,.24.06.29.14a1.23,1.23,0,0,1,.07.39c.34,0,.34.06.69.38a4.48,4.48,0,0,1,1.36,1.51.11.11,0,0,0,.08,0c.36,0,.42.21.43.42a2.32,2.32,0,0,1,.39.2,7.41,7.41,0,0,1,.58.54c.22.22.58.35.53.74l.62.24a1.2,1.2,0,0,0,1.33,1.47c.15,0,.33.11.49.18s.11.29.1.47a1.62,1.62,0,0,0,.11.65.62.62,0,0,1-.15.76,1.07,1.07,0,0,0-.15.21l-3.37-.72a1.93,1.93,0,0,0-.12-.41.81.81,0,0,1,0-.76c.16-.35-.09-.65-.32-.91s-.48-.18-.72-.14l-.78-.12c-.13-.3-.23-.35-.59-.18a1.1,1.1,0,0,1-.87.06,1.89,1.89,0,0,0-.83-.94.6.6,0,0,1-.3-.17A2.7,2.7,0,0,1,74.57,10.71Zm1.5-1.94.12.13.34-.25-.17-.21Z"/><path class="cls-5" d="M81.08,11.66l-.62-.24c.05-.39-.31-.52-.53-.74a7.41,7.41,0,0,0-.58-.54,2.32,2.32,0,0,0-.39-.2c0-.21-.07-.46-.43-.42a.11.11,0,0,1-.08,0A4.48,4.48,0,0,0,77.09,8c-.35-.32-.35-.33-.69-.38a1.23,1.23,0,0,0-.07-.39c0-.08-.19-.09-.29-.14l-.24-.12,0-.07c.19,0,.2-.1.13-.24a.72.72,0,0,0-.7-.68c-.23,0-.45,0-.68.06l-.16-.23h-.08l0,.34-.08,0a1.79,1.79,0,0,0-.12-.24A.27.27,0,0,0,74,5.8a.9.9,0,0,1-.59-.5l.73-.23a.88.88,0,0,1,.16,0c.14.45.27.56.63.49a1.09,1.09,0,0,0,.31-.18,1,1,0,0,1,1.1.16,3.37,3.37,0,0,0-.12.53.53.53,0,0,0,.69.49.3.3,0,0,0,.15-.21.52.52,0,0,1,.57-.52c.07,0,.18-.06.2-.11s.15-.3.38-.26c0,0,.09-.13.09-.21a1.1,1.1,0,0,0,0-.31l.44-.07A.5.5,0,0,0,78.8,5l1.89,1.77L82.6,8.53a2.47,2.47,0,0,1,.31.46l-.15.27c-.1.2-.18.41,0,.6a.77.77,0,0,0,.75,0,1.31,1.31,0,0,1,.28-.2c.16-.06.35-.12.4.15,0,.05.08.09.12.14l.24.31.14.18c.06-.06.16-.1.19-.17a3.56,3.56,0,0,0,.15-.46,2.73,2.73,0,0,0,.09.42,1.65,1.65,0,0,0,.15.25l.24-.16.08-.1a2.1,2.1,0,0,0,.23.5,2.67,2.67,0,0,0,.46.32l-.16.19-.06,0a2.48,2.48,0,0,1-.61-.23c-.2-.14-.34-.27-.6-.12a.39.39,0,0,1-.57-.36c0-.08-.07-.2-.13-.22a1.25,1.25,0,0,0-.93-.12.48.48,0,0,1-.35,0c-.24-.09-.38,0-.4.25h-.35a.85.85,0,0,0-.9.78A3.56,3.56,0,0,1,81.08,11.66ZM78.61,5.81l0-.1H78l0,.07c.07.07.16.2.22.19A1.46,1.46,0,0,0,78.61,5.81Z"/><path class="cls-7" d="M62,38.76a4.15,4.15,0,0,1-3-.51,5.83,5.83,0,0,1-2.76-3.62,7.4,7.4,0,0,1,.56-5.7c.12-.22.28-.43.42-.64a4.11,4.11,0,0,1,0,.78c0,.29-.22.57-.29.86a1.38,1.38,0,0,0,.28,1.28,6.07,6.07,0,0,0,.81.63.49.49,0,0,0,.17.06l0-.1.53-.26c0,.3-.09.6-.09.9a4.82,4.82,0,0,0,.83,2.8,2.48,2.48,0,0,0,2.27,1.18,1,1,0,0,0-.07.28C61.81,37.39,61.92,38.07,62,38.76Z"/><path class="cls-8" d="M69.06,8.73a.71.71,0,0,1-.17.53.54.54,0,0,0-.06.49c.09.17.52.08.63-.09a.59.59,0,0,1,.59-.32,3.74,3.74,0,0,0,.55-.05,6.94,6.94,0,0,1,.17,1c0,.28-.12.56-.13.84a.89.89,0,0,0,.49.82,3.53,3.53,0,0,1,.81.87.86.86,0,0,0,.83.4,3.79,3.79,0,0,1,1.06,0,2.9,2.9,0,0,1,.73.42.7.7,0,0,0,.15,1.06.69.69,0,0,0,.36.09,1.26,1.26,0,0,0,.33-.05c.57-.09.71.05.63.53l-2.58,1.47c-.73-.75-1.45-1.5-2.19-2.23-.91-.91-1.85-1.81-2.77-2.72-.14-.13-.27-.28-.41-.41-.5-.49-1-1-1.51-1.46a3.77,3.77,0,0,1-.37-.52l2-1.54A1.9,1.9,0,0,0,69.06,8.73Z"/><path class="cls-9" d="M96.25,33.88l-1.14,1.77a6.8,6.8,0,0,1-.6-.46c-.58-.58-1.13-1.19-1.71-1.76s-1.34-1.25-2-1.89-1.13-1.12-1.69-1.68c-.26-.25-.54-.48-.79-.73s-.51-.54-.76-.81l.76-2.2a.67.67,0,0,1,.26.1l2.11,2.08,1.67,1.64c.31.3.65.58,1,.89.55.57,1.07,1.15,1.61,1.71S95.81,33.44,96.25,33.88Z"/><path class="cls-10" d="M96.25,33.88c-.44-.44-.89-.88-1.33-1.34s-1.06-1.14-1.61-1.71c-.3-.31-.64-.59-1-.89L90.69,28.3l-2.11-2.08a.67.67,0,0,0-.26-.1l.2-2.56c.12.06.28.08.37.17.35.33.67.68,1,1,.5.48,1,.92,1.54,1.4s.68.76,1,1.12,1,.93,1.5,1.39c.13.12.22.28.35.4.75.72,1.53,1.41,2.25,2.17a1.87,1.87,0,0,0,.76.45l-.9,1.85Z"/><path class="cls-2" d="M54.55,31.85s-.09,0-.1-.05l-1.21-2.33-1.07-2c0-.06-.13-.09-.19-.13V20.34h2.56a2.08,2.08,0,0,1,0,.23V31.66A1.23,1.23,0,0,1,54.55,31.85Z"/><path class="cls-4" d="M92.63,16a1.23,1.23,0,0,1-.23-.11,1,1,0,0,1-.25-.29.64.64,0,0,1,0-.28c.4-.14.49-.29.45-.73l.08-.06s0,0,0,0l.11,0,.27-.24h0c.17,0,.38.12.5.05a.42.42,0,0,0,.14-.58c-.17-.4-.37-.79-.57-1.2.25-.2.35-.18.5.15.07.14.1.3.18.43a1.8,1.8,0,0,0,.26.3,2,2,0,0,0,.2-.31,1.69,1.69,0,0,0,.11-.32h.9a18.25,18.25,0,0,1,2.41,4.74c.19.62.37,1.24.55,1.86,0,0,0,0,0,.05l0,.25,0,.07.09.5a.08.08,0,0,0,0,.05l.22,1.38c-.37,0-.46-.3-.67-.48l-.28-.2c-.09-.07-.19-.13-.27-.2L95.33,18.6l.12,0c.1.05.26.18.3.15a.64.64,0,0,0,.19-.33.51.51,0,0,0-.09-.31c-.24-.28-.41-.65-.88-.59-.07,0-.16-.08-.23-.14-.26-.24-.33-.22-.46.12l-.43-.21c.08-.26,0-.39-.29-.42l-.2-.27A.9.9,0,0,0,92.63,16Zm1.12-.08v0c.16-.27,0-.42-.11-.46l-.27-.48c-.06.06-.16.11-.18.18-.07.24.09.3.21.28l.22.48v.05c-.25.19-.09.36.06.5s.23,0,.25-.07S94,15.94,93.75,15.88Zm.93-1.09.26-.14c.12-.05.34-.08.35-.14,0-.23.14-.5-.06-.63-.25.2-.45.38-.66.53s-.28.25,0,.43c-.28,0-.34.13-.25.38.31,0,.31-.17.25-.39l.16,0h0Z"/><path class="cls-11" d="M82.71,32.83l1.81-1a1.61,1.61,0,0,0,.21.3L86.64,34c.87.86,1.73,1.73,2.6,2.6.48.47,1,.92,1.45,1.38s.81.74,1.21,1.11l-1.64,1.25a2.75,2.75,0,0,0-.22-.26L87,37l-2.66-2.65-1-1Z"/><path class="cls-2" d="M75.44,31.35V28.94l-.64,0c-.12-.28-.24-.56-.38-.83-.28-.58-.57-1.14-.86-1.71h1.88V25.12a1.68,1.68,0,0,1,.27.26c.66,1.29,1.31,2.57,2,3.86,0,.1.19.16.29.24,0,1.21,0,2.42,0,3.63,0,.12,0,.24,0,.36v.81l0,1.62c-.1-.14-.2-.27-.29-.41s-.12-.31-.2-.45c-.36-.67-.74-1.33-1.1-2-.25-.48-.48-1-.74-1.45C75.64,31.49,75.52,31.43,75.44,31.35Z"/><path class="cls-12" d="M78.05,34.28v-.81l1.12.05a16.82,16.82,0,0,0,2.71,3.57c.5.43,1,.9,1.43,1.36l2.12,2,1.68,1.59-1.7.67c-.13-.13-.28-.24-.41-.37-.45-.45-.9-.91-1.36-1.36-.26-.26-.54-.5-.8-.76s-.74-.77-1.11-1.15-.77-.8-1.12-1.24-.66-.91-1-1.39-.73-1.19-1.12-1.77A3.12,3.12,0,0,0,78.05,34.28Z"/><path class="cls-2" d="M71.28,29.42a1.07,1.07,0,0,1-.18-.19c-.27-.54-.52-1.1-.8-1.63s-.6-1-.89-1.56c-.15-.27-.26-.56-.42-.82a1.59,1.59,0,0,0-.29-.29l0-1.12V20.45c.06,0,.13-.12.2-.12l1.44-.06.32,0h.62v.41q0,4.07,0,8.11a4.75,4.75,0,0,0,0,.53Z"/><path class="cls-13" d="M78.05,34.28a3.12,3.12,0,0,1,.45.44c.39.58.74,1.19,1.12,1.77s.63.95,1,1.39.74.83,1.12,1.24.73.77,1.11,1.15.54.5.8.76c.46.45.91.91,1.36,1.36.13.13.28.24.41.37l-2.12.55c-.23-.23-.45-.48-.68-.71l-1.86-1.79a2.27,2.27,0,0,1-.26-.35c-.33-.52-.63-1.06-1-1.57s-.7-.92-1.06-1.37a3.64,3.64,0,0,0-.4-.38l0-1.24Z"/><path class="cls-6" d="M85.58,8.86c0,.05,0,.13,0,.15s.27.25.41.38l1.2,1.1.3.27,1,1a1.92,1.92,0,0,1,.16.35l.41-.2c-.17.34-.15.52.18.59.13,0,.22.23.33.33s.25.18.42.3c0,.3.31.47.53.69-.08.14-.15.28-.24.41l-.28.42-.08-.05c-.07-.31-.13-.62-.2-.93a1.16,1.16,0,0,0-.13-.37,2.66,2.66,0,0,0-.76-.84,1.46,1.46,0,0,0-.21-.16c-.2-.12-.45-.21-.58,0s0,.38.1.57a.51.51,0,0,1-.62.31c-.08,0-.18,0-.27,0s-.25,0-.3-.08-.25-.21-.13-.42a1,1,0,0,0-.6-1.18.46.46,0,0,0-.37.18.42.42,0,0,0,0,.41c.25.21.19.38,0,.6s-.16.39.15.48.28.15.26.33.14.39.41.39h.43c-.11.45-.2.52-.65.5a.88.88,0,0,0-.23.07,3.45,3.45,0,0,1-1.66-1.17c-.12-.1-.27-.17-.38-.28s-.43-.52-.67-.76c-.53-.52-1.08-1-1.63-1.54a1,1,0,0,1,.26-.17,2.1,2.1,0,0,0,.66-.18c.29-.16.74,0,1.13,0,0,0,.08.07.1.12s.11.43.22.46c.27.08.58.22.81,0,.32.15.61.31.92.42s.68-.3.6-.58a.3.3,0,0,0-.22-.15.52.52,0,0,1-.44-.49c0-.44,0-.44-.45-.26l-.08,0c-.08-.21-.14-.42-.23-.62s-.14-.1-.22-.15a1,1,0,0,0-.13.22c0,.12,0,.25-.06.44l-.35-.39a.64.64,0,0,0-.9,0,.47.47,0,0,1-.6.07L83,9.28c.57.13.66.06.68-.53,0-.18.33-.32.54-.16s.41.07.58-.17c.07.16.12.29.17.42s.18.19.34.07S85.5,8.87,85.58,8.86Z"/><path class="cls-14" d="M68.66,26.43v1.62a.52.52,0,0,1-.18,0l-1.26-.57s-.07,0-.14,0v1l0,.94V26.36c-.34.07-.66-.14-1,.13-.1-.1-.21-.19-.3-.3-.29-.32-.56-.67-1.06-.64a.24.24,0,0,1-.12,0l-1.14-.74a13.42,13.42,0,0,0-1.28-.84,6.89,6.89,0,0,1-2.24-1.5,1.76,1.76,0,0,0-.34-.25c.11-.67.21-1.35.31-2a.53.53,0,0,1,.06-.1,2.85,2.85,0,0,1,.32.27c.24.25.46.52.7.76.46.48.94.94,1.42,1.4a1.37,1.37,0,0,0,.24.18c.26.15.53.29.78.45l3,1.93c.47.31,1,.61,1.43.91Z"/><path class="cls-8" d="M87.56,28.32c.25.27.5.55.76.81s.53.48.79.73c.56.56,1.12,1.13,1.69,1.68s1.34,1.25,2,1.89,1.13,1.18,1.71,1.76a6.8,6.8,0,0,0,.6.46l-1,1.2c-.14-.13-.29-.25-.42-.38l-4-3.95c-.62-.61-1.23-1.24-1.85-1.85l-1.09-1.06Z"/><path class="cls-15" d="M68.68,20.45c0,.75,0,1.49,0,2.24a1.28,1.28,0,0,1-.28-.16L66.85,21l-2-1.94c-.58-.57-1.14-1.14-1.72-1.72L61.68,15.9a1.31,1.31,0,0,0-.27-.19l.75-1.43a1.42,1.42,0,0,1,.23.14l3.2,3.14c.78.77,1.55,1.56,2.33,2.32A7.17,7.17,0,0,0,68.68,20.45Z"/><path class="cls-2" d="M76.35,22a3.35,3.35,0,0,1,2.72-1.62,6.12,6.12,0,0,1,3.08.62.33.33,0,0,1,.22.45c-.15.57-.27,1.15-.41,1.72a12.25,12.25,0,0,0-1.42-.35,1.93,1.93,0,0,0-2.49,1.81l-.06.34c-.12-.21-.26-.41-.38-.62Z"/><path class="cls-15" d="M80.22,33.47l1.5-.31c.17.18.34.37.52.55l1.64,1.64,4,3.9c.3.3.58.62.87.93l.67.72-1.19.68A1.67,1.67,0,0,0,88,41.3c-1.08-1.09-2.17-2.19-3.27-3.27l-1.93-1.87c-.6-.59-1.22-1.16-1.81-1.75C80.73,34.12,80.49,33.78,80.22,33.47Z"/><path class="cls-16" d="M68.68,20.45a7.17,7.17,0,0,1-.76-.57c-.78-.76-1.55-1.55-2.33-2.32l-3.2-3.14a1.42,1.42,0,0,0-.23-.14c.28-.44.56-.88.85-1.32.05,0,.12.08.17.13l2.65,2.59L69,18.84c.37.37.77.72,1.14,1.09a1.38,1.38,0,0,1,.18.34l-1.44.06C68.81,20.33,68.74,20.41,68.68,20.45Z"/><path class="cls-17" d="M80.22,33.47c.27.31.51.65.79.94.59.59,1.21,1.16,1.81,1.75L84.75,38c1.1,1.08,2.19,2.18,3.27,3.27a1.67,1.67,0,0,1,.18.28l-1.1.51L85.42,40.5l-2.12-2c-.47-.46-.93-.93-1.43-1.36a16.82,16.82,0,0,1-2.71-3.57Z"/><path class="cls-18" d="M72.63,17.36l-.87,1c-.08-.09-.15-.19-.24-.28L66.39,13c-.59-.58-1.2-1.16-1.81-1.74,0,0-.1-.07-.15-.11l.93-1a2.83,2.83,0,0,1,.28.2c.51.52,1,1.05,1.54,1.57L69,13.7,72.42,17A1.77,1.77,0,0,1,72.63,17.36Z"/><path class="cls-2" d="M76.35,22l1.26,2.35c.12.21.26.41.38.62v1.43h.74c.08.21.14.43.24.63.3.64.63,1.27.94,1.91H78l0,.57c-.1-.08-.24-.14-.29-.24-.67-1.29-1.32-2.57-2-3.86a1.68,1.68,0,0,0-.27-.26,5.67,5.67,0,0,1,.71-2.88A1.71,1.71,0,0,1,76.35,22Z"/><path class="cls-17" d="M61.41,15.71a1.31,1.31,0,0,1,.27.19l1.45,1.44c.58.58,1.14,1.15,1.72,1.72l2,1.94,1.54,1.53a1.28,1.28,0,0,0,.28.16v1.12c-.34-.17-.68-.34-1-.52a9.57,9.57,0,0,1-2.18-1.67l-2.21-2.2c-.13-.13-.28-.24-.41-.37l-2-2Z"/><path class="cls-13" d="M68.66,26.43,67.84,26c-.48-.3-1-.6-1.43-.91l-3-1.93c-.25-.16-.52-.3-.78-.45a1.37,1.37,0,0,1-.24-.18c-.48-.46-1-.92-1.42-1.4-.24-.24-.46-.51-.7-.76a2.85,2.85,0,0,0-.32-.27c.12-.5.25-1,.37-1.49a.86.86,0,0,1,.23.13l1.63,1.57,2,2a1.43,1.43,0,0,0,.23.2l3.75,2.35a2.16,2.16,0,0,0,.45.15Z"/><path class="cls-11" d="M70.32,20.27a1.38,1.38,0,0,0-.18-.34c-.37-.37-.77-.72-1.14-1.09l-3.17-3.16-2.65-2.59c0-.05-.12-.08-.17-.13l.74-1c.37.33.74.65,1.1,1s.58.64.89.94.88.79,1.3,1.19c.27.25.51.52.77.77.45.46.89.91,1.35,1.36s.75.71,1.13,1.06l.92.87-.57,1.16Z"/><path class="cls-12" d="M68.66,25a2.16,2.16,0,0,1-.45-.15L64.46,22.5a1.43,1.43,0,0,1-.23-.2l-2-2-1.63-1.57a.86.86,0,0,0-.23-.13c.17-.5.33-1,.5-1.5l2,2c.13.13.28.24.41.37l2.21,2.2a9.57,9.57,0,0,0,2.18,1.67c.33.18.67.35,1,.52l0,1.12Z"/><path class="cls-2" d="M78,35.9l0,1.24c0,.4,0,.8,0,1.2a1.15,1.15,0,0,1-.11.29H76.37l-1-.06V32.65l0-1.3c.08.08.2.14.25.24.26.48.49,1,.74,1.45.36.67.74,1.33,1.1,2,.08.14.12.3.2.45S77.92,35.76,78,35.9Z"/><path class="cls-19" d="M86.77,29.61l1.09,1.06c.62.61,1.23,1.24,1.85,1.85l4,3.95c.13.13.28.25.42.38l-.8.91a.48.48,0,0,1-.16-.08l-3.3-3.24c-.31-.3-.61-.61-.92-.92l-3-2.93Z"/><path class="cls-4" d="M81,4.57c.69.09,1.38.15,2.06.28a20.19,20.19,0,0,1,2.17.53,18.47,18.47,0,0,1,4.67,2.2.44.44,0,0,1,.2.22,1.45,1.45,0,0,1-.57-.14c-.31-.26-.3,0-.36.17a.79.79,0,0,0,0,.09,1.57,1.57,0,0,0-.25-.14c-.06,0-.17,0-.19,0-.35.38-.67.13-1-.06s-.3-.17-.46,0-.18.08-.33.14A2.55,2.55,0,0,1,87,7.6c.11-.22,0-.35-.19-.37s-.26,0-.29-.2-.16-.14-.25-.15a1.27,1.27,0,0,0-1,.25c-.13.1-.32.14-.46.23s-.23.21-.34.31l-.71,0-.24-.36-.21.29-.21-.25.32-.13A1.48,1.48,0,0,0,83.31,7a6.64,6.64,0,0,0-.57-.62c-.54-.51-1.1-1-1.65-1.51C81,4.79,81,4.67,81,4.57ZM86.4,6.45V6.29l-1-.1-.08.06c.06.12.13.34.19.33A6.49,6.49,0,0,0,86.4,6.45Zm1.37.92v.09c.12,0,.31.14.35.09a1.89,1.89,0,0,0,.28-.45L88.33,7Z"/><path class="cls-10" d="M73.9,7.18a5.71,5.71,0,0,0-.45.68c-.14.31,0,.48.34.52.11,0,.21.12.32.19l.24.15c.05-.08.1-.16.14-.24a1.57,1.57,0,0,1,.09-.23c.08-.17.2-.32.27-.5s.16-.26.38-.16a1.22,1.22,0,0,0,.47,0L76,8a1.38,1.38,0,0,1-.36.23c-.4.12-.44.19-.22.56,0,0,0,.07,0,0-.29.3-.55.56-.79.85a.47.47,0,0,0-.12.34.65.65,0,0,1-.39.7c-.11.07-.14.27-.18.35l-1,.29a1.09,1.09,0,0,0-.11-.27c-.15-.16-.34-.28-.48-.43-.42-.45-.83-.9-1.25-1.34a.89.89,0,0,0-.29-.15L70.69,9l-.24-.36-.33-.49s.06-.08.09-.09c.36-.07.72-.13,1.07-.21a1.42,1.42,0,0,0,.52-.21.94.94,0,0,1,.7-.18,1.56,1.56,0,0,0,.41-.11l-.21-.45.4-.1c0,.18,0,.34.06.4s.22,0,.33,0,.2,0,.3-.06Z"/><path class="cls-18" d="M86,30.59l3,2.93c.31.31.61.62.92.92l3.3,3.24a.48.48,0,0,0,.16.08l-.76.71c-.15-.12-.31-.22-.44-.34l-2.68-2.62-1.71-1.7-2.4-2.34a1.18,1.18,0,0,0-.18-.13Z"/><path class="cls-20" d="M71.21,19.15l-.92-.87c-.38-.35-.76-.7-1.13-1.06s-.9-.9-1.35-1.36c-.26-.25-.5-.52-.77-.77-.42-.4-.87-.78-1.3-1.19s-.58-.64-.89-.94-.73-.67-1.1-1l.68-.81s.11.07.15.11c.61.58,1.22,1.16,1.81,1.74l5.13,5.07c.09.09.16.19.24.28Z"/><path class="cls-19" d="M72.63,17.36a1.77,1.77,0,0,0-.21-.32L69,13.7l-1.84-1.78c-.52-.52-1-1.05-1.54-1.57a2.83,2.83,0,0,0-.28-.2l.84-.81a3.77,3.77,0,0,0,.37.52c.49.49,1,1,1.51,1.46.14.13.27.28.41.41.92.91,1.86,1.81,2.77,2.72.74.73,1.46,1.48,2.19,2.23Z"/><path class="cls-16" d="M89.39,40.9l-.67-.72c-.29-.31-.57-.63-.87-.93l-4-3.9-1.64-1.64c-.18-.18-.35-.37-.52-.55l1-.33.59.59,1,1L87,37l3.09,3a2.75,2.75,0,0,1,.22.26Z"/><path class="cls-2" d="M58.77,31.54l-.53.26,0,.1a.49.49,0,0,1-.17-.06,6.07,6.07,0,0,1-.81-.63A1.38,1.38,0,0,1,57,29.93c.07-.29.24-.57.29-.86a4.11,4.11,0,0,0,0-.78,4.48,4.48,0,0,1,2.06-1.74l.27-.13a.67.67,0,0,1-.06.64,1.38,1.38,0,0,0,.17,1.23.49.49,0,0,0,.41.1c.34-.18.43,0,.54.27a4,4,0,0,0-.89.66A4.42,4.42,0,0,0,58.77,31.54Z"/><path class="cls-21" d="M59.6,22.19a1.76,1.76,0,0,1,.34.25,6.89,6.89,0,0,0,2.24,1.5,13.42,13.42,0,0,1,1.28.84l1.14.74a.24.24,0,0,0,.12,0c.5,0,.77.32,1.06.64.09.11.2.2.3.3l-.56,1.06-3.29-2c-.82-.48-1.64-1-2.47-1.43a.41.41,0,0,1-.23-.42C59.57,23.2,59.58,22.69,59.6,22.19Z"/><path class="cls-1" d="M81.88,10.78c.55.51,1.1,1,1.63,1.54.24.24.44.52.67.76s.26.18.38.28a3.45,3.45,0,0,0,1.66,1.17s-.08.09-.13.1c-.36,0-.49.16-.52.52a4.17,4.17,0,0,0,0,.5c0,.26-.06.42-.37.45s-.43.11-.45.49l-1.73-1a1.82,1.82,0,0,1,.21-.3.76.76,0,0,0,.15-.81,1,1,0,0,1,0-.92.23.23,0,0,0,0-.2c-.27-.25-.51-.55-.95-.48a.92.92,0,0,1-1-1.21c.06-.2.13-.39.18-.59A.31.31,0,0,1,81.88,10.78Z"/><path class="cls-20" d="M85.18,31.34a1.18,1.18,0,0,1,.18.13l2.4,2.34,1.71,1.7,2.68,2.62c.13.12.29.22.44.34l-.69.62c-.4-.37-.81-.73-1.21-1.11s-1-.91-1.45-1.38c-.87-.87-1.73-1.74-2.6-2.6l-1.91-1.86a1.61,1.61,0,0,1-.21-.3Z"/><path class="cls-14" d="M77.92,38.63a1.15,1.15,0,0,0,.11-.29c0-.4,0-.8,0-1.2a3.64,3.64,0,0,1,.4.38c.36.45.73.9,1.06,1.37s.65,1,1,1.57a2.27,2.27,0,0,0,.26.35L82.6,42.6c.23.23.45.48.68.71l-1.87.32L80.75,43a9.25,9.25,0,0,1-1.46-2.11c-.31-.46-.59-.94-.88-1.42C78.24,39.19,78.08,38.91,77.92,38.63Z"/><path class="cls-6" d="M83.79,7.69l.71,0V7.8c-.17.06-.23.13-.06.27a1.7,1.7,0,0,1,.15.22s-.09.1-.12.09a3,3,0,0,0-.64-.13,1.72,1.72,0,0,0-.55.25,1.78,1.78,0,0,1,.12.24,1.53,1.53,0,0,1,0,.3h-.15l-.37,0a2.47,2.47,0,0,0-.31-.46L80.69,6.74,78.8,5a.5.5,0,0,1-.08-.12l.09-.45c.38,0,.75.07,1.13.09.19,0,.39,0,.59,0a3.43,3.43,0,0,1,.44.09c0,.1,0,.22.12.29.55.51,1.11,1,1.65,1.51a6.64,6.64,0,0,1,.57.62,1.48,1.48,0,0,1,.14.25l-.32.13.21.25-.16.5C83.71,8.24,83.79,8.18,83.79,7.69Z"/><path class="cls-21" d="M77.92,38.63c.16.28.32.56.49.84.29.48.57,1,.88,1.42A9.25,9.25,0,0,0,80.75,43l.66.63c-.32,0-.65.09-1,.11s-.58,0-.87,0-.29,0-.37-.26a5.35,5.35,0,0,0-.54-1c-.36-.59-.74-1.17-1.1-1.77-.14-.23-.22-.49-.35-.72S77,39.82,77,39.7c-.21-.36-.4-.72-.59-1.08Z"/><path class="cls-10" d="M74.87,13c.11-.43.49-.44.81-.48.48-.06,1,0,1.48-.06,0,.26.2.35.52.21.07,0,.17,0,.26,0a3,3,0,0,0,.43.07c.15,0,.38,0,.43,0s.28.48.21.64a1,1,0,0,0,.07.94c.15.31.09.37-.26.41-.67.08-1.35.19-2,.28-.14-.17-.27-.35-.43-.51L74.91,13.1S74.88,13,74.87,13Z"/><path class="cls-10" d="M69.06,8.73a1.9,1.9,0,0,1-.86-.93c.86-.5,1.69-1,2.58-1.48s1.76-.69,2.65-1a.9.9,0,0,0,.59.5.27.27,0,0,1,.15.13,1.79,1.79,0,0,1,.12.24l-.13.39c-.1,0-.3-.14-.39-.08s-.12.29-.19.5c-.24-.57-.7-.43-1.1-.37a.53.53,0,0,0-.33.31c0,.07.16.21.19.25l-.94.32-1.07.3a1,1,0,0,0-.38.13c-.25.2-.6.31-.68.69C69.26,8.66,69.14,8.69,69.06,8.73Z"/><path class="cls-9" d="M74.87,13s0,.09,0,.12l1.46,1.46c.16.16.29.34.43.51l-.47.15c-.1-.77-.32-.93-1.09-.78-.25.05-.47,0-.56-.23a1.23,1.23,0,0,1,0-.38,1,1,0,0,0,0-.39,1.82,1.82,0,0,0-1-.52,4.38,4.38,0,0,1-.5,0,1.19,1.19,0,0,0-.33,0c-.33.11-.49,0-.69-.29a2.61,2.61,0,0,0-1-1A.92.92,0,0,1,71,10.51c.11-.22.27-.39,0-.68s-.08-.47-.11-.72a.89.89,0,0,1,.29.15c.42.44.83.89,1.25,1.34.14.15.33.27.48.43a1.09,1.09,0,0,1,.11.27c-.45.32-.56.53-.46.88s.5.6.89.28l.14-.12.63.56A.49.49,0,0,0,74.87,13Z"/><path class="cls-14" d="M75.41,32.65c0,.77,0,1.54,0,2.31a.68.68,0,0,1-.21-.1c-.53-.62-1-1.26-1.58-1.86s-1.4-1.45-2.11-2.18a.84.84,0,0,0-.19-.09l0-1.31,0-.06c.42.5.83,1,1.29,1.49a8,8,0,0,0,2.5,1.74A1.45,1.45,0,0,0,75.41,32.65Z"/><path class="cls-21" d="M71.31,30.73a.84.84,0,0,1,.19.09c.71.73,1.43,1.44,2.11,2.18s1,1.24,1.58,1.86a.68.68,0,0,0,.21.1v2.12c-.11-.27-.35-.47-.45-.72A5.12,5.12,0,0,0,74.09,35c-.29-.38-.61-.73-.92-1.09,0,0,0,0,0,0,0-.71-.74-.91-1-1.43a6.24,6.24,0,0,0-.64-.82s-.11-.05-.18-.08Z"/><path class="cls-2" d="M62,38.76c-.11-.69-.22-1.37-.32-2.06a1,1,0,0,1,.07-.28,2.59,2.59,0,0,0,1.45-.71.24.24,0,0,1,.29.24,1.3,1.3,0,0,0,.43.79.36.36,0,0,1,.13.19c.08.2.17.36.41.35,0,0,.06.07.09.11a4.54,4.54,0,0,1-2.37,1.36Z"/><path class="cls-2" d="M73.56,26.37c.29.57.58,1.13.86,1.71.14.27.26.55.38.83H72.58V26.37Z"/><path class="cls-2" d="M79.91,28.91c-.31-.64-.64-1.27-.94-1.91-.1-.2-.16-.42-.24-.63h2.48l-.59,2.54Z"/><path class="cls-9" d="M74.57,10.71a2.7,2.7,0,0,0,.29.4.6.6,0,0,0,.3.17,1.89,1.89,0,0,1,.83.94,7.11,7.11,0,0,0-.94.19,2.7,2.7,0,0,0-.54.39,3.4,3.4,0,0,1-.48-.43c-.27-.3-.47-.34-.77-.12a.6.6,0,0,1-.3.1,1.1,1.1,0,0,1-.16-.47c0-.07.1-.18.18-.23a4.56,4.56,0,0,1,.67-.32c.09,0,.22.09.33.13s.17.06.22,0a.24.24,0,0,0,.07-.21A.41.41,0,0,1,74.57,10.71Zm0,.9-.28.29c.09.07.18.2.27.19s.17-.14.21-.24S74.65,11.72,74.55,11.61Z"/><path class="cls-1" d="M74.57,5a17.56,17.56,0,0,1,4-.5c-.23.19-.65.22-.52.61l-.36.39s-.07.08-.11.09a.74.74,0,0,0-.74.74c-.29-.07-.32-.24-.24-.47.15-.44.08-.56-.35-.71a1.57,1.57,0,0,0-1.15,0l-.1,0c-.09,0-.22.13-.26.1S74.62,5.1,74.57,5Z"/><path class="cls-5" d="M59.57,14.94l1-.24-1.38-1.83,2.43.24c-.15.1-.23.2-.31.2-.67,0-.67,0-1,.69l.26.34a.38.38,0,0,1-.22.64l-1.12.26c.31.15.56.25.79.38.06,0,.08.15.13.22l-.08.05L58.23,15c.08-.16.14-.31.21-.46.19-.39.4-.5.73-.39s.41.29.34.72l0,0Zm-.34.28a3,3,0,0,0,.07-.68c0-.09-.31-.22-.38-.17a2,2,0,0,0-.46.49Zm1-1.39.35-.62-.87-.08Z"/><path class="cls-21" d="M67.08,28.48v-1c.07,0,.11,0,.14,0l1.26.57a.52.52,0,0,0,.18,0c0,.48,0,1,0,1.44Z"/><path class="cls-5" d="M95.11,10.51a1.09,1.09,0,0,1,1.08-1.09,1.18,1.18,0,0,1,1.16,1.14,1.11,1.11,0,0,1-1.11,1.11A1.15,1.15,0,0,1,95.11,10.51Zm1.12-.84a.88.88,0,0,0-.89.88.89.89,0,1,0,.89-.88Z"/><path class="cls-5" d="M78.13,1.25a1.1,1.1,0,0,1,1.13,1.12,1.13,1.13,0,1,1-1.13-1.12Zm0,2a.89.89,0,0,0,.9-.88.89.89,0,1,0-1.78,0A.9.9,0,0,0,78.12,3.25Z"/><path class="cls-5" d="M67.78,6.8,66.67,5c.51-.24.92-.74,1.55-.44a1.12,1.12,0,0,1,.66,1C68.9,6.32,68.24,6.46,67.78,6.8Zm.09-.31c.33-.25.77-.35.77-.84a.93.93,0,0,0-.52-.89c-.44-.24-.76.09-1.12.29Z"/><path class="cls-6" d="M85.7,4.48l-1-2L84.22,4h-.09c0-.07-.09-.15-.08-.21.18-.64.36-1.27.56-1.94l1,2,.45-1.55.08,0c0,.08.1.16.09.23C86.09,3.16,85.9,3.78,85.7,4.48Z"/><path class="cls-5" d="M62.19,11.41c-.43-.3-.8-.55-1.15-.82-.07,0-.1-.14-.14-.22L61,10.3l1.78,1.24-2.26.32c.43.3.79.55,1.14.81.07.05.08.16.12.24l-.08.05-1.78-1.24Z"/><path class="cls-5" d="M98.11,11.29l-.55,2.11c.49-.28.93-.53,1.38-.77a1.41,1.41,0,0,1,.1.14l-1.85,1.15.59-2.2-1.17.73c-.13.08-.24.15-.29-.08l1.68-1a.2.2,0,0,1,.11,0Z"/><path class="cls-6" d="M81.36,1.32c.1.08.2.13.2.17,0,.66-.08,1.32-.13,2.06L80,1.79c0,.51,0,.93-.09,1.35,0,.09-.09.17-.13.25l-.11,0L79.8,1.2,81.24,3Z"/><path class="cls-5" d="M90.26,6.61c0-.07,0-.17,0-.22.35-.54.72-1.08,1.14-1.68L91.72,7A3.46,3.46,0,0,0,92,6.65l.59-.84c0-.06.15-.07.23-.11l0,.09L91.6,7.57l-.34-2.26L90.37,6.6Z"/><path class="cls-5" d="M100.3,19.83a1.19,1.19,0,1,1,1.2-1.17A1.19,1.19,0,0,1,100.3,19.83Zm0-.19a1,1,0,1,0,0-2,1,1,0,1,0,0,2Z"/><path class="cls-5" d="M89.87,3.91l.5.28c.33.2.41.41.28.72s-.33.4-.71.29h-.12l.09.58c0,.19.07.38.1.58l-.08.05c-.06-.1-.16-.19-.18-.29-.08-.36-.12-.72-.19-1.16l-.57,1c0-.15-.11-.25-.08-.31C89.22,5.06,89.54,4.5,89.87,3.91Zm.14.23-.42.75a2.5,2.5,0,0,0,.67.12c.08,0,.23-.28.2-.36A2.53,2.53,0,0,0,90,4.14Z"/><path class="cls-5" d="M68.84,3.68c.23.48.42.9.64,1.31a.51.51,0,0,0,.8.22.48.48,0,0,0,.23-.7c-.16-.37-.34-.73-.5-1.1a.63.63,0,0,1,0-.27h.12c.22.48.46,1,.65,1.46a.66.66,0,0,1-.4.81c-.39.22-.75.24-1-.07a13.62,13.62,0,0,1-.74-1.42S68.77,3.79,68.84,3.68Z"/><path class="cls-5" d="M62.9,8.11c.7-.76.76-.8,1-.62l-.65.58.49.41.61-.58.14.2-.61.59.59.51.64-.48.06.06-.68.77Z"/><path class="cls-5" d="M66.57,7.66,65.33,6l.86-.63c.15.15.15.15-.11.34L65.65,6l.36.5L66.69,6c.14.16.14.16-.12.35l-.42.32.46.64.77-.43.08.12Z"/><path class="cls-5" d="M62.82,8.77c-.58.16-.9.54-.84,1a1,1,0,0,0,.91.83c.49,0,.81-.35.9-1l.08,0A.88.88,0,0,1,64,10a1.11,1.11,0,0,1-1.15.86,1.09,1.09,0,0,1-1-.94,1.12,1.12,0,0,1,.74-1.23,1,1,0,0,1,.32,0Z"/><path class="cls-5" d="M88.52,3.5l-.27.56.65.31s.06.1.1.16-.15,0-.2,0c-.21-.08-.41-.18-.64-.28L87.81,5l.77.38c-.14.2-.45.11-1.07-.3l.88-1.89,1,.46c-.1.18-.1.18-.39,0Z"/><path class="cls-6" d="M73,3.92a1.07,1.07,0,0,1-.13.38A1.11,1.11,0,0,1,71,3.11a1.13,1.13,0,0,1,1.27-.67c.08,0,.15.13.23.19a2.23,2.23,0,0,0-.82.11,1.1,1.1,0,0,0-.49.59.87.87,0,0,0,.51,1c.44.19.84,0,1.18-.46Z"/><path class="cls-5" d="M73.16,4.22l.37-2.31L75,3.76l0,.09a2.11,2.11,0,0,1-.3-.16c-.13-.12-.23-.35-.35-.36a1.15,1.15,0,0,0-.68.17c-.11.06-.11.3-.17.45s-.11.21-.16.32Zm.37-.94.67-.18-.55-.68Z"/><path class="cls-5" d="M93.9,6.55l-.66,2.24h-.1a1.87,1.87,0,0,1,0-.32c0-.17.15-.39.08-.5a1.22,1.22,0,0,0-.53-.45c-.11,0-.31.09-.47.13a2,2,0,0,1-.35,0l0-.11Zm-1.13.79.55.45L93.56,7Z"/><path class="cls-6" d="M98.09,15.65a3.73,3.73,0,0,1,.16-.35c.07-.13.25-.27.22-.37a1.46,1.46,0,0,0-.32-.66c-.09-.08-.33,0-.5,0a2.12,2.12,0,0,1-.31-.09l0-.11,2.34-.13-1.5,1.8Zm1.15-1.51-.88,0,.32.64Z"/><path class="cls-5" d="M58.23,15.55l-.29.81.57.22.31-.79.09,0A.6.6,0,0,1,59,16a1.75,1.75,0,0,1-.12.32c0,.11-.07.21-.12.34l1,.38,0,.08c-.08,0-.17.11-.22.08-.61-.21-1.22-.45-1.82-.68C57.88,15.71,58,15.5,58.23,15.55Z"/><path class="cls-9" d="M70.12,8.16l.33.49.24.36a6.54,6.54,0,0,0-.89.08,1.79,1.79,0,0,0-.5.31.5.5,0,0,1-.24.12c.18-.32.32-.66.53-1A2.38,2.38,0,0,1,70.12,8.16Z"/><path class="cls-1" d="M95.46,8.26s0,0-.44-.27l-1.38,1.3-.21-.23,1.42-1.23c-.11-.28-.51-.31-.33-.7Z"/><path class="cls-5" d="M87.4,3c-.21.54-.41,1.06-.62,1.57,0,.07-.13.11-.2.16L86.5,4.7,87.17,3l-.42-.17a.71.71,0,0,1-.1-.14s.12-.08.16-.07l1.1.43s.06.1.09.15-.13.05-.18,0Z"/><path class="cls-6" d="M74.41,1.86a.8.8,0,0,1,.21-.13l1.19-.22c0,.2,0,.2-.52.34.07.42.15.84.22,1.26a2.79,2.79,0,0,1,.07.4c0,.08-.07.17-.1.25l-.09,0-.34-1.85L74.47,2Z"/><path class="cls-5" d="M98.53,16.05c.09.22.18.41.24.61,0,0,0,.11,0,.17s-.14,0-.16-.09c-.12-.27-.22-.54-.34-.83l1.81-.74c.06,0,.16,0,.25.07l0,.09Z"/><path class="cls-8" d="M73.9,7.18h-.11l.1-.25a2.87,2.87,0,0,0,.6-.17c.06,0,0-.23,0-.44a4.31,4.31,0,0,1,.78-.11.22.22,0,0,1,.2.35c0,.07,0,.17,0,.24s-.12.08-.18.12a1.21,1.21,0,0,1,0-.18,2.81,2.81,0,0,1-.1-.31,1.46,1.46,0,0,0-.36.16c-.07,0-.08.17-.12.25s-.14.26-.36.2S74,7.13,73.9,7.18Z"/><path class="cls-5" d="M96,8.64,94.54,10c-.05,0-.16,0-.24,0l0-.1c.47-.44,1-.89,1.43-1.32,0,0,.15,0,.23,0Z"/><path class="cls-6" d="M76.28,1.43c0,.05.15.09.15.15.1.64.18,1.29.26,1.93l-.09.06c-.06-.06-.16-.12-.17-.19-.08-.63-.15-1.25-.22-1.88Z"/><path class="cls-6" d="M84,1.8c-.13.63-.26,1.27-.4,1.9,0,.06-.11.09-.17.14l-.07,0c.09-.47.18-.94.28-1.41a2.68,2.68,0,0,1,.11-.49c0-.06.12-.11.18-.16Z"/><path class="cls-9" d="M86.5,13.36l-.44-.47c.24-.29.41-.64-.22-1,.19,0,.27-.08.33-.06.25.09.36.59.29.83s.08.39.13.59Z"/><path class="cls-10" d="M85.89,7.66a.49.49,0,0,1,0,.14c-.2.22-.1.33.08.38l-.36.35-.39,0-.13-.29a.59.59,0,0,0,.55-.36c0-.1.18-.17.28-.25Z"/><path class="cls-14" d="M67,38.57l0-3.67a1.55,1.55,0,0,1,0,.21c0,1.08,0,2.16,0,3.24A.63.63,0,0,1,67,38.57Z"/><path class="cls-4" d="M84.59,8.29a1.7,1.7,0,0,0-.15-.22c-.17-.14-.11-.21.06-.27l.3.17L85,8.1Z"/><path class="cls-6" d="M86.5,13.36l.09-.08.31.28v.14h-.36Z"/><path class="cls-10" d="M65.51,5.5c-.1-.38-.09-.47.15-.66l-.07.66Z"/><path class="cls-14" d="M67,34.34v0Z"/><path class="cls-10" d="M74.37,6.12l0-.34h.08l.16.23Z"/><path class="cls-1" d="M76,6.62c.07.14.06.24-.13.24Z"/><path class="cls-6" d="M90.51,13.79c0-.21.15-.2.29-.2Z"/><path class="cls-5" d="M86.89,13.7v-.14h.23v.11Z"/><path class="cls-14" d="M67,31.85v0Z"/><path class="cls-6" d="M92.58,14.55v-.18l.09.12Z"/><path class="cls-5" d="M83.28,9h0Z"/><path class="cls-14" d="M67,30.79v0Z"/><path class="cls-14" d="M67,31.16v0Z"/><path class="cls-6" d="M92.8,14.57l-.11,0Z"/><path class="cls-10" d="M72.55,6.89l0,0,0,0h.08Z"/><path class="cls-10" d="M85.89,7.67l0,0h0Z"/><path class="cls-6" d="M98.5,20.37a.08.08,0,0,1,0-.05s0,0,0,0A0,0,0,0,1,98.5,20.37Z"/><path class="cls-6" d="M98.31,19.5s0,0,0-.05A0,0,0,0,1,98.31,19.5Z"/><path class="cls-6" d="M86,8.49l0,0Z"/><path class="cls-6" d="M98.39,19.82l0-.07Z"/><polygon class="cls-5" points="98.11 11.3 98.11 11.28 98.11 11.29 98.11 11.3"/><path class="cls-5" d="M90.27,16.92,90,16.64s.14-.11.15-.1.15.18.23.27Z"/><path class="cls-5" d="M89.79,16.42l-.31-.3.11-.11.31.29Z"/><path class="cls-5" d="M87.74,14.48l-.28-.38.08-.09.37.28Z"/><path class="cls-5" d="M96.62,23.56l-.18-.08s0-.07,0-.07l.19,0Z"/><path class="cls-5" d="M96.91,23.7a1.21,1.21,0,0,1,0,.18s-.06,0-.09,0l-.07-.19Z"/><path class="cls-6" d="M93.75,15.88h-.13v-.05h.13Z"/><path class="cls-21" d="M94.68,14.81v0h0Z"/><path class="cls-22" d="M59.57,14.94h-.08l0,0Z"/><path class="cls-8" d="M86.11,16.93c0-.47,0-.57.49-.66Z"/><path class="cls-5" d="M94.88,19.09a.4.4,0,0,0,.11.47.44.44,0,0,1-.17.71,1.42,1.42,0,0,0-.41.4,2.12,2.12,0,0,0-.19.36h-.91a5.44,5.44,0,0,0-.29-.86c0-.09-.27-.14-.41-.15-.37,0-.75,0-1.12,0v-.74c.22-.07.56,0,.58-.39a1,1,0,0,0,1.11-.13s.06-.05.08-.05a1.51,1.51,0,0,0,.93-.25A2.26,2.26,0,0,0,94,19a.5.5,0,0,0,.13.39c.09.06.28,0,.41-.05a2.06,2.06,0,0,0,.33-.27S94.87,19.07,94.88,19.09Z"/><path class="cls-5" d="M94.84,19.05l.07,0,0,.07S94.85,19.06,94.84,19.05Z"/><path class="cls-1" d="M95.41,18.16l-.5,0c0-.18,0-.42-.33-.38,0,0-.06-.12-.06-.21.28.25.8,0,1,.5Z"/><path class="cls-1" d="M95.47,18.1l0,.09-.11,0Z"/><path class="cls-10" d="M92.47,16.51l.37-.21c.34.17,0,.39.06.58C92.52,17,92.54,16.68,92.47,16.51Z"/><path class="cls-6" d="M99.85,18a2.46,2.46,0,0,1,.55,0,.67.67,0,0,1,.38.23c.1.18,0,.34-.2.42a.16.16,0,0,0-.06,0l.32.5-.07.07a2.73,2.73,0,0,1-.25-.23c-.11-.15-.16-.38-.48-.31,0,.11,0,.23,0,.35a.65.65,0,0,1-.08.17c0-.06-.1-.12-.1-.18C99.85,18.75,99.85,18.41,99.85,18Zm.2.63c.22-.08.38-.13.54-.2a.31.31,0,0,0,0-.19,4.36,4.36,0,0,0-.52-.11Z"/></svg>