<?xml version="1.0" encoding="utf-8"?>
<!-- Generator: Adobe Illustrator 24.2.3, SVG Export Plug-In . SVG Version: 6.00 Build 0)  -->
<svg version="1.1" id="Capa_1" xmlns="http://www.w3.org/2000/svg" xmlns:xlink="http://www.w3.org/1999/xlink" x="0px" y="0px"
	 viewBox="0 0 155 49" style="enable-background:new 0 0 155 49;" xml:space="preserve">
<style type="text/css">
	.st0{fill:#111111;}
	.st1{fill:#2B5B2F;}
	.st2{fill:#3C904C;}
	.st3{fill:#2C6036;}
	.st4{fill:#080806;}
	.st5{fill:#FCFCFC;}
	.st6{fill:#DCD740;}
	.st7{fill:#DED940;}
	.st8{fill:#FDFDFD;}
	.st9{fill:#EDE63E;}
	.st10{fill:#3B2C75;}
	.st11{fill:#61528B;}
	.st12{fill:#4C3D7F;}
	.st13{fill:#43357A;}
	.st14{fill:#8274A2;}
	.st15{fill:#6A5C92;}
	.st16{fill:#5A4B87;}
	.st17{fill:#7B6D9D;}
	.st18{fill:#756698;}
	.st19{fill:#706296;}
	.st20{fill:#564885;}
	.st21{fill:#362561;}
	.st22{fill:#BDB6D0;}
	.st23{fill:#9387B0;}
	.st24{fill:#ABA2C2;}
	.st25{fill:#8C7EA9;}
	.st26{fill:#9F94B9;}
	.st27{fill:#8578A4;}
	.st28{fill:#D4D0E1;}
	.st29{fill:#9B8FB5;}
	.st30{fill:#F7F7FB;}
	.st31{fill:#F5F5FA;}
	.st32{fill:#000044;}
	.st33{fill:#02024B;}
	.st34{fill:#010147;}
	.st35{fill:#00003F;}
	.st36{fill:#08087F;}
	.st37{fill:#0B0B78;}
	.st38{fill:#06065B;}
	.st39{fill:#050565;}
	.st40{fill:#0C0C83;}
	.st41{fill:#1C1C7A;}
	.st42{fill:#03037D;}
	.st43{fill:#070773;}
	.st44{fill:#131380;}
	.st45{fill:#08086D;}
	.st46{fill:#0F0D6F;}
	.st47{fill:#1E1E83;}
	.st48{fill:#161576;}
	.st49{fill:#050556;}
	.st50{fill:#1C1B87;}
	.st51{fill:#282885;}
	.st52{fill:#312C90;}
	.st53{fill:#7676B2;}
	.st54{fill:#E5E5F2;}
	.st55{fill:#FBFBFD;}
	.st56{fill:#FCFCFD;}
	.st57{fill:#F8F8FB;}
	.st58{fill:#295F9A;}
	.st59{fill:#014682;}
	.st60{fill:#014D89;}
	.st61{fill:#16518F;}
	.st62{fill:#225A96;}
	.st63{fill:#1E5793;}
	.st64{fill:#023F74;}
	.st65{fill:#4B76AA;}
	.st66{fill:#3E6CA3;}
	.st67{fill:#32659E;}
	.st68{fill:#769FC8;}
	.st69{fill:#AACFE9;}
	.st70{fill:#B7D9EF;}
	.st71{fill:#C5E4F5;}
	.st72{fill:#8EB7D9;}
	.st73{fill:#82ABD0;}
	.st74{fill:#99C2E0;}
	.st75{fill:#618BB9;}
	.st76{fill:#5881B2;}
	.st77{fill:#6B94C0;}
	.st78{fill:#D1EDFA;}
	.st79{fill:#FEFEFE;}
	.st80{fill:#0234A0;}
	.st81{fill:#0436A1;}
	.st82{fill:#0537A1;}
	.st83{fill:#0336A1;}
	.st84{fill:#0235A0;}
	.st85{fill:#0335A0;}
	.st86{fill:#0335A1;}
	.st87{fill:#0638A2;}
	.st88{fill:#FBFCFD;}
	.st89{fill:#28296A;}
	.st90{fill:#282969;}
	.st91{fill:#282A68;}
	.st92{fill:#2B2C6C;}
	.st93{fill:#999A9D;}
	.st94{fill:#2B2D6A;}
	.st95{fill:#2C2E6B;}
	.st96{fill:#D6DDEF;}
	.st97{fill:#6A87A9;}
	.st98{fill:#999B9E;}
	.st99{fill:#2F306E;}
	.st100{fill:#47457A;}
	.st101{fill:#F1F1F5;}
	.st102{fill:#30316F;}
	.st103{fill:#2D2E6D;}
	.st104{fill:#2A2C6A;}
	.st105{fill:#323370;}
	.st106{fill:#9D9FA3;}
	.st107{fill:#727376;}
	.st108{fill:#393973;}
	.st109{fill:#343570;}
	.st110{fill:#FAFAFB;}
	.st111{fill:#77719F;}
	.st112{fill:#504D81;}
	.st113{fill:#B8B9BC;}
	.st114{fill:#FBFBFC;}
	.st115{fill:#605C8D;}
	.st116{fill:#3A366A;}
	.st117{fill:#575756;}
	.st118{fill:#005099;}
	.st119{fill:url(#SVGID_1_);}
	.st120{fill:url(#SVGID_2_);}
	.st121{fill:url(#SVGID_3_);}
	.st122{fill:#444140;}
	.st123{fill:#040483;}
	.st124{fill:#040484;}
	.st125{fill:#020281;}
	.st126{fill:#020280;}
	.st127{fill:#030383;}
	.st128{fill:#030382;}
	.st129{fill:#00007E;}
	.st130{fill:#01017F;}
	.st131{fill:#060687;}
	.st132{fill:#050586;}
	.st133{fill:#050584;}
	.st134{fill:#050585;}
	.st135{fill:#F6F6FB;}
</style>
<g id="_x38_AsMG8.tif">
	<g>
		<path d="M70.2,9c0,9.4,0,18.9,0,28.3c0,0.2,0,0.3,0,0.5c0,0-0.1,0-0.1,0c0-0.1-0.1-0.1-0.1-0.2c0-0.1,0-0.2,0-0.4
			c0-9.3,0-18.5,0-27.8c0-0.2,0-0.3,0-0.5C70.1,9,70.2,9,70.2,9z"/>
		<path d="M46.3,22.2c0,0.2-0.1,0.4-0.1,0.6c0,2.6,0,5.2,0,7.7c0,0.6-0.1,0.7-0.7,0.6c-0.8,0-1.5,0-2.3,0c-0.7,0-0.8-0.1-0.8-0.8
			c0-4.5,0-9,0.1-13.5c0-0.5,0-0.5,0.5-0.5c1,0.1,2.1,0.3,2.9,0.9c0.4,0.3,0.7,0.7,1.1,1c1.6,1.7,3.1,3.4,4.7,5.1
			c0.3,0.4,0.5,0.4,0.9,0c1.6-1.7,3.2-3.4,4.7-5.1c0.4-0.4,0.7-0.9,1.3-1.2c0.4-0.2,0.8-0.4,1.3-0.5c0.5-0.1,1-0.2,1.5-0.2
			c0.4-0.1,0.5,0,0.5,0.5c0,4.6,0.1,9.1,0.1,13.7c0,0.4-0.1,0.6-0.6,0.6c-0.9,0-1.9,0-2.8,0c-0.4,0-0.4-0.3-0.4-0.6
			c0-1.8,0-3.6,0-5.5c0-0.8,0-1.6,0-2.4c0-0.1,0-0.2,0-0.3c-0.1-0.2-0.2-0.3-0.4-0.1c-0.9,1.1-1.9,2.2-2.8,3.3
			c-0.8,0.9-1.7,1.9-2.5,2.8c-0.3,0.3-0.5,0.3-0.8,0c-0.7-0.8-1.5-1.7-2.2-2.5c-1.1-1.2-2.2-2.5-3.3-3.7
			C46.4,22.2,46.4,22.2,46.3,22.2z"/>
		<path d="M2.2,21.7c0-1.6,0-3.3,0-4.9c0-0.5,0-0.5,0.5-0.5c1,0.1,1.9,0.3,2.7,0.8c0.3,0.2,0.4,0.4,0.4,0.7c0,2.6,0,5.2,0,7.8
			c0,0.6,0.1,1.2,0.5,1.7c0.4,0.5,1,0.8,1.6,0.9c1.4,0.1,2.9,0.1,4.3,0c0.9-0.1,1.7-0.5,2-1.4c0.1-0.3,0.2-0.7,0.2-1.1
			c0-2.3,0-4.6,0.1-6.9c0,0,0,0,0,0c-0.2-1.5,0.4-1.7,1.9-2.1c0.4-0.1,0.8-0.2,1.2-0.3c0.4-0.1,0.5,0,0.5,0.5c0,3.1,0.1,6.2,0.1,9.4
			c0,1-0.1,1.9-0.8,2.7c-0.6,0.7-1.2,1.2-2.1,1.5c-2.1,0.8-4.3,0.8-6.4,0.7C8,31,7,30.8,6.1,30.7c-1.2-0.2-2.2-0.7-3-1.6
			c-0.6-0.7-0.9-1.5-1-2.4C2.1,25.1,2.1,23.4,2.2,21.7C2.1,21.7,2.1,21.7,2.2,21.7z"/>
		<path d="M41.6,16.4c-0.4,0.7-0.8,1.2-1.2,1.8c-0.6,0.9-1.1,1.7-1.7,2.6c-0.7,1-1.3,2-2,2.9c-0.6,0.8-1.1,1.7-1.6,2.5
			c-0.8,1.1-1.5,2.3-2.3,3.4c-0.2,0.4-0.5,0.7-0.8,1.1c-0.1,0.1-0.3,0.3-0.4,0.3c-0.7,0-1.5,0-2.2,0c-0.3,0-0.4-0.2-0.6-0.4
			c-0.5-0.8-1-1.5-1.5-2.3c-0.5-0.8-1.1-1.6-1.6-2.4c-0.6-0.9-1.2-1.8-1.8-2.6c-1.1-1.7-2.3-3.4-3.4-5.1c-0.3-0.5-0.6-0.9-0.9-1.4
			c-0.1-0.1-0.1-0.2-0.1-0.3c0-0.1,0.2-0.1,0.3-0.1c1.4-0.1,2.7,0.2,3.9,0.6c0.5,0.2,0.9,0.6,1.2,1c0.6,0.9,1.2,1.8,1.7,2.6
			c0.7,1,1.3,2,2,3c0.5,0.8,1,1.6,1.6,2.4c0.1,0.2,0.4,0.2,0.5,0c0.4-0.6,0.8-1.2,1.2-1.8c0.7-1,1.3-1.9,2-2.9
			c0.8-1.1,1.5-2.3,2.3-3.4c0.2-0.3,0.6-0.6,1-0.8c1-0.4,2-0.6,3-0.7c0.3,0,0.6,0,1,0C41.2,16.3,41.4,16.3,41.6,16.4z"/>
		<path d="M130.4,22.4c-0.1,0.1-0.2,0.2-0.2,0.3c-0.3,1-0.6,1.9-0.9,2.9c-0.1,0.3-0.2,0.7-0.3,1c-0.1,0.3-0.3,0.2-0.5,0.3
			c-0.2,0-0.4,0-0.5-0.3c-0.2-0.6-0.4-1.1-0.6-1.7c-0.2-0.6-0.4-1.2-0.5-1.8c-0.1-0.3-0.1-0.5-0.2-0.8c0,0-0.1,0-0.1,0
			c0,0.2-0.1,0.4-0.1,0.6c0,1.1,0,2.1,0,3.2c0,0.6-0.5,0.9-1,0.7c-0.1,0-0.2-0.2-0.2-0.3c0-0.3,0-0.6,0-0.9c0-1.6,0-3.3,0-4.9
			c0-0.4,0.1-0.5,0.5-0.5c0.2,0,0.5,0,0.7,0c0.6,0,0.7,0.1,0.9,0.7c0.3,1.1,0.6,2.2,1,3.3c0,0.1,0.1,0.2,0.2,0.3
			c0.1-0.3,0.3-0.5,0.3-0.8c0.2-0.8,0.5-1.6,0.7-2.4c0.1-0.3,0.2-0.6,0.3-0.9c0-0.1,0.2-0.2,0.3-0.2c0.4,0,0.8,0,1.2,0
			c0.3,0,0.4,0.1,0.4,0.4c0,1,0,2,0,3.1c0,0.9,0,1.7,0,2.6c0,0.5-0.1,0.6-0.4,0.6c-0.5,0-0.7-0.1-0.7-0.6c0-1.2,0-2.4,0-3.6
			c0-0.1,0-0.2,0-0.3C130.5,22.4,130.4,22.4,130.4,22.4z"/>
		<path d="M77.3,14.7c0,0.7,0,1.4,0,2.1c0,0.5,0.5,1,1,1c0.3,0,0.6,0,0.9-0.1c0.5-0.2,0.7-0.6,0.7-1.1c0-1.1,0-2.2,0-3.3
			c0-0.1,0-0.1,0-0.2c0-1.1,0.2-1,1.1-0.9c0.1,0,0.3,0.2,0.3,0.3c0,1.4,0,2.7,0,4.1c-0.1,1.2-0.8,2.1-2.1,2.1
			c-0.7,0-1.5,0.1-2.2-0.3c-0.5-0.3-0.8-0.7-0.9-1.2c-0.1-0.5-0.1-1-0.2-1.5c0-1,0-2,0-3c0-0.3,0.1-0.5,0.5-0.5c0.9,0,1,0,0.9,0.9
			c0,0.3,0,0.6,0,0.8C77.3,14.2,77.3,14.5,77.3,14.7C77.3,14.7,77.3,14.7,77.3,14.7z"/>
		<path d="M122.1,15.5c0,0.9,0,1.8,0,2.7c0,0.5-0.4,0.8-0.8,0.5c-0.3-0.2-0.5-0.2-0.9,0c-1.1,0.3-2,0.1-2.5-1.1
			c-0.3-0.8-0.3-1.6,0-2.4c0.3-1,1.4-1.5,2.4-1.2c0.7,0.3,0.7,0.2,0.7-0.5c0-0.3,0-0.7,0-1c0-0.3,0.1-0.4,0.4-0.4c0.1,0,0.2,0,0.3,0
			c0.4,0,0.5,0.1,0.5,0.5C122.1,13.6,122.1,14.5,122.1,15.5C122.1,15.5,122.1,15.5,122.1,15.5z M120.9,16.4
			C120.9,16.4,120.9,16.4,120.9,16.4c0-0.2,0-0.4,0-0.6c0-0.6-0.2-0.8-0.8-1c-0.3-0.1-0.9,0.2-1,0.4c-0.3,0.5-0.4,1.1-0.2,1.6
			c0.1,0.5,0.4,0.9,0.9,1c0.6,0.1,1.1-0.3,1.1-0.9C120.9,16.8,120.9,16.6,120.9,16.4z"/>
		<path d="M79.8,23.6c0,0.9,0,1.9,0,2.8c0,0.2-0.1,0.5-0.2,0.5c-0.2,0.1-0.5,0.2-0.7-0.2c0-0.1-0.2-0.1-0.3-0.1
			c-0.3,0.1-0.6,0.3-0.9,0.3c-1.2,0.1-1.8-0.6-2.1-1.6c-0.2-0.8-0.2-1.5,0.2-2.3c0.5-0.9,1.6-1.3,2.4-0.8c0.3,0.2,0.5,0.1,0.5-0.3
			c0-0.4,0-0.8,0-1.3c0-0.4,0.1-0.5,0.7-0.5c0.4,0,0.4,0.2,0.4,0.5C79.8,21.7,79.8,22.6,79.8,23.6C79.8,23.6,79.8,23.6,79.8,23.6z
			 M78.7,24.5C78.7,24.5,78.7,24.5,78.7,24.5c0-0.2,0-0.4,0-0.6c0-0.4-0.2-0.6-0.5-0.8c-0.3-0.2-0.9-0.1-1.1,0.1
			c-0.5,0.5-0.5,1.1-0.4,1.7c0,0.4,0.2,0.8,0.5,1c0.3,0.2,0.7,0.2,1.1,0.1c0.3-0.1,0.5-0.4,0.5-0.8C78.6,24.9,78.7,24.7,78.7,24.5z"
			/>
		<path d="M112.3,15.5c0,0.9,0,1.8,0,2.7c0,0.2-0.1,0.5-0.1,0.5c-0.2,0-0.6,0.1-0.7-0.1c-0.3-0.2-0.4-0.2-0.7,0
			c-0.7,0.3-2,0.3-2.5-0.7c-0.4-0.8-0.4-1.6-0.3-2.4c0.2-1.1,1.4-1.9,2.5-1.4c0.6,0.2,0.6,0.2,0.6-0.4c0-0.3,0-0.7,0-1
			c0-0.3,0.1-0.4,0.4-0.4c0.1,0,0.2,0,0.3,0c0.4,0,0.5,0.1,0.5,0.5C112.3,13.6,112.3,14.5,112.3,15.5z M111.1,16.3
			C111.1,16.3,111.1,16.3,111.1,16.3c0-0.2,0-0.4,0-0.6c0.1-0.5-0.2-0.7-0.5-0.9c-0.5-0.2-1.2,0.1-1.3,0.7c-0.1,0.5-0.2,1,0,1.6
			c0.2,0.5,0.5,0.8,1,0.8c0.7-0.1,1-0.2,0.9-0.9C111.1,16.8,111.1,16.5,111.1,16.3z"/>
		<path d="M92.7,26.9c-0.7,0-0.9-0.1-1-0.8c-0.1-0.6-0.3-1.2-0.5-1.8c-0.1-0.4-0.2-0.8-0.3-1.2c-0.2-0.8-0.4-1.5-0.6-2.3
			c-0.1-0.4,0-0.5,0.4-0.5c0.1,0,0.2,0,0.3,0c0.3,0,0.5,0.1,0.6,0.4c0.2,1,0.5,1.9,0.8,2.9c0.1,0.3,0.1,0.5,0.1,0.8
			c0,0.1,0.2,0.2,0.3,0.3c0.1-0.1,0.2-0.2,0.2-0.3c0.3-1.3,0.7-2.5,1-3.8c0-0.1,0.2-0.2,0.3-0.3c0,0,0.1,0,0.2,0
			c0.8-0.1,0.9,0.1,0.7,0.9c-0.3,1-0.6,2.1-0.9,3.1c-0.2,0.7-0.4,1.5-0.6,2.2C93.4,27,93,26.9,92.7,26.9z"/>
		<path d="M116.6,23.6c0,0.9,0,1.8,0,2.7c0,0.2,0.1,0.5-0.2,0.6c-0.3,0.1-0.6,0.1-0.8-0.2c0-0.1-0.2,0-0.4,0c-0.3,0.1-0.7,0.2-1,0.3
			c-0.7,0.1-1.5-0.5-1.7-1.2c-0.3-0.9-0.4-1.8,0.1-2.7c0.4-0.7,1.4-1.4,2.4-0.8c0.4,0.2,0.5,0.1,0.5-0.3c0-0.4,0-0.8,0-1.2
			c0-0.4,0.1-0.5,0.5-0.5c0.5,0,0.5,0,0.5,0.5c0,0.1,0,0.1,0,0.2C116.6,21.8,116.6,22.7,116.6,23.6
			C116.6,23.6,116.6,23.6,116.6,23.6z M115.5,24.5C115.5,24.5,115.5,24.5,115.5,24.5c0-0.2,0-0.4,0-0.6c0-0.4-0.1-0.7-0.5-0.9
			c-0.4-0.1-0.8-0.2-1.1,0.2c-0.5,0.5-0.6,1.9-0.1,2.5c0.1,0.1,0.2,0.2,0.3,0.2c0.3,0.2,0.7,0.2,1,0c0.3-0.2,0.5-0.5,0.4-0.9
			C115.5,24.9,115.5,24.7,115.5,24.5z"/>
		<path d="M99.4,25.1c0,0.4,0,0.9,0,1.3c0,0.4,0,0.5-0.5,0.5c-0.2,0-0.4,0-0.5-0.1c-0.3-0.2-0.5-0.1-0.8-0.1
			c-0.4,0.1-0.9,0.2-1.4,0.2c-0.3,0-0.6-0.3-0.8-0.6c-0.3-0.5-0.1-1.4,0.5-1.8c0.6-0.4,1.2-0.5,1.8-0.6c0.2,0,0.4-0.1,0.4-0.3
			c0-0.3,0-0.5-0.3-0.6c-0.4-0.2-0.8-0.1-1.2,0.2c-0.3,0.2-0.7,0.2-0.9-0.2c0-0.1,0-0.3,0.1-0.3c0.8-0.7,2.1-0.8,3-0.2
			c0.3,0.2,0.4,0.7,0.5,1.1C99.4,24.1,99.4,24.6,99.4,25.1C99.4,25.1,99.4,25.1,99.4,25.1z M98.2,25.1c-0.1-0.2-0.2-0.5-0.4-0.5
			c-0.4,0-0.9,0.1-1.2,0.5c-0.2,0.3-0.2,0.7,0.1,0.9C97.3,26.3,98.1,25.9,98.2,25.1z"/>
		<path d="M116.9,16.8c0,0.4,0,0.9,0,1.3c0,0.2-0.1,0.5-0.1,0.5c-0.3,0.1-0.6,0.1-0.8,0c-0.3-0.2-0.4-0.2-0.7,0
			c-0.7,0.4-1.8,0.2-2.2-0.4c-0.2-0.3-0.2-1,0-1.4c0.5-0.7,1.3-0.9,2.1-1c0.3-0.1,0.5-0.1,0.6-0.4c0-0.4-0.2-0.6-0.6-0.6
			c-0.4-0.1-0.6,0.1-0.9,0.3c-0.3,0.3-0.5,0.1-0.8,0c-0.2-0.2-0.2-0.4,0-0.6c0.8-0.6,1.8-0.7,2.7-0.3c0.4,0.2,0.7,0.5,0.7,0.9
			C116.9,15.6,116.9,16.2,116.9,16.8C116.9,16.8,116.9,16.8,116.9,16.8z M115.7,17c0-0.4-0.1-0.5-0.5-0.4c-0.3,0.1-0.6,0.2-0.9,0.3
			c-0.3,0.2-0.4,0.5-0.2,0.8c0.2,0.3,0.4,0.4,0.8,0.2c0.1,0,0.2-0.1,0.2-0.1C115.6,17.6,115.7,17.5,115.7,17z"/>
		<path d="M82.6,27c-0.8,0-1.5-0.3-1.9-1c-0.3-0.6-0.5-1.3-0.3-2.1c0.1-0.5,0.3-1,0.7-1.3c0.9-0.8,2.6-0.6,3.2,0.6
			c0.2,0.4,0.3,0.7,0.3,1.1c0,0.3-0.1,0.5-0.4,0.4c-0.7,0-1.3,0-2,0c-0.6,0-0.7,0.2-0.5,0.7c0.4,0.7,1,0.9,1.6,0.4
			c0.3-0.2,0.6-0.3,0.9,0c0.2,0.2,0.3,0.4,0,0.6C83.8,26.8,83.3,27,82.6,27z M82.6,23.9C82.6,23.9,82.6,23.9,82.6,23.9
			c0.2,0,0.4,0,0.6,0c0.2,0,0.3-0.1,0.3-0.4c-0.1-0.4-0.4-0.6-0.9-0.6c-0.4,0-0.8,0.3-0.9,0.6c-0.1,0.2,0,0.3,0.2,0.4
			C82.1,23.9,82.4,23.9,82.6,23.9z"/>
		<path d="M108,24.7c-0.5,0-1,0-1.4,0c-0.4,0-0.4,0.1-0.4,0.5c0.1,0.8,1,1.2,1.6,0.7c0.3-0.2,0.5-0.3,0.9-0.1
			c0.3,0.2,0.4,0.4,0.1,0.6c-0.3,0.2-0.6,0.5-1,0.5c-1,0.2-2.1,0.1-2.7-1.1c-0.4-0.8-0.3-2.5,0.4-3.2c0.8-0.8,2.3-0.7,3.1,0.1
			c0.4,0.5,0.4,1,0.5,1.5c0,0.3-0.1,0.4-0.4,0.4C108.4,24.7,108.2,24.7,108,24.7C108,24.7,108,24.7,108,24.7z M107,23.9
			C107,23.9,107,23.9,107,23.9c0.2,0,0.5,0,0.7,0c0.2,0,0.3-0.1,0.3-0.3c-0.1-0.4-0.5-0.7-0.9-0.7c-0.4,0-0.8,0.3-0.9,0.6
			c0,0.2,0,0.4,0.3,0.4C106.6,23.9,106.8,23.9,107,23.9z"/>
		<path d="M148.2,24.5c-0.1-0.8,0.1-1.4,0.7-1.9c0.8-0.8,2.7-0.8,3.3,0.6c0.4,1,0.4,1.9,0,2.8c-0.2,0.5-0.7,0.8-1.2,0.9
			c-0.9,0.2-1.7,0.1-2.3-0.7C148.3,25.7,148.1,25.2,148.2,24.5z M151.4,24.6C151.3,24.6,151.3,24.6,151.4,24.6
			c-0.1-0.3-0.1-0.7-0.2-1c-0.1-0.4-0.4-0.7-0.8-0.7c-0.5,0-0.9,0.2-0.9,0.6c-0.1,0.6-0.1,1.2,0,1.8c0,0.3,0.3,0.6,0.6,0.6
			c0.4,0.1,0.7,0.1,0.9-0.3C151.2,25.4,151.2,25,151.4,24.6z"/>
		<path d="M120,24.7c-0.3,0-0.7,0-1,0c-0.5,0-0.5,0.2-0.4,0.6c0.3,0.7,1,1,1.7,0.5c0.2-0.1,0.4-0.3,0.7-0.1c0.5,0.3,0.5,0.5,0.1,0.8
			c-0.7,0.5-1.5,0.6-2.3,0.4c-0.8-0.2-1.3-0.8-1.4-1.7c-0.1-0.8-0.1-1.6,0.3-2.3c0.5-0.8,1.6-1.1,2.4-0.8c1,0.4,1.4,1.3,1.3,2
			c0,0.4-0.1,0.5-0.5,0.5C120.7,24.7,120.3,24.7,120,24.7C120,24.7,120,24.7,120,24.7z M119.5,23.9
			C119.5,23.9,119.5,23.9,119.5,23.9c0.2,0,0.5,0,0.7,0c0.2,0,0.3-0.1,0.2-0.4c-0.2-0.4-0.5-0.6-1-0.6c-0.4,0-0.8,0.3-0.9,0.7
			c0,0.1,0.1,0.3,0.2,0.3C119,23.9,119.2,23.9,119.5,23.9z"/>
		<path d="M135.1,24.7c-0.3,0-0.7,0-1,0c-0.3,0-0.4,0.1-0.3,0.4c0.2,0.8,1,1.2,1.7,0.7c0.3-0.3,0.6-0.2,0.9,0
			c0.2,0.1,0.3,0.4,0.1,0.6c-0.7,0.6-1.5,0.7-2.4,0.6c-0.7-0.1-1.4-1-1.5-1.7c0-0.4,0-0.9,0-1.3c0.1-1.5,1.8-2.2,3-1.6
			c0.8,0.4,1.1,1.2,1.1,2c0,0.2-0.1,0.4-0.4,0.4C135.8,24.7,135.5,24.7,135.1,24.7C135.1,24.7,135.1,24.7,135.1,24.7z M134.6,23.9
			C134.6,23.9,134.6,23.9,134.6,23.9c0.2,0,0.5,0,0.7,0c0.2,0,0.3-0.1,0.2-0.3c-0.1-0.4-0.5-0.7-1-0.7c-0.4,0-0.7,0.2-0.8,0.6
			c-0.1,0.3,0,0.4,0.3,0.4C134.2,23.9,134.4,23.9,134.6,23.9z"/>
		<path d="M82.5,16.4c0-0.6,0-1.2,0-1.9c0-0.2,0.1-0.5,0.2-0.5c0.2,0,0.5,0,0.7,0.1c0.2,0.2,0.4,0.2,0.6,0.1
			c0.5-0.3,1.1-0.5,1.7-0.2c0.5,0.2,0.7,0.6,0.8,1c0,1.1,0,2.2,0.1,3.3c0,0.3-0.1,0.4-0.4,0.4c-0.1,0-0.2,0-0.3,0
			c-0.4,0-0.5-0.1-0.5-0.5c0-0.8,0-1.6,0-2.4c0-0.2,0-0.4-0.1-0.6c-0.1-0.2-0.2-0.3-0.3-0.4c-0.5-0.2-1.3,0.3-1.3,0.8
			c0,0.8,0,1.7,0,2.5c0,0.4-0.1,0.5-0.5,0.5c-0.1,0-0.2,0-0.3,0c-0.3,0-0.4-0.1-0.4-0.4C82.5,17.7,82.5,17.1,82.5,16.4
			C82.5,16.4,82.5,16.4,82.5,16.4z"/>
		<path d="M96.4,16.5c-0.4,0-0.7,0-1.1,0c-0.4,0-0.5,0.2-0.3,0.6c0.4,0.9,1,1,1.8,0.4c0.3-0.2,0.9,0,1,0.3c0,0.1-0.2,0.4-0.3,0.5
			c-0.7,0.5-2.2,0.7-3,0c-0.3-0.2-0.5-0.6-0.6-0.9c-0.2-0.7-0.2-1.5,0-2.2c0.3-1,1.3-1.5,2.4-1.3c1.1,0.2,1.6,1.2,1.6,2.2
			c0,0.3-0.1,0.4-0.4,0.4C97.1,16.5,96.8,16.5,96.4,16.5C96.4,16.5,96.4,16.5,96.4,16.5z M95.8,15.8C95.8,15.8,95.8,15.8,95.8,15.8
			c0.2,0,0.5,0,0.7,0c0.2,0,0.4-0.1,0.3-0.4c-0.1-0.3-0.3-0.6-0.7-0.6c-0.4-0.1-0.7,0-0.9,0.4c-0.1,0.1-0.2,0.4-0.1,0.5
			c0.1,0.1,0.3,0.1,0.5,0.2C95.6,15.8,95.7,15.8,95.8,15.8z"/>
		<path d="M136.9,26.9c0.4-0.6,0.7-1.2,1-1.7c0,0,0.1-0.1,0.1-0.1c0.2-0.3,0.4-0.7,0-1.1c-0.3-0.4-0.6-0.8-0.8-1.3
			c-0.1-0.1-0.1-0.3-0.1-0.4c0-0.1,0.2-0.1,0.4-0.1c0.7,0,0.9,0.1,1.2,0.8c0,0.1,0.1,0.2,0.2,0.3c0.1-0.1,0.2-0.1,0.3-0.2
			c0.1-0.2,0.2-0.4,0.3-0.6c0.2-0.3,0.9-0.4,1.2-0.3c0.1,0,0.1,0.3,0,0.4c-0.3,0.5-0.6,1-0.9,1.5c-0.2,0.3-0.2,0.5,0,0.8
			c0.4,0.5,0.7,1.1,1,1.6c0.2,0.3,0.1,0.4-0.3,0.5c-0.7,0.1-0.9-0.4-1.2-0.8c-0.1-0.1-0.1-0.2-0.2-0.3c-0.2-0.1-0.3-0.2-0.4,0.1
			c-0.1,0.2-0.2,0.5-0.4,0.7c-0.2,0.2-0.4,0.3-0.6,0.4C137.5,26.9,137.2,26.9,136.9,26.9z"/>
		<path d="M143.6,24.5c-0.1-0.7,0.1-1.2,0.5-1.7c0.6-0.8,1.6-0.9,2.3-0.6c0.3,0.1,0.6,0.4,0.9,0.6c0.2,0.1,0.3,0.3,0.1,0.6
			c-0.3,0.3-0.6,0.3-0.9,0.1c-0.2-0.2-0.4-0.5-0.8-0.5c-0.6,0-0.9,0.2-1,0.8c0,0.4,0,0.8,0,1.3c0,0.4,0.2,0.8,0.6,0.9
			c0.4,0.2,0.8,0,1.2-0.3c0.3-0.3,0.8-0.3,1,0.1c0,0.1,0,0.3,0,0.4c-0.4,0.5-0.9,0.8-1.5,0.8c-0.8,0.1-1.5-0.1-2-0.7
			C143.7,25.7,143.5,25.1,143.6,24.5z"/>
		<path d="M101.3,17.9c0.1-0.1,0.2-0.2,0.3-0.3c0.3-0.3,0.5-0.3,0.8,0c0.5,0.4,0.9,0.5,1.3,0.2c0.3-0.2,0.3-0.4,0-0.6
			c-0.4-0.2-0.9-0.4-1.3-0.6c-0.6-0.3-1-0.7-1-1.3c0-0.8,0.3-1.1,1.2-1.3c0.6-0.2,1.2,0,1.8,0.3c0.1,0.1,0.2,0.3,0.2,0.4
			c-0.1,0.3-0.3,0.5-0.6,0.4c-0.1,0-0.2-0.1-0.3-0.2c-0.1-0.1-0.3-0.1-0.4-0.2c-0.3,0-0.7,0-0.7,0.4c-0.1,0.4,0.2,0.5,0.5,0.6
			c0.4,0.2,0.8,0.4,1.2,0.5c0.6,0.3,0.7,0.8,0.7,1.4c0,0.6-0.3,0.9-0.8,1.1C103.2,18.9,102.1,18.9,101.3,17.9z"/>
		<path d="M91.6,16.8c0.1-0.4,0.3-0.9,0.4-1.3c0.1-0.4,0.2-0.9,0.4-1.3c0.1-0.2,0.7-0.4,1-0.2c0.3,0.2,0.1,0.4,0,0.6
			c-0.1,0.4-0.3,0.8-0.4,1.2c-0.3,0.9-0.5,1.7-0.7,2.6c0,0.1-0.2,0.3-0.2,0.3c-0.3,0-0.7,0-1,0c-0.1,0-0.2-0.1-0.2-0.2
			c-0.2-0.7-0.4-1.4-0.6-2.2c-0.2-0.6-0.3-1.2-0.5-1.7c-0.1-0.4,0-0.5,0.4-0.6c0.2,0,0.3,0,0.5,0c0.1,0,0.2,0.1,0.3,0.2
			c0.1,0.5,0.2,1,0.4,1.6c0.1,0.3,0.2,0.6,0.3,1C91.5,16.8,91.6,16.8,91.6,16.8z"/>
		<path d="M86.8,23.6c0,0.9,0,1.8,0,2.8c0,0.5-0.1,0.5-0.6,0.5c-0.5,0-0.6,0-0.6-0.5c0-1.9,0-3.8,0-5.6c0-0.5,0.1-0.5,0.7-0.5
			c0.5,0,0.5,0.1,0.5,0.5C86.8,21.7,86.8,22.7,86.8,23.6C86.8,23.6,86.8,23.6,86.8,23.6z"/>
		<path d="M104.1,23.6c0,0.9,0,1.8,0,2.7c0,0.5-0.1,0.6-0.6,0.6c-0.3,0-0.5-0.1-0.5-0.5c0-1.9,0-3.8,0-5.7c0-0.3,0.1-0.5,0.5-0.5
			c0.5,0,0.6,0.1,0.6,0.6C104.1,21.8,104.1,22.7,104.1,23.6C104.1,23.6,104.1,23.6,104.1,23.6z"/>
		<path d="M100.5,23.6c0-0.9,0-1.9,0-2.8c0-0.4,0.1-0.5,0.5-0.5c0.5,0,0.6,0.1,0.6,0.5c0,1.9,0,3.8,0,5.7c0,0.4-0.1,0.5-0.6,0.5
			c-0.4,0-0.5-0.1-0.5-0.5C100.5,25.4,100.5,24.5,100.5,23.6C100.5,23.6,100.5,23.6,100.5,23.6z"/>
		<path d="M99.8,14.5c0.3-0.2,0.6-0.3,0.9-0.5c0.2-0.1,0.4-0.1,0.4,0.2c0,0.1,0,0.3,0,0.4c0,0.2-0.1,0.3-0.3,0.4
			c-0.2,0.1-0.5,0.2-0.7,0.3c-0.3,0.2-0.4,0.5-0.4,0.8c0,0.7,0,1.3,0,2c0,0.2-0.1,0.5-0.2,0.5c-0.3,0-0.6,0-0.9-0.1
			c0,0-0.1-0.2-0.1-0.3c0-1.2,0-2.5,0-3.7c0-0.2,0-0.5,0.3-0.6C99.2,14,99.6,13.9,99.8,14.5C99.7,14.4,99.8,14.4,99.8,14.5z"/>
		<path d="M107,16.4c0,0.6,0,1.3,0,1.9c0,0.3-0.1,0.4-0.4,0.4c-0.8,0-0.8,0-0.8-0.8c0-1.1,0-2.3,0-3.4c0-0.2,0.1-0.5,0.2-0.5
			c0.3-0.1,0.6,0,0.9,0c0.1,0,0.1,0.3,0.1,0.4C107.1,15.1,107.1,15.8,107,16.4C107.1,16.4,107,16.4,107,16.4z"/>
		<path d="M87.7,16.4c0-0.6,0-1.3,0-1.9c0-0.3,0.1-0.5,0.4-0.5c0.7,0,0.8,0.1,0.8,0.5c0,1.3,0,2.6,0,3.8c0,0.3-0.1,0.4-0.4,0.4
			c-0.8,0.1-0.8,0-0.8-0.7c0-0.5,0-1,0-1.4C87.7,16.5,87.7,16.5,87.7,16.4z"/>
		<path d="M141.6,24.5c0-0.6,0-1.3,0-1.9c0-0.4,0.1-0.5,0.6-0.5c0.4,0,0.5,0.1,0.5,0.5c0,1.3,0,2.6,0,3.8c0,0.2-0.1,0.4-0.2,0.4
			c-0.2,0.1-0.5,0-0.7,0c-0.1,0-0.1-0.2-0.1-0.3C141.7,25.9,141.7,25.2,141.6,24.5C141.6,24.5,141.6,24.5,141.6,24.5z"/>
		<path d="M135.3,20.1c0.2,0.1,0.4,0.1,0.6,0.2c-0.1,0.2-0.3,0.3-0.4,0.5c-0.2,0.2-0.3,0.3-0.5,0.5c-0.1,0.1-0.2,0.2-0.3,0.2
			c-0.2,0-0.5-0.1-0.7-0.1c0.1-0.2,0.1-0.4,0.2-0.6C134.5,20.4,134.8,20.1,135.3,20.1z"/>
		<path d="M106.4,13.2c-0.2-0.1-0.4-0.1-0.5-0.2c-0.1-0.3,0-0.6,0-0.8c0,0,0.1-0.1,0.2-0.1c0.1,0,0.2,0,0.4,0c0.5,0,0.6,0.1,0.6,0.6
			C107,13.1,107,13.1,106.4,13.2z"/>
		<path d="M88.3,13.1c-0.5,0-0.6-0.1-0.6-0.6c0-0.5,0.1-0.5,0.6-0.5c0.5,0,0.6,0.1,0.6,0.5C88.9,13,88.8,13.1,88.3,13.1z"/>
		<path d="M142.2,21.2c-0.5,0-0.5-0.1-0.5-0.6c0-0.4,0.1-0.4,0.6-0.4c0.4,0,0.5,0.1,0.5,0.5C142.7,21.1,142.6,21.2,142.2,21.2z"/>
	</g>
</g>
<g>
	<path d="M88.3,34.1c-0.2,0-0.4,0-0.6,0c-0.2,0-0.3,0.1-0.3,0.3c0,0.2,0,0.4,0.3,0.4c0.3,0,0.6,0.1,0.9,0.1c0.1,0,0.2-0.1,0.3-0.2
		c0.3-0.5,0.5-1.1,0.7-1.6c0.1-0.2,0.2-0.4,0.5-0.4c0.3,0,0.4,0.1,0.6,0.4c0.3,0.6,0.6,1.2,0.8,1.8c0,0.1,0,0.3,0,0.4
		c-0.2,0-0.5,0.2-0.6-0.1c-0.1-0.5-0.5-0.5-0.8-0.4c-0.3,0-0.5,0-0.6,0.4c0,0.1-0.2,0.2-0.3,0.2c-0.6,0-1.3,0-1.9,0
		c-0.2,0-0.3-0.1-0.3-0.3c0-0.7,0-1.3,0-2c0-0.2,0.1-0.3,0.3-0.3c0.4,0,0.8,0,1.2,0c0.1,0,0.2,0.2,0.3,0.2c-0.1,0.1-0.2,0.2-0.3,0.2
		c-0.2,0-0.4,0-0.6,0c-0.1,0-0.2,0.2-0.2,0.2c0,0.1,0.1,0.2,0.2,0.3c0.1,0,0.2,0,0.3,0C88.2,33.7,88.3,33.7,88.3,34.1z M90.2,34.1
		c0,0,0-0.1,0.1-0.1c-0.1-0.2-0.2-0.4-0.3-0.5c0,0-0.1,0-0.1,0c0,0.2-0.1,0.4-0.1,0.6C89.9,34.1,90.1,34.1,90.2,34.1z"/>
	<path d="M78.1,35.1c0.2-0.4,0.3-0.7,0.5-1.1c0.2-0.4,0.3-0.7,0.5-1.1c0.1-0.2,0.2-0.3,0.5-0.3c0.2,0,0.4,0.1,0.5,0.3
		c0.3,0.6,0.6,1.3,0.8,1.9c0,0.1,0,0.3,0,0.4c-0.2,0-0.5,0.2-0.6-0.1c-0.1-0.5-0.5-0.4-0.9-0.5c-0.3,0-0.4,0.1-0.5,0.3
		c0,0.1-0.3,0.2-0.4,0.3c-0.6,0-1.3,0-1.9,0c-0.2,0-0.3-0.1-0.3-0.3c0-0.6,0-1.3,0-1.9c0-0.3,0.1-0.3,0.4-0.3c0.3,0,0.4,0.1,0.4,0.3
		c0,0.5,0,0.9,0,1.4c0,0.3,0.1,0.4,0.4,0.4C77.6,34.7,77.9,34.7,78.1,35.1C78,35.1,78.1,35.1,78.1,35.1z M79.8,34.1
		c0,0,0-0.1,0.1-0.1c-0.1-0.2-0.2-0.4-0.3-0.5c0,0-0.1,0-0.1,0c0,0.2-0.1,0.4-0.1,0.6C79.5,34.1,79.6,34.1,79.8,34.1z"/>
	<path d="M85.7,34.2c0.2,0.3,0.4,0.5,0.6,0.7c0.1,0.2,0.1,0.3-0.1,0.3c-0.3,0-0.5,0-0.7-0.3c-0.1-0.2-0.3-0.4-0.5-0.6
		c0,0-0.1,0-0.1,0c0,0.2,0,0.4,0,0.6c0,0.3-0.2,0.3-0.4,0.3c-0.2,0-0.4,0-0.4-0.3c0-0.7,0-1.3,0-2c0-0.1,0.2-0.3,0.2-0.3
		c0.4,0,0.9,0,1.3,0.1c0.3,0,0.5,0.2,0.6,0.5c0.1,0.3,0,0.6-0.3,0.8C85.9,34.1,85.8,34.1,85.7,34.2z M84.8,33.5c0,0.2,0,0.4,0.3,0.4
		c0.2,0,0.5-0.1,0.5-0.4c0-0.2-0.2-0.3-0.4-0.3C84.8,33.1,84.8,33.3,84.8,33.5z"/>
	<path d="M83.6,34c0,0.3,0,0.6,0,0.9c0,0.3-0.2,0.5-0.5,0.3c-0.2-0.1-0.4,0-0.6,0c-0.3,0-0.7,0-1,0c-0.3-0.1-0.5-0.4-0.5-0.7
		c0-0.5,0-1,0-1.5c0-0.3,0.2-0.3,0.4-0.3c0.2,0,0.3,0.1,0.3,0.3c0,0.4,0,0.8,0,1.3c0,0.4,0.2,0.5,0.5,0.5c0.4,0,0.7-0.2,0.7-0.5
		c0-0.4,0-0.8,0-1.2c0-0.2,0.1-0.3,0.3-0.3c0.2,0,0.4,0.1,0.4,0.3C83.6,33.3,83.6,33.7,83.6,34z"/>
	<path d="M94.8,35.2c-0.9,0-0.9,0-0.9-0.9c0-0.4,0-0.8,0-1.2c0-0.3,0.1-0.4,0.4-0.4c0.4,0,0.7,0,1.1,0c0.1,0,0.2,0.1,0.3,0.2
		c-0.1,0.1-0.2,0.2-0.3,0.2c-0.2,0-0.4,0-0.6,0c-0.1,0-0.2,0.2-0.2,0.2c0,0.1,0.1,0.2,0.2,0.3c0.1,0,0.3,0,0.4,0
		c0.1,0,0.2,0.2,0.2,0.3c-0.1,0.1-0.2,0.1-0.3,0.1c-0.1,0-0.2,0-0.3,0c-0.2,0-0.4,0.1-0.3,0.3c0,0.3,0.1,0.4,0.4,0.4
		c0.2,0,0.4,0,0.6,0c0.1,0,0.2,0.1,0.3,0.2c-0.1,0.1-0.2,0.2-0.3,0.2C95.3,35.3,95,35.2,94.8,35.2z"/>
	<path d="M92.4,32.7c0.3,0,0.7,0,1,0c0.1,0,0.2,0.2,0.3,0.3c-0.1,0.1-0.2,0.2-0.3,0.2c-0.7,0-0.7,0-0.7,0.7c0,0.4,0,0.7,0,1.1
		c0,0.2-0.1,0.3-0.3,0.3c-0.2,0-0.3-0.1-0.3-0.3c0-0.5,0-0.9,0-1.4c0-0.3-0.1-0.4-0.4-0.4c-0.1,0-0.2,0-0.3,0
		c-0.1,0-0.2-0.1-0.3-0.2c0.1-0.1,0.2-0.2,0.2-0.2C91.7,32.7,92,32.7,92.4,32.7C92.4,32.7,92.4,32.7,92.4,32.7z"/>
	<path d="M118.4,34c0,0.8-0.5,1.3-1.3,1.3c-0.8,0-1.3-0.5-1.3-1.3c0-0.8,0.6-1.4,1.3-1.3C117.7,32.7,118.4,33,118.4,34z M116.1,34
		c0,0.7,0.4,1.1,1,1.1c0.6,0,1.1-0.4,1-1.1c0-0.6-0.5-1.1-1-1.1C116.5,32.9,116.1,33.3,116.1,34z"/>
	<path d="M107.2,35.3c-0.1-0.1-0.2-0.1-0.3-0.2c-0.2-0.2-0.4-0.5-0.7-0.8c-0.1-0.1-0.2-0.1-0.3-0.2c-0.1,0.1-0.1,0.2-0.2,0.3
		c0,0.2,0,0.3,0,0.5c0,0.1-0.1,0.1-0.1,0.2c-0.1-0.1-0.1-0.1-0.2-0.2c0-0.5,0-1,0-1.5c0-0.9-0.1-0.8,0.8-0.8c0.2,0,0.4,0,0.5,0.1
		c0.5,0.3,0.5,0.8,0,1.1c-0.1,0-0.1,0.1-0.3,0.1c0.3,0.4,0.6,0.7,0.8,1.1C107.2,35.2,107.2,35.2,107.2,35.3z M105.7,33.3
		c0,0.5,0,0.5,0.4,0.5c0.4,0,0.7-0.2,0.7-0.5c0-0.3-0.3-0.5-0.7-0.5C105.7,32.9,105.7,33.1,105.7,33.3z"/>
	<path d="M109.8,32.8c0,0.8,0,1.5,0,2.3c0,0-0.1,0-0.1,0.1c-0.5-0.6-1.1-1.3-1.7-2c-0.1,0.7,0,1.4-0.1,2c0,0-0.1,0-0.1,0
		c0-0.1,0-0.2,0-0.3c0-0.6,0-1.2,0-1.9c0-0.1,0.1-0.2,0.1-0.3c0.1,0,0.2,0.1,0.3,0.1c0.4,0.5,0.8,1,1.2,1.5c0.1,0.1,0.1,0.2,0.2,0.2
		c0.2-0.6,0-1.3,0.2-1.9C109.7,32.8,109.7,32.8,109.8,32.8z"/>
	<path d="M139.7,35.3c-0.1-0.1-0.2-0.1-0.3-0.2c-0.2-0.3-0.4-0.5-0.7-0.8c-0.1-0.1-0.2-0.1-0.4-0.2c0,0.1-0.1,0.2-0.1,0.3
		c0,0.2,0,0.3,0,0.5c0,0.1-0.1,0.2-0.1,0.3c0,0-0.1,0-0.1,0c0-0.1,0-0.2,0-0.3c0-0.6,0-1.3,0-1.9c0-0.2,0.1-0.3,0.3-0.3
		c0.2,0,0.4,0,0.6,0c0.3,0,0.6,0.2,0.6,0.5c0.1,0.3-0.1,0.6-0.4,0.7c-0.3,0.1-0.2,0.2-0.1,0.4c0.2,0.3,0.4,0.5,0.6,0.8
		C139.8,35.2,139.7,35.2,139.7,35.3z M138.2,33.4c0,0.5,0,0.5,0.4,0.5c0.5,0,0.7-0.2,0.7-0.5c0-0.3-0.3-0.5-0.8-0.5
		C138.2,32.9,138.3,33.2,138.2,33.4z"/>
	<path d="M131.7,34.6c0-0.6,0-1.2,0-1.8c0,0,0.1,0,0.1,0c0,0.8,0,1.6,0,2.4c0,0-0.1,0-0.1,0c-0.5-0.7-1.1-1.3-1.6-2c0,0-0.1,0-0.1,0
		c0,0.1,0,0.2,0,0.4c0,0.5,0,0.9,0,1.4c0,0.1-0.1,0.1-0.1,0.2c0-0.1-0.1-0.1-0.1-0.2c0-0.7,0-1.4,0-2c0-0.1,0.1-0.1,0.1-0.2
		c0.1,0,0.2,0.1,0.3,0.1c0.4,0.5,0.8,1,1.2,1.5c0.1,0.1,0.1,0.2,0.2,0.3C131.5,34.7,131.6,34.6,131.7,34.6z"/>
	<path d="M98.5,35.2c0-0.1,0-0.2,0-0.3c0-0.6,0-1.2,0-1.8c0-0.1,0.1-0.2,0.1-0.3c0.1,0.1,0.2,0.1,0.3,0.2c0.4,0.5,0.8,0.9,1.2,1.4
		c0.1,0.1,0.2,0.2,0.2,0.3c0,0,0.1,0,0.1,0c0-0.6,0-1.3,0-2c0.3,0.3,0.3,2.2,0.1,2.5c-0.6-0.7-1.1-1.4-1.7-2.1c0,0-0.1,0-0.1,0
		c0,0.7,0,1.3,0,2C98.6,35.2,98.5,35.2,98.5,35.2z"/>
	<path d="M112.5,35.3c-0.1-0.1-0.2-0.2-0.3-0.3c-0.1-0.2-0.2-0.5-0.3-0.5c-0.3-0.1-0.7-0.1-1.1,0c-0.1,0-0.2,0.3-0.3,0.5
		c-0.1,0.1-0.2,0.2-0.2,0.3c0,0-0.1-0.1-0.1-0.1c0.1-0.2,0.1-0.3,0.2-0.5c0.3-0.6,0.5-1.2,0.8-1.8c0.1-0.3,0.3-0.3,0.4-0.1
		c0.4,0.7,0.7,1.5,1,2.2C112.6,35.1,112.6,35.2,112.5,35.3C112.6,35.2,112.5,35.2,112.5,35.3z M111.4,34.2c0.5,0,0.5,0,0.3-0.4
		c-0.1-0.2-0.2-0.3-0.3-0.5c-0.1,0.2-0.2,0.3-0.3,0.5C110.9,34.2,110.9,34.2,111.4,34.2z"/>
	<path d="M121.3,35.2c0-0.1,0-0.2,0-0.3c0.3-0.7,0.6-1.3,0.9-2c0-0.1,0.1-0.2,0.2-0.2c0.1,0.1,0.2,0.2,0.2,0.3
		c0.3,0.6,0.6,1.3,0.9,1.9c0,0.1,0,0.2,0,0.3c-0.1-0.1-0.2-0.1-0.2-0.2c-0.1-0.5-0.5-0.6-1-0.6c-0.4,0-0.6,0.1-0.7,0.5
		c0,0.1-0.1,0.2-0.2,0.4C121.3,35.2,121.3,35.2,121.3,35.2z M122.5,33.2c0,0-0.1,0-0.1,0c-0.1,0.3-0.3,0.6-0.4,1c0.3,0,0.6,0,1,0
		C122.8,33.8,122.6,33.5,122.5,33.2z"/>
	<path d="M120.6,34.7c0.2-0.7,0-1.3,0.1-1.9c0,0,0.1,0,0.1,0c0,0.8,0,1.6,0,2.4c0,0-0.1,0-0.1,0c-0.5-0.7-1.1-1.3-1.6-2
		c0,0-0.1,0-0.1,0c0,0.6,0,1.3,0,1.9c-0.1,0-0.1,0-0.2,0c0-0.1-0.1-0.2-0.1-0.3c0-0.6,0-1.2,0-1.8c0-0.1,0.1-0.2,0.1-0.3
		c0.1,0,0.2,0.1,0.3,0.2c0.4,0.4,0.7,0.8,1,1.3C120.2,34.3,120.4,34.5,120.6,34.7z"/>
	<path d="M127.2,32.8c0,0.2,0,0.4,0,0.6c0,0.3,0,0.7,0,1c0,0.5,0.5,0.8,1,0.7c0.6-0.2,0.7-0.3,0.7-0.9c0-0.3,0-0.7,0-1
		c0-0.1,0-0.2,0-0.3c0,0,0.1,0,0.1,0c0,0.8,0,1.6,0,2.3c-0.2,0-0.3,0-0.5,0.1c-0.1,0-0.2,0.1-0.4,0.1c-0.9,0.1-1.2-0.2-1.2-1.1
		c0-0.4,0-0.7,0-1.1c0-0.1,0-0.2,0.1-0.3C127.1,32.8,127.2,32.8,127.2,32.8z"/>
	<path d="M137.5,32.9c-0.3,0-0.6,0-0.8,0c-0.4,0-0.4,0.2-0.4,0.5c0,0.2-0.1,0.5,0.4,0.5c0.2,0,0.4,0,0.5,0c0,0,0,0.1,0,0.1
		c-0.2,0-0.4,0-0.6,0c-0.1,0-0.2,0.2-0.3,0.2c0,0,0,0,0,0c0,1-0.1,0.8,0.8,0.8c0.1,0,0.3,0,0.4,0c0,0,0,0.1,0,0.1
		c-0.1,0-0.2,0-0.4,0c-1.1,0-1.1,0-1.1-1.1c0-0.4,0-0.7,0-1.1c0-0.2,0.1-0.3,0.3-0.3c0.4,0,0.8,0,1.1,0
		C137.5,32.8,137.5,32.9,137.5,32.9z"/>
	<path d="M104.7,32.9c-0.3,0-0.5,0-0.8,0c-0.2,0-0.3,0.1-0.3,0.3c-0.1,0.7-0.1,0.7,0.7,0.7c0.1,0,0.1,0,0.2,0c0,0,0,0.1,0,0.1
		c-0.2,0-0.4,0-0.6,0c-0.2,0-0.3,0.1-0.3,0.3c0,0.7,0,0.7,0.7,0.7c0.2,0,0.3,0,0.5,0c0,0.1,0,0.1,0,0.2c-0.2,0-0.4,0-0.5,0
		c-0.9,0-0.9,0-0.9-0.9c0-0.4,0-0.9,0-1.3c0-0.2,0.1-0.3,0.3-0.3c0.3,0,0.7,0,1,0C104.7,32.8,104.7,32.8,104.7,32.9z"/>
	<path d="M147.6,35.2c-0.4,0-0.8,0-1.2,0c-0.1,0-0.2-0.2-0.2-0.3c0-0.6,0-1.3,0-1.9c0-0.1,0.1-0.2,0.2-0.3c0.4,0,0.8,0,1.3,0
		c0,0,0,0.1,0,0.1c-0.2,0-0.5,0-0.7,0c-0.2,0-0.4,0-0.4,0.1c-0.1,0.2,0,0.5,0,0.7c0,0,0.2,0.1,0.2,0.1c0.2,0,0.4,0,0.6,0
		c0,0,0,0.1,0,0.1c-0.2,0-0.4,0-0.6,0c-0.2,0-0.3,0.1-0.3,0.3c0,1-0.1,0.8,0.8,0.8c0.1,0,0.3,0,0.4,0
		C147.6,35.1,147.6,35.2,147.6,35.2z"/>
	<path d="M133.4,32.7c0.4,0.6,0.6,1.4,1,2.1c0.5-0.7,0.6-1.5,1.1-2.1c0,0,0.1,0,0.1,0.1c0,0.1,0,0.2-0.1,0.2c-0.3,0.7-0.6,1.3-0.9,2
		c0,0.1-0.1,0.2-0.2,0.2c0,0-0.1-0.1-0.2-0.1c-0.3-0.7-0.7-1.5-1-2.2c0,0,0,0,0-0.1C133.4,32.8,133.4,32.8,133.4,32.7z"/>
	<path d="M141.4,33c-0.1,0-0.2-0.1-0.3-0.1c-0.2,0-0.4,0-0.5,0.1c-0.4,0.2-0.4,0.5,0,0.7c0.2,0.1,0.4,0.2,0.7,0.3
		c0.3,0.1,0.5,0.3,0.5,0.7c0,0.3-0.4,0.6-0.7,0.6c-0.5,0-0.6,0-0.9-0.2c0.2,0,0.3,0,0.4,0c0.1,0,0.3,0.1,0.4,0
		c0.2,0,0.5-0.1,0.5-0.4c0-0.3-0.2-0.4-0.4-0.5c-0.2-0.1-0.5-0.2-0.7-0.3c-0.4-0.3-0.4-0.7,0.1-1C140.7,32.7,141.2,32.7,141.4,33z"
		/>
	<path d="M149.5,33c-0.2,0-0.3-0.1-0.4-0.1c-0.3-0.1-0.7,0-0.8,0.3c-0.1,0.3,0.2,0.4,0.4,0.6c0.2,0.1,0.3,0.2,0.5,0.2
		c0.2,0.1,0.5,0.3,0.4,0.6c0,0.2-0.2,0.4-0.4,0.6c-0.3,0.2-0.9,0.1-1.2-0.2c0.2,0,0.3,0,0.4,0.1c0.2,0,0.4,0.1,0.5,0
		c0.2-0.1,0.4-0.3,0.4-0.4c0-0.1-0.2-0.3-0.3-0.5c-0.2-0.1-0.5-0.2-0.6-0.3c-0.1-0.1-0.3-0.3-0.3-0.5c0-0.2,0.2-0.5,0.3-0.5
		c0.3-0.1,0.6-0.1,0.9-0.1C149.4,32.8,149.4,32.9,149.5,33z"/>
	<path d="M142.9,32.8c0.6,0,1.3,0,1.9,0c0,0,0,0.1,0,0.1c-0.1,0-0.3,0.1-0.4,0c-0.3,0-0.4,0.1-0.4,0.4c0,0.5,0,1,0,1.5
		c0,0.1,0,0.2,0,0.3c0,0-0.1,0-0.1,0c0-0.1-0.1-0.2-0.1-0.4c0-0.5,0-1,0-1.5c0-0.3-0.1-0.4-0.4-0.4c-0.2,0-0.3,0-0.5,0
		C142.9,32.8,142.9,32.8,142.9,32.8z"/>
	<path d="M102.8,32.8C102.8,32.8,102.8,32.8,102.8,32.8c-0.8,0.1-0.8,0.1-0.8,0.7c0,0.4,0,0.9,0,1.3c0,0.1,0,0.2,0,0.3
		c0,0-0.1,0-0.1,0c0-0.1-0.1-0.2-0.1-0.3c0-0.5,0-1.1,0-1.6c0-0.3-0.1-0.4-0.4-0.4c-0.1,0-0.3,0-0.4,0c0,0,0-0.1,0-0.1
		C101.6,32.8,102.2,32.8,102.8,32.8C102.8,32.8,102.8,32.8,102.8,32.8z"/>
	<path d="M125.4,35.2c-0.4,0-0.7,0-1.1,0c-0.1,0-0.2-0.1-0.2-0.2c0-0.7,0-1.5,0-2.2c0,0,0,0,0.1-0.1c0,0.2,0.1,0.3,0.1,0.4
		c0,0.5,0,1,0,1.6c0,0.3,0.1,0.4,0.4,0.3c0.2,0,0.4,0,0.5,0c0.1,0,0.2,0.1,0.2,0.1C125.5,35.1,125.4,35.2,125.4,35.2z"/>
	<path d="M113.4,35.2c0-0.1,0-0.2,0-0.4c0-0.5,0-1,0-1.5c0-0.3-0.1-0.5-0.4-0.4c-0.1,0-0.3,0-0.4-0.1c0.6,0,1.2,0,1.8,0
		c0,0,0,0.1,0,0.1c-0.1,0-0.2,0-0.4,0c-0.5,0-0.5,0-0.5,0.5c0,0.5,0,1,0,1.5c0,0.1,0,0.2,0,0.3C113.5,35.2,113.4,35.2,113.4,35.2z"
		/>
	<path d="M145.3,34c0-0.3,0-0.6,0-1c0-0.1,0.1-0.2,0.1-0.3c0,0.1,0.1,0.2,0.1,0.2c0,0.6,0,1.3,0,1.9c0,0.1-0.1,0.2-0.1,0.3
		c0-0.1-0.1-0.2-0.1-0.3C145.3,34.6,145.3,34.3,145.3,34z"/>
	<path d="M97.7,32.8c0,0.8,0,1.6,0,2.5C97.5,35,97.5,33,97.7,32.8z"/>
	<path d="M115.2,35.2c-0.2-0.2-0.2-2.2,0-2.4C115.2,33.6,115.2,34.4,115.2,35.2z"/>
	<path d="M142.4,32.8c0,0.8,0,1.6,0,2.4c0,0-0.1,0-0.1,0C142.3,34.4,142.3,33.6,142.4,32.8C142.4,32.8,142.4,32.8,142.4,32.8z"/>
	<path d="M132.7,35.2c0-0.8,0-1.6,0-2.4C132.9,33,132.9,34.9,132.7,35.2z"/>
</g>
</svg>
