<?xml version="1.0" encoding="utf-8"?>
<!-- Generator: Adobe Illustrator 24.2.3, SVG Export Plug-In . SVG Version: 6.00 Build 0)  -->
<svg version="1.1" id="Capa_1" xmlns="http://www.w3.org/2000/svg" xmlns:xlink="http://www.w3.org/1999/xlink" x="0px" y="0px"
	 viewBox="0 0 155 42" style="enable-background:new 0 0 155 42;" xml:space="preserve">
<style type="text/css">
	.st0{fill:#111111;}
	.st1{fill:#2B5B2F;}
	.st2{fill:#3C904C;}
	.st3{fill:#2C6036;}
	.st4{fill:#080806;}
	.st5{fill:#FCFCFC;}
	.st6{fill:#DCD740;}
	.st7{fill:#DED940;}
	.st8{fill:#FDFDFD;}
	.st9{fill:#EDE63E;}
	.st10{fill:#3B2C75;}
	.st11{fill:#61528B;}
	.st12{fill:#4C3D7F;}
	.st13{fill:#43357A;}
	.st14{fill:#8274A2;}
	.st15{fill:#6A5C92;}
	.st16{fill:#5A4B87;}
	.st17{fill:#7B6D9D;}
	.st18{fill:#756698;}
	.st19{fill:#706296;}
	.st20{fill:#564885;}
	.st21{fill:#362561;}
	.st22{fill:#BDB6D0;}
	.st23{fill:#9387B0;}
	.st24{fill:#ABA2C2;}
	.st25{fill:#8C7EA9;}
	.st26{fill:#9F94B9;}
	.st27{fill:#8578A4;}
	.st28{fill:#D4D0E1;}
	.st29{fill:#9B8FB5;}
	.st30{fill:#295F9A;}
	.st31{fill:#014682;}
	.st32{fill:#014D89;}
	.st33{fill:#16518F;}
	.st34{fill:#225A96;}
	.st35{fill:#1E5793;}
	.st36{fill:#023F74;}
	.st37{fill:#4B76AA;}
	.st38{fill:#3E6CA3;}
	.st39{fill:#32659E;}
	.st40{fill:#769FC8;}
	.st41{fill:#AACFE9;}
	.st42{fill:#B7D9EF;}
	.st43{fill:#C5E4F5;}
	.st44{fill:#8EB7D9;}
	.st45{fill:#82ABD0;}
	.st46{fill:#99C2E0;}
	.st47{fill:#618BB9;}
	.st48{fill:#5881B2;}
	.st49{fill:#6B94C0;}
	.st50{fill:#D1EDFA;}
	.st51{fill:#FEFEFE;}
	.st52{fill:#0234A0;}
	.st53{fill:#0436A1;}
	.st54{fill:#0537A1;}
	.st55{fill:#0336A1;}
	.st56{fill:#0235A0;}
	.st57{fill:#0335A0;}
	.st58{fill:#0335A1;}
	.st59{fill:#0638A2;}
	.st60{fill:#FBFCFD;}
</style>
<g>
	<path class="st52" d="M21.3,1c0.4,0.1,0.9,0.1,1.3,0.2C31,2,38,8.2,39.6,16.6c2.1,10.3-4.9,20.5-15.2,22.4
		c-0.4,0.1-0.8,0.1-1.3,0.2c0-0.9,0-1.8,0-2.7c2.4-0.4,4.6-1,6.5-2.5c0.7-0.5,1.3-1.2,1.9-1.8c0,0-0.1-0.1-0.1-0.1
		c-7.2,0-14.3,0-21.6,0c1,1.4,2.3,2.3,3.7,3.1c1.5,0.7,3,1.1,4.7,1.3c0,0.9,0,1.8,0,2.8c-1.2-0.3-2.4-0.5-3.5-0.9
		C7.8,36,3.4,31.1,1.8,23.8c-0.1-0.6-0.2-1.2-0.3-1.8c0-1.1,0-2.2,0-3.4c0-0.1,0.1-0.2,0.1-0.2C1.7,17.5,1.8,16.8,2,16
		C3.8,8,10.7,1.9,18.8,1.2c0.4,0,0.8-0.1,1.2-0.2C20.5,1,20.9,1,21.3,1z M15.9,31.1L15.9,31.1L15.9,31.1c0-0.1,0-0.2,0-0.3
		c-0.4-1.4-0.2-2.8,0.3-4.1c0.7-1.9,1.9-3.5,3.3-4.9c2.4-2.4,4.9-4.8,7.3-7.2c0.3-0.3,0.7-0.7,1-1.1c0.7-0.9,1.1-1.9,1.2-3
		c0-0.9-0.1-1.7-0.5-2.5c-0.6,1.4-1.5,2.5-2.5,3.5c-2.9,2.9-5.9,5.8-8.9,8.7c-1.1,1-2,2.2-2.5,3.6C13.5,26.4,13.7,29.2,15.9,31.1z
		 M10,24.9C10,24.9,10,25,10,24.9C10,25,10,24.9,10,24.9C10,24.9,10,24.9,10,24.9c0-0.2,0-0.3-0.1-0.5c-0.3-1.1-0.4-2.1-0.2-3.2
		c0.3-1.7,1.2-3,2.3-4.2c2.9-2.9,5.9-5.8,8.9-8.7c0.6-0.6,1.1-1.3,1.4-2.1c0.5-1.5-0.3-3.5-1.6-4.1c-0.1,0.4-0.1,0.9-0.2,1.4
		c-0.3,1.4-1.2,2.4-2.2,3.4c-2.7,2.6-5.3,5.2-8,7.9c-0.8,0.8-1.5,1.7-2,2.8C7.1,20.1,7.9,22.9,10,24.9z M12.3,25.7
		c0.1-0.6,0.2-1.3,0.4-1.9c0.7-2,2.1-3.5,3.6-4.9c3.1-3,6.2-6,9.3-9.1c0.5-0.5,1-1.2,1.3-1.9c0.8-1.6,0.3-3.5-1-4.5
		c-0.1,1.4-0.8,2.5-1.7,3.5c-0.4,0.5-0.9,1.1-1.4,1.5c-2.9,2.8-5.8,5.7-8.7,8.5c-0.8,0.8-1.5,1.7-2.1,2.6
		C10.8,21.6,10.9,23.9,12.3,25.7z M20.2,31c0-0.6,0-1.1,0.1-1.7c0.3-1.6,1.1-3,2.2-4.2c1.6-1.7,3.3-3.3,4.9-5c1.5-1.5,3-2.9,4.4-4.4
		c1.6-1.6,1.9-3.8,0.9-5.8c-0.6,1.3-1.5,2.3-2.4,3.3c-2.9,2.9-5.9,5.8-8.9,8.7c-0.7,0.7-1.3,1.4-1.9,2.1C18,26.4,18.3,28.9,20.2,31z
		 M24.6,31.1c1-2.7,1.6-3.6,3.7-5.6c0.9-0.9,1.8-1.7,2.6-2.6c0.6-0.6,1.1-1.3,1.5-2c0.7-1.2,0.8-3,0.4-3.9c-0.6,0.6-1.2,1.3-1.9,2
		c-1.7,1.6-3.4,3.2-5.1,4.9c-1.2,1.2-1.9,2.7-2.1,4.4C23.6,29.3,23.9,30.3,24.6,31.1z"/>
	<path class="st53" d="M78.6,32.7c1-2.3,2-4.4,3-6.6c0.3-0.7,0.7-1.5,1-2.2c0.1-0.1,0.2-0.3,0.3-0.3c1.2,0,2.4,0,3.6,0
		c0,0.2,0,0.4,0,0.6c-0.2,0-0.5,0.1-0.7,0.1c-0.7,0.1-0.9,0.4-0.9,1.1c0,0.2,0,0.4,0,0.6c0.1,2.8,0.1,5.6,0.2,8.3
		c0,0.2,0,0.4,0.1,0.5c0.1,0.7,0.3,0.9,1,1c0.2,0,0.4,0.1,0.7,0.1c0,0.2,0,0.4,0,0.6c-1.9,0-3.8,0-5.7,0c0-0.2,0-0.4,0-0.6
		c0.1,0,0.2,0,0.2-0.1c1.1-0.1,1.4-0.4,1.4-1.5c0-2.7,0-5.5,0-8.2c0-0.1,0-0.2,0-0.4c-0.2,0.4-0.3,0.6-0.4,0.8
		c-1.4,3.1-2.7,6.3-4.1,9.4c-0.1,0.2-0.1,0.6-0.4,0.4c-0.2-0.1-0.4-0.3-0.4-0.5c-1.3-3.1-2.6-6.2-3.8-9.3c-0.1-0.2-0.1-0.3-0.3-0.5
		c0,0.2,0,0.4-0.1,0.6c-0.1,2.1-0.2,4.1-0.3,6.2c0,0.6,0,1.1,0,1.7c0.1,0.8,0.2,1,1.1,1.2c0.2,0,0.5,0.1,0.7,0.1c0,0.2,0,0.4,0,0.6
		c-1.6,0-3.1,0-4.7,0c0-0.2,0-0.4,0-0.6c0.1,0,0.2,0,0.3,0c0.9-0.1,1.3-0.5,1.4-1.4c0.1-1.2,0.3-2.4,0.4-3.5
		c0.1-1.5,0.2-3.1,0.3-4.6c0-0.1,0-0.2,0-0.3c0-1.3-0.1-1.5-1.5-1.8c-0.1,0-0.2,0-0.3,0c0-0.2,0-0.4,0-0.6c1.2,0,2.4,0,3.6,0
		c0.1,0,0.3,0.2,0.4,0.4c1.2,2.7,2.5,5.5,3.7,8.2C78.5,32.3,78.5,32.5,78.6,32.7z"/>
	<path class="st53" d="M116.6,11.1c0.5,0.7,0.6,1.5,0.4,2.4c-0.4,1.3-1.3,1.9-2.6,2.2c-0.6,0.1-1.1,0.1-1.7,0
		c-0.4,0-0.6,0.1-0.6,0.4c0,0.2,0,0.6,0.2,0.7c0.3,0.2,0.7,0.3,1.1,0.3c0.8,0,1.7,0,2.5,0.1c2,0.2,2.9,1.9,2,3.7
		c-0.9,1.7-2.4,2.4-4.2,2.7c-1,0.1-2,0.1-2.9-0.4c-0.5-0.3-0.9-0.7-1.3-1.1c-0.5-0.7-0.3-1.4,0.3-2c0.5-0.4,1-0.7,1.4-1.1
		c-0.4-0.2-0.7-0.4-1-0.7c-0.2-0.2-0.4-0.5-0.5-0.7c-0.3-0.5-0.2-0.6,0.3-0.9c0.5-0.3,1-0.6,1.5-1c-0.1-0.1-0.2-0.2-0.2-0.2
		c-2.1-0.9-2.2-3.8-0.5-5c1.2-0.9,2.5-1.1,3.9-0.6c0.7,0.3,1.4,0.3,2.2,0.2c0.5,0,1-0.1,1.5-0.1c0,0,0.1,0.1,0.1,0.1
		c-0.2,0.3-0.4,0.8-0.7,1C117.6,11.1,117.1,11,116.6,11.1z M114,18.9c-0.4,0-0.9,0-1.3,0.1c-1.2,0.2-1.8,1.6-1,2.6
		c0.9,1.2,3.4,1.2,4.4,0.1c0.8-1,0.5-2.3-0.8-2.6C114.9,18.9,114.4,18.9,114,18.9z M115.1,12.8c-0.1-0.8-0.3-1.6-0.6-2
		c-0.6-0.7-1.4-0.7-1.9,0c-0.6,0.9-0.6,2.9,0.1,3.8c0.6,0.7,1.6,0.7,2-0.2C114.9,13.9,114.9,13.3,115.1,12.8z"/>
	<path class="st53" d="M56.3,35.4c0,0.2,0,0.3,0,0.5c-1.2,0.2-2.4,0.5-3.6,0.8c0-0.4,0-0.7,0-1.1c-0.3,0.2-0.6,0.4-0.9,0.5
		c-1.5,1-2.9,0.8-4.3-0.5c-1.9-1.8-1.7-4.9,0.3-6.7c1.3-1.2,2.9-1.6,4.8-1.3c0-0.4,0-0.7,0-1.1c0-0.6,0-1.3,0-1.9
		c0-0.6-0.2-0.8-0.8-0.9c-0.2,0-0.3-0.1-0.6-0.1c0-0.2,0-0.3,0-0.5c1.2-0.2,2.4-0.4,3.6-0.7c0,0.2,0,0.3,0,0.5c0,3.6,0,7.3,0,10.9
		c0,0.2,0,0.4,0,0.5c0,0.8,0.2,0.9,0.9,1C55.9,35.4,56.1,35.4,56.3,35.4z M52.6,32.1c0-0.8,0-1.6,0-2.4c0-0.2-0.1-0.5-0.3-0.7
		c-0.7-0.9-2-0.8-2.8,0.1c-1.2,1.3-1.2,4.2,0,5.5c0.7,0.8,1.7,1,2.7,0.6c0.3-0.1,0.4-0.3,0.4-0.6C52.6,33.7,52.6,32.9,52.6,32.1z"/>
	<path class="st54" d="M48.4,18.5c0-0.2,0-0.4,0-0.6c0.3,0,0.6-0.1,0.9-0.1c0.6-0.1,0.8-0.3,0.9-0.9c0-0.2,0.1-0.4,0.1-0.7
		c0-3.2,0-6.4,0-9.6c0-0.1,0-0.2,0-0.3c-0.8,0-1.5,0-2.2,0c-0.6,0-1,0.4-1.2,0.9c-0.2,0.5-0.3,1-0.5,1.5c-0.2,0-0.4,0-0.6,0
		c0.1-1.1,0.1-2.3,0.2-3.4c3.7,0,7.4,0,11.1,0c0.1,1.1,0.1,2.2,0.2,3.3c-0.6,0.2-0.6,0.2-0.8-0.4c0,0,0-0.1,0-0.1
		C56,6.5,55.6,6.2,54,6.2c-0.4,0-0.8,0-1.3,0c0,0.1,0,0.3,0,0.4c0,3.1,0,6.3,0,9.4c0,1.4,0.2,1.7,1.6,1.8c0.1,0,0.2,0,0.3,0
		c0,0.1,0,0.2,0,0.3c0,0.1,0,0.2,0,0.3C52.5,18.5,50.5,18.5,48.4,18.5z"/>
	<path class="st55" d="M77.3,18c0,0.2,0,0.4,0,0.6c-1.5,0-3.1,0-4.6,0c0-0.2,0-0.3,0-0.6c0.2,0,0.4-0.1,0.7-0.1
		c0.4-0.1,0.6-0.4,0.7-0.8c0-1.8,0-3.6,0-5.4c0-0.5-0.3-0.7-0.7-0.8c-0.4,0-0.4-0.2-0.3-0.6c1.1-0.3,2.2-0.5,3.3-0.8
		c0,0.5,0,0.9,0,1.4c0.6-0.4,1.1-0.7,1.6-1c0.5-0.3,1.1-0.5,1.7-0.4c1.3,0.2,2.1,1.2,2.2,2.7c0,1.3,0,2.5,0,3.8c0,0.3,0,0.5,0,0.8
		c0,0.8,0.2,0.9,0.9,1c0.1,0,0.2,0.1,0.3,0.1c0,0.2,0,0.4,0,0.5c-1.5,0-3,0-4.5,0c0-0.2,0-0.3,0-0.5c0,0,0.1-0.1,0.1-0.1
		c0.9-0.2,1-0.3,1-1.3c0-1.3,0-2.6,0-3.9c0-0.7-0.2-1.4-0.9-1.7c-0.6-0.3-1.7,0-2.2,0.6c-0.1,0.1-0.1,0.3-0.1,0.4c0,1.5,0,3.1,0,4.6
		C76.3,17.6,76.4,17.7,77.3,18z"/>
	<path class="st56" d="M107.6,35.9c0,0.2,0,0.3,0,0.5c-1.5,0-3,0-4.5,0c0-0.2,0-0.4,0-0.5c1-0.3,1-0.3,1.1-1.4c0-1.3,0-2.5,0-3.8
		c0-0.7-0.2-1.4-0.9-1.7c-0.9-0.3-1.6,0.1-2.2,0.6c-0.1,0.1-0.1,0.3-0.1,0.4c0,1.5,0,3,0,4.5c0,1.1,0,1.1,1,1.4c0,0.2,0,0.3,0,0.5
		c-1.5,0-3.1,0-4.6,0c0-0.2,0-0.3,0-0.5c0.1,0,0.2,0,0.3-0.1c0.9-0.2,1-0.3,1-1.3c0-1.5,0-3,0-4.4c0-1.1,0-1.1-1.1-1.4
		c0-0.1,0-0.3,0-0.5c1.1-0.3,2.2-0.5,3.3-0.8c0,0.4,0,0.9,0,1.4c0.6-0.4,1.1-0.7,1.6-1c0.7-0.4,1.4-0.5,2.2-0.3
		c1.1,0.3,1.7,1.3,1.8,2.7c0,1.2,0,2.4,0,3.6c0,0.2,0,0.4,0,0.6C106.4,35.6,106.5,35.7,107.6,35.9z"/>
	<path class="st53" d="M142,14.1c-0.1,2.9-2,4.8-4.7,4.7c-2.6-0.1-4.5-2-4.4-4.5c0.1-2.8,2.2-4.9,4.8-4.8
		C140.2,9.6,142.1,11.6,142,14.1z M139.6,14.6c0,0-0.1,0-0.1,0c0-0.4,0-0.7,0-1.1c-0.1-0.9-0.3-1.7-0.8-2.4c-0.8-1.1-2.1-1-2.8,0.2
		c-0.1,0.2-0.2,0.5-0.3,0.8c-0.3,1-0.3,2-0.1,3.1c0.1,0.8,0.3,1.6,0.8,2.3c0.4,0.5,0.9,0.8,1.6,0.7c0.7-0.1,1.1-0.6,1.2-1.2
		C139.4,16.1,139.5,15.3,139.6,14.6z"/>
	<path class="st53" d="M88.4,18.8c-2.7,0-4.6-1.9-4.6-4.5c0-2.7,2.1-4.8,4.7-4.8c2.6,0,4.5,2,4.4,4.6C92.9,16.8,91,18.8,88.4,18.8z
		 M90.5,14.6c-0.1-1.3-0.2-2.2-0.6-3c-0.4-0.9-1.1-1.4-1.8-1.4c-0.9,0.1-1.3,0.8-1.5,1.5c-0.4,1.1-0.4,2.3-0.1,3.4
		c0.2,0.7,0.4,1.4,0.8,2.1c0.3,0.6,0.9,0.9,1.6,0.8c0.7-0.1,1.1-0.6,1.3-1.2C90.3,16.1,90.4,15.4,90.5,14.6z"/>
	<path class="st55" d="M96.7,32c0,2.8-1.9,4.7-4.6,4.7c-2.7,0-4.6-1.9-4.6-4.5c0-2.7,2.1-4.8,4.7-4.8C94.8,27.5,96.7,29.4,96.7,32z
		 M94.3,32.5C94.3,32.5,94.2,32.5,94.3,32.5c-0.1-0.3-0.1-0.5-0.1-0.7c-0.1-1-0.2-2-0.8-2.8c-0.8-1.1-2.1-1-2.7,0.2
		c-0.3,0.5-0.4,1.1-0.5,1.7c-0.1,1.5,0,3,0.8,4.3c0.4,0.6,0.9,0.9,1.7,0.8c0.7-0.1,1.1-0.6,1.3-1.2C94.1,34,94.2,33.3,94.3,32.5z"/>
	<path class="st55" d="M103.7,18.8c-2.7,0-4.6-1.9-4.5-4.5c0-2.7,2.1-4.8,4.7-4.8c2.6,0,4.4,2,4.4,4.6
		C108.3,16.9,106.4,18.8,103.7,18.8z M105.9,14.8c-0.1-0.7-0.1-1.2-0.2-1.8c-0.1-0.8-0.3-1.5-0.9-2.2c-0.8-0.9-2-0.8-2.6,0.2
		c-0.3,0.5-0.5,1.2-0.5,1.8c-0.2,1.5,0,3,0.8,4.3c0.4,0.6,0.9,0.9,1.6,0.8c0.7-0.1,1.1-0.6,1.3-1.2
		C105.7,16.1,105.8,15.3,105.9,14.8z"/>
	<path class="st53" d="M145.6,28.3c0-0.2,0-0.4,0-0.6c1.5,0,3,0,4.6,0c0,0.2,0,0.3,0,0.5c0,0,0,0-0.1,0c-0.9,0.3-0.9,0.3-0.6,1.3
		c0.4,1.3,0.9,2.6,1.3,3.9c0.1,0.1,0.1,0.3,0.2,0.6c0.6-1.6,1.1-3.2,1.6-4.7c0.1-0.4,0-0.7-0.4-0.8c-0.2-0.1-0.4-0.1-0.6-0.2
		c0-0.2,0-0.3,0-0.5c1.2,0,2.4,0,3.6,0c0,0.2,0,0.3,0,0.5c-1,0.1-1.4,0.8-1.8,1.6c-1.5,3.7-2.9,7.3-4.4,11c-0.2,0.5-0.5,0.7-1,0.5
		c-0.2-0.1-0.3-0.1-0.5-0.2c-0.7-0.5-0.7-1.2,0.1-1.6c0.8-0.5,1.3-1.2,1.8-2c0.3-0.6,0.3-1.1,0.1-1.8c-0.8-2-1.5-3.9-2.2-5.9
		C147,29.1,146.7,28.3,145.6,28.3z"/>
	<path class="st53" d="M64.3,34.2c0.4,0.3,0.3,0.5,0,0.8c-1.1,1.2-2.4,2-4.2,1.6c-1.7-0.4-2.8-1.7-3-3.7c-0.3-2.4,1.3-4.8,3.6-5.4
		c1.9-0.5,3.9,0.9,4,2.9c0,0.6-0.1,0.8-0.7,0.9c-1.2,0.1-2.3,0.2-3.5,0.2c-0.4,0-0.8,0-1.2,0.1c-0.2,1,0.4,2.5,1.3,3
		C62,35.4,63.2,35.1,64.3,34.2z M59.4,30.7c1,0,1.9,0,2.8,0c0.3,0,0.4-0.2,0.4-0.5c-0.1-0.4-0.2-0.9-0.3-1.2c-0.4-0.8-1.4-0.9-2-0.2
		C59.7,29.3,59.5,29.9,59.4,30.7z"/>
	<path class="st53" d="M139.9,31.6c0.1,1.3,0.4,2.5,1.6,3.1c1.2,0.6,2.4,0.3,3.4-0.6c0.4,0.3,0.4,0.5,0.1,0.8
		c-1.1,1.2-2.4,2-4.1,1.6c-1.7-0.4-2.7-1.6-3.1-3.5c-0.4-2.4,1.2-5,3.6-5.6c1.9-0.5,3.9,0.9,4,2.9c0,0.6-0.1,0.8-0.7,0.9
		c-1.2,0.1-2.4,0.2-3.6,0.2C140.7,31.6,140.3,31.6,139.9,31.6z M140,30.7c0.7,0,1.4,0,2.1,0c1.1,0,1.3-0.3,0.9-1.4
		c0-0.1-0.1-0.3-0.2-0.4c-0.5-0.8-1.4-0.9-2-0.2C140.3,29.3,140.1,29.9,140,30.7z"/>
	<path class="st53" d="M116.3,31.6c0.1,1.4,0.4,2.6,1.7,3.2c1.2,0.6,2.3,0.2,3.3-0.6c0.1,0.1,0.1,0.1,0.2,0.2
		c0.1,0.1,0.1,0.2,0.2,0.2c-0.9,1.5-2.6,2.3-4.3,2.1c-1.5-0.2-2.7-1.4-3.1-3c-0.5-2.2,0.5-4.5,2.4-5.6c0.7-0.4,1.5-0.6,2.4-0.5
		c1.4,0.2,2.6,1.6,2.7,3c0,0.6-0.1,0.8-0.7,0.8c-1.2,0.1-2.4,0.2-3.6,0.3C117.1,31.6,116.7,31.6,116.3,31.6z M116.4,30.7
		c0.7,0,1.4,0,2.1,0c1.1,0,1.3-0.3,0.9-1.3c0-0.1-0.1-0.3-0.2-0.4c-0.5-0.8-1.4-1-2.1-0.2C116.7,29.3,116.5,29.9,116.4,30.7z"/>
	<path class="st53" d="M58,13.7c0,1.3,0.3,2.4,1.5,3.1c1.3,0.7,2.4,0.3,3.5-0.6c0.1,0.1,0.2,0.3,0.3,0.4c-1.5,2.4-4.8,2.8-6.5,0.8
		c-1.2-1.5-1.3-3.2-0.6-4.9c0.7-1.7,1.9-2.8,3.8-3c1.7-0.2,3.4,1.3,3.5,3c0,0.6-0.2,0.8-0.7,0.8c-1.4,0.1-2.9,0.2-4.3,0.3
		C58.3,13.7,58.2,13.7,58,13.7z M58.1,12.8c0.1,0,0.2,0,0.2,0c0.6,0,1.2,0,1.9,0c1.2-0.1,1.3-0.3,0.9-1.4c0-0.1-0.1-0.1-0.1-0.2
		c-0.5-0.9-1.5-1.1-2.2-0.3C58.4,11.4,58.2,12,58.1,12.8z"/>
	<path class="st57" d="M93.6,5.6c0-0.2,0-0.3,0-0.5c1.1-0.2,2.3-0.5,3.5-0.7c0,0.2,0,0.3,0,0.5c0,3.7,0,7.4,0,11.1
		c0,0.2,0,0.4,0,0.6c0,0.8,0.2,1,1,1.2c0.1,0,0.2,0,0.3,0.1c0,0.2,0,0.4,0,0.6c-1.6,0-3.3,0-4.9,0c0-0.2,0-0.4,0-0.5
		c0,0,0.1-0.1,0.1-0.1c1.2-0.3,1.3-0.3,1.3-1.6c0-3,0-6,0-9C94.9,6,94.9,6,93.6,5.6z"/>
	<path class="st58" d="M109.1,28.6c-0.4,0-0.7,0-1,0c-0.1,0-0.2,0-0.3-0.1c0-0.1,0-0.2,0.1-0.3c0.3-0.5,0.7-0.6,1.2-0.5
		c0-0.4,0-0.8,0-1.1c0-0.2,0.1-0.4,0.3-0.6c0.4-0.4,0.9-0.7,1.4-1.1c0.1-0.1,0.3-0.1,0.4-0.1c0,0.1,0.1,0.3,0.1,0.4
		c0,0.8,0,1.6,0,2.5c0.6,0,1.2,0,1.8,0c0.3,0,0.5,0.1,0.4,0.4c0,0.3-0.1,0.5-0.4,0.5c-0.6,0-1.1,0-1.8,0c0,0.2,0,0.3,0,0.5
		c0,1.5,0,2.9,0,4.4c0,0.1,0,0.1,0,0.2c0,1.3,0.5,2.2,2.1,1.6c0,0,0.1,0,0.2,0c0.1,0.2,0.1,0.4,0.2,0.6c-0.6,0.3-1.2,0.6-1.9,0.9
		c-1.2,0.4-2.4-0.3-2.7-1.5c-0.1-0.3-0.1-0.7-0.1-1.1c0-1.6,0-3.3,0-4.9C109.1,29,109.1,28.8,109.1,28.6z"/>
	<path class="st57" d="M122.4,36.5c0-0.2,0-0.3,0-0.5c0,0,0.1-0.1,0.1-0.1c1.2-0.2,1.2-0.3,1.2-1.5c0-1.4,0-2.9,0-4.3
		c0-1-0.1-1.1-1.1-1.4c0-0.1,0-0.3,0-0.4c1.1-0.3,2.2-0.5,3.4-0.8c0,0.7,0,1.3,0,2c0.4-0.5,0.7-1,1.1-1.4c0.4-0.4,0.8-0.7,1.5-0.7
		c0.6,0.1,1,0.5,1.1,1.1c0,0.6-0.4,1.2-0.9,1.4c-0.2,0-0.4,0-0.6-0.1c-1-0.6-2.1-0.1-2.1,1.1c0,1.3,0,2.6,0,3.9c0,0.7,0.2,0.9,0.9,1
		c0.2,0,0.5,0.1,0.7,0.1c0,0.2,0,0.4,0,0.5C125.8,36.5,124.1,36.5,122.4,36.5z"/>
	<path class="st56" d="M135.4,35.9c0,0.2,0,0.4,0,0.6c-1.7,0-3.4,0-5.1,0c0-0.2,0-0.3,0-0.5c0,0,0,0,0.1,0c1.2-0.2,1.2-0.3,1.2-1.5
		c0-1.4,0-2.9,0-4.3c0-1-0.1-1.1-1.1-1.4c0-0.1,0-0.3,0-0.4c1.1-0.3,2.2-0.5,3.3-0.8c0,0.6,0,1.3,0,2c0,0,0.1,0,0.1,0
		c0.1-0.2,0.2-0.4,0.4-0.5c0.5-0.5,0.9-1,1.4-1.4c0.6-0.4,1.4-0.1,1.7,0.5c0.3,0.6,0,1.4-0.6,1.7c-0.2,0.1-0.6,0.1-0.8,0
		c-0.4-0.2-0.8-0.5-1.2-0.2c-0.5,0.3-0.9,0.8-0.9,1.4c0,1.3,0,2.5,0,3.8c0,0.8,0.2,1,1,1.1C135,35.9,135.2,35.9,135.4,35.9z"/>
	<path class="st53" d="M71.8,16.2c0.1,0.2,0.2,0.3,0.3,0.4c-1.8,2.5-4.3,2.7-6.2,1.2c-1.3-1.1-1.7-2.5-1.4-4.1
		c0.4-2.5,3.4-4.6,5.9-4.1c0.3,0.1,0.7,0.2,0.9,0.4c0.2,0.2,0.5,0.5,0.5,0.8c0,0.3-0.3,0.6-0.6,0.9c-0.1,0.1-0.4,0-0.6-0.1
		c-0.5-0.3-0.9-0.6-1.3-0.8c-0.9-0.3-1.7,0-2.1,0.8c-0.8,1.2-0.6,3.4,0.3,4.6c1,1.2,2.6,1.5,3.9,0.6C71.5,16.5,71.7,16.4,71.8,16.2z
		"/>
	<path class="st53" d="M131.9,16.2c0.1,0.1,0.2,0.3,0.3,0.4c-1.2,2-3.6,2.7-5.6,1.6c-2-1.1-2.6-3.8-1.5-5.9c1.1-1.9,3.5-3.2,5.4-2.8
		c0.3,0.1,0.6,0.2,0.8,0.3c0.7,0.4,0.8,1.1,0.2,1.6c-0.3,0.2-0.5,0.3-0.8,0c-0.4-0.3-0.8-0.6-1.2-0.8c-1-0.5-2-0.1-2.5,0.9
		c-0.5,1.3-0.5,2.6,0.1,3.9c0.8,1.6,2.8,2.1,4.3,1C131.7,16.4,131.8,16.3,131.9,16.2z"/>
	<path class="st57" d="M119,18.5c0-0.2,0-0.4,0-0.5c0,0,0.1-0.1,0.1-0.1c1.2-0.3,1.2-0.3,1.2-1.5c0-1.4,0-2.8,0-4.2
		c0-1.1-0.1-1.2-1.1-1.4c0-0.2,0-0.3,0-0.5c1.1-0.2,2.2-0.5,3.4-0.7c0,0.5,0,1.1,0,1.7c0,1.7,0,3.3,0,5c0,1.4,0,1.4,1.3,1.8
		c0,0.2,0,0.3,0,0.5C122.3,18.5,120.7,18.5,119,18.5z"/>
	<path class="st59" d="M103.7,8.7c-0.2-0.1-0.4-0.2-0.6-0.3c0.4-1,0.7-2.1,1.1-3.1c0-0.1,0.1-0.2,0.2-0.2c0.5-0.1,1.1-0.2,1.6-0.2
		c0.4,0,0.3,0.2,0.1,0.4C105.3,6.5,104.5,7.6,103.7,8.7z"/>
	<path class="st53" d="M121.3,8.1c-0.7,0-1.3-0.5-1.3-1.2c0-0.7,0.6-1.3,1.3-1.3c0.7,0,1.3,0.6,1.3,1.3C122.6,7.5,122,8.1,121.3,8.1
		z"/>
	<path class="st60" d="M10,24.9C10,24.9,10,24.9,10,24.9C10,24.9,10,25,10,24.9C10,25,10,24.9,10,24.9C10,24.9,10,24.9,10,24.9z"/>
	<polygon class="st60" points="15.9,31.1 15.9,31.1 15.9,31.1 	"/>
</g>
</svg>
