<svg id="Capa_1" data-name="Capa 1" xmlns="http://www.w3.org/2000/svg" viewBox="0 0 155 49"><defs><style>.cls-1{fill:#fefefe;}.cls-2{fill:#28296a;}.cls-3{fill:#282969;}.cls-4{fill:#282a68;}.cls-5{fill:#2b2c6c;}.cls-6{fill:#999a9d;}.cls-7{fill:#2b2d6a;}.cls-8{fill:#2c2e6b;}.cls-9{fill:#d6ddef;}.cls-10{fill:#6a87a9;}.cls-11{fill:#999b9e;}.cls-12{fill:#2f306e;}.cls-13{fill:#47457a;}.cls-14{fill:#f1f1f5;}.cls-15{fill:#30316f;}.cls-16{fill:#2d2e6d;}.cls-17{fill:#2a2c6a;}.cls-18{fill:#323370;}.cls-19{fill:#9d9fa3;}.cls-20{fill:#727376;}.cls-21{fill:#393973;}.cls-22{fill:#343570;}.cls-23{fill:#fafafb;}.cls-24{fill:#77719f;}.cls-25{fill:#504d81;}.cls-26{fill:#b8b9bc;}.cls-27{fill:#fbfbfc;}.cls-28{fill:#605c8d;}</style></defs><path class="cls-1" d="M27.64,14.91l.07-.07h0a.57.57,0,0,0,.07-.78h0c-.24-.38-.46-.79-.93-.94a1.69,1.69,0,0,0-.31-.43c-.38-.28-.79-.53-1.18-.78,0,.11.08.27.14.43s.19.43.28.65l-.3-.1-.12-.08a6.88,6.88,0,0,0-.11-.81c0-.08-.2-.11-.28-.19a.71.71,0,0,1-.18-.28,3.21,3.21,0,0,1-.11-.52H24.6l-.06.89-.1.09-.6-1.07v.63l-.61-.37c-.27.3-.27.4.06.91l0,.11-.09.11h0a2.24,2.24,0,0,0-1.25.43l0-.08-.05,0c-.76,0-1.05.66-1.41,1.2-.36-.53-.63-1.15-1.39-1.2l-.15,0-.6-.27c-.2-.08-.41-.14-.62-.21l-.06-.08.27-.21c.08.1.14.27.23.29.53.14,1.07.24,1.6.35l0-.13c-.09,0-.19-.05-.28-.09a7.34,7.34,0,0,1-1-.46c-.23-.13-.38-.16-.55.05,0-.29.06-.58-.2-.78l-.59.55h-.05l.06-.74a4.23,4.23,0,0,0-.3.54,5.48,5.48,0,0,1-.35.49l-.15-1.09c-.21.87-.21.87-.56,1l-.2.54c0,.3-.11.48-.44.45l.55-1.09-1.13.79a2.08,2.08,0,0,0-.34.24c-.14.14-.14.27.08.33a.74.74,0,0,0-.86.62s0,0,0,0a.61.61,0,0,0-.14,1h0l.07.08.29.21.53.17c-.19-.36-.35-.66-.16-1h0l.09-.08a.05.05,0,0,0,0,0l.11,0h.38l.45.17.08.18c.15.08.31.23.43.21a9.44,9.44,0,0,0,1.06-.36l.23-.23c.06.12-.15.38.19.35l.06.07-.55.67-.08.06.08,0,.08.14-1.11,1,1,.1-.3.73a5.92,5.92,0,0,0,.91-.27,1.29,1.29,0,0,0,.68-1.45l.24.31.58-.68a1.45,1.45,0,0,0,.2.34,2.31,2.31,0,0,0,.42.29l-.57.28-.12-.41c-.64.55-.79,1.14-.42,1.66.65-.16.66-.15.87-.71.13-.33.21-.67.31-1h.08a8.69,8.69,0,0,1,0,1.14c0,.46.3.59.6.73.12.06.32-.06.48-.09s.32.17.4.11c.24-.16.63-.21.62-.64s0-.78.07-1.18h.07a.58.58,0,0,0,.64-.5h.08l.54.69.25-.33c-.06,1.09.55,1.73,1.53,1.61l-.26-.62,1-.1c-.38-.35-.7-.64-1-.93,0,0,0-.11,0-.16h0l0,0,.07,0-.07-.05-.51-.72c.22,0,.15-.16.15-.28l.29.14a4.86,4.86,0,0,0,.74.32c.24.07.51.16.71-.1l.12-.25.72-.18.12,0,.1,0h0l.14.14h0l-.13.95.42-.14.27-.16.07-.08Zm2,19.58h0l-.15-.07h0l-.42-.21L29,34.15c.12-.09.36-.08.28-.34h.83c.17-.21.09-.5-.25-.67l.23.55H29a5.21,5.21,0,0,0-.09-.69c0-.09-.17-.24-.22-.23a1.37,1.37,0,0,0-.53.25c-.43.36-.73.36-1.1-.07l-.23-.28c-.35.25-.69.47-1,.71a.55.55,0,0,0-.19.32c0,.23,0,.47-.1.7a1,1,0,0,1-.56.81,1,1,0,0,0-.27.17.55.55,0,0,0-.09.84s.1,0,.15,0l.18,0,.18.08.28.09.06.13h0c-.14.22-.48.4-.19.73l.19.24-.37,0a3.75,3.75,0,0,1-.37-.09c.39.3.64.28.94,0l-.33-.2c-.11-.35.05-.54.37-.63s.49-.32.54-.66a.56.56,0,0,1,.19-.33,2.56,2.56,0,0,1,.42-.28A1.26,1.26,0,0,1,28,35.17a.82.82,0,0,0,1.06-.11h.07l.5.52.14-.16h0a.6.6,0,0,0-.07-.86h0Zm6.11-13.6,0,0c.59-.35.44-.94.47-1.47l.41.15a3,3,0,0,0,0,.75,15.62,15.62,0,0,0,.58,1.62A4.53,4.53,0,0,1,37.6,24c0,.76,0,1.52.09,2.28,0,.32,0,.65.07,1l-.09,0-.36-.38a.77.77,0,0,0-.14.83,4.63,4.63,0,0,0,.36.65c.18-.19.46-.36.51-.58A6.87,6.87,0,0,0,38.27,26c0-1.11-.21-2.21-.24-3.32a6.19,6.19,0,0,0-.78-2.93,1.52,1.52,0,0,1-.18-1c.21.12.4.25.6.34A1.37,1.37,0,0,0,39,19c.27-.18.26-.32,0-.45a2,2,0,0,1-.92-.95c-.59-1.08-1.16-2.17-1.82-3.19a9.78,9.78,0,0,0-3-3c-.23-.14-.49-.36-.79-.13s-.2.73,0,1a1.86,1.86,0,0,0,.23.32l1.05,1.22a1.49,1.49,0,0,0,.17.18.88.88,0,0,1,.51,1l-.86-.76-.23,0,.08.4,0,.86h-.05a3,3,0,0,0-.73-2,.4.4,0,0,0,0,.11,5.37,5.37,0,0,1,.34,3.53A3.48,3.48,0,0,1,31,19.86V20l.94-.12-.49.67-.1-.07c-.18-.1-.37-.18-.55-.27a4.85,4.85,0,0,0-.29.61,4.91,4.91,0,0,0-.08.67c0,.15,0,.3-.07.46h.49l-.13-1.18h.12c0,.3.1.59.13.9s.15.4.44.32c.1,0,.19-.09.29-.13a1.89,1.89,0,0,0,.55,1.26l-.3.06,0,.1c.14.07.29.21.42.2a1.89,1.89,0,0,0,.51-.26c0,.31.06.63.11.94s.1.43.16.65.12.42.19.63a1.59,1.59,0,0,0,.18.27l-.06.05L33,25.51l0,.06.58.82-.21,0A7.93,7.93,0,0,0,34,30,6.52,6.52,0,0,1,34,26.83l-.45-.45c.16-.09.38-.15.48-.29a2.53,2.53,0,0,0,.48-1.71h.1l.5,1.51-.32-.08-.15-.11v.11a.8.8,0,0,0,.53.65l.37-.48c0,.13.07.21.1.28a6.59,6.59,0,0,0,.47,1,.74.74,0,0,0,.59.27c.27,0,.37-.32.38-.59A20.81,20.81,0,0,0,37,24.76a24.94,24.94,0,0,0-.54-3.55.51.51,0,0,0-.25-.33.45.45,0,0,0-.4.14,1.2,1.2,0,0,0-.2.63c.05,1,.11,2,.22,2.92a1.88,1.88,0,0,0,.73,1.37.59.59,0,0,1,.18.43c0,.14-.1.28-.16.43-.13-.08-.32-.12-.4-.24a5.86,5.86,0,0,1-.42-.78c-.06-.11-.16-.23-.14-.33a4.34,4.34,0,0,0-.27-2.14c-.07-.26-.12-.53-.18-.79v-.06l-.07.05-.57-.3a.05.05,0,0,0,0-.05c0-.07,0-.2,0-.2.67,0,.87-.49,1-1ZM15.68,37.23l.07-.33-.15-.23-.08,0,.15.21-.05.24-.2.15c-.19,0-.15.13,0,.19a.69.69,0,0,0,.89-.12l.05-.07.18-.46,0-.26H16.4v.28l-.11.37-.07.08c-.24.16-.49.27-.75,0Zm9-.29,0-.1-.05.07,0,.4h.1ZM7.69,14.19l-.28.07L6.64,15H6.58a1.69,1.69,0,0,1,.61-1.14,7.52,7.52,0,0,0,1.42-1.64.94.94,0,0,0,0-1c-.29-.23-.57,0-.78.14A16.24,16.24,0,0,0,6,12.85a16.46,16.46,0,0,0-3,4.62,1.86,1.86,0,0,1-.94,1c-.31.14-.32.3,0,.46a5.56,5.56,0,0,0,.75.29c-.49.31-.49.31-.76.95a9.65,9.65,0,0,0-.87,3.33C1.07,24.71,1,25.89,1,27.07A10.44,10.44,0,0,1,1,30l0,0H1V30A3.41,3.41,0,0,0,2.65,28.7l0-.07-.76.46a9,9,0,0,0,.11-1,6.2,6.2,0,0,1,.13-2c0-.16-.1-.39-.16-.59a2.71,2.71,0,0,0,.23-1.56L2,24,1.9,23.9c.47-.59.67-1.44.45-1.61l.34-1.22-.49.17a3.49,3.49,0,0,0,1.13-1.92l-.46-.06,1.07-.53a1.48,1.48,0,0,1-.18,1A5.68,5.68,0,0,0,3,22.11c0,.66-.08,1.32-.12,2,0,.93-.13,1.86-.11,2.78a3.6,3.6,0,0,0,.37,1.21.48.48,0,0,0,.43.21c.33-.12.39-1.13.05-1.46l-.26.42a2.5,2.5,0,0,1-.07-.75,15.78,15.78,0,0,0,.12-2.27,5.4,5.4,0,0,1,.47-2.75,5.36,5.36,0,0,0,.37-1,8.71,8.71,0,0,0,.11-.91l.38-.14c.09,1.23.13,1.32.57,1.46-.31-.77-.21-1.12.4-1.33-.07.22-.15.42-.2.62-.27,1,.15,1.74,1,1.85a.27.27,0,0,1,0,.09.31.31,0,0,1,0,.1v0l-.64.3c0,.22-.08.41-.12.6a18.79,18.79,0,0,0-.37,2,1.53,1.53,0,0,1-.2.91c-.16.21-.24.47-.4.68a.52.52,0,0,1-.34.13s-.14-.1-.15-.16c0-.29-.07-.58.27-.74a.52.52,0,0,0,.2-.19,2.69,2.69,0,0,0,.47-1.55A8.71,8.71,0,0,1,5.26,23c0-.49.1-1,.14-1.46A.6.6,0,0,0,5,20.9c-.1,0-.38.08-.4.17-.18.76-.34,1.53-.46,2.31A14.72,14.72,0,0,1,4,24.87,7.93,7.93,0,0,0,4,27a.58.58,0,0,0,.37.6c.29.1.47-.11.64-.29A.8.8,0,0,0,5.14,27c.13-.37.23-.75.33-1.08l.51.57.48-.76-.07-.06-.45.21L6,25.6l.39-1.36.1,0A2.77,2.77,0,0,0,7,26.13c.11.16.25.33.5.19L7,26.87c.39,1,0,2,0,3.07a3.34,3.34,0,0,0,.22-.57,8.46,8.46,0,0,0,.48-2.69.33.33,0,0,0-.21-.35L8,25.6l0-.07-.17.07-.27.09a8.69,8.69,0,0,0,.34-.8A5.1,5.1,0,0,0,8.11,24c0-.3,0-.59,0-.89.11.08.22.18.34.25s.48.06.59-.26l-.29,0a2,2,0,0,0,.57-1.27l.12.06c.42.2.58.1.6-.37,0-.25.09-.5.13-.75l.12,0-.14,1.14h.5c0-.15,0-.3-.07-.46s0-.3-.07-.45a4.07,4.07,0,0,0,0-.49c-.09-.38-.33-.46-.63-.22-.1.07-.2.16-.27.22l-.47-.62.05-.07L10,20l0-.11C8.78,19.33,8.4,18.18,8.12,17a6.12,6.12,0,0,1,.34-3.56,3.43,3.43,0,0,0-.7,1.91h0l0-1a.81.81,0,0,0,0-.16h.06v0Zm7.82,22.22L16,36.2h.21l.08.11.1.09,0-.11c.21-.7.2-.72-.47-1.15a.92.92,0,0,1-.36-.42c-.1-.3-.12-.63-.19-.94a.61.61,0,0,0-.13-.34c-.35-.27-.72-.51-1.09-.76l-.21.27a.65.65,0,0,1-1.09.08,1.66,1.66,0,0,0-.32-.22c-.32-.14-.49,0-.45.34s0,.5-.35.55h-.8c-.08-.33.24-.48.42-.71a.63.63,0,0,0-.52.49,1.23,1.23,0,0,0,0,.4l.76-.08.39.48h-.19l.18.14-.09.62-.67.32-.09-.31c-.14.19-.1.41.29.54.06-.39.3-.48.62-.44a.5.5,0,0,0,.67.12,1.24,1.24,0,0,1,1.25,0c.34.15.78.29.77.85,0,.29.27.46.57.48.06,0,.12-.1.18-.16ZM9.43,23.64a.93.93,0,0,0-.29-.13.72.72,0,0,0-.89.63,4.27,4.27,0,0,0,0,1.13c0,.32.14.68.53.77s.56-.22.76-.47c0-.05.07-.11.11-.17l0-.06-.67.42c0-.22,0-.35.08-.49s0-.26.09-.43L8.69,25l-.15-.26c.61-.13.78-.33.82-.86a2.47,2.47,0,0,1,.06-.29,1.28,1.28,0,0,1,.29,1.29.5.5,0,0,0,0,.32,2.66,2.66,0,0,0,.35.64c0,.06.26.05.35,0s.07-.22.05-.32a2.1,2.1,0,0,0-.19-.3,5,5,0,0,1-.4-.71.37.37,0,0,1,.11-.34,3.4,3.4,0,0,1,.65-.12c-.09,1.25-.12,2.47,1.08,3.3A.85.85,0,0,0,12,26.2a2,2,0,0,1-.2-.64,3.63,3.63,0,0,0-.39-2.16A5.5,5.5,0,0,1,11,22.06a3.35,3.35,0,0,0-.39,1.9c-.13-.14-.24-.36-.39-.4-.45-.11-.49-.39-.44-.75,0-.16,0-.32,0-.47S9.76,22,9.5,22A2.29,2.29,0,0,0,9.43,23.64Zm15,4.54a2.61,2.61,0,0,0-.57-1.72,4,4,0,0,0-1.31-1.34,1.28,1.28,0,0,0,.18-1.27c-.21-.78-.32-1.58-.46-2.36.76.13,1.06-.48,1.5-.92-.28-.47-.56-.94-.85-1.4a.35.35,0,0,0-.26-.13c-.76.17-1.07-.23-1.19-.9,0-.2-.15-.26-.35-.26a7.22,7.22,0,0,1-1,0,.5.5,0,0,0-.61.43c-.2.72-.22.71-1,.73a.53.53,0,0,0-.36.14c-.3.46-.58.93-.86,1.4.46.42.75,1.06,1.52.91l-.39,2c-.1.55-.42,1.11.1,1.63a4,4,0,0,0,2,7.35l1.31-.2a3.63,3.63,0,0,0,1.75-1.17A3.78,3.78,0,0,0,24.42,28.18Zm7.24-4.59,0,0A2.79,2.79,0,0,0,31.49,22c-.25-.05-.34.06-.32.31a4.07,4.07,0,0,1,0,.78.67.67,0,0,1-.25.38c-.17.15-.37.27-.56.41a2.26,2.26,0,0,1-.06-.57A1.9,1.9,0,0,0,30,22.1l-.64,1.67a3.57,3.57,0,0,0-.16.46c-.17.66.08,1.36-.25,2-.26.49-.11.83.38,1.16a5.07,5.07,0,0,0,.49-.55,2.36,2.36,0,0,0,.51-.89,14.69,14.69,0,0,0,0-1.88c.16,0,.32.06.48.07.36,0,.38.24.25.49s-.33.47-.45.73-.13.43-.06.49.39,0,.52-.18a1.33,1.33,0,0,0,.16-1.1c-.09-.48-.06-.55.34-.85.13.8.21.9.87,1l-.17.26-.37-.19.19.93-.69-.43a.83.83,0,0,0,.19.4c.41.49.89.44,1.05-.18a4.42,4.42,0,0,0,0-1.5A.73.73,0,0,0,31.66,23.59ZM39,24l-.16-.08a2.26,2.26,0,0,0,.34,1.62c-.45.11-.28.43-.25.7s.08.81.11,1.22.08,1,.12,1.57l-.08.06-.67-.43A3,3,0,0,0,40.05,30a5.66,5.66,0,0,1,0-2.71,5.74,5.74,0,0,0,0-.71c0-.9-.09-1.79-.13-2.68a10.88,10.88,0,0,0-1.12-4.18c-.1-.21-.21-.39-.47-.42l-.64,0a3.56,3.56,0,0,0,1.12,2l-.44-.16c0,.6.27,1.12.28,1.7a3.27,3.27,0,0,0,.47,1.12ZM32,9.59c.33.09.66.19,1,.26a1.37,1.37,0,0,0,.39-.06c0-.12,0-.27-.12-.35-.27-.31-.58-.6-.87-.9L31.7,7.8c.42-.16.79-.32,1.17-.45.56-.21.61-.48.15-.87l-.15-.1-1-.66c.38-.36.72-.69,1.07-1s.34-.39,0-.64A15.67,15.67,0,0,0,27.46,1.8,33.22,33.22,0,0,0,19,1.13a30.15,30.15,0,0,0-5.6.74A16.79,16.79,0,0,0,7.92,4.09c-.36.23-.35.28,0,.58L9,5.82a9.65,9.65,0,0,0-.94.64,1.36,1.36,0,0,0-.36.61c0,.06.28.23.45.31.35.16.72.29,1.14.46-.26.28-.48.53-.72.77s-.54.53-.8.82a1.07,1.07,0,0,0-.13.38.92.92,0,0,0,.39.07c.36-.07.71-.19,1.07-.29l0,.05a3.28,3.28,0,0,0-.21.57c0,.15.05.43.14.45a.68.68,0,0,0,.49-.12c.45-.33.88-.69,1.32-1s.83-.64,1.22-1,.28-.41-.1-.58-.48-.23-.76-.37l2-.89-.88-.77c5.08-1.82,13.38-1.44,16.28-.06l-.88.69,0,.15,1.93.85-.63.31L29,7.91c-.39.16-.42.3-.11.58s.71.56,1.06.84c.52.41,1,.84,1.57,1.24a.31.31,0,0,0,.55-.26,4,4,0,0,0-.16-.66ZM1.91,43.74a4,4,0,0,0,.56.39c.68.35,1.37.71,2.08,1A25.19,25.19,0,0,0,7.76,46.3a43,43,0,0,0,4.62,1,38.42,38.42,0,0,0,4.8.46c2.36.07,4.73,0,7.09,0A36.88,36.88,0,0,0,30.38,47a30.79,30.79,0,0,0,5.05-1.41c.91-.34,1.79-.76,2.67-1.18a10.71,10.71,0,0,0,1-.68l-1.91-1.92a7,7,0,0,0,.65-.39c.4-.3.8-.6,1.17-.93.16-.15.15-.35-.1-.45s-.61-.27-.92-.38-.79-.27-1.19-.4l0-.16c.27-.24.56-.47.83-.72.48-.43,1-.86,1.41-1.32.09-.09.1-.26.15-.39a1.21,1.21,0,0,0-.47-.1c-.62.12-1.23.28-1.93.44.17-.28.3-.5.44-.71s.16-.62,0-.75a.6.6,0,0,0-.73.08c-.44.33-.85.68-1.3,1-.79.55-1.61,1.06-2.39,1.62a.72.72,0,0,0-.29.49c0,.1.23.24.38.31.35.17.72.3,1.17.48l-.5.19c-.65.24-1.3.47-1.94.72s-.52.28-.1.63c.26.22.54.42.88.69-.33.11-.61.24-.9.31a44.27,44.27,0,0,1-9.86,1.15,47.24,47.24,0,0,1-6.83-.28c-1.77-.23-3.52-.58-5.28-.89a5.51,5.51,0,0,1-.83-.29c.37-.3.68-.53,1-.79s.25-.33-.08-.48c-.17-.08-.35-.14-.53-.21l-2-.75L8.21,39c.45-.2.48-.46.09-.76s-1.05-.75-1.57-1.12c-.74-.52-1.47-1-2.21-1.56-.21-.14-.49-.24-.69,0a.53.53,0,0,0-.05.72c.16.21.28.45.46.74-.73-.18-1.35-.34-2-.47a.56.56,0,0,0-.4.11c-.05,0,0,.28.08.36.5.49,1,1,1.54,1.44.23.22.46.46.74.76-.23.09-.38.17-.53.22-.45.15-.92.26-1.35.45-.61.28-.61.57,0,1l.24.16,1.24.83Zm15-23.19A6.63,6.63,0,0,0,14,27.81a6.55,6.55,0,0,0,5,4.81A4.37,4.37,0,0,1,16.2,29,4.26,4.26,0,0,1,18,25a2.8,2.8,0,0,1,0-.61c.18-.89.39-1.78.58-2.66-.22,0-.46,0-.59-.16C17.57,21.26,17.27,20.9,16.93,20.55ZM23,25a4.23,4.23,0,0,1,1.75,4.05A4.31,4.31,0,0,1,22,32.62a6.6,6.6,0,0,0,2.1-12.06c-.52.4-.74,1.17-1.57,1.14.19.91.39,1.8.57,2.68A2.81,2.81,0,0,1,23,25Zm-3.43,9.36-.05.16c-.15,1.19-.31,2.37-.45,3.55,0,.27-.16.61-.05.81.35.61.79,1.17,1.24,1.83V34.57Zm1.08,6.36c.4-.58.74-1.08,1.1-1.56a.92.92,0,0,0,.17-.73c-.1-.68-.18-1.35-.27-2s-.19-1.37-.28-2.06l-.72.22Zm1.66-2.44c.49-.72.93-1.36,1.36-2a.4.4,0,0,0,0-.32c-.15-.39-.33-.77-.5-1.15s-.39-.87-.58-1.3c-.32.24-.61.45-.89.68a.39.39,0,0,0-.13.27C21.84,35.69,22.09,36.94,22.35,38.28Zm-3.69,0c.26-1.32.5-2.55.73-3.78a.4.4,0,0,0-.09-.32c-.29-.24-.6-.46-.91-.7-.38.84-.75,1.68-1.12,2.51a.29.29,0,0,0,0,.24C17.72,36.9,18.16,37.56,18.66,38.29Zm19.2-3.86c.19-.29.34-.49.47-.71a10.35,10.35,0,0,0,1-3.07.78.78,0,0,0-.37-.89A9,9,0,0,0,37.86,34.43ZM3.15,34.31A8.86,8.86,0,0,0,2,29.77a.76.76,0,0,0-.34,1c.12.4.16.82.27,1.22A5.49,5.49,0,0,0,3.15,34.31Zm9-10.19c.48-1-.1-1.91-.23-2.79l-.73.36A3.41,3.41,0,0,0,12.17,24.12Zm17.62-2.43-.73-.37c-.12.9-.7,1.78-.23,2.77A3.2,3.2,0,0,0,29.79,21.69Zm6,10.77.08,0a10.67,10.67,0,0,0,.27-1.22,5.85,5.85,0,0,1,.44-2.68c.17-.28,0-.46-.27-.56a2.46,2.46,0,0,0-.44,1.39C35.79,30.43,35.77,31.45,35.75,32.46ZM4.74,28c-.34.11-.39.3-.27.57a4.26,4.26,0,0,1,.35,1c.08.54,0,1.1.09,1.64s.18.84.28,1.3c0-1.05,0-2,0-3A2.58,2.58,0,0,0,4.74,28Zm.84-1a7.26,7.26,0,0,1,.48,3.75,6,6,0,0,0,0-4ZM21.75,15.77c.26.6.15,1.48,1.17,1.5.07-.17.25-.4.19-.54a8.2,8.2,0,0,0-.59-1.14l-.09,0-.12.4Zm13.13,11c-.15,1.22-.64,2.38,0,3.61A6.68,6.68,0,0,1,35.41,27ZM8.76,29l1.05-3-.13,0C8.63,26.7,8.84,27.85,8.76,29Zm22.53-3-.11,0c.17.44.33.88.49,1.32s.32.89.48,1.32l.08-.13a.37.37,0,0,0,0-.11C32.15,27.49,32.25,26.51,31.29,26Zm6.29,2.62c-.39,1.74-.39,3,0,3.37a4.73,4.73,0,0,1,.34-2.83C38,29,37.77,28.61,37.58,28.57ZM3.48,32c.32-.67.3-1.54,0-3.42-.05,0-.12,0-.13,0-.12.22-.31.39-.17.72a4.25,4.25,0,0,1,.33,1.27A10.92,10.92,0,0,1,3.48,32Zm4.93-5.68-.33,2.06a2.49,2.49,0,0,0,.75-2.1ZM2.78,29c-.23.3-.44.59-.2,1a2,2,0,0,1,.1.45c0,.19.11.39.17.6C3.29,30.7,3.27,30.44,2.78,29ZM33,28.39c-.07-.35-.14-.69-.19-1s-.1-.72-.14-1.07l-.48-.05C32.29,27,32.25,27.87,33,28.39Zm5.27.55c-.12.41-.25.82-.34,1.23a1.74,1.74,0,0,0,0,.6c0,.06.12.14.2.16s.13-.1.15-.17a4.66,4.66,0,0,1,.16-.76A.85.85,0,0,0,38.22,28.94Zm-17-16.53,0,.13,1.57-.31a.22.22,0,0,0,.15-.37c0-.06-.25-.08-.35,0-.32.14-.62.32-.94.47A3.45,3.45,0,0,1,21.2,12.41ZM11.34,34.47h-.07l0,.19h.08Zm13.29,2-.05-.09s-.06,0-.08.08,0,.06.06.06S24.6,36.5,24.63,36.48Zm5-3.42,0-.06-.13-.1,0,0ZM15.7,11.57h0l0,.07h0A.13.13,0,0,0,15.7,11.57Zm-4,22.79h0v-.1h0Zm-.15.07h0v-.1h0Zm13.26,3,0,0-.05,0,0,0Z"/><path class="cls-2" d="M138.94,7.78a10.3,10.3,0,0,1,9.86,7.71,11.87,11.87,0,0,1-1.65,10.19A10,10,0,0,1,140,30a10.18,10.18,0,0,1-11.16-7.25,11.91,11.91,0,0,1,.8-9.51,10.13,10.13,0,0,1,8.58-5.46l.36,0ZM132,18.9c0,.25,0,.5,0,.75a13.47,13.47,0,0,0,1.36,5.91,5.91,5.91,0,0,0,7.88,2.89A6.65,6.65,0,0,0,145,23.86a18.34,18.34,0,0,0,.56-5.85,14.62,14.62,0,0,0-1.06-5.19,6.15,6.15,0,0,0-7.86-3.55A6.07,6.07,0,0,0,133,13,14.24,14.24,0,0,0,132,18.9Z"/><path class="cls-3" d="M112.9,18.86v2.47c0,1.74,0,3.49,0,5.23,0,1.37.29,1.68,1.65,1.7,1.66,0,3.32,0,5,0a4.06,4.06,0,0,0,3.39-1.7c.48-.62.89-1.3,1.31-2,.28-.45.27-.46.88-.41-.18.52-.35,1-.53,1.54-.4,1.15-.82,2.31-1.21,3.47a.4.4,0,0,1-.46.32l-8.39-.05-7.42-.06h-.29v-.61c.21,0,.42,0,.63,0a5,5,0,0,0,.78-.07,1.7,1.7,0,0,0,1.59-1.91c0-1.52.07-3,.08-4.55q0-3.68,0-7.35c0-1.49,0-3,0-4.47,0-1.17-.6-1.69-1.78-1.76-.37,0-.76,0-1.15,0V8.05l16.44.11.21,4.67H123c-.15-.56-.29-1.13-.47-1.68a2.38,2.38,0,0,0-2.24-1.75c-1.19-.07-2.39-.08-3.58-.11s-2.2,0-3.3,0H113v8.4c.17,0,.36,0,.55,0h4.34a9.81,9.81,0,0,0,1.07-.08A2,2,0,0,0,120.76,16c.11-.43.17-.87.26-1.33h.52v7.4h-.6c-.06-.32-.12-.65-.17-1a2.19,2.19,0,0,0-2.36-2.14c-1.4-.08-2.79-.06-4.19-.08Z"/><path class="cls-2" d="M102.33,7.54h.52l.44,7.25h-.46c-.28-.71-.54-1.44-.86-2.14-2.22-4.86-7.88-4.79-10.63-2.6a7.51,7.51,0,0,0-2.44,3.72,15.55,15.55,0,0,0-.13,9.54,7.27,7.27,0,0,0,7,5.09A6.94,6.94,0,0,0,101,26.56c.68-.65,1.27-1.39,1.89-2.1a4.87,4.87,0,0,0,.33-.43l.49.32a12.91,12.91,0,0,1-1.8,2.53,8.92,8.92,0,0,1-6.69,2.92,10.55,10.55,0,0,1-5.46-1.21A9.82,9.82,0,0,1,85,22.52a12.13,12.13,0,0,1,.87-9.28A10.27,10.27,0,0,1,94.81,7.5a9.82,9.82,0,0,1,5,1.06c.22.11.43.23.65.32a1,1,0,0,0,1.37-.41A10.12,10.12,0,0,0,102.33,7.54Z"/><path class="cls-4" d="M60.68,7.72v.59c-.45,0-.88,0-1.32.08a4.35,4.35,0,0,0-.63.1,1.91,1.91,0,0,0-1.59,2c0,1.18-.06,2.36-.07,3.55q0,3.66,0,7.34c0,1.34,0,2.68,0,4a6.86,6.86,0,0,0,.13,1.28,1,1,0,0,0,1,.89c.69.06,1.39.1,2.08.1,1.35,0,2.7,0,4-.11a4.14,4.14,0,0,0,3.22-2c.4-.6.71-1.27,1.05-1.91.07-.13.13-.28.2-.43l.53.12-.79,2.45c-.33,1-.66,2-1,3a.36.36,0,0,1-.42.31c-2.65,0-5.29,0-7.93-.05l-7.78,0c-.58,0-.58,0-.48-.62h.8a1.93,1.93,0,0,0,2.2-2.07C54,25.16,54,24,54,22.8l0-7.38c0-1.56,0-3.11,0-4.66A5.26,5.26,0,0,0,54,9.87a1.71,1.71,0,0,0-1.69-1.56c-.4,0-.8-.05-1.24-.07V7.72Z"/><path class="cls-5" d="M50.87,33v-.81h98.35V33Z"/><path class="cls-3" d="M81.17,28.61v.56H72v-.62h.79a5.43,5.43,0,0,0,.81-.09A1.61,1.61,0,0,0,75,27a11.33,11.33,0,0,0,.11-1.43c0-2.42,0-4.84.06-7.27s0-4.68,0-7c0-.41,0-.81-.06-1.22a1.43,1.43,0,0,0-1-1.33,8,8,0,0,0-1.39-.31,3.81,3.81,0,0,0-.59,0V7.86H81.3v.61c-.31,0-.62,0-.93,0-1.36.1-2,.65-2.07,2s-.07,2.86-.08,4.29q0,5.3-.07,10.57c0,.57,0,1.15.08,1.72a1.24,1.24,0,0,0,.8,1.17,8.69,8.69,0,0,0,1.44.37A3.23,3.23,0,0,0,81.17,28.61Z"/><path class="cls-6" d="M1.91,43.74l1.88-1.89L2.55,41l-.24-.16c-.57-.4-.57-.69,0-1,.43-.19.9-.3,1.35-.45.15,0,.3-.13.53-.22-.28-.3-.51-.54-.74-.76C3,38,2.45,37.51,2,37c-.08-.08-.13-.32-.08-.36a.56.56,0,0,1,.4-.11c.62.13,1.24.29,2,.47-.18-.29-.3-.53-.46-.74a.53.53,0,0,1,.05-.72c.2-.2.48-.1.69,0,.74.51,1.47,1,2.21,1.56.52.37,1.06.73,1.57,1.12s.36.56-.09.76L7,39.53l2,.75c.18.07.36.13.53.21.33.15.35.25.08.48s-.61.49-1,.79a5.51,5.51,0,0,0,.83.29c1.76.31,3.51.66,5.28.89a47.24,47.24,0,0,0,6.83.28,44.27,44.27,0,0,0,9.86-1.15c.29-.07.57-.2.9-.31-.34-.27-.62-.47-.88-.69-.42-.35-.4-.44.1-.63s1.29-.48,1.94-.72l.5-.19c-.45-.18-.82-.31-1.17-.48-.15-.07-.39-.21-.38-.31a.72.72,0,0,1,.29-.49c.78-.56,1.6-1.07,2.39-1.62.45-.32.86-.67,1.3-1a.6.6,0,0,1,.73-.08c.19.13.19.5,0,.75s-.27.43-.44.71c.7-.16,1.31-.32,1.93-.44a1.21,1.21,0,0,1,.47.1c-.05.13-.06.3-.15.39-.46.46-.93.89-1.41,1.32-.27.25-.56.48-.83.72l0,.16c.4.13.8.25,1.19.4s.61.25.92.38.26.3.1.45c-.37.33-.77.63-1.17.93a7,7,0,0,1-.65.39l1.91,1.92a10.71,10.71,0,0,1-1,.68c-.88.42-1.76.84-2.67,1.18A30.79,30.79,0,0,1,30.38,47a36.88,36.88,0,0,1-6.11.69c-2.36,0-4.73.09-7.09,0a38.42,38.42,0,0,1-4.8-.46,43,43,0,0,1-4.62-1,25.19,25.19,0,0,1-3.21-1.17c-.71-.29-1.4-.65-2.08-1A4,4,0,0,1,1.91,43.74Zm.5-.15a2,2,0,0,0,.31.26,14.42,14.42,0,0,0,1.72.95,33.2,33.2,0,0,0,7.21,2.05,36.79,36.79,0,0,0,6,.52c2.65,0,5.3,0,8-.13a31,31,0,0,0,4.19-.46,30.67,30.67,0,0,0,6.43-1.84,7.94,7.94,0,0,0,2.34-1.33c-.11-.11-.19-.22-.28-.3-.86-.78-1.72-1.55-2.6-2.31a.43.43,0,0,0-.37,0c-.93.34-1.83.78-2.79,1-1.69.43-3.41.8-5.13,1.08a35,35,0,0,1-4.46.41,61.91,61.91,0,0,1-8-.23A41.56,41.56,0,0,1,9,42.17,29,29,0,0,1,5.84,41a.61.61,0,0,0-.76.14c-.54.53-1.11,1-1.67,1.52ZM9.46,40.7l-2.34-.84c-.5-.19-1.07-.28-1.34-.85,0,0-.18,0-.27,0-.52.17-1,.35-1.54.54s-1.16.46-1.81.72a3.16,3.16,0,0,0,.38.44c.45.29.94.55,1.39.85a.31.31,0,0,0,.44-.06,8.5,8.5,0,0,1,.75-.72,1,1,0,0,1,.6-.24c.69.07,1.36.22,2.05.29A2.93,2.93,0,0,0,9.46,40.7Zm22.22.07a3,3,0,0,0,.65.11,20.44,20.44,0,0,0,2.34-.27,1.55,1.55,0,0,1,1.66.51,3.49,3.49,0,0,0,.43.43.28.28,0,0,0,.24.06c.53-.31,1.08-.61,1.58-1,.32-.23.28-.39-.08-.53l-2.39-.91L35.4,39C34.34,40,32.89,40.08,31.68,40.77ZM8.27,38.54l-4-2.71-.12.1.74,1.59-.09.06a12.56,12.56,0,0,0-2.41-.74c.76.76,1.45,1.46,2.16,2.15.06.06.22,0,.32,0a8,8,0,0,1,1.07-.28C6.66,38.64,7.41,38.6,8.27,38.54Zm24.57,0,0,.07h.18a8.93,8.93,0,0,1,3.2.45c.07,0,.23,0,.3-.08.31-.26.6-.54.89-.82l1.2-1.2-.08-.13-2.44.81.79-1.7-.12-.08ZM32,41.14c.28.17.51.33.76.46a.53.53,0,0,0,.33,0c.35-.12.69-.26,1-.4s.52-.23.77-.35l0-.05ZM6.05,40.8v.08l1.87.76a.3.3,0,0,0,.21,0c.26-.15.5-.31.77-.49ZM7.8,38.89l0-.11c-.42,0-.84,0-1.26.08-.11,0-.21.12-.31.17.13.11.29.32.39.29A10.9,10.9,0,0,0,7.8,38.89Zm25.28-.1,0,.11a9.34,9.34,0,0,0,1.16.4c.12,0,.3-.15.45-.24-.11-.07-.2-.18-.31-.19C33.93,38.82,33.5,38.81,33.08,38.79Z"/><path class="cls-7" d="M2,24l.16-.08a2.71,2.71,0,0,1-.23,1.56c.06.2.21.43.16.59a6.2,6.2,0,0,0-.13,2,9,9,0,0,1-.11,1l.76-.46,0,.07A3.41,3.41,0,0,1,1,30H1a10.44,10.44,0,0,0,0-2.9c0-1.18.08-2.36.15-3.54A9.65,9.65,0,0,1,2,20.2c.27-.64.27-.64.76-.95A5.56,5.56,0,0,1,2,19c-.3-.16-.29-.32,0-.46a1.86,1.86,0,0,0,.94-1,16.46,16.46,0,0,1,3-4.62,16.24,16.24,0,0,1,1.79-1.51c.21-.17.49-.37.78-.14a.94.94,0,0,1,0,1,7.52,7.52,0,0,1-1.42,1.64A1.69,1.69,0,0,0,6.58,15c-.15,0-.28-.22-.22-.46s.21-.68.32-1v-.11l-.06.05a2.55,2.55,0,0,0-.77,1.46c-.08.29-.14.57-.21.86H5.49l-.2-1.61c-.06.27-.14.49-.17.72-.13.93-.24,1.87-.36,2.81,0,0,0,0,0,0h0l.62,0h.1l-.25.44c.45-.18.56-.9,1.19-.67.35.48,0,.83-.26,1.2l-.47.66.08.08c.3-.29.48-.81,1.07-.61,0,.51,0,1,0,1.52s-.13.88-.84.84c.24.22.41.34.56.49s.18.38-.08.52a.31.31,0,0,0,0-.1.27.27,0,0,0,0-.09c-.88-.11-1.3-.86-1-1.85,0-.2.13-.4.2-.62-.61.21-.71.56-.4,1.33-.44-.14-.48-.23-.57-1.46l-.38.14a8.71,8.71,0,0,1-.11.91,5.36,5.36,0,0,1-.37,1,5.4,5.4,0,0,0-.47,2.75,15.78,15.78,0,0,1-.12,2.27,2.5,2.5,0,0,0,.07.75l.26-.42c.34.33.28,1.34-.05,1.46a.48.48,0,0,1-.43-.21,3.6,3.6,0,0,1-.37-1.21c0-.92.07-1.85.11-2.78,0-.66.09-1.32.12-2a5.68,5.68,0,0,1,.76-2.4,1.48,1.48,0,0,0,.18-1l-1.07.53.46.06A3.49,3.49,0,0,1,2.2,21.24l.49-.17-.34,1.22c.22.17,0,1-.45,1.61L1.75,24l.07.08Zm3.16-5.74-.07.11.12-.05.06-.09Zm-.71,0A2.5,2.5,0,0,1,4,16.64a2.73,2.73,0,0,0,.17,1.88Zm-2.8,7.56.09.08.17-.27-.09-.06Z"/><path class="cls-8" d="M33.31,15.42l0-.86.47.51,0,.09,0,0a.22.22,0,0,0,0-.08c-.08-.18-.16-.36-.23-.54a2.19,2.19,0,0,1-.1-.34l.86.76a.88.88,0,0,0-.51-1,1.49,1.49,0,0,1-.17-.18l-1.05-1.22a1.86,1.86,0,0,1-.23-.32c-.16-.28-.15-.87,0-1s.56,0,.79.13a9.78,9.78,0,0,1,3,3c.66,1,1.23,2.11,1.82,3.19a2,2,0,0,0,.92.95c.3.13.31.27,0,.45a1.37,1.37,0,0,1-1.34.1c-.2-.09-.39-.22-.6-.34a1.52,1.52,0,0,0,.18,1A6.19,6.19,0,0,1,38,22.64c0,1.11.21,2.21.24,3.32A6.87,6.87,0,0,1,38,27.75c0,.22-.33.39-.51.58a4.63,4.63,0,0,1-.36-.65.77.77,0,0,1,.14-.83l.36.38.09,0c0-.32-.06-.65-.07-1,0-.76-.12-1.52-.09-2.28a4.53,4.53,0,0,0-.31-2.06,15.62,15.62,0,0,1-.58-1.62,3,3,0,0,1,0-.75l-.41-.15c0,.53.12,1.12-.47,1.47l-.06-.08c.28-.67.28-.67-.23-1.18l0,0c-.25-.33-.49-.67-.73-1s-.49-.61-.22-1c0,0,0-.06,0-.05a.78.78,0,0,1,.91.47,2.94,2.94,0,0,0,.41.46l.08-.06-.39-.57.07-.07h.69c-.52-1.15-.1-2.4-.59-3.46l-.2,1.52h-.14c-.09-.36-.16-.73-.27-1.09a2,2,0,0,0-.78-1.27l0,0v0h0c.09.25.18.5.25.76a1,1,0,0,1-.13,1,1.42,1.42,0,0,1,0,2.06l-.35,0,.16.13a2.49,2.49,0,0,1,.09.37c.07.6-.19.93-.72.95a1.75,1.75,0,0,1-.25,1.58h-.43l0,.61-.4.43h0l-.53-.09-.28.6h0c-.1,0-.19.1-.29.13-.29.08-.41,0-.44-.32s-.09-.6-.13-.9h-.12l.13,1.18h-.49c0-.16.05-.31.07-.46a4.91,4.91,0,0,1,.08-.67,4.85,4.85,0,0,1,.29-.61c.18.09.37.17.55.27l.1.07.49-.67L31,20v-.09a3.48,3.48,0,0,0,1.91-2.78,5.37,5.37,0,0,0-.34-3.53.4.4,0,0,1,0-.11,3,3,0,0,1,.73,2v1.89l.37-.54.12,0-.07,0C33.29,16.35,33.37,15.86,33.31,15.42Zm3.88,1.38-.13,0a2.31,2.31,0,0,1-.5,1.46l.41.34Zm-4.38,3.38.09-.06-.29-.54-.08,0Zm1.29-4.42s0,0,0,0,0,0,0-.05,0,0-.06,0ZM34,16.94a0,0,0,0,0,0,0h0s0,0,0,0Z"/><path class="cls-9" d="M22.26,21.49c.14.78.25,1.58.46,2.36a1.28,1.28,0,0,1-.18,1.27l-.79.84L20.49,27.3,20.18,27,18.9,25.53l-.43-.42c-.52-.52-.2-1.08-.1-1.63l.39-2,.3-.92H17.41a6.08,6.08,0,0,0,.38-.67,1,1,0,0,1,1.28-.76.4.4,0,0,0,.31-.19c.16-.3.18-.75.42-.9s.67,0,1,0H21a.32.32,0,0,1,.41.28.23.23,0,0,0,0,.11c.25.74.25.74,1,.75.11,0,.28,0,.32.07.28.42.54.86.84,1.36H21.94Z"/><path class="cls-10" d="M16.93,20.55c.34.35.64.71,1,1,.13.12.37.11.59.16-.19.88-.4,1.77-.58,2.66A2.8,2.8,0,0,0,18,25a4.26,4.26,0,0,0-1.77,4A4.37,4.37,0,0,0,19,32.62a6.55,6.55,0,0,1-5-4.81A6.63,6.63,0,0,1,16.93,20.55Z"/><path class="cls-10" d="M23,25a2.81,2.81,0,0,0,0-.62c-.18-.88-.38-1.77-.57-2.68.83,0,1.05-.74,1.57-1.14A6.6,6.6,0,0,1,22,32.62a4.31,4.31,0,0,0,2.82-3.57A4.23,4.23,0,0,0,23,25Z"/><path class="cls-11" d="M9.12,9.59c-.36.1-.71.22-1.07.29a.92.92,0,0,1-.39-.07,1.07,1.07,0,0,1,.13-.38c.26-.29.54-.54.8-.82s.46-.49.72-.77c-.42-.17-.79-.3-1.14-.46C8,7.3,7.7,7.13,7.72,7.07a1.36,1.36,0,0,1,.36-.61A9.65,9.65,0,0,1,9,5.82L7.87,4.67c-.3-.3-.31-.35,0-.58a16.79,16.79,0,0,1,5.44-2.22A30.15,30.15,0,0,1,19,1.13a33.22,33.22,0,0,1,8.5.67A15.67,15.67,0,0,1,33,4.07c.37.25.37.33,0,.64s-.69.65-1.07,1l1,.66.15.1c.46.39.41.66-.15.87-.38.13-.75.29-1.17.45l.67.74c.29.3.6.59.87.9.08.08.08.23.12.35a1.37,1.37,0,0,1-.39.06c-.34-.07-.67-.17-1-.26l-.14,0,.08.08a4,4,0,0,1,.16.66.31.31,0,0,1-.55.26c-.53-.4-1.05-.83-1.57-1.24-.35-.28-.72-.55-1.06-.84s-.28-.42.11-.58l.13-.06.63-.31-1.93-.85,0-.15.88-.69c-2.9-1.38-11.2-1.76-16.28.06l.88.77-2,.89c.28.14.52.27.76.37s.42.3.1.58-.81.66-1.22,1-.87.71-1.32,1a.68.68,0,0,1-.49.12c-.09,0-.15-.3-.14-.45a3.28,3.28,0,0,1,.21-.57l.07-.08ZM32.27,4l-.09-.06c-.64-.33-1.27-.71-1.94-1a24.48,24.48,0,0,0-8.51-1.57,32.14,32.14,0,0,0-6.64.42,19.7,19.7,0,0,0-6.16,2c-.32.18-.63.38-1,.58.71.69,1.38,1.34,2.06,2a.43.43,0,0,0,.37,0,24.77,24.77,0,0,1,10.08-2c1.28,0,2.56.08,3.83.18a14.59,14.59,0,0,1,6.21,1.78.34.34,0,0,0,.31,0c.7-.65,1.38-1.31,2.1-2l-.52-.31ZM10.79,6.53l1.61-.19,0-.13c-.2-.06-.41-.2-.58-.15a9,9,0,0,0-1.06.47h-.15v0ZM9.21,5.94c-.38.26-.74.48-1.07.73s-.25.35,0,.48L10.28,8c.63-.88,1.72-.87,2.5-1.44a1.44,1.44,0,0,0-.57-.07c-.58.06-1.15.17-1.73.22a.91.91,0,0,1-.56-.18A8,8,0,0,1,9.21,5.94Zm19,.7.38.18c.49.2,1,.39,1.48.62a1.21,1.21,0,0,1,.47.36.28.28,0,0,0,.39.11c.48-.2,1-.38,1.45-.59A4.6,4.6,0,0,0,33,6.9a4.51,4.51,0,0,0-.52-.55c-.66-.52-.7-.53-1.27.09a.88.88,0,0,1-.93.27L30,6.64A3.43,3.43,0,0,0,28.23,6.64ZM8,9.61l.08.12,1.65-.66-.5,1.29.09.06,2.66-2a8.32,8.32,0,0,1-2.37-.48A.21.21,0,0,0,9.46,8Zm24.85.07L33,9.55C32.5,9,32,8.48,31.55,8c-.05,0-.21,0-.32,0-.3.07-.59.18-.89.22s-.86.07-1.29.1L29,8.37l2.67,2,.09-.06L31.25,9ZM30.24,6.51l0,0a7.45,7.45,0,0,1-.86-.38c-.36-.22-.59,0-.85.2ZM11.71,8.13c-.58-.44-.82-.47-1.09-.08ZM29.36,8h.93C30.21,7.6,30.18,7.63,29.36,8Zm1.11-1.46h0v0Z"/><path class="cls-8" d="M9.12,19.88l.47.62c.07-.06.17-.15.27-.22.3-.24.54-.16.63.22a4.07,4.07,0,0,1,0,.49c0,.15,0,.3.07.45s0,.31.07.46h-.5l.14-1.14-.12,0c0,.25-.11.5-.13.75,0,.47-.18.57-.6.37l-.12-.06h0l-.27-.7-.53.19h0l-.48-.45c0,.57.09,1.16-.67,1.45l.61.19c-.11.33-.38.49-.67.32a1.1,1.1,0,0,1-.47-.58,1.77,1.77,0,0,1,.77-1.95,2,2,0,0,1-.23-1.62c-.63,0-.85-.42-.65-1.31a.44.44,0,0,1-.16-.1,1.43,1.43,0,0,1-.11-2L6.64,15l.77-.73v.37l-.08.14-.07.14-.2.3.11,0,.1-.34.08-.14.07-.14.26-.3,0,1c-.1.46,0,1-.39,1.36l-.09.08,0,0,.11-.07.4.56v-2a3.43,3.43,0,0,1,.7-1.91A6.12,6.12,0,0,0,8.12,17c.28,1.19.66,2.34,1.93,2.87L10,20l-.86-.16h-.1ZM8,20.66l.48-1.13c-.36.29-.28.9-.84.76ZM7,17V16.9s0,0-.06,0A.17.17,0,0,0,7,17ZM6.8,16s0,0-.06,0,0,0,0,.05,0,0,0,0Zm.09-.31a0,0,0,0,0,0,0h0s0,0,0,0Z"/><path class="cls-7" d="M8,25.6l-.5.73h0c-.25.14-.39,0-.5-.19a2.77,2.77,0,0,1-.5-1.91l.1-.51-.09,0-.11.55L6,25.6l-.08.31.45-.21.07.06L6,26.52,5.47,26c-.1.33-.2.71-.33,1.08A.8.8,0,0,1,5,27.3c-.17.18-.35.39-.64.29A.58.58,0,0,1,4,27a7.93,7.93,0,0,1,0-2.12,14.72,14.72,0,0,0,.12-1.49c.12-.78.28-1.55.46-2.31,0-.09.3-.21.4-.17a.6.6,0,0,1,.42.64c0,.48-.1,1-.14,1.46a8.71,8.71,0,0,0-.06,1.14,2.69,2.69,0,0,1-.47,1.55.52.52,0,0,1-.2.19c-.34.16-.29.45-.27.74,0,.06.11.17.15.16a.52.52,0,0,0,.34-.13c.16-.21.24-.47.4-.68a1.53,1.53,0,0,0,.2-.91,18.79,18.79,0,0,1,.37-2c0-.19.08-.38.12-.6l.64-.3.17,1.28.21-.39.18.56,0-.57c.31.11.61.2.88-.09,0,0,.11,0,.18.05v.08c0,.3,0,.59,0,.89a5.1,5.1,0,0,1-.19.88,8.69,8.69,0,0,1-.34.8l.27-.09Zm-.42.16-.06-.08-.16.15,0,.05Z"/><path class="cls-7" d="M21.92,12.75a2.24,2.24,0,0,1,1.25-.43l.06,0-.05,0,.09-.11c.32,0,.67-.09.92.23,0,.05.15,0,.23.05h0l.44.15h0l.07.11.07.18L25,13h0l-1.06-.18-.1,0-.4-.21,0-.07h0l.06.05c-.23.55-.75.64-1.24.79h.34s.07.1.11.15h0l-.29.94h0v.72a.58.58,0,0,1-.64.5,2.82,2.82,0,0,1,.24-2.27h-.3a7.09,7.09,0,0,0-.12.74,2.43,2.43,0,0,0,.11,1.53c0,.4-.08.79-.07,1.18s-.38.48-.62.64c-.08.06-.28-.07-.4-.11s-.36.15-.48.09c-.3-.14-.63-.27-.6-.73a8.69,8.69,0,0,0,0-1.14,2.39,2.39,0,0,0,.21-.62,2.59,2.59,0,0,0-.1-.6l-.17-.93,0-.2s0,0,0,0l-.12-.26,0,0-.05-.11,0,0v-.11c.76,0,1,.67,1.39,1.2.36-.54.65-1.15,1.41-1.2Zm-.08.11-.05,0s0,0,0,.06l.05,0S21.85,12.88,21.84,12.86Z"/><path class="cls-12" d="M56.43,36.92c0,.85,0,1.71,0,2.57,0,.37.26.46.61.44L57,40H55.57V40l.21,0a.38.38,0,0,0,.36-.41c0-1,0-2,0-3,0-.33-.42-.57-.91-.54-.34,0-.45.15-.46.57,0,.79,0,1.58-.06,2.37a1.16,1.16,0,0,1-1.07,1.16,3.45,3.45,0,0,1-1.24,0,1,1,0,0,1-.85-.95c-.06-.73-.06-1.47-.07-2.21s0-.73-.66-1h1.87s0,.08,0,.09c-.53.12-.56.13-.56.67,0,.73,0,1.46,0,2.19a.94.94,0,0,0,1,1,1.1,1.1,0,0,0,1.27-1c0-.81,0-1.62,0-2.44,0-.4-.31-.41-.58-.52l.24,0c.7,0,1.39,0,2.08,0a.57.57,0,0,1,.49.23c.66.83,1.34,1.65,2,2.47l.32.38c0-.92,0-1.76,0-2.6,0-.11-.19-.23-.31-.32s-.16,0-.24-.12H59.9s0,.06,0,.06c-.58.16-.59.17-.59.81v3a.69.69,0,0,1-.1.38l-2.69-3.27Z"/><path class="cls-7" d="M39.18,29c0-.53-.07-1.05-.12-1.57S39,26.63,39,26.22s-.2-.59.25-.7a2.26,2.26,0,0,1-.34-1.62L39,24l.17.06,0,0-.11-.1a3.27,3.27,0,0,1-.47-1.12c0-.58-.25-1.1-.28-1.7l.44.16a3.56,3.56,0,0,1-1.12-2l.64,0c.26,0,.37.21.47.42a10.88,10.88,0,0,1,1.12,4.18c0,.89.1,1.78.13,2.68a5.74,5.74,0,0,1,0,.71,5.66,5.66,0,0,0,0,2.71,3,3,0,0,1-1.62-1.38l.67.43.07,0Zm.11-3.15.08-.08-.19-.23-.08.07Z"/><path class="cls-7" d="M34.77,25.81l.32.08-.5-1.51-.13-.54h0c0-.31-.07-.63-.06-.94a5.58,5.58,0,0,1,.13-.69l.57.3h.08c.06.26.11.53.18.79a4.34,4.34,0,0,1,.27,2.14c0,.1.08.22.14.33a5.86,5.86,0,0,0,.42.78c.08.12.27.16.4.24.06-.15.17-.29.16-.43a.59.59,0,0,0-.18-.43,1.88,1.88,0,0,1-.73-1.37c-.11-1-.17-1.95-.22-2.92a1.2,1.2,0,0,1,.2-.63.45.45,0,0,1,.4-.14.51.51,0,0,1,.25.33A24.94,24.94,0,0,1,37,24.76,20.81,20.81,0,0,1,37.06,27c0,.27-.11.55-.38.59a.74.74,0,0,1-.59-.27,6.59,6.59,0,0,1-.47-1c0-.07,0-.15-.1-.28l-.37.48a.8.8,0,0,1-.53-.65Z"/><path class="cls-13" d="M21.75,26l.79-.83a4,4,0,0,1,1.31,1.34c-.3-.07-.25.14-.23.3s.06.27.08.41l.15,1c0,.06-.07.12-.07.18a2.89,2.89,0,0,1-.92,2.46,10,10,0,0,1-1.38.91l-.2,0a9.94,9.94,0,0,1-1.45-.05,3.21,3.21,0,0,1-2.53-3.19A3.11,3.11,0,0,1,18.56,26l.19.22a1.33,1.33,0,0,1-.16.34,2.72,2.72,0,0,0-.78,2.54,2.8,2.8,0,0,0,3.37,2.14l.13.29.24-.17.42-.32c.49-.4,1.07-.71,1.31-1.36.1-.29.07-.44-.23-.51v-.14a2.59,2.59,0,0,0-.83-2.39c-.06-.05-.06-.17-.09-.26s.07-.11.06-.12Z"/><path class="cls-8" d="M16.59,15.2l.55-.67.08-.1-.14,0c-.34,0-.13-.23-.19-.35l-.24-.06,0-.05a.93.93,0,0,0-.31-.19c-.28,0-.56,0-.84,0h0l-.29-.2.58-.3h0l.08-.07H16l.5.44.08,0,0,0-.1,0-.27-.54.73.15,0-.08-.13-.1.23-.15h0l.07-.08h0a.84.84,0,0,1,.75.23,4.27,4.27,0,0,0,.41.29l.11.15.06.38.09,0-.1-.4c.05,0,.09-.11.14-.11a3,3,0,0,1,.42,0c.42.18.37.59.43.94l-.07,1.23c-.1.33-.18.67-.31,1-.21.56-.22.55-.87.71-.37-.52-.22-1.11.42-1.66l.12.41.57-.28a2.31,2.31,0,0,1-.42-.29,1.45,1.45,0,0,1-.2-.34l-.58.68-.24-.31h0l-.07-.3-.88.16s-.08.05-.13.07h-.07l-.08-.14Zm1.34-.44c.22-.46-.33-.77-.36-1.2h-.09l.09.27H17l.34.38.16-.08C17.67,14.34,17.79,14.54,17.93,14.76Zm-.65-1.52v-.1l-.19,0v.07Z"/><path class="cls-14" d="M6.86,23.09l-.21.39L6.48,22.2v0c.26-.14.28-.32.08-.52s-.32-.27-.56-.49c.71,0,.82-.38.84-.84s0-1,0-1.52c-.59-.2-.77.32-1.07.61l-.08-.08.47-.66c.26-.37.61-.72.26-1.2-.63-.23-.74.49-1.19.67l.25-.44a.82.82,0,0,1,.17-.2.74.74,0,0,0,.22-1c-.11-.2-.28-.24-.4-.08a2,2,0,0,0-.44,1.16l.22,0a.54.54,0,0,1,.13.07l-.62,0h0s0,0,0,0c.12-.94.23-1.88.36-2.81,0-.23.11-.45.17-.72l.2,1.61h.14c.07-.29.13-.57.21-.86a2.55,2.55,0,0,1,.77-1.46l.07.06c-.11.33-.24.66-.32,1s.07.45.22.46h.06l-.17.28a1.43,1.43,0,0,0,.11,2,.44.44,0,0,0,.16.1c-.2.89,0,1.35.65,1.31a2,2,0,0,0,.23,1.62,1.77,1.77,0,0,0-.77,1.95,1.1,1.1,0,0,0,.47.58c.29.17.56,0,.67-.32l-.61-.19c.76-.29.67-.88.67-1.45l.48.45c-.08.07-.21.14-.22.22-.07.5-.12,1-.17,1.52C8.07,23,8,23,8,23c-.27.29-.57.2-.88.09C7,23,6.91,22.85,6.86,23.09Z"/><path class="cls-15" d="M118.16,40c.61-.22.62-.22.62-.9V36.74c0-.65,0-.65-.58-.81,0,0,0-.06,0-.06.84,0,1.7,0,2.53.05a1.86,1.86,0,0,1,1.68,2A2,2,0,0,1,120.72,40c-.8.09-1.62.06-2.43.08C118.25,40.07,118.22,40,118.16,40Zm1.24-.3a1.65,1.65,0,0,0,2.27-1.41,1.72,1.72,0,0,0-2-2.15c-.1,0-.25.14-.26.21C119.4,37.47,119.4,38.59,119.4,39.7Z"/><path class="cls-12" d="M80.53,40c.57-.18.57-.18.57-.82V36.77c0-.66,0-.66-.57-.85,0,0,0-.05,0-.05.83,0,1.67,0,2.5,0a1.84,1.84,0,0,1,1.69,1.89A1.93,1.93,0,0,1,83.15,40a25.2,25.2,0,0,1-2.61.13Zm1.2-.27A1.67,1.67,0,0,0,84,38.25a1.72,1.72,0,0,0-2-2.11.35.35,0,0,0-.24.25C81.73,37.49,81.73,38.59,81.73,39.71Z"/><path class="cls-16" d="M103.18,40c.62-.16.62-.17.62-.79V36.76c0-.66,0-.66-.57-.84,0,0,0-.05,0-.05.85,0,1.7,0,2.54.05a1.79,1.79,0,0,1,1.65,2,1.9,1.9,0,0,1-1.68,2c-.81.09-1.64.06-2.46.07C103.27,40.06,103.25,40,103.18,40Zm1.25-.19a6,6,0,0,0,1.15-.07,1.73,1.73,0,0,0,1.14-2,1.65,1.65,0,0,0-2.07-1.59.34.34,0,0,0-.21.24C104.42,37.49,104.43,38.58,104.43,39.8Z"/><path class="cls-15" d="M112,40.07c-.34,0-.68,0-1,0-.08,0-.17-.11-.23-.19-.37-.5-.74-1-1.09-1.51-.16-.22-.32-.34-.6-.24a10,10,0,0,0,0,1.45c0,.18.32.32.48.46H107.8V40l.21,0a.39.39,0,0,0,.37-.44c0-1,0-2,0-3,0-.41-.26-.49-.63-.45l0-.1a.78.78,0,0,1,.21,0h1.68a3.94,3.94,0,0,1,.6.08,1.06,1.06,0,0,1,.79.92,1,1,0,0,1-.63,1l-.4.16c.66.67.89,1.69,2,1.93ZM109,37.86c.55,0,1,0,1.27-.53a.82.82,0,0,0-.15-1,1.07,1.07,0,0,0-1.12-.2Z"/><path class="cls-16" d="M89.67,40c.6-.23.6-.23.6-.92s0-1.53,0-2.29.06-.7-.59-.9c0,0,0-.05,0-.05.84,0,1.69,0,2.53.05a1.87,1.87,0,0,1,1.67,2.15A1.94,1.94,0,0,1,92,40C91.21,40.08,90.44,40,89.67,40Zm1.2-.31a1.82,1.82,0,0,0,1.59-.19,1.9,1.9,0,0,0,.7-1.81,1.65,1.65,0,0,0-2.09-1.57.32.32,0,0,0-.19.22C90.87,37.48,90.87,38.59,90.87,39.72Z"/><path class="cls-16" d="M72.91,38c.65.66.88,1.7,2,1.93a1.18,1.18,0,0,1-1.45-.3c-.32-.44-.66-.88-1-1.33a.43.43,0,0,0-.6-.2c0,.44,0,.91,0,1.37,0,.24.06.27.65.52H70.65c.67-.24.58-.23.6-1s0-1.5,0-2.26.13-.71-.6-1H71c.62,0,1.25,0,1.86,0a1,1,0,0,1,1,.92c0,.55-.21.9-.83,1.14Zm-1-1.88v1.7a1.14,1.14,0,0,0,1.23-.48.81.81,0,0,0-.06-.94A1,1,0,0,0,71.88,36.16Z"/><path class="cls-12" d="M116.26,37.93a2.1,2.1,0,0,1-2.64,2.15,2.24,2.24,0,0,1-1.4-2.85,2.07,2.07,0,0,1,2.64-1.38A2.13,2.13,0,0,1,116.26,37.93Zm-3.47,0c.11.43.17.85.31,1.23a1.12,1.12,0,0,0,1.11.76,1.22,1.22,0,0,0,1.13-.81,3.24,3.24,0,0,0-.06-2.41,1.13,1.13,0,0,0-1.11-.71,1.06,1.06,0,0,0-1.06.71A10.09,10.09,0,0,0,112.79,37.93Z"/><path class="cls-16" d="M132,35.77l.11,1.29-.09,0c-.05-.1-.11-.2-.16-.31a1.29,1.29,0,0,0-1.18-.79,1.37,1.37,0,0,0-1.32.69,2.5,2.5,0,0,0,.16,2.67,1.46,1.46,0,0,0,1.77.44.44.44,0,0,0,.2-.28c0-.39,0-.79,0-1.18s-.29-.41-.52-.55h1.6c-.51.12-.45.51-.45.88a4.7,4.7,0,0,0,0,.75.46.46,0,0,1-.36.55,3.25,3.25,0,0,1-1.9.1,2.08,2.08,0,0,1-1.55-2.25,2.19,2.19,0,0,1,1.9-2,5.09,5.09,0,0,1,1.22.15c.22,0,.4.13.47-.21Z"/><path class="cls-16" d="M19.61,34.36l.69.21v6.14c-.45-.66-.89-1.22-1.24-1.83-.11-.2,0-.54.05-.81.14-1.18.3-2.36.45-3.55Z"/><path class="cls-4" d="M20.69,40.72V34.57l.72-.22c.09.69.19,1.37.28,2.06s.17,1.34.27,2a.92.92,0,0,1-.17.73C21.43,39.64,21.09,40.14,20.69,40.72Z"/><path class="cls-5" d="M140.86,39V36.34c0-.37-.33-.33-.56-.45h1.44s0,.06,0,.06c-.54.13-.57.15-.57.74v3.4l-.09.06-2.77-3.36c0,1,0,1.89,0,2.79,0,.35.34.31.55.45h-1.5c.64-.28.64-.28.64-1V36.81c0-.52-.15-.71-.67-.82l-.15-.05a1.28,1.28,0,0,1,1.45.27Z"/><path class="cls-17" d="M22.35,38.28c-.26-1.34-.51-2.59-.75-3.84a.39.39,0,0,1,.13-.27c.28-.23.57-.44.89-.68.19.43.38.87.58,1.3s.35.76.5,1.15a.4.4,0,0,1,0,.32C23.28,36.92,22.84,37.56,22.35,38.28Z"/><path class="cls-17" d="M18.66,38.29c-.5-.73-.94-1.39-1.38-2a.29.29,0,0,1,0-.24c.37-.83.74-1.67,1.12-2.51.31.24.62.46.91.7a.4.4,0,0,1,.09.32C19.16,35.74,18.92,37,18.66,38.29Z"/><path class="cls-18" d="M18.47,25.11l.43.42c-.28,0-.37.12-.39.35-.1.06-.23.08-.3.16a3.42,3.42,0,0,0,1.71,5.87l.71.16-.18.39a4,4,0,0,1-2-7.35Z"/><path class="cls-12" d="M149.43,39l-.32.93a.27.27,0,0,1-.2.11h-3s-.05,0-.13-.08l.22-.07c.3,0,.43-.2.43-.5,0-1,0-2,0-2.93,0-.43-.24-.55-.66-.51l.06-.1h3.25l0,.89c-.07,0-.11,0-.11,0-.19-.57-.17-.67-1.06-.68h-.89v1.63a10.67,10.67,0,0,0,1.13,0c.12,0,.25-.18.35-.3s.07-.18.17-.26v1.44l-.1,0c-.06-.53-.43-.59-.86-.57H147c0,.53,0,1,0,1.55a.42.42,0,0,0,.28.27,3.82,3.82,0,0,0,1.07,0,1.48,1.48,0,0,0,.64-.39,1.84,1.84,0,0,0,.28-.39Z"/><path class="cls-16" d="M99.33,40c.64-.26.64-.26.64-1V36.78c0-.67,0-.67-.59-.89h3.24v.93c-.06-.06-.11-.09-.12-.12-.1-.6-.39-.6-.83-.62h-1.06v1.63a11.13,11.13,0,0,0,1.15,0c.11,0,.23-.17.32-.28s.07-.18.16-.26v1.42l-.09,0c-.18-.54-.21-.57-.8-.58h-.76c0,.56,0,1.09,0,1.62,0,.07.15.2.24.2a5.82,5.82,0,0,0,1.18,0,1.46,1.46,0,0,0,.56-.39,1.91,1.91,0,0,0,.28-.4l.11,0c-.12.34-.23.67-.36,1,0,0-.13.06-.19.06h-2.9A.78.78,0,0,1,99.33,40Z"/><path class="cls-16" d="M68,37.72h1.06c.37,0,.45-.29.57-.57v1.42s-.07,0-.07,0c-.2-.55-.23-.57-.84-.58H68c0,.55,0,1.08,0,1.61a.35.35,0,0,0,.26.21,4.57,4.57,0,0,0,1.11,0,1.56,1.56,0,0,0,.63-.41A1.8,1.8,0,0,0,70.3,39l.1.05-.35,1H66.82V40l.2,0a.42.42,0,0,0,.37-.46v-3c0-.38-.24-.48-.61-.43l0-.1H70v.89l-.08,0c-.09-.63-.54-.7-1.06-.67-.28,0-.57,0-.87,0Z"/><path class="cls-18" d="M122.74,40c.62-.15.63-.16.63-.79v-2.4c0-.68,0-.68-.58-.9H126l0,.88-.07,0s-.09-.08-.1-.12c-.06-.48-.38-.59-.79-.59H124V37.7a5.43,5.43,0,0,0,1.14,0c.19,0,.32-.31.47-.47v1.35h-.07c-.19-.55-.22-.57-.81-.58H124c0,.55,0,1.07,0,1.59a.41.41,0,0,0,.28.23,3.2,3.2,0,0,0,1.07,0,2.14,2.14,0,0,0,.7-.48,1.24,1.24,0,0,0,.23-.32l.08.05c-.1.31-.19.62-.31.93a.23.23,0,0,1-.19.12h-3S122.81,40,122.74,40Z"/><path class="cls-5" d="M97,38.12v1c0,.65,0,.65.69.91h-1.9s0-.07,0-.07c.56-.14.57-.14.57-.74,0-.82,0-1.64,0-2.46,0-.67,0-.67-.59-.83,0,0,0-.06,0-.06.68,0,1.36,0,2,0A1.15,1.15,0,0,1,99,37a1.17,1.17,0,0,1-1.4,1.2Zm0-1.95V37.9c.44.08.84.12,1.11-.31a1,1,0,0,0,0-1.11C97.88,36.08,97.48,36.09,97.05,36.17Z"/><path class="cls-16" d="M77.67,35.78V37.2l-.09,0-.09-.34a1.07,1.07,0,0,0-1.34-.81.9.9,0,0,0-.45.49.65.65,0,0,0,.24.53c.43.32.91.57,1.36.85a1.18,1.18,0,0,1,.65.93,1.16,1.16,0,0,1-1.16,1.27,9.13,9.13,0,0,1-1-.15,2.65,2.65,0,0,0-.54,0V38.73l.06,0,.09.25a1.16,1.16,0,0,0,1.34.91.67.67,0,0,0,.62-.46.62.62,0,0,0-.24-.73c-.23-.17-.48-.31-.73-.46s-.49-.28-.72-.45a1.07,1.07,0,0,1-.44-1.29,1.23,1.23,0,0,1,1.24-.73,1.89,1.89,0,0,1,.58.14C77.28,36,77.47,36,77.67,35.78Z"/><path class="cls-18" d="M137.17,40h-1.63l0-.06a.82.82,0,0,0,.23-.11c.07-.06.19-.17.17-.23a7.36,7.36,0,0,0-.34-.93c0-.05-.15-.06-.23-.06h-.68c-.76,0-.85.08-1,.82-.11.4.21.4.42.56h-1.3c.6-.26.66-.86.88-1.35.4-.88.77-1.77,1.15-2.66,0-.09.09-.18.18-.36.08.16.14.26.18.36l1.29,3.09c.16.38.29.77.79.85Zm-3.08-1.68h1.36l-.67-1.6Z"/><path class="cls-17" d="M30.37,24.09a14.69,14.69,0,0,1,0,1.88,2.36,2.36,0,0,1-.51.89,5.07,5.07,0,0,1-.49.55c-.49-.33-.64-.67-.38-1.16.33-.66.08-1.36.25-2a3.57,3.57,0,0,1,.16-.46L30,22.1a1.9,1.9,0,0,1,.3,1.23,2.26,2.26,0,0,0,.06.57Z"/><path class="cls-17" d="M10.64,24a3.35,3.35,0,0,1,.39-1.9,5.5,5.5,0,0,0,.42,1.34,3.63,3.63,0,0,1,.39,2.16,2,2,0,0,0,.2.64.85.85,0,0,1-.32,1.19c-1.2-.83-1.17-2.05-1.08-3.3Z"/><path class="cls-12" d="M85.05,40c.45-.2.56-.61.72-1,.44-1,.87-2,1.3-3,0-.09.1-.18.18-.34l.18.36c.42,1,.83,2,1.26,3,.29.67.16.63.87,1H87.87c.12-.14.36-.3.34-.41a4.55,4.55,0,0,0-.35-.93s-.13,0-.2,0h-.72c-.22,0-.54-.07-.65.05a2.34,2.34,0,0,0-.38.83c-.11.35.24.33.42.5Zm1.34-1.66h1.37l-.68-1.61c-.21.48-.39.9-.58,1.32C86.47,38.17,86.44,38.25,86.39,38.37Z"/><path class="cls-19" d="M12,34.27l-.39-.48.1-.1c.32,0,.38-.28.35-.55s.13-.48.45-.34a1.66,1.66,0,0,1,.32.22.65.65,0,0,0,1.09-.08l.21-.27c.37.25.74.49,1.09.76a.61.61,0,0,1,.13.34c.07.31.09.64.19.94a.92.92,0,0,0,.36.42c.67.43.68.45.47,1.15l-.08,0-.07-.11c.19-.51,0-.74-.52-.71l-.28,0,.21-.26-.27-.33a1.74,1.74,0,0,0-.45-1.1c-.34.13-.66.24-1,.37-.11,0-.28.13-.28.18a1.62,1.62,0,0,0,.17.41l0,.19c.25.13.5.26.76.37a1.07,1.07,0,0,0,.32.08h.11l.16.14a.5.5,0,0,0-.07.65c.07.1.23.14.35.2-.06.06-.12.16-.18.16-.3,0-.58-.19-.57-.48,0-.56-.43-.7-.77-.85a1.24,1.24,0,0,0-1.25,0,.5.5,0,0,1-.67-.12L11.92,35l.09-.62Zm1-.19a.67.67,0,0,0-.8.68.44.44,0,0,0,.35.28c.18,0,.46,0,.48-.31S13,34.32,13,34.08ZM12.45,33l-.48.93c.21.22.48.07.7,0s.19-.26.2-.4A.57.57,0,0,0,12.45,33Zm1.6.31c-.41.1-.56.27-.46.54a.33.33,0,0,0,.51.15C14.47,33.72,14,33.51,14.05,33.27ZM13.51,35l.1-.08c0-.23-.07-.47-.13-.69a.57.57,0,0,0-.31,0,1,1,0,0,0,0,.54C13.16,34.85,13.38,34.88,13.51,35ZM13,34a2.45,2.45,0,0,0,.48,0s.08-.24,0-.28a2.79,2.79,0,0,0-.46-.25Z"/><path class="cls-19" d="M24.78,36.18c-.05,0-.14.06-.15,0a.55.55,0,0,1,.09-.84,1,1,0,0,1,.27-.17,1,1,0,0,0,.56-.81c.05-.23.05-.47.1-.7a.55.55,0,0,1,.19-.32c.32-.24.66-.46,1-.71l.23.28c.37.43.67.43,1.1.07a1.37,1.37,0,0,1,.53-.25c.05,0,.2.14.22.23a5.21,5.21,0,0,1,.09.69L28.53,33c-.08.07-.27.16-.32.31s-.07.47,0,.54a1.27,1.27,0,0,0,.66.16s.08-.18.12-.28h.27v.12c.08.26-.16.25-.28.34a.71.71,0,0,0-.06.24c0,.22.09.45.13.67a.82.82,0,0,1-1.06.11,1.26,1.26,0,0,0-1.12.11,2.56,2.56,0,0,0-.42.28.56.56,0,0,0-.19.33c-.05.34-.18.59-.54.66l-.24,0h0l0-.08a.56.56,0,0,0,.23,0,1.63,1.63,0,0,0,.13-1.3.75.75,0,0,0-.15-.09h.43c-.11.16-.21.33,0,.52a4.67,4.67,0,0,1,.46-.35,3.31,3.31,0,0,1,.53-.18.26.26,0,0,0,.11-.12c.2-.49.15-.59-.38-.72l-.17-.07-.62-.28a1.31,1.31,0,0,0-.37,1.2l-.38.26.27.26h0v0c-.12,0-.23,0-.35,0C24.72,35.47,24.57,35.71,24.78,36.18Zm2.73-2.29L28,34,28,33.34l-.47.35c-.13-.21-.23-.44-.54-.41a.52.52,0,0,0-.06.13c0,.17-.06.34-.1.52l.64,0Zm.53.2a1.74,1.74,0,0,0,0,.68.69.69,0,0,0,.51.27c.09,0,.29-.17.31-.28A.68.68,0,0,0,28,34.09Zm-.63.81c.39,0,.54-.09.52-.41s-.05-.41-.3-.33C27.22,34.29,27.53,34.63,27.41,34.9Z"/><path class="cls-16" d="M62.17,35.88H64a1.2,1.2,0,0,1-.19.11c-.37.11-.43.2-.28.56.23.57.48,1.12.72,1.68l.41.93c.38-1,.75-1.85,1.07-2.74,0-.13-.18-.35-.28-.53h1.18c-.51.21-.61.7-.79,1.13-.39.95-.79,1.91-1.18,2.87,0,.09-.09.18-.17.36a2.93,2.93,0,0,1-.2-.41c-.47-1.07-.94-2.14-1.4-3.21A1.13,1.13,0,0,0,62.17,35.88Z"/><path class="cls-18" d="M30.37,24.09V23.9c.19-.14.39-.26.56-.41a.67.67,0,0,0,.25-.38,4.07,4.07,0,0,0,0-.78c0-.25.07-.36.32-.31a2.79,2.79,0,0,1,.15,1.54.36.36,0,0,0,0,.1l0-.07a.73.73,0,0,1,1.07.47,4.42,4.42,0,0,1,0,1.5c-.16.62-.64.67-1.05.18a.83.83,0,0,1-.19-.4l.69.43-.19-.93.37.19.17-.26c-.66-.13-.74-.23-.87-1-.4.3-.43.37-.34.85a1.33,1.33,0,0,1-.16,1.1c-.13.18-.31.37-.52.18s0-.34.06-.49.32-.48.45-.73.11-.47-.25-.49C30.69,24.15,30.53,24.11,30.37,24.09Z"/><path class="cls-18" d="M142,36.84l.05-1h3.45v1c-.17-.83-.8-.71-1.43-.69v3c0,.67,0,.67.58.92h-1.78V40l.17,0a.4.4,0,0,0,.41-.44c0-1.1,0-2.2,0-3.29C142.73,36,142.5,36.11,142,36.84Z"/><path class="cls-17" d="M32.88,23c.06,0,.14-.07.18,0a.76.76,0,0,0,1-.06l.36.9h0l0,.54A2.53,2.53,0,0,1,34,26.09c-.1.14-.32.2-.48.29h0L33,25.57l0-.06.41.19.06-.05a1.59,1.59,0,0,1-.18-.27c-.07-.21-.13-.42-.19-.63s-.12-.43-.16-.65-.07-.63-.11-.94Zm.73,2.85.06-.08-.2-.11,0,.06Z"/><path class="cls-20" d="M22.26,21.49l-.32-.91h1.68c-.3-.5-.56-.94-.84-1.36,0-.07-.21-.07-.32-.07-.78,0-.78,0-1-.75a.23.23,0,0,1,0-.11A.32.32,0,0,0,21,18h-.18c-.34,0-.77-.12-1,0s-.26.6-.42.9a.4.4,0,0,1-.31.19,1,1,0,0,0-1.28.76,6.08,6.08,0,0,1-.38.67h1.65l-.3.92c-.77.15-1.06-.49-1.52-.91.28-.47.56-.94.86-1.4a.53.53,0,0,1,.36-.14c.78,0,.8,0,1-.73a.5.5,0,0,1,.61-.43,7.22,7.22,0,0,0,1,0c.2,0,.32.06.35.26.12.67.43,1.07,1.19.9a.35.35,0,0,1,.26.13c.29.46.57.93.85,1.4C23.32,21,23,21.62,22.26,21.49Z"/><path class="cls-8" d="M37.86,34.43A9,9,0,0,1,39,29.76a.78.78,0,0,1,.37.89,10.35,10.35,0,0,1-1,3.07C38.2,33.94,38.05,34.14,37.86,34.43Z"/><path class="cls-8" d="M3.15,34.31A5.49,5.49,0,0,1,2,32c-.11-.4-.15-.82-.27-1.22a.76.76,0,0,1,.34-1A8.86,8.86,0,0,1,3.15,34.31Z"/><path class="cls-21" d="M150.69,32.49a1.91,1.91,0,1,1,1.9,1.92A1.9,1.9,0,0,1,150.69,32.49Zm1.89,1.64A1.64,1.64,0,1,0,151,32.48,1.65,1.65,0,0,0,152.58,34.13Z"/><path class="cls-17" d="M34.5,22.16c-.23-.18-.25-.34,0-.51l.5-.44c-.62-.12-.73-.21-.78-.79s0-1.08,0-1.62c.45-.14.68.13.89.44s.22.33.33.5l.19,1.05v.15c-.14.53-.34,1-1,1C34.53,22,34.52,22.09,34.5,22.16Z"/><path class="cls-12" d="M80.32,35.89c-.66.23-.66.23-.66.88v2.36c0,.66,0,.66.58.9H78.46V40l.2,0a.39.39,0,0,0,.38-.43c0-1,0-2.05,0-3.08,0-.41-.32-.4-.57-.52Z"/><path class="cls-22" d="M21.48,31.73a10,10,0,0,0,1.38-.91,2.89,2.89,0,0,0,.92-2.46c0-.06,0-.12.07-.18l.29.19.28-.19a3.78,3.78,0,0,1-.91,2.91,3.63,3.63,0,0,1-1.75,1.17l-.35-.3Z"/><path class="cls-18" d="M61.94,40H60.16l0-.05a1.15,1.15,0,0,1,.17-.06c.29,0,.42-.17.42-.47q0-1.5,0-3c0-.41-.27-.47-.57-.56h1.77v0l-.22.05a.34.34,0,0,0-.35.36c0,1.07,0,2.13,0,3.19,0,.12.17.26.29.35s.19,0,.29.07Z"/><path class="cls-8" d="M23.81,12.77l.1,0a1.1,1.1,0,0,1,.14.18.37.37,0,0,1,0,.15l-.56.07-.15.5a1.2,1.2,0,0,1-.18.48c-.21.23-.15.42,0,.64,0-.31,0-.58.34-.69l.19.22.14,0,0,.1h.1l.51.72v.08l0,0h0l-.17,0-.65,0h0l-.15-.08h0L23.29,15l-.1.49h0l-.25.33-.54-.69-.07-.72h0l.34-.24-.05-.7h0Z"/><path class="cls-15" d="M17.74,12.2c.21.07.42.13.62.21l.6.27.14.08,0,0,.05.11,0,0,.12.26s0,0,0,0v.11H19l-.7-.15-.66-.62,0-.05h0v.07l-.52.28h0l-.07.08h0l-.94.07H16l-.37-.5.2-.54c.35-.17.35-.17.56-1L16.52,12h0l-.07.08v.15h0l-.08.08h0L16,12.7l0,.07C16.61,12.57,17.07,12.08,17.74,12.2Z"/><path class="cls-22" d="M24.21,15.32l.17,0c0,.05,0,.13,0,.16.3.29.62.58,1,.93l-1,.1.26.62c-1,.12-1.59-.52-1.53-1.61h0l.23-.22h0l.15.08h0c-.06.31.17.41.42.61l-.1-.38Zm-.2.55-.11.05.18.5.12-.05Z"/><path class="cls-18" d="M9.42,23.62a2.47,2.47,0,0,0-.06.29c0,.53-.21.73-.82.86l.15.26.38-.19c0,.17-.07.3-.09.43s-.05.27-.08.49l.67-.42,0,.06c0,.06-.07.12-.11.17-.2.25-.38.57-.76.47s-.49-.45-.53-.77a4.27,4.27,0,0,1,0-1.13.72.72,0,0,1,.89-.63.93.93,0,0,1,.29.13Z"/><path class="cls-18" d="M16.67,15.42h.07l.4.12-.08.27-.08.13-.18.45.1,0,.17-.39.07-.14.48-.56.2.16h0a1.29,1.29,0,0,1-.68,1.45,5.92,5.92,0,0,1-.91.27l.3-.73-1-.1Z"/><path class="cls-22" d="M9.42,23.62v0A2.29,2.29,0,0,1,9.5,22c.26-.05.38,0,.33.31s0,.31,0,.47c-.05.36,0,.64.44.75.15,0,.26.26.39.4v.13a3.4,3.4,0,0,0-.65.12.37.37,0,0,0-.11.34,5,5,0,0,0,.4.71,2.1,2.1,0,0,1,.19.3c0,.1,0,.28-.05.32s-.3.05-.35,0a2.66,2.66,0,0,1-.35-.64.5.5,0,0,1,0-.32A1.28,1.28,0,0,0,9.42,23.62Z"/><path class="cls-8" d="M12.17,24.12a3.41,3.41,0,0,1-1-2.43l.73-.36C12.07,22.21,12.65,23.09,12.17,24.12Z"/><path class="cls-8" d="M29.79,21.69a3.2,3.2,0,0,1-1,2.4c-.47-1,.11-1.87.23-2.77Z"/><path class="cls-21" d="M35.75,32.46c0-1,0-2,.08-3A2.46,2.46,0,0,1,36.27,28c.29.1.44.28.27.56a5.85,5.85,0,0,0-.44,2.68,10.67,10.67,0,0,1-.27,1.22Z"/><path class="cls-12" d="M32.88,23l-.06.12a1.89,1.89,0,0,1-.51.26c-.13,0-.28-.13-.42-.2l0-.1.3-.06a1.89,1.89,0,0,1-.55-1.26h0c.24,0,.48-.06.72-.12s.24-.13,0-.25c0,0,0-.09,0-.14h0c.08.09.21.17.22.26C32.78,22.06,32.83,22.55,32.88,23Z"/><path class="cls-22" d="M4.74,28a2.58,2.58,0,0,1,.45,1.49c0,1,0,2,0,3-.1-.46-.23-.88-.28-1.3s0-1.1-.09-1.64a4.26,4.26,0,0,0-.35-1C4.35,28.33,4.4,28.14,4.74,28Z"/><path class="cls-12" d="M8.14,23c0-.51.1-1,.17-1.52,0-.08.14-.15.22-.22h0c0,.05,0,.11,0,.13s-.07.25.07.28l.7.1h0a2,2,0,0,1-.57,1.27l.29,0c-.11.32-.32.41-.59.26s-.23-.17-.34-.25Z"/><path class="cls-21" d="M5.58,27l.51-.25a6,6,0,0,1,0,4A7.26,7.26,0,0,0,5.58,27Z"/><path class="cls-8" d="M21.75,15.77l.56.26.12-.4.09,0a8.2,8.2,0,0,1,.59,1.14c.06.14-.12.37-.19.54C21.9,17.25,22,16.37,21.75,15.77Z"/><path class="cls-18" d="M7.51,26.32h0a.33.33,0,0,1,.21.35,8.46,8.46,0,0,1-.48,2.69,3.34,3.34,0,0,1-.22.57c.07-1.06.41-2.11,0-3.07Z"/><path class="cls-22" d="M33.53,26.38l.45.45A6.52,6.52,0,0,0,34,30a7.93,7.93,0,0,1-.72-3.54l.21,0Z"/><path class="cls-22" d="M34.88,26.76l.53.28a6.68,6.68,0,0,0-.48,3.33C34.24,29.14,34.73,28,34.88,26.76Z"/><path class="cls-7" d="M23.84,14.39l-.14,0,.15-.49-.43-.08a.93.93,0,0,1,.64-.59l.86-.15v.14l0,.13-.07.09.11-.06L25,13.2h.18l.61.37-.22.2h0a2,2,0,0,0-.42,0,6.84,6.84,0,0,0-.74.21h0l-.36.22c0,.12.07.28-.15.28h0Zm.77-.8,0-.09-.28.18.05.08Z"/><path class="cls-21" d="M26.76,14.15l-.12,0-.95,0a1.09,1.09,0,0,0-.94.19l1.05.22c-.2.26-.47.17-.71.1a4.86,4.86,0,0,1-.74-.32l.07-.36h0l1.16-.22h0l.62-.13.37.13a.8.8,0,0,1,.65.86L27,14.34h0l-.14-.14h0Z"/><path class="cls-21" d="M16.6,14l0,.05a2.81,2.81,0,0,1,0,.29,9.44,9.44,0,0,1-1.06.36c-.12,0-.28-.13-.43-.21l1-.12v-.18l-.83,0H14.26l-.11,0a.05.05,0,0,1,0,0l-.09.08h0l-.29.28c0-.48.38-.66.77-.8l.29-.14.65.15h0Z"/><path class="cls-22" d="M8.76,29c.08-1.11-.13-2.26.92-3l.13,0Z"/><path class="cls-8" d="M25.71,35a.75.75,0,0,1,.15.09,1.63,1.63,0,0,1-.13,1.3.56.56,0,0,1-.23,0l-.08-.05-.28-.09L25,36.2l-.18,0c-.21-.47-.06-.71.45-.7.12,0,.23,0,.35,0l0,0v0l-.27-.26.38-.26Z"/><path class="cls-22" d="M31.29,26c1,.56.86,1.54,1,2.44a.37.37,0,0,1,0,.11l-.08.13c-.16-.43-.31-.87-.48-1.32s-.32-.88-.49-1.32Z"/><path class="cls-18" d="M25.17,13.2h0l0-.42-.19.13-.07-.18-.07-.11h0l-.22-.3h0l-.08-.15h0l0-.3L24.6,11h.08a3.21,3.21,0,0,0,.11.52.71.71,0,0,0,.18.28c.08.08.26.11.28.19a6.88,6.88,0,0,1,.11.81c0,.09.05.19.07.29l.05-.21.3.1h0l-.14.27L26,13.2h0c-.24.29-.36.13-.45-.12Z"/><path class="cls-13" d="M37.58,28.57c.19,0,.44.38.35.54a4.73,4.73,0,0,0-.34,2.83C37.19,31.54,37.19,30.31,37.58,28.57Z"/><path class="cls-18" d="M17.16,11.69l.59-.55c.26.2.22.49.2.78h0l-.27.21L17,12.05l-.6.46,0-.25h0l.08-.08h0l.08-.15s0,0,0,0a.14.14,0,0,1,0-.06h0a5.48,5.48,0,0,0,.35-.49,4.23,4.23,0,0,1,.3-.54l-.06.74v.11h0Z"/><path class="cls-21" d="M3.48,32a10.92,10.92,0,0,0,0-1.41,4.25,4.25,0,0,0-.33-1.27c-.14-.33.05-.5.17-.72,0,0,.08,0,.13,0C3.78,30.43,3.8,31.3,3.48,32Z"/><path class="cls-6" d="M24.42,28.18l-.28.19-.29-.19-.15-1c0-.14-.07-.27-.08-.41s-.07-.37.23-.3A2.61,2.61,0,0,1,24.42,28.18Z"/><path class="cls-21" d="M8.41,26.29l.42,0a2.49,2.49,0,0,1-.75,2.1Z"/><path class="cls-22" d="M2.78,29c.49,1.49.51,1.75.07,2-.06-.21-.12-.41-.17-.6a2,2,0,0,0-.1-.45C2.34,29.54,2.55,29.25,2.78,29Z"/><path class="cls-22" d="M33,28.39c-.7-.52-.66-1.35-.81-2.15l.48.05c0,.35.08.71.14,1.07S32.88,28,33,28.39Z"/><path class="cls-15" d="M14.33,13.19c-.22-.06-.22-.19-.08-.33a2.08,2.08,0,0,1,.34-.24l1.13-.79-.55,1.09,0,.17,0,.1h-.07l-.31.08Z"/><path class="cls-18" d="M38.22,28.94A.85.85,0,0,1,38.41,30a4.66,4.66,0,0,0-.16.76c0,.07-.12.18-.15.17s-.19-.1-.2-.16a1.74,1.74,0,0,1,0-.6C38,29.76,38.1,29.35,38.22,28.94Z"/><path class="cls-7" d="M15.44,35.51l.28,0c.55,0,.71.2.52.71H16l-.51.21h0c-.12-.06-.28-.1-.35-.2a.5.5,0,0,1,.07-.65Z"/><path class="cls-15" d="M25.78,13c-.09-.22-.19-.43-.28-.65s-.11-.32-.14-.43c.39.25.8.5,1.18.78a1.69,1.69,0,0,1,.31.43h-.06l-.57.14L26,13.19h0L25.78,13Z"/><path class="cls-21" d="M18,11.92c.17-.21.32-.18.55-.05a7.34,7.34,0,0,0,1,.46c.09,0,.19.06.28.09l0,.13c-.53-.11-1.07-.21-1.6-.35-.09,0-.15-.19-.23-.29Z"/><path class="cls-21" d="M21.2,12.41a3.45,3.45,0,0,0,.46-.12c.32-.15.62-.33.94-.47.1,0,.31,0,.35,0a.22.22,0,0,1-.15.37l-1.57.31Z"/><path class="cls-12" d="M23.29,12.09c-.33-.51-.33-.61-.06-.91l.61.37h0v.22l0,.13c.06.14.06.24-.13.23Z"/><path class="cls-23" d="M29.09,35.06c0-.22-.1-.45-.13-.67a.71.71,0,0,1,.06-.24l.07.06.42.21h0l.15.07h0v.08h.08l.07.86h0l-.22-.12-.42-.24Z"/><path class="cls-6" d="M21.48,31.73l-.07.23.35.3-1.31.2.18-.39.65-.3Z"/><path class="cls-20" d="M26.22,13.27l.57-.14.07,0v-.05h0c.47.15.69.56.93.94L27.56,14h0l-.07-.07h0l-.08-.08h0l-.08-.08h0l-.1-.08a.74.74,0,0,0-1.08-.06l-.62.13.22-.2Z"/><path class="cls-20" d="M14.33,13.19l.41.08.42.3.29.2-.65-.15c-.61-.29-.61-.29-1.13.19l-.06,0-.14,0A.74.74,0,0,1,14.33,13.19Z"/><path class="cls-21" d="M23.88,11.9l0-.13v-.22h0v-.63l.6,1.07.12.21h0l.08.15h0l-.22.15h0Z"/><path class="cls-6" d="M15.05,13.19h.07l.1,0-.07-.07,0-.17c.33,0,.45-.15.44-.45.12.17.25.34.38.5a1.7,1.7,0,0,0,0,.22h-.13l-.08.07h0a2.74,2.74,0,0,1-.5.08C15.18,13.35,15.11,13.24,15.05,13.19Z"/><path class="cls-9" d="M33.31,15.42c.06.44,0,.93.37,1.29l0,.06-.37.54V15.42Z"/><path class="cls-9" d="M7.32,16.71c.44-.37.29-.9.39-1.36h0v2l-.4-.56A.08.08,0,0,0,7.32,16.71Z"/><path class="cls-9" d="M21.62,15.63a2.43,2.43,0,0,1-.11-1.53,7.09,7.09,0,0,1,.12-.74h.3a2.82,2.82,0,0,0-.24,2.27Z"/><path class="cls-14" d="M15.33,14.14l.83,0v.18l-1,.12-.08-.18Z"/><path class="cls-14" d="M25.8,14.56l-1.05-.22a1.09,1.09,0,0,1,.94-.19l.23.16Z"/><path class="cls-20" d="M11.73,33.69l-.1.1-.76.08a1.23,1.23,0,0,1,0-.4.63.63,0,0,1,.52-.49c-.18.23-.5.38-.42.71Z"/><path class="cls-9" d="M16.38,12.26l0,.25.6-.46.68.07.06.08c-.67-.12-1.13.37-1.7.57l0-.07Z"/><path class="cls-20" d="M13.74,14.56l.29-.28c-.19.36,0,.66.16,1l-.53-.17.14-.05Z"/><path class="cls-22" d="M13.8,15.08l-.14.05-.29-.21-.07-.08h0a1,1,0,0,1,.14-1s0,0,0,0l.14,0C13.25,14.29,13.3,14.63,13.8,15.08Z"/><path class="cls-21" d="M27.56,14l.22.07h0l-.07.78h0l-.07.07h0l-.07.08-.27.16-.08-.08s0,0,0,0l0,0h0A.77.77,0,0,0,27.56,14Z"/><path class="cls-13" d="M29.3,33.81v-.12h.82l-.23-.55c.34.17.42.46.25.67Z"/><path class="cls-24" d="M27.22,15.07l.08.08-.42.14c.05-.34.09-.64.13-.95l.19.29,0,.36h0l0,0Z"/><path class="cls-21" d="M11.92,35l.15.11c-.32,0-.56.05-.62.44-.39-.13-.43-.35-.29-.54l.09.31Z"/><path class="cls-25" d="M25.39,37.18l.33.2c-.3.31-.55.33-.94,0a3.75,3.75,0,0,0,.37.09l.37,0-.19-.24Z"/><path class="cls-26" d="M19.33,15.57l.07-1.23h.12a2.59,2.59,0,0,1,.1.6,2.39,2.39,0,0,1-.21.62Z"/><path class="cls-9" d="M23.88,11.9l.54.58c-.08,0-.2,0-.23-.05-.25-.32-.6-.23-.92-.23l0-.11.46,0C23.94,12.14,23.94,12,23.88,11.9Z"/><path class="cls-16" d="M33.81,15.07l-.47-.51-.08-.4.23,0a2.19,2.19,0,0,0,.1.34c.07.18.15.36.23.54Z"/><path class="cls-13" d="M15.47,37.38c.26.23.51.12.75,0l.07,0a.69.69,0,0,1-.89.12c-.13-.06-.17-.14,0-.19Z"/><path class="cls-20" d="M13.44,13.83a1,1,0,0,0-.14,1A.61.61,0,0,1,13.44,13.83Z"/><path class="cls-25" d="M25.52,36.5l.24,0c-.32.09-.48.28-.37.63l-.06,0C25,36.9,25.38,36.72,25.52,36.5Z"/><path class="cls-13" d="M29.8,35.42l-.07-.86A.6.6,0,0,1,29.8,35.42Z"/><path class="cls-13" d="M29.16,35.06l.42.24.22.12-.14.16Z"/><path class="cls-24" d="M25.92,14.31l-.23-.16.95,0Z"/><path class="cls-20" d="M27.71,14.84l.07-.78A.57.57,0,0,1,27.71,14.84Z"/><path class="cls-16" d="M7.41,14.63v-.37l.28-.07h0v.16l-.26.3Z"/><path class="cls-20" d="M24.42,14l-.07.36-.29-.14Z"/><path class="cls-20" d="M15.33,14.14l-.24.17-.45-.17Z"/><path class="cls-16" d="M6.41,24.24l.11-.55.09,0-.1.51Z"/><path class="cls-19" d="M15.51,36.41,16,36.2Z"/><path class="cls-26" d="M22.34,14.41l.07.72h-.08Z"/><path class="cls-13" d="M29.51,34.42l-.42-.21Z"/><path class="cls-13" d="M16.52,36.86l-.18.46-.05-.06.11-.37Z"/><path class="cls-14" d="M34.49,24.38l0-.54c0,.18.09.36.13.54Z"/><path class="cls-25" d="M24.63,36.94l.07.36h-.1l0-.4Z"/><path class="cls-20" d="M16.66,14.34a2.81,2.81,0,0,0,0-.29l.24.06Z"/><path class="cls-13" d="M15.75,36.9l-.07.33-.06-.06.05-.24Z"/><path class="cls-14" d="M15.75,36.9l-.08,0-.15-.21.08,0Z"/><path class="cls-14" d="M16.52,36.86l-.12,0v-.28h.09Z"/><path class="cls-23" d="M11.34,34.47l0,.2h-.08l0-.19Z"/><path class="cls-13" d="M15.68,37.23l-.21.15-.05-.06.2-.15Z"/><path class="cls-23" d="M24.63,36.48s-.05.06-.07.05-.06-.05-.06-.06.06-.06.08-.08Z"/><path class="cls-23" d="M29.63,33.06l-.13-.12,0,0,.13.1Z"/><path class="cls-23" d="M12,34.27v.15l-.18-.14Z"/><path class="cls-14" d="M35.56,20.94v-.15h.1l.09.1Z"/><path class="cls-9" d="M24.56,12.2,24.44,12l.1-.09Z"/><path class="cls-18" d="M19.1,12.76,19,12.68l.15,0Z"/><path class="cls-14" d="M16.31,36.3l.08,0,0,.11Z"/><path class="cls-20" d="M14.3,14.14h0Z"/><path class="cls-19" d="M25,36.2l.18.08Z"/><path class="cls-8" d="M34.77,25.81h-.15V25.7Z"/><path class="cls-15" d="M15.7,11.57a.13.13,0,0,1,0,.06h0l0-.07Z"/><path class="cls-24" d="M26.87,14.19l.14.14Z"/><path class="cls-16" d="M8,25.6H7.85L8,25.53Z"/><path class="cls-23" d="M11.67,34.36v-.1h0v.1Z"/><ellipse class="cls-23" cx="11.54" cy="34.38" rx="0.02" ry="0.08"/><path class="cls-23" d="M25.42,36.37l.08.05,0,.08Z"/><path class="cls-23" d="M24.63,36.94l-.07,0,.05-.07Z"/><path class="cls-13" d="M29.66,34.49l-.15-.07Z"/><path class="cls-18" d="M16.59,15.2v.08l-.08,0Z"/><path class="cls-16" d="M21.92,12.75v-.1l.05,0Z"/><path class="cls-9" d="M17.16,11.69l0,.12h0v-.11Z"/><path class="cls-8" d="M35.18,22.52H35.1l.07-.05Z"/><path class="cls-8" d="M35.76,20.89l-.09-.1.06,0,.06.08Z"/><path class="cls-25" d="M24.78,37.39l-.05,0,0,0,.05,0Z"/><path class="cls-7" d="M1,30V30H1l0,0Z"/><path class="cls-13" d="M16.22,37.34l.07-.08.05.06-.05.07Z"/><path class="cls-13" d="M29.73,34.56h-.08v-.08Z"/><path class="cls-22" d="M24.42,15.28V15.2l.07.05Z"/><path class="cls-20" d="M27.57,15l.07-.08Z"/><path class="cls-20" d="M27.64,14.91l.07-.07Z"/><path class="cls-20" d="M13.3,14.84l.07.08Z"/><path class="cls-20" d="M14,14.29l.09-.08Z"/><path class="cls-24" d="M26.76,14.15l.1,0Z"/><path class="cls-20" d="M14.15,14.19l.11,0Z"/><path class="cls-16" d="M7.69,14.19l.06,0v0H7.69Z"/><path class="cls-27" d="M2.41,43.59l1-.91c.56-.5,1.13-1,1.67-1.52A.61.61,0,0,1,5.84,41,29,29,0,0,0,9,42.17a41.56,41.56,0,0,0,5.87,1.09,61.91,61.91,0,0,0,8,.23,35,35,0,0,0,4.46-.41c1.72-.28,3.44-.65,5.13-1.08,1-.25,1.86-.69,2.79-1a.43.43,0,0,1,.37,0c.88.76,1.74,1.53,2.6,2.31.09.08.17.19.28.3a7.94,7.94,0,0,1-2.34,1.33,30.67,30.67,0,0,1-6.43,1.84,31,31,0,0,1-4.19.46c-2.65.11-5.3.16-7.95.13a36.79,36.79,0,0,1-6-.52A33.2,33.2,0,0,1,4.44,44.8a14.42,14.42,0,0,1-1.72-.95A2,2,0,0,1,2.41,43.59Zm35.65.16.09,0,0,0-.08,0,0,.05Zm-3-2.14.45-.17,0-.1-.44.24-.05.06Zm-32,2.18-.06,0,0,.06.46.24,0-.1Zm.58-.21-.24-.14,0,.08.23.11.63.27,0-.12Zm1.78-1.36,0,0v.07l1.09.42.11,0-.07-.07ZM10.12,45l.08-.86,0-.11c0,.06.13.11.13.17,0,.39,0,.79-.06,1.21l.17,0v-1l.42,1.05.06,0L11,44l-.18,0,0,.74-.09,0a4.18,4.18,0,0,1-.2-.56c-.06-.28-.28-.32-.5-.36,0,0,0,.09,0,.14L10,45c-.17.25-.28.09-.29-.07,0-.35,0-.7,0-1.06a.4.4,0,0,0,0-.11l-.23,0v.57a2.66,2.66,0,0,0,0,.63c0,.13.16.24.24.35Zm22.05-.71.09-.29.44.75.07,0,0-.58a.92.92,0,0,1,.33-.86V44.6l.29-.11-.14-1.3.38,0,.08,1.12c.48-.1.5-.12.47-.49l-.23.26-.07,0v-.52l.2.13,0-.47-.21.19v-.54l.4.31.12-.32c-.69-.2-1.2.31-1.77.38,0,.33.08.61.12.9l-.39-.63c-.09-.16-.19-.21-.33-.07h-.06l-.45.1L31.52,45l.43-.16.39-.07Zm-18.51.36c.06.08.17.17.17.26,0,.36,0,.72-.05,1.08.52.08.52.08.53-.3l-.27.2v-1.4l-.38.16-.15.52.07,0Zm-.72-.2c-.26-.1-.58-.27-.67.16a3,3,0,0,0,0,.95c0,.11.21.29.3.28s.24-.19.35-.28c-.18,0-.36.05-.42,0a1,1,0,0,1,.12-1.12l.28.41.06-.33c0,.3.05.6.08.9a1.06,1.06,0,0,0,.11.44c0,.06.23.08.33,0s.1-.18.15-.27l0,0-.15.27-.16-.06a4.52,4.52,0,0,1-.08-.63c0-.23,0-.47,0-.72Zm9.82.76.33-.21v1.28h.26V44.91l.25.18-.06-.35-.64,0-.14.34c0-.17,0-.35-.18-.33a.41.41,0,0,0-.24.3,1.18,1.18,0,0,0,.22.56c.12.17.21.31,0,.53l-.22-.38h0l.06.38c-.06-.07-.17-.14-.17-.21,0-.38,0-.76,0-1.17l-.48,0-.09.77c-.27-.74-.27-.74-.48-.73v1.31l-.11,0-.33-1.37h-.05l-.33,1.35-.1,0V44.84l-.11,0-.33,1a6.18,6.18,0,0,0-.18-.74c0-.08-.13-.15-.2-.22h-.27L19,46.11c-.28.14-.27-.11-.28-.25,0-.33,0-.67,0-1h-.59l.08.55h-.36l.08-.55H17.7v1.45H18a1.59,1.59,0,0,1-.11-.38,1.21,1.21,0,0,1,.15-.33,1.2,1.2,0,0,1,.16.32,1.18,1.18,0,0,1-.05.4l.27,0V45a.43.43,0,0,1,.15.29c0,.26,0,.53,0,.79a.48.48,0,0,0,.21.29c.06,0,.19-.09.29-.13,0-.31.08-.62.13-.93a1.11,1.11,0,0,1,.14-.29v1.34h.18l-.05-.52h.05l.19.59.18-.61h0v.55h.55c0-.2-.21-.46.22-.5l0,.51h.52l-.06-.92h.06l.43.92.07,0v-.46l0-.85H22v1.37l.46-.12c.19.14.31.07.37-.13a.63.63,0,0,0-.16-.74c-.14-.13-.25-.25-.08-.44l.22.19s0,0,0,0l0,0h0Zm5.1.44a1.23,1.23,0,0,1-.14-.25c-.1-.34-.19-.68-.28-1h-.07l-.24,1.36c-.05,0-.12,0-.12,0A1.94,1.94,0,0,1,26.9,45c.05-.35,0-.59-.27-.57s-.7.07-1.05.11v.36l.24-.23V46l.26,0L26,44.71l.35,0V46l.27,0-.09-.7c.28.21.08.74.59.63l.14,0c0-.19,0-.34,0-.48a.27.27,0,0,1,.15,0c0,.14.07.29.1.45.23,0,.23,0,.28-.2.12,0,.26.14.35.1s.13-.2.15-.32a.6.6,0,0,0-.23-.63c-.09-.07-.09-.23-.14-.34l.11,0,.25.32-.05-.42c-.32-.12-.46,0-.43.31a1.18,1.18,0,0,0,.24.52.36.36,0,0,1,0,.54l-.25-.39ZM15,44.61l-.71-.08v.36l.2-.18.08,0L14.5,46l.26,0v-1.3l.11-.07.14.22,0-.15a1.22,1.22,0,0,1,.06.26,5,5,0,0,0,0,.78c0,.14.18.25.28.36.09-.1.24-.19.28-.31a2.17,2.17,0,0,0,.06-.57l0-.51h.11a3.38,3.38,0,0,1,0,1.38h.28l-.05-.59c.13.16.14.38.25.49s.32.12.43.15c0-.17,0-.41.06-.42.46-.07.16.29.25.47l.26,0L17,44.75H17l-.33,1.3H16.5a1.87,1.87,0,0,1-.11-.64c.11-.69.11-.71-.57-.74h-.21c0,.37,0,.7,0,1,0,.08-.1.16-.16.25-.06-.09-.17-.18-.17-.27,0-.35,0-.7,0-1.08Zm14.06-.45c.05.09.14.18.15.27,0,.36,0,.72,0,1.11l.81-.19-.12-.91H30l.47.86.08,0V43.91h.1l.07,1.31a.62.62,0,0,0,.65-.57,2.35,2.35,0,0,0,0-.53c-.05-.31-.22-.58-.62-.4a2,2,0,0,1-.43.12l.08.74a1,1,0,0,1-.24-.29c-.12-.14-.08-.5-.45-.33a6.45,6.45,0,0,1-.62.21c-.43-.09-.6,0-.65.45a1.78,1.78,0,0,0,0,.61,2,2,0,0,0,.34.43l.4-.39-.09-.08-.2.32a1,1,0,0,1-.12-1.3l.33.4ZM9,45c0-.36,0-.69,0-1s-.11-.57-.55-.53v.42a3.7,3.7,0,0,0-.43-.63s-.31.14-.45.21c0-.4-.09-.46-.51-.49L7,44.4l.22.08v-.56l.35-.13a4.42,4.42,0,0,0,.13.71.48.48,0,0,0,.32.27c.09,0,.24-.14.3-.25A2.75,2.75,0,0,0,8.47,44h.06l-.09.84.27.07V44.3C8.9,44.55,8.74,44.9,9,45Zm.44-2.23L5.56,41.46A14.21,14.21,0,0,0,9.47,42.78Zm2.36,2.86-.28-1.52h-.06l-.42,1.4.25.05v-.49c.29.1.29.11.22.52ZM24,44.72h-.07l-.22,1c.5-.11.38.22.35.46l.29,0Zm10.92-3-3.28,1A10.41,10.41,0,0,0,34.88,41.68Zm.29,2.64c.18-.23.35-.36.35-.48s-.2-.24-.3-.36c-.12.1-.31.2-.34.33S35,44.07,35.17,44.32Zm-10.51.33.24,1.46.24,0-.27-1.46ZM6,44.63l0-.12L4.35,43.9l0,.1Zm-.58.14,0-.1-1.82-.62,0,.09Zm1.34-1.94-.1,0-.13.57v.23c.25-.54.24,0,.42-.16l0-.6-.3.38Zm29.81,1.23L36.5,44l-1.43.5,0,.11ZM4.41,42.34l0,.1L5.5,43l0-.09Zm32.64,1.33.05.11.64-.29,0-.09Zm-.69.7,0,.11.69-.24,0-.08ZM6.27,43.23l0-.1-.65-.2,0,.1Zm29-.34,0,.08.5-.16,0-.09Zm2.62,1,0-.07-.26.08,0,.07Zm-1.56-1.42,0,.07.22-.1,0-.07Zm.36-.12h0v0Zm-.48.24,0,0,0,0h0Zm-.14.07,0,0a0,0,0,0,0,0,0l0,0ZM36,42.7l0,0,0,0s0,0,0,0Zm1,1.06h0l0,0v0Zm-.11.08,0,0,0,0,0,0Zm-.15.07h0v0h0Zm.87.08,0,0a0,0,0,0,0,0,0l0,0Zm-.15.07a0,0,0,0,0,0,0l0,0,0,0A0,0,0,0,0,37.39,44.06Zm-.14.07s0,0,0,0l0,0,0,0Z"/><path class="cls-27" d="M9.46,40.7a2.93,2.93,0,0,1-1.69.13c-.69-.07-1.36-.22-2-.29a1,1,0,0,0-.6.24,8.5,8.5,0,0,0-.75.72.31.31,0,0,1-.44.06c-.45-.3-.94-.56-1.39-.85a3.16,3.16,0,0,1-.38-.44c.65-.26,1.22-.5,1.81-.72s1-.37,1.54-.54c.09,0,.26,0,.27,0,.27.57.84.66,1.34.85Zm-3.38-.79L6,39.85l0,.09.12.11,1.17.46a1.6,1.6,0,0,0,.21.05l0-.12L6.2,40Z"/><path class="cls-27" d="M31.68,40.77c1.21-.69,2.66-.73,3.72-1.81l.71.25,2.39.91c.36.14.4.3.08.53-.5.35-1,.65-1.58,1a.28.28,0,0,1-.24-.06,3.49,3.49,0,0,1-.43-.43,1.55,1.55,0,0,0-1.66-.51,20.44,20.44,0,0,1-2.34.27A3,3,0,0,1,31.68,40.77Zm3.37-.89,0-.05,0,0-.08.06-1.48.56,0,.09,1.27-.43c.08,0,.14-.12.21-.18Zm2.55.74-.07-.12-.76.43.06.09Z"/><path class="cls-27" d="M8.27,38.54c-.86.06-1.61.1-2.35.19A8,8,0,0,0,4.85,39c-.1,0-.26,0-.32,0-.71-.69-1.4-1.39-2.16-2.15a12.56,12.56,0,0,1,2.41.74l.09-.06-.74-1.59.12-.1Zm-2-.92-.08-.07L6,37.49l-.1,0,.06.08.14.07.09.06.07.07.08.07.07.07.07.07.07.07.08.07.07.07.07.07.07.08.08.06,0,0s0,0,0-.06l-.06-.09a.46.46,0,0,1-.07-.07l-.08-.07-.07-.07L6.58,38l-.07-.08-.07-.07a.46.46,0,0,1-.07-.07l-.07-.07Zm-1.74.8-.07-.07L4,38l-.07.1.5.31.06.08.08,0Zm.12.13,0,.07.16.08,0-.06Z"/><path class="cls-27" d="M32.84,38.5l4-2.67.12.08-.79,1.7,2.44-.81.08.13-1.2,1.2c-.29.28-.58.56-.89.82-.07.06-.23.12-.3.08a8.93,8.93,0,0,0-3.2-.45h-.18Zm2-.87-.72.66.08.09.68-.7.32-.18-.05-.08Z"/><path class="cls-26" d="M32,41.14l2.86-.34,0,.05c-.25.12-.51.25-.77.35s-.67.28-1,.4a.53.53,0,0,1-.33,0C32.46,41.47,32.23,41.31,32,41.14Z"/><path class="cls-26" d="M6.05,40.8l2.84.33c-.27.18-.51.34-.77.49a.3.3,0,0,1-.21,0L6,40.88Z"/><path class="cls-26" d="M7.8,38.89a10.9,10.9,0,0,1-1.21.43c-.1,0-.26-.18-.39-.29.1-.05.2-.16.31-.17.42,0,.84,0,1.26-.08Z"/><path class="cls-26" d="M33.08,38.79c.42,0,.85,0,1.28.08.11,0,.2.12.31.19-.15.09-.33.27-.45.24a9.34,9.34,0,0,1-1.16-.4Z"/><path class="cls-18" d="M5.4,17.71a.54.54,0,0,0-.13-.07l-.22,0a2,2,0,0,1,.44-1.16c.12-.16.29-.12.4.08a.74.74,0,0,1-.22,1,.82.82,0,0,0-.17.2Z"/><path class="cls-9" d="M4.44,18.22l-.32.3A2.73,2.73,0,0,1,4,16.64,2.5,2.5,0,0,0,4.44,18.22Z"/><path class="cls-1" d="M1.64,25.78l.17-.25.09.06-.17.27Z"/><path class="cls-14" d="M5.2,18.3l-.12.05.07-.11Z"/><path class="cls-1" d="M2,24,1.82,24,1.75,24l.15-.06Z"/><path class="cls-14" d="M5.15,18.24l.11,0-.06.09Z"/><polygon class="cls-14" points="4.78 17.73 4.76 17.73 4.78 17.73 4.78 17.73"/><path class="cls-14" d="M6.61,13.46l.06-.05v.11Z"/><path class="cls-18" d="M35.54,17.78a1.46,1.46,0,0,0-.21-.28.73.73,0,0,1-.22-.94c.14-.25.36-.27.5,0a5.9,5.9,0,0,1,.34.82c.12.34-.27.18-.34.33Z"/><path class="cls-14" d="M37.19,16.8,37,18.56l-.41-.34a2.31,2.31,0,0,0,.5-1.46Z"/><path class="cls-1" d="M35.73,20.77l-.06,0h-.1l-.19-1.05.09-.17,0,0C36,20.1,36,20.1,35.73,20.77Z"/><path class="cls-14" d="M32.47,21.29c0,.05-.06.13,0,.14.2.12.07.22,0,.25s-.48.08-.72.12l.28-.6Z"/><path class="cls-9" d="M33.37,20.26l0,.08-.32.13-.11.4h-.07l0-.61Z"/><path class="cls-9" d="M32.81,20.18l-.28-.56.08,0,.29.54Z"/><path class="cls-16" d="M34.44,17.21l-.19.15-.16-.13Z"/><path class="cls-16" d="M34.1,15.76l0,0s0,0,.06,0,0,0,0,.05S34.12,15.75,34.1,15.76Z"/><path class="cls-16" d="M33.82,15.06a.22.22,0,0,1,0,.08l0,0,0-.09Z"/><path class="cls-16" d="M33.63,16.77l0-.06.07,0Z"/><path class="cls-16" d="M34,16.94h0s0,0,0,0h0A0,0,0,0,1,34,16.94Z"/><path class="cls-14" d="M34.32,13.41h0v0l0,0Z"/><path class="cls-11" d="M18.51,25.88c0-.23.11-.39.39-.35L20.18,27l.31.35L21.75,26l.44.32s0,.08-.06.12l-.67.48-.49.51-.16.13c-.18,0-.37-.11-.41-.06a1.23,1.23,0,0,0-.13.41l.39.07s0,.21.05.22c.31.05.12.24.12.38-.24-.36-.65-.37-1-.51l-.51-.93-.13-.5-.44-.36L18.56,26Z"/><path class="cls-23" d="M32.4,4.07l.52.31c-.72.69-1.4,1.35-2.1,2a.34.34,0,0,1-.31,0A14.59,14.59,0,0,0,24.3,4.59c-1.27-.1-2.55-.19-3.83-.18a24.77,24.77,0,0,0-10.08,2,.43.43,0,0,1-.37,0c-.68-.63-1.35-1.28-2.06-2,.34-.2.65-.4,1-.58a19.7,19.7,0,0,1,6.16-2,32.14,32.14,0,0,1,6.64-.42A24.48,24.48,0,0,1,30.24,3c.67.27,1.3.65,1.94,1l0,.06a2,2,0,0,0-1.68-.26l1,.35,0,0-.32-.2.05-.05,1.24.48.09,0,0,0,0,0-.07-.07-.09-.12ZM8.61,4.21l-.12.1h0v0l0,0,.15-.06.09-.06,1.37-.56,0-.12-1.36.64Zm.21.22-.09.07.13,0,.05-.06Zm23.25,0,.08,0,0-.07-.4-.23-.05.1Zm-13.45-1h0l.07.74H19a.4.4,0,0,0,.42-.46c0-.32-.29-.36-.56-.31Zm-2.35,1c.22-.17,0-.33,0-.49s-.07-.17-.11-.26l-.32.17c.06.1.12.2.19.3s.14.15.2.22l-.37-.1C15.93,4.52,16.08,4.52,16.27,4.42Zm7.14-.25a.34.34,0,0,0,.16-.55A.36.36,0,0,0,23,3.5a.61.61,0,0,0-.17.51c.08.27.32.3.57.15Zm-8.49.34-.05-.07-.22-.35L14.87,4V3.94l-.5.07.17.77c.11,0,.24,0,.36-.08S14.91,4.57,14.92,4.51ZM21.69,4c.28,0,.27-.24.22-.39-.12-.4-.46-.26-.71-.26v.84L21.69,4Zm-4.23.15c.21-.11.27-.25.17-.45s-.38-.28-.73-.13v.7l-.13,0-.12-.71-.19,0,.11.77.6-.09a2,2,0,0,0,.29-.15Zm8.46-2.06,0,.07a5.16,5.16,0,0,0-.67.1.47.47,0,0,0-.18.85,2.21,2.21,0,0,0,2.08.44.73.73,0,0,0,.42-.46.63.63,0,0,0-.3-.51A11.38,11.38,0,0,0,25.92,2.11Zm-4,.83L24,3.13l.15-.42-.06-.07c-.38.43-.83.29-1.3.21l.07-.52.57.41V2.08l-.58.24,0-.49c.42,0,.85-.05,1.15.38l0-.43L22,1.61c.46.25.16.63.18.92C22.19,2.65,22,2.78,21.92,2.94Zm-.75-1.25c-.2,0-.37,0-.54,0a2.54,2.54,0,0,0-1.47.12c-.26.11-.5.25-.48.59a.56.56,0,0,0,.53.54,14.59,14.59,0,0,0,1.62,0c.09,0,.17-.1.27-.16A9.33,9.33,0,0,1,20,2.83a.51.51,0,0,1-.57-.48c0-.23.26-.51.57-.55a1.21,1.21,0,0,1,1.15.37ZM16.1,2.75c-.25.55-.76.52-1.25.62,0-.4-.29-.74-.08-1.18l-1.11.22v.07l.38.06c-.12.39.43.81-.15,1.17.64-.12,1.26-.29,1.89-.38C16.19,3.27,16.2,3.07,16.1,2.75Zm.75.42L18.13,3V3l-.31,0c0-.41-.34-.85.18-1.24l-1.29.15v.06l.36.06C17,2.37,17.36,2.8,16.85,3.17ZM15,3.87c0,.15.08.27.11.39s0,.25,0,.38l.26-.06-.14-.35.47.32c-.06-.22-.08-.38-.14-.53a.39.39,0,0,0-.23-.21A1.19,1.19,0,0,0,15,3.87Zm7.61.34.07-.07c0-.11-.13-.22-.13-.32,0-.48,0-.49-.46-.41l-.05.73h.24l0-.34Zm1.46.19a3.19,3.19,0,0,0,.66-.21c.08,0,.12-.36.06-.4a3.54,3.54,0,0,0-.65-.31ZM28.2,2.66h-.15c-.09.13-.26.28-.24.39a.47.47,0,0,0,.33.3c.11,0,.29-.2.31-.32S28.29,2.78,28.2,2.66ZM12.91,4.83l-.69-.31.21.79.18,0-.23-.52.7.43-.18-.82-.18.08ZM27.76,4.6h.08l.3.62.28-.8-.2,0v.37A.81.81,0,0,1,28,4.47a1.88,1.88,0,0,0-.22-.26L27.54,5l.17,0ZM20,3.86l.11,0,.24-.38-.53-.2v.81h.25Zm1,.22L21,4l-.29-.07a.59.59,0,0,0,.19-.11.14.14,0,0,0,0-.12s-.08-.05-.11-.08l-.12-.1a.94.94,0,0,1,.15-.06l.15,0V3.37l-.52,0v.83Zm-9.72.78a1.57,1.57,0,0,0,.17.39c.09.11.23.25.35.25s.28-.19.27-.28a1.83,1.83,0,0,0-.21-.56l-.06,0a1.53,1.53,0,0,1,.15.4c0,.09-.07.19-.11.29-.07-.06-.18-.1-.22-.18a1.64,1.64,0,0,1-.12-.41Zm18.08-.07-.31.77.53.05V5.55l-.3,0,.11-.25.16.13.26-.4Zm-2.79-.65.06,0c-.09-.07-.18-.22-.26-.21a.7.7,0,0,0-.47.2.49.49,0,0,0,.06.47.9.9,0,0,0,.52,0s.07-.15.11-.25l-.21,0-.13.26c-.07,0-.21-.1-.21-.15A2.23,2.23,0,0,1,26.23,4Zm.05.57.05.09.16-.11c.05,0,.1-.1.15-.09s.09.08.13.13l.18.24.06-.07L27.24,4Zm-8.24-.46.06-.09-.43-.78-.31.84.09.06a1,1,0,0,1,.1-.17c0-.05.08-.13.13-.13s.11.05.16.09Zm7,.17v-.1l-.39.06c.1-.14.13-.24.19-.26s.22-.11.14-.21A3.51,3.51,0,0,0,25,3.62l-.11.8Zm3.75.44.05-.1c-.2-.08-.39-.17-.59-.23,0,0-.11.08-.22.16h.37l-.28.63.23,0,.2-.63ZM13.1,4.32l.19.76L13.5,5l-.2-.75Zm.9.6c.25-.41-.37-.43-.23-.78l-.32.09Zm-2.87.79,0-.12-.95.47,0,.1Zm-.59-2,0-.1-.63.22L9.9,4ZM9,4.3l0,.08.32-.15,0-.08Zm22.6-.18s0,0,0,0l0,0,0,0ZM9.76,4h0V4h0ZM9.62,4h0v0h0Zm-.14.08h0v0h0Zm22.81.37s0,0,0,0l0,0,0,0Z"/><path class="cls-23" d="M9.21,5.94a8,8,0,0,0,.71.63.91.91,0,0,0,.56.18c.58,0,1.15-.16,1.73-.22a1.44,1.44,0,0,1,.57.07c-.78.57-1.87.56-2.5,1.44L8.19,7.15c-.3-.13-.26-.32,0-.48S8.83,6.2,9.21,5.94Zm2.38.93,0-.09L11,7l0,.08Zm-.74.27,0-.07-.37.23.06.09Z"/><path class="cls-23" d="M28.23,6.64a3.43,3.43,0,0,1,1.8,0l.28.07a.88.88,0,0,0,.93-.27c.57-.62.61-.61,1.27-.09A4.51,4.51,0,0,1,33,6.9a4.6,4.6,0,0,1-.63.42c-.47.21-1,.39-1.45.59a.28.28,0,0,1-.39-.11,1.21,1.21,0,0,0-.47-.36c-.49-.23-1-.42-1.48-.62Zm2.31.68,0-.1-1.12-.48,0,.09Z"/><path class="cls-23" d="M8,9.61,9.46,8a.21.21,0,0,1,.18-.05A8.32,8.32,0,0,0,12,8.41l-2.66,2-.09-.06.5-1.29-1.65.66Z"/><path class="cls-23" d="M32.88,9.68,31.25,9l.51,1.3-.09.06L29,8.37l.05-.09c.43,0,.86,0,1.29-.1s.59-.15.89-.22c.11,0,.27,0,.32,0C32,8.48,32.5,9,33,9.55Zm-2.34-.53-.06.06-.67-.74h0Z"/><path class="cls-26" d="M30.24,6.51l-1.69-.22c.26-.23.49-.42.85-.2a7.45,7.45,0,0,0,.86.38Z"/><path class="cls-26" d="M10.78,6.53a9,9,0,0,1,1.06-.47c.17,0,.38.09.58.15l0,.13-1.61.19Z"/><path class="cls-26" d="M11.71,8.13l-1.09-.08C10.89,7.66,11.13,7.69,11.71,8.13Z"/><path class="cls-26" d="M29.36,8c.82-.4.85-.43.93,0Z"/><path class="cls-26" d="M10.79,6.53l-.15.06v0h.16Z"/><path class="cls-26" d="M30.47,6.57h0v0Z"/><path class="cls-1" d="M9.12,9.59l.11,0-.07.08Z"/><path class="cls-1" d="M31.91,9.65l-.08-.08.14,0Z"/><path class="cls-23" d="M32.27,4l.13.08,0,0L32.23,4Z"/><path class="cls-23" d="M32.18,3.93l.09.06,0,0-.1,0Z"/><path class="cls-14" d="M9.35,21.8l-.7-.1c-.14,0-.16-.12-.07-.28s0-.08,0-.13l.53-.19Z"/><path class="cls-9" d="M8,20.66l-.36-.37c.56.14.48-.47.84-.76Z"/><path class="cls-16" d="M7.27,14.92l-.1.34-.11,0,.2-.3Z"/><path class="cls-16" d="M7.32,16.71a.08.08,0,0,1,0,0l-.11.07,0,0Z"/><path class="cls-16" d="M7,17l0,0a.17.17,0,0,1,0-.05s0,0,.06,0Z"/><path class="cls-16" d="M6.8,16l0,0s0,0,0,0,0-.05,0-.05S6.78,16,6.8,16Z"/><path class="cls-16" d="M6.89,15.72h0s0,0,0,0h0A0,0,0,0,1,6.89,15.72Z"/><path class="cls-16" d="M7.35,14.78l-.08.14h0l.07-.14Z"/><path class="cls-16" d="M7.33,14.77l.08-.14h0l-.07.14Z"/><path class="cls-1" d="M9.12,19.88l0-.07h.1Z"/><path class="cls-16" d="M6.86,23.09c0-.24.14-.05.22,0l0,.57Z"/><path class="cls-1" d="M7.58,25.76l-.18.12,0-.05.16-.15Z"/><path class="cls-9" d="M23.81,12.77l-1.19.72c0-.05-.07-.14-.11-.15h-.34c.49-.15,1-.24,1.24-.79h0Z"/><path class="cls-9" d="M24.92,13l-.86.15a.06.06,0,0,1,0-.06.37.37,0,0,0,0-.15,1.1,1.1,0,0,0-.14-.18L25,13Z"/><path class="cls-14" d="M19.52,14.34H19.4c-.06-.35,0-.76-.43-.94v-.08h.37l0,.09Z"/><path class="cls-26" d="M22.63,13.48l.05.7-.34.24Z"/><path class="cls-9" d="M24.41,12.48l.22-.15.22.3Z"/><path class="cls-1" d="M25,12.91l.19-.13,0,.42H25L25,13Z"/><path class="cls-18" d="M19.31,13.18l-.12-.26Z"/><path class="cls-18" d="M19.35,13.41l0-.09v-.11Z"/><path class="cls-16" d="M21.84,12.86s0,0,0,.05l-.05,0s0,0,0-.06Z"/><path class="cls-18" d="M25,13l0,.22h0l-.07,0V13L25,13Z"/><path class="cls-18" d="M19.17,12.89l-.05-.11Z"/><path class="cls-18" d="M23.18,12.31l.05,0-.06,0Z"/><path class="cls-9" d="M23.41,12.55l-.06-.05h0l0,.07Z"/><path class="cls-9" d="M24.85,12.62l.07.11Z"/><path class="cls-1" d="M39.29,25.86l-.19-.24.08-.07.19.23Z"/><path class="cls-1" d="M39.11,23.9l.11.1,0,0L39,24Z"/><path class="cls-1" d="M39.18,29v.1l-.07,0Z"/><path class="cls-11" d="M23.05,29.19c.3.07.33.22.23.51-.24.65-.82,1-1.31,1.36l-.42.32-.24.17-.13-.29.14-.35a1.76,1.76,0,0,0,.08-.37.77.77,0,0,0-.07-.29l-.57-.78c.08-.28.41-.5.21-.86l.72-.07.72.28.31.37Z"/><path class="cls-25" d="M21.32,30.91l-.14.35a2.8,2.8,0,0,1-3.37-2.14,2.72,2.72,0,0,1,.78-2.54,1.33,1.33,0,0,0,.16-.34l.44.36a1.08,1.08,0,0,0-.19.08,2.4,2.4,0,0,0-.81,2.47,2.24,2.24,0,0,0,1.72,1.73A7.35,7.35,0,0,0,21.32,30.91Z"/><path class="cls-28" d="M23.05,29.19h-.33l-.31-.37a1.73,1.73,0,0,0,.05-.38,2.08,2.08,0,0,0-1-1.56l.67-.48c0,.09,0,.21.09.26a2.59,2.59,0,0,1,.83,2.39Z"/><path class="cls-21" d="M18.51,25.88l0,.14a3.11,3.11,0,0,0-1.26,2.51,3.21,3.21,0,0,0,2.53,3.19,9.94,9.94,0,0,0,1.45.05l-.65.3-.71-.16A3.42,3.42,0,0,1,18.21,26C18.28,26,18.41,25.94,18.51,25.88Z"/><path class="cls-9" d="M17.93,14.76c-.14-.22-.26-.42-.4-.62l-.16.08L17,13.84h.54l-.09-.27h.09C17.6,14,18.15,14.3,17.93,14.76Z"/><path class="cls-1" d="M17.06,15.81l.08-.27-.4-.12c.05,0,.09-.06.13-.07l.88-.16.07.3-.2-.16-.48.56Z"/><path class="cls-9" d="M17.09,12.84l.52-.28h0l.66.62v.19a4.27,4.27,0,0,1-.41-.29A.84.84,0,0,0,17.09,12.84Z"/><path class="cls-9" d="M16.09,13l.94-.07-.23.15.13.1,0,.08-.73-.15Z"/><path class="cls-1" d="M15.05,13.19c.06.05.13.16.19.16a2.74,2.74,0,0,0,.5-.08l-.58.3-.42-.3Z"/><path class="cls-20" d="M16.6,14l-1.15-.23c.28,0,.56,0,.84,0A.93.93,0,0,1,16.6,14Z"/><path class="cls-22" d="M16.09,13l.09.11.27.54h0l-.5-.44A1.7,1.7,0,0,1,16,13Z"/><path class="cls-26" d="M18.25,13.36v-.19l.7.15v.08a3,3,0,0,0-.42,0c-.05,0-.09.07-.14.11l-.05,0Z"/><path class="cls-26" d="M18.41,13.47l.1.4-.09,0-.06-.38Z"/><path class="cls-16" d="M17.28,13.24l-.19,0v-.07l.19,0Z"/><path class="cls-1" d="M17.08,14.46l.14,0-.08.1Z"/><path class="cls-15" d="M16.45,13.63l.1,0,0,0-.08,0Z"/><path class="cls-9" d="M17,12.91l.07-.08Z"/><path class="cls-1" d="M15.74,13.27l.08-.07Z"/><path class="cls-8" d="M33,20.87l.11-.4.32-.13c.65.13,1,1.57.68,2.15a.63.63,0,0,1-.65.36,2.34,2.34,0,0,1-.54-.32l.76-.23C32.85,22,33,21.41,33,20.87Z"/><path class="cls-7" d="M15,35.42a1.07,1.07,0,0,1-.32-.08c-.26-.11-.51-.24-.76-.37l.24-.15-.27,0a1.62,1.62,0,0,1-.17-.41s.17-.14.28-.18c.31-.13.63-.24,1-.37a1.74,1.74,0,0,1,.45,1.1h0L15.3,35h-.41l-.23-.13-.14-.07-.14-.22-.11-.22-.07,0,.17.17c0,.14-.13.33.16.28h.13l.19.17Z"/><path class="cls-8" d="M13,34.08c0,.24,0,.45,0,.65s-.3.3-.48.31a.44.44,0,0,1-.35-.28A.67.67,0,0,1,13,34.08Z"/><path class="cls-8" d="M12.45,33a.57.57,0,0,1,.42.53c0,.14-.1.37-.2.4s-.49.22-.7,0Z"/><path class="cls-16" d="M14.05,33.27c0,.24.42.45,0,.69a.33.33,0,0,1-.51-.15C13.49,33.54,13.64,33.37,14.05,33.27Z"/><path class="cls-15" d="M13.51,35c-.13-.07-.35-.1-.38-.2a1,1,0,0,1,0-.54.57.57,0,0,1,.31,0c.06.22.09.46.13.69Z"/><path class="cls-16" d="M13,34l.06-.57a2.79,2.79,0,0,1,.46.25s0,.27,0,.28A2.45,2.45,0,0,1,13,34Z"/><path class="cls-15" d="M15.44,35.51l-.21.05-.16-.14c0-.18,0-.37.24-.43h0l.08-.07h0l.27.33Z"/><path class="cls-6" d="M15.31,35c-.23.06-.22.25-.24.43H15c0-.13-.07-.27-.11-.4a.08.08,0,0,1,0,0Z"/><path class="cls-12" d="M13.85,34.78l.27,0-.24.15Z"/><path class="cls-7" d="M25.71,35a1.31,1.31,0,0,1,.37-1.2l.62.28v.38h0l-.36.4h0l-.22.14h-.43Z"/><path class="cls-12" d="M26.71,34.45h0l.16-.31c.53.13.58.23.38.72a.26.26,0,0,1-.11.12,3.31,3.31,0,0,0-.53.18,4.67,4.67,0,0,0-.46.35c-.22-.19-.12-.36,0-.52h0l.22-.14h.45Z"/><path class="cls-7" d="M28,34.09a.68.68,0,0,1,.81.67c0,.11-.22.3-.31.28a.69.69,0,0,1-.51-.27A1.74,1.74,0,0,1,28,34.09Z"/><path class="cls-16" d="M29,33.69c0,.1-.09.28-.12.28a1.27,1.27,0,0,1-.66-.16c-.1-.07-.09-.38,0-.54s.24-.24.32-.31l.49.73Z"/><path class="cls-15" d="M27.51,33.89h-.07l-.64,0c0-.18.07-.35.1-.52a.52.52,0,0,1,.06-.13c.31,0,.41.2.54.41Z"/><path class="cls-15" d="M27.41,34.9c.12-.27-.19-.61.22-.74.25-.08.28.13.3.33S27.8,34.94,27.41,34.9Z"/><path class="cls-16" d="M27.51,33.89v-.2l.47-.35L28,34Z"/><path class="cls-24" d="M26.87,34.14l-.16.31v-.38Z"/><path class="cls-1" d="M31.66,23.59l0,.07a.36.36,0,0,1,0-.1Z"/><path class="cls-1" d="M33.61,25.89l-.18-.13,0-.06.2.11Z"/><path class="cls-9" d="M23.42,13.78l.43.08-.15.49-.19-.22c-.34.11-.37.38-.34.69-.15-.22-.21-.41,0-.64a1.2,1.2,0,0,0,.18-.48Z"/><path class="cls-1" d="M24.21,15.32l-.33.25L24,16c-.25-.2-.48-.3-.42-.61Z"/><path class="cls-26" d="M23.42,13.78l-.07-.08.15-.5.56-.07a.06.06,0,0,0,0,.06A.93.93,0,0,0,23.42,13.78Z"/><path class="cls-1" d="M23.42,15.27l-.23.22.1-.49Z"/><path class="cls-1" d="M23.56,15.35l-.15-.08Z"/><path class="cls-1" d="M23.84,14.39l.08.1h-.11Z"/><path class="cls-22" d="M16,12.77l0-.07Z"/><path class="cls-9" d="M16.53,12.05l-.08.15v-.15Z"/><path class="cls-1" d="M16.53,12.05h-.07l.07-.08a.14.14,0,0,0,0,.06S16.53,12,16.53,12.05Z"/><path class="cls-9" d="M16.46,12.19l-.08.08Z"/><path class="cls-9" d="M17.61,12.56v-.07h0l0,.05Z"/><path class="cls-1" d="M24,15.87l.19.5-.12.05-.18-.5Z"/><path class="cls-1" d="M17.07,16l-.17.39-.1,0,.18-.45Z"/><path class="cls-1" d="M17,15.94l.08-.13.08.08-.07.14Z"/><path class="cls-1" d="M26.22,13.27l-.44.3-.61-.37.38-.13c.09.25.21.41.45.12Z"/><path class="cls-20" d="M25.57,13.77,24.41,14a6.84,6.84,0,0,1,.74-.21A2,2,0,0,1,25.57,13.77Z"/><path class="cls-12" d="M24.61,13.59l-.27.17-.05-.08.28-.18Z"/><path class="cls-1" d="M24.92,13.34l-.11.06.07-.09Z"/><path class="cls-1" d="M24.92,13.18l.07,0-.07.14,0,0Z"/><path class="cls-14" d="M27.22,15l0-.36a.8.8,0,0,0-.65-.86l-.37-.13a.74.74,0,0,1,1.08.06l.1.08h0l.08.08h0l.08.08h0l.07.07h0A.77.77,0,0,1,27.22,15Z"/><path class="cls-23" d="M13.8,15.08c-.5-.45-.55-.79-.19-1.24l.06,0c.52-.48.52-.48,1.13-.19l-.29.14c-.39.14-.73.32-.77.8Z"/><polygon class="cls-12" points="25.6 35.51 25.6 35.54 25.58 35.52 25.59 35.5 25.6 35.51"/><path class="cls-1" d="M25.78,13l.22.22-.36.05Z"/><path class="cls-1" d="M25.48,12.89l-.05.21c0-.1-.05-.2-.07-.29Z"/><path class="cls-9" d="M24.64,12.34l-.08-.15Z"/><path class="cls-1" d="M15.15,13.09l.07.07-.1,0Z"/><path class="cls-1" d="M26.85,13.12v.05l-.07,0Z"/><path class="cls-1" d="M23.84,11.55v0Z"/><path class="cls-21" d="M27.57,14l-.07-.07Z"/><path class="cls-21" d="M27.5,13.92l-.08-.08Z"/><path class="cls-21" d="M27.43,13.85l-.08-.08Z"/><path class="cls-21" d="M27.36,13.78l-.1-.08Z"/><path class="cls-14" d="M27.22,15.07l0-.06,0,0,0,0S27.23,15.06,27.22,15.07Z"/><path class="cls-13" d="M9,45c-.29-.11-.13-.46-.32-.71V45l-.27-.07L8.53,44H8.47a2.75,2.75,0,0,1-.14.49c-.06.11-.21.26-.3.25a.48.48,0,0,1-.32-.27,4.42,4.42,0,0,1-.13-.71l-.35.13v.56L7,44.4,7.13,43c.42,0,.48.09.51.49.14-.07.41-.25.45-.21a3.7,3.7,0,0,1,.43.63v-.42c.44,0,.59.11.55.53S9,44.65,9,45Zm-.67-1L8,43.38a2,2,0,0,0-.22.63,2,2,0,0,0,.23.62Z"/><path class="cls-13" d="M29.09,44.17a6.45,6.45,0,0,0,.62-.21c.37-.17.33.19.45.33a1,1,0,0,0,.24.29l-.08-.74a2,2,0,0,0,.43-.12c.4-.18.57.09.62.4a2.35,2.35,0,0,1,0,.53.62.62,0,0,1-.65.57l-.07-1.31h-.1v1.35l-.08,0L30,44.43h-.07l.12.91-.81.19c0-.39,0-.75,0-1.11,0-.09-.1-.18-.15-.27Zm.74,1.07V44.06h-.08l-.06.21-.26-.15v.51l.21-.18v.45l-.18-.16v.57l.1.07.19-.37Zm1.06-.13a.82.82,0,0,0-.07-1.33Z"/><path class="cls-13" d="M19.4,44.84c.07.07.17.14.2.22a6.18,6.18,0,0,1,.18.74l.33-1,.11,0v1.33l.1,0,.33-1.35h.05L21,46.2l.11,0V44.87c.21,0,.21,0,.48.73l.19.22v.46l-.07,0-.43-.92h-.06l.06.92h-.52l0-.51c-.43,0-.24.3-.22.5H20v-.55h0l-.18.61-.19-.59h-.05l.05.52h-.18V44.84Z"/><path class="cls-13" d="M15,44.61h.25c0,.38,0,.73,0,1.08,0,.09.11.18.17.27.06-.09.15-.17.16-.25,0-.34,0-.67,0-1h.21c.68,0,.68,0,.57.74a1.87,1.87,0,0,0,.11.64h.12l.33-1.3H17l.33,1.47-.26,0c-.09-.18.21-.54-.25-.47,0,0,0,.25-.06.42-.11,0-.33,0-.43-.15s-.12-.33-.25-.49l.05.59h-.28a3.38,3.38,0,0,0,0-1.38h-.11l0,.51a2.17,2.17,0,0,1-.06.57c0,.12-.19.21-.28.31-.1-.11-.26-.22-.28-.36a5,5,0,0,1,0-.78,1.22,1.22,0,0,0-.06-.26Z"/><path class="cls-13" d="M32.66,44.15l-.12-.9c.57-.07,1.08-.58,1.77-.38l-.12.32-.4-.31v.54l.21-.19,0,.47-.2-.13v.52l.07,0,.23-.26c0,.37,0,.39-.47.49l-.08-1.12-.38,0,.14,1.3-.29.11V43.24a.92.92,0,0,0-.33.86Zm1.45-1.35a.54.54,0,0,0-.06.16s0,.06.07.09.06-.06.07-.09S34.16,42.89,34.11,42.8Z"/><path class="cls-13" d="M27.14,45.87c-.51.11-.31-.42-.59-.63l.09.7-.27,0V44.73l-.35,0L26.08,46l-.26,0V44.7l-.24.23v-.36c.35,0,.7-.1,1.05-.11s.32.22.27.57a1.94,1.94,0,0,0,.11.66s.07,0,.12,0Z"/><path class="cls-21" d="M19.12,46.19c-.1,0-.23.16-.29.13a.48.48,0,0,1-.21-.29c0-.26,0-.53,0-.79a.43.43,0,0,0-.15-.29v1.31l-.27,0a1.18,1.18,0,0,0,.05-.4,1.2,1.2,0,0,0-.16-.32,1.21,1.21,0,0,0-.15.33,1.59,1.59,0,0,0,.11.38H17.7V44.82H18l-.08.55h.36l-.08-.55h.59c0,.37,0,.71,0,1,0,.14,0,.39.28.25Z"/><path class="cls-13" d="M10.07,44c0-.05,0-.14,0-.14.22,0,.44.08.5.36a4.18,4.18,0,0,0,.2.56l.09,0,0-.74L11,44l-.1,1.42-.06,0-.42-1.05v1l-.17,0c0-.42.05-.82.06-1.21,0-.06-.08-.11-.13-.17l0,.11Z"/><path class="cls-28" d="M21.81,45.82l-.19-.22.09-.77.48,0c0,.41,0,.79,0,1.17,0,.07.11.14.17.21a.08.08,0,0,1,0,0l-.46.12V45h-.1Z"/><path class="cls-19" d="M9.47,42.78a14.21,14.21,0,0,1-3.91-1.32Z"/><path class="cls-25" d="M27.14,45.87v-.16l.24-1.36h.07c.09.33.18.67.28,1a1.23,1.23,0,0,0,.14.25h0c-.05.19-.05.19-.28.2,0-.16-.06-.31-.1-.45a.27.27,0,0,0-.15,0c0,.14,0,.29,0,.48Z"/><path class="cls-13" d="M11.83,45.64l-.29,0c.07-.41.07-.42-.22-.52v.49l-.25-.05.42-1.4h.06Z"/><path class="cls-13" d="M22.76,45.11l.14-.34.64,0,.06.35-.25-.18v1.32h-.26V45l-.33.21h0l0,0s0,0,0,0Z"/><path class="cls-13" d="M12.93,44.46l-.06.33-.28-.41a1,1,0,0,0-.12,1.12c.06.06.24,0,.42,0-.11.09-.22.25-.35.28s-.29-.17-.3-.28a3,3,0,0,1,0-.95c.09-.43.41-.26.67-.16A.13.13,0,0,1,12.93,44.46Z"/><path class="cls-25" d="M13.66,44.6l.38-.16v1.4l.27-.2c0,.38,0,.38-.53.3,0-.36.05-.72.05-1.08,0-.09-.11-.18-.17-.26Z"/><path class="cls-13" d="M32,44.87l-.43.16-.09-1.48.45-.1v.2c-.5,0-.18.26-.23.46l.21-.17v.4l-.21-.12,0,.65.26-.25Z"/><path class="cls-13" d="M24,44.72l.35,1.45-.29,0c0-.24.15-.57-.35-.46l.22-1Z"/><path class="cls-13" d="M29.08,44.16l0,.45-.33-.4a1,1,0,0,0,.12,1.3l.2-.32.09.08-.4.39a2,2,0,0,1-.34-.43,1.78,1.78,0,0,1,0-.61c0-.43.22-.54.65-.45Z"/><path class="cls-21" d="M15,44.61v.14l0,.15-.14-.22-.11.07v1.3l-.26,0,.09-1.27-.08,0-.2.18v-.36Z"/><path class="cls-14" d="M32,44.62l-.26.25,0-.65.21.12v-.4l-.21.17c.05-.2-.27-.51.23-.46v-.2h.06l.17.78,0,.48Z"/><path class="cls-13" d="M27.86,45.6l0-.35.25.39a.36.36,0,0,0,0-.54,1.18,1.18,0,0,1-.24-.52c0-.27.11-.43.43-.31l.05.42-.25-.32-.11,0c.05.11.05.27.14.34a.6.6,0,0,1,.23.63c0,.12-.07.29-.15.32s-.23-.06-.35-.1Z"/><path class="cls-19" d="M34.88,41.68a10.41,10.41,0,0,1-3.28,1Z"/><path class="cls-13" d="M22.41,46.22a.08.08,0,0,0,0,0l-.06-.38h0l.22.38c.2-.22.11-.36,0-.53a1.18,1.18,0,0,1-.22-.56.41.41,0,0,1,.24-.3c.21,0,.22.16.18.33h0l-.23-.19c-.17.19-.06.31.08.44a.63.63,0,0,1,.16.74C22.72,46.29,22.6,46.36,22.41,46.22Z"/><path class="cls-21" d="M32.11,44.23l-.17-.78c.14-.14.24-.09.33.07l.39.63.07,0,0,.58-.07,0L32.26,44l-.09.29Zm.1-.2h0l0-.16h0Z"/><path class="cls-13" d="M10.12,45l-.34.29c-.08-.11-.21-.22-.24-.35a2.66,2.66,0,0,1,0-.63v-.57l.23,0a.4.4,0,0,1,0,.11c0,.36-.06.71,0,1.06,0,.16.12.32.29.07Z"/><path class="cls-28" d="M35.17,44.32c-.15-.25-.31-.39-.29-.51s.22-.23.34-.33c.1.12.29.23.3.36S35.35,44.09,35.17,44.32Z"/><path class="cls-13" d="M24.66,44.65l.21,0,.27,1.46-.24,0Z"/><path class="cls-22" d="M12.93,44.46a.13.13,0,0,0,0-.06h.26c0,.25,0,.49,0,.72a4.52,4.52,0,0,0,.08.63l.16.06.15-.27,0,0c0,.09-.08.24-.15.27s-.29,0-.33,0a1.06,1.06,0,0,1-.11-.44C13,45.06,13,44.76,12.93,44.46Z"/><path class="cls-19" d="M6,44.63,4.31,44l0-.1L6,44.51Z"/><path class="cls-19" d="M5.41,44.77,3.6,44.14l0-.09,1.82.62Z"/><path class="cls-24" d="M19.12,46.19,19,46.11l.09-1.28h.27V45a1.11,1.11,0,0,0-.14.29C19.2,45.57,19.16,45.88,19.12,46.19Z"/><path class="cls-25" d="M6.75,42.83l-.06.39.3-.38,0,.6c-.18.15-.17-.38-.42.16v-.23l.13-.57Z"/><path class="cls-11" d="M36.56,44.06l-1.45.5,0-.11L36.5,44Z"/><path class="cls-19" d="M5.41,42.22l1.1.41,0,0-1.09-.42Z"/><path class="cls-19" d="M4.41,42.34l1.12.53,0,.09-1.13-.52Z"/><path class="cls-24" d="M32.11,44.23h.06l.17.56-.39.07v-.25l.13.09Z"/><path class="cls-24" d="M10.12,45H10l.06-1,.13.14Z"/><path class="cls-11" d="M37.05,43.67l.65-.27,0,.09-.64.29Z"/><path class="cls-19" d="M36.36,44.37l.69-.21,0,.08-.69.24Z"/><path class="cls-25" d="M13.66,44.6l-.08.54-.07,0,.15-.52Z"/><path class="cls-19" d="M6.27,43.23,5.64,43l0-.1.65.2Z"/><path class="cls-19" d="M3.63,43.58l.62.2,0,.12-.63-.27Z"/><path class="cls-26" d="M35.28,42.89l.5-.17,0,.09-.5.16Z"/><path class="cls-19" d="M3.05,43.79l.48.17,0,.1L3,43.82Z"/><path class="cls-19" d="M35,41.58l.44-.24,0,.1-.45.17Z"/><path class="cls-19" d="M37.9,43.88l-.25.08,0-.07.26-.08Z"/><path class="cls-19" d="M3.58,43.63l-.23-.11,0-.08.24.14Z"/><path class="cls-26" d="M36.34,42.46l.22-.1,0,.07-.22.1Z"/><path class="cls-19" d="M38.05,43.73l.08,0,0,0-.09,0Z"/><path class="cls-19" d="M6.51,42.63l.07.07-.11,0Z"/><path class="cls-19" d="M35.06,41.61l-.08,0,.05-.06Z"/><path class="cls-19" d="M5.38,42.25v-.07l0,0Z"/><polygon class="cls-26" points="36.7 42.34 36.72 42.33 36.72 42.35 36.7 42.34"/><path class="cls-26" d="M36.22,42.58l0,0h0l0,0Z"/><path class="cls-26" d="M36.08,42.65l0,0,0,0a0,0,0,0,1,0,0Z"/><path class="cls-26" d="M36,42.7l0,0s0,0,0,0l0,0Z"/><path class="cls-19" d="M3,43.82l0-.06.06,0Z"/><path class="cls-11" d="M36.93,43.76h0v0l0,0Z"/><path class="cls-19" d="M38.06,43.75l-.06,0,0-.05Z"/><path class="cls-11" d="M36.82,43.84l0,0,0,0,0,0Z"/><path class="cls-11" d="M36.67,43.91v0h0v0Z"/><path class="cls-19" d="M37.54,44l0,0,0,0a0,0,0,0,1,0,0Z"/><path class="cls-19" d="M37.39,44.06a0,0,0,0,1,0,0l0,0,0,0A0,0,0,0,1,37.39,44.06Z"/><path class="cls-19" d="M37.25,44.13l0,0,0,0,0,0S37.24,44.13,37.25,44.13Z"/><polygon class="cls-13" points="22.76 45.16 22.76 45.18 22.76 45.17 22.76 45.16"/><path class="cls-19" d="M6.2,40l1.37.44,0,.12a1.6,1.6,0,0,1-.21-.05l-1.17-.46Z"/><path class="cls-19" d="M6.08,39.91,6.2,40l0,0L6,39.94Z"/><path class="cls-19" d="M6,39.94l0-.09.08.06Z"/><path class="cls-19" d="M35,40c-.07.06-.13.15-.21.18l-1.27.43,0-.09L35,39.92Z"/><path class="cls-19" d="M37.6,40.62l-.77.4-.06-.09.76-.43Z"/><path class="cls-19" d="M35,39.86l0,0,0,.05Z"/><path class="cls-19" d="M35,39.92l.08-.06,0,0L35,40Z"/><path class="cls-19" d="M4.38,38.38l-.5-.31L4,38l.46.38Z"/><path class="cls-19" d="M4.6,38.55l.15.09,0,.06-.16-.08Z"/><path class="cls-19" d="M6,37.53l-.06-.08.1,0Z"/><path class="cls-19" d="M6.09,37.6,6,37.53l0,0,.15.07Z"/><path class="cls-19" d="M4.48,38.42l0,.07-.08,0Z"/><path class="cls-19" d="M6.93,38.35v.06l0,0Z"/><path class="cls-19" d="M4.44,38.46l-.06-.08,0,0,.07.07Z"/><path class="cls-19" d="M6.87,38.26l.06.09h0l-.08-.06Z"/><path class="cls-19" d="M6.83,38.3l-.07-.08,0,0a.46.46,0,0,0,.07.07Z"/><path class="cls-19" d="M6.76,38.22l-.07-.07,0,0a.46.46,0,0,0,.07.07Z"/><path class="cls-19" d="M6.65,38.05l.08.07,0,0-.07-.07Z"/><path class="cls-19" d="M6.62,38.08,6.54,38l0,0,.07.07Z"/><path class="cls-19" d="M6.51,37.9l.07.08,0,0-.07-.07Z"/><path class="cls-19" d="M6.47,37.94l-.07-.07,0,0,.07.07Z"/><path class="cls-19" d="M6.4,37.87l-.07-.07,0,0a.46.46,0,0,0,.07.07Z"/><path class="cls-19" d="M6.3,37.69l.07.07,0,0-.08-.07Z"/><path class="cls-19" d="M6.22,37.62l.08.07,0,0-.07-.07Z"/><path class="cls-19" d="M6.18,37.66l-.09-.06,0,0,.08.06Z"/><path class="cls-19" d="M34.85,37.68l-.68.7-.08-.09.72-.66Z"/><path class="cls-19" d="M34.81,37.63l.31-.21.05.08-.32.18Z"/><path class="cls-24" d="M20.76,29.47l.57.78a.88.88,0,0,1-.32.19,1.93,1.93,0,0,1-2.39-2.13,1.48,1.48,0,0,1,.7-1.21l.51.93a.76.76,0,0,0,0,1A.94.94,0,0,0,20.76,29.47Z"/><path class="cls-28" d="M19.32,27.1a1.48,1.48,0,0,0-.7,1.21A1.93,1.93,0,0,0,21,30.44a.88.88,0,0,0,.32-.19.77.77,0,0,1,.07.29,1.76,1.76,0,0,1-.08.37,7.35,7.35,0,0,1-1.41,0,2.24,2.24,0,0,1-1.72-1.73A2.4,2.4,0,0,1,19,26.68a1.08,1.08,0,0,1,.19-.08C19.23,26.77,19.28,26.94,19.32,27.1Z"/><path class="cls-19" d="M20.76,29.47a.94.94,0,0,1-1-.43.76.76,0,0,1,0-1c.35.14.76.15,1,.51h0l.14.07h0C21.17,29,20.84,29.19,20.76,29.47Z"/><path class="cls-24" d="M21.46,26.88a2.08,2.08,0,0,1,1,1.56,1.73,1.73,0,0,1-.05.38l-.72-.28v-.47L21,27.39Z"/><path class="cls-19" d="M21,27.39l.72.68v.47l-.72.07h0l-.14-.07h0c0-.14.19-.33-.12-.38,0,0,0-.18-.05-.22l-.39-.07a1.23,1.23,0,0,1,.13-.41c0-.05.23,0,.41.06Z"/><path class="cls-22" d="M25.92,2.11a11.38,11.38,0,0,1,1.31.49.63.63,0,0,1,.3.51.73.73,0,0,1-.42.46A2.21,2.21,0,0,1,25,3.13a.47.47,0,0,1,.18-.85,5.16,5.16,0,0,1,.67-.1Zm.25.23a.55.55,0,0,0-.63.53c0,.31.31.62.68.64A.6.6,0,0,0,26.83,3C26.86,2.61,26.6,2.36,26.17,2.34Z"/><path class="cls-21" d="M21.92,2.94c.11-.16.27-.29.26-.41,0-.29.28-.67-.18-.92l2.09.17,0,.43c-.3-.43-.73-.34-1.15-.38l0,.49.58-.24v.66l-.57-.41-.07.52c.47.08.92.22,1.3-.21l.06.07L24,3.13Z"/><path class="cls-21" d="M21.17,1.69l-.05.48A1.21,1.21,0,0,0,20,1.8c-.31,0-.59.32-.57.55a.51.51,0,0,0,.57.48,9.33,9.33,0,0,0,1.13-.09c-.1.06-.18.16-.27.16a14.59,14.59,0,0,1-1.62,0,.56.56,0,0,1-.53-.54c0-.34.22-.48.48-.59a2.54,2.54,0,0,1,1.47-.12C20.8,1.68,21,1.68,21.17,1.69Z"/><path class="cls-21" d="M16.1,2.75c.1.32.09.52-.31.58-.63.09-1.25.26-1.89.38.58-.36,0-.78.15-1.17l-.38-.06V2.41l1.11-.22c-.21.44.07.78.08,1.18C15.34,3.27,15.85,3.3,16.1,2.75Z"/><path class="cls-22" d="M16.85,3.17c.51-.37.11-.8.21-1.2l-.36-.06V1.85L18,1.7c-.52.39-.14.83-.18,1.24l.31,0V3Z"/><path class="cls-25" d="M17.46,4.16a2,2,0,0,1-.29.15l-.6.09-.11-.77.19,0,.12.71.13,0v-.7c.35-.15.61-.11.73.13s0,.34-.17.45c0-.25.08-.51-.36-.58l.08.64Z"/><path class="cls-13" d="M15,3.87a1.19,1.19,0,0,1,.37-.06.39.39,0,0,1,.23.21c.06.15.08.31.14.53l-.47-.32.14.35-.26.06c0-.13,0-.26,0-.38S15.05,4,15,3.87Z"/><path class="cls-13" d="M22.62,4.21l-.35-.41,0,.34h-.24l.05-.73c.46-.08.45-.07.46.41,0,.1.09.21.13.32Z"/><path class="cls-25" d="M24.08,4.4l.07-.92a3.54,3.54,0,0,1,.65.31c.06,0,0,.36-.06.4A3.19,3.19,0,0,1,24.08,4.4Zm.19-.2.09.08c.1-.08.26-.15.27-.24a1.18,1.18,0,0,0-.14-.41l-.13,0Z"/><path class="cls-28" d="M28.2,2.66c.09.12.26.25.25.37s-.2.32-.31.32a.47.47,0,0,1-.33-.3c0-.11.15-.26.24-.39Z"/><path class="cls-19" d="M32.13,4l.1,0,.14.08.09.12,0,0-1.24-.48-.2,0v0l.16.05.32.2,0,0-1-.35A2,2,0,0,1,32.13,4Z"/><path class="cls-25" d="M12.91,4.83l-.19-.38.18-.08.18.82-.7-.43.23.52-.18,0-.21-.79Z"/><path class="cls-25" d="M27.76,4.6,27.71,5l-.17,0,.22-.78a1.88,1.88,0,0,1,.22.26.81.81,0,0,0,.23.28V4.38l.2,0-.28.8-.3-.62Z"/><path class="cls-13" d="M21.69,4l-.49.19V3.37c.25,0,.59-.14.71.26.05.15.06.38-.22.39.13-.41.08-.52-.26-.55V4Z"/><path class="cls-13" d="M20,3.86l.07.25h-.25V3.3l.53.2-.24.38Z"/><path class="cls-25" d="M21.06,4.08l-.54.09V3.34l.52,0v.11l-.15,0a.94.94,0,0,0-.15.06l.12.1s.09,0,.11.08a.14.14,0,0,1,0,.12.59.59,0,0,1-.19.11L21,4Z"/><path class="cls-25" d="M11.34,4.86l.22-.07a1.64,1.64,0,0,0,.12.41c0,.08.15.12.22.18,0-.1.12-.2.11-.29a1.53,1.53,0,0,0-.15-.4l.06,0a1.83,1.83,0,0,1,.21.56c0,.09-.18.29-.27.28s-.26-.14-.35-.25A1.57,1.57,0,0,1,11.34,4.86Z"/><path class="cls-25" d="M29.42,4.79l.46.19-.26.4-.16-.13-.11.25.3,0v.06l-.53-.05Z"/><path class="cls-25" d="M14.92,4.51c0,.06,0,.18,0,.19s-.25,0-.36.08L14.36,4l.5-.07V4l-.22.07.22.35-.19,0v.17Z"/><path class="cls-13" d="M23.42,4.16c-.25.15-.49.12-.57-.15A.61.61,0,0,1,23,3.5a.36.36,0,0,1,.55.12.34.34,0,0,1-.16.55,1.1,1.1,0,0,0,0-.4c0-.1-.16-.17-.24-.25-.07.1-.19.19-.2.29C23,4.12,23.17,4.17,23.42,4.16Z"/><path class="cls-13" d="M26.63,4.14,26.23,4a2.23,2.23,0,0,0-.13.44c0,.05.14.1.21.15l.13-.26.21,0c0,.1-.07.24-.11.25a.9.9,0,0,1-.52,0A.49.49,0,0,1,26,4.1a.7.7,0,0,1,.47-.2c.08,0,.17.14.26.21Z"/><path class="cls-25" d="M26.68,4.71,27.24,4l.17.86L27.35,5l-.18-.24c0-.05-.08-.12-.13-.13s-.1.06-.15.09l-.16.11Z"/><path class="cls-25" d="M18.44,4.25l-.2-.18S18.13,4,18.08,4s-.09.08-.13.13a1,1,0,0,0-.1.17l-.09-.06.31-.84.43.78Z"/><path class="cls-25" d="M25.46,4.42h-.54l.11-.8a3.51,3.51,0,0,1,.36.29c.08.1,0,.17-.14.21s-.09.12-.19.26l.39-.06Z"/><path class="cls-28" d="M16.22,4.36c-.06-.07-.14-.14-.2-.22s-.13-.2-.19-.3l.32-.17c0,.09.08.17.11.26s.23.32,0,.49Z"/><path class="cls-13" d="M29.21,4.86,29,4.74l-.2.63-.23,0,.28-.63h-.37c.11-.08.18-.17.22-.16.2.06.39.15.59.23Z"/><path class="cls-25" d="M13.1,4.32l.2-.05.2.75-.21.06Z"/><path class="cls-25" d="M14,4.92l-.55-.69.32-.09C13.63,4.49,14.25,4.51,14,4.92Z"/><path class="cls-28" d="M18.82,3.39c.27-.05.52,0,.56.31a.4.4,0,0,1-.42.46.08.08,0,0,0,0-.07l.21-.43-.35-.14Z"/><path class="cls-19" d="M8.69,4.15l1.36-.64,0,.12-1.37.56Z"/><path class="cls-19" d="M11.13,5.71l-.94.45,0-.1.95-.47Z"/><path class="cls-7" d="M18.82,3.39v.13l.14.57a.08.08,0,0,1,0,.07h-.27c0-.26-.05-.5-.07-.74h0Z"/><path class="cls-11" d="M10.54,3.75,9.9,4l0-.09.63-.22Z"/><path class="cls-28" d="M16.27,4.42c-.19.1-.34.1-.42-.16l.37.1Z"/><path class="cls-19" d="M32.07,4.41l-.41-.18.05-.1.4.23Z"/><path class="cls-11" d="M9,4.3l.32-.15,0,.08L9,4.38Z"/><path class="cls-11" d="M8.86,4.46l-.13,0,.09-.07Z"/><path class="cls-19" d="M8.49,4.31l.12-.1,0,0-.15.06Z"/><path class="cls-19" d="M31.58,4.12v0l0,0,0,0S31.57,4.11,31.58,4.12Z"/><path class="cls-19" d="M32.11,4.36l0,.07-.08,0Z"/><path class="cls-11" d="M8.82,4.43l.09,0-.05.06Z"/><path class="cls-19" d="M32.53,4.3l0,0,0,0Z"/><path class="cls-11" d="M9.76,4V4h0V4Z"/><path class="cls-19" d="M8.49,4.31l0,0v0Z"/><path class="cls-19" d="M32.46,4.23l.07.07h0l-.09,0Z"/><path class="cls-28" d="M18.62,3.42Z"/><path class="cls-11" d="M9.62,4v0h0V4Z"/><path class="cls-11" d="M9.48,4.12v0h0v0Z"/><path class="cls-19" d="M8.61,4.21l.08-.06,0,0-.09.06Z"/><path class="cls-19" d="M32.29,4.49l0,0,0,0,0,0S32.28,4.48,32.29,4.49Z"/><path class="cls-19" d="M11.59,6.87,11,7.12,11,7l.6-.26Z"/><path class="cls-19" d="M10.85,7.14l-.36.25-.06-.09.37-.23Z"/><path class="cls-19" d="M30.54,7.32l-1.11-.49,0-.09,1.12.48Z"/><path class="cls-26" d="M30.54,9.15l-.72-.69h0l.67.74Z"/><path class="cls-12" d="M14.38,34.56l.14.22s0,0,0,.06c-.29,0-.18-.14-.16-.28Z"/><path class="cls-12" d="M14.37,34.56l-.17-.17.07,0,.11.22Z"/><path class="cls-6" d="M14.66,34.85l.23.13a.08.08,0,0,0,0,0l-.19-.17Z"/><path class="cls-6" d="M14.53,34.84s0,0,0-.06l.14.07h-.13Z"/><path class="cls-6" d="M15.38,34.92,15.3,35Z"/><path class="cls-24" d="M26.71,34.45l.1.4h-.46Z"/><path class="cls-24" d="M26.36,34.85l-.22.14Z"/><path class="cls-22" d="M153.1,32.54l.58.86c-.44.14-.46.13-.69-.2a2.9,2.9,0,0,0-.35-.49,1.51,1.51,0,0,0-.39-.15v.89h-.44v-2.1c.37,0,.75,0,1.13,0a.54.54,0,0,1,.58.47.56.56,0,0,1-.35.67A.18.18,0,0,0,153.1,32.54Zm-.84-.84v.53a1.57,1.57,0,0,0,.49,0c.12,0,.31-.2.31-.25,0-.25-.2-.22-.32-.26A1.9,1.9,0,0,0,152.26,31.7Z"/><path class="cls-14" d="M8.36,44,8,44.63A2,2,0,0,1,7.79,44,2,2,0,0,1,8,43.38Z"/><path class="cls-14" d="M29.83,45.24,29.75,45l-.19.37-.1-.07v-.57l.18.16v-.45l-.21.18v-.51l.26.15.06-.21h.08Z"/><path class="cls-14" d="M30.89,45.11l-.07-1.33A.82.82,0,0,1,30.89,45.11Z"/><path class="cls-27" d="M34.11,42.8c0,.09.08.13.08.16s0,.06-.07.09-.07-.06-.07-.09A.54.54,0,0,1,34.11,42.8Z"/><path class="cls-27" d="M32.21,44l0-.16h0l0,.16Z"/><path class="cls-11" d="M20.83,28.54l.14.07Z"/><path class="cls-23" d="M26.17,2.34c.43,0,.69.27.66.63a.6.6,0,0,1-.61.54c-.37,0-.71-.33-.68-.64A.55.55,0,0,1,26.17,2.34Z"/><path class="cls-14" d="M17.46,4.16l-.28.07-.08-.64c.44.07.38.33.36.58Z"/><path class="cls-23" d="M24.27,4.2l.09-.53.13,0a1.18,1.18,0,0,1,.14.41c0,.09-.17.16-.27.24Z"/><path class="cls-23" d="M31.14,3.83,31,3.78v0l.2,0Z"/><path class="cls-23" d="M21.69,4h-.26V3.47c.34,0,.39.14.26.55Z"/><path class="cls-23" d="M14.92,4.51l-.23.06V4.4l.19,0Z"/><path class="cls-14" d="M23.42,4.16c-.25,0-.47,0-.43-.35,0-.1.13-.19.2-.29.08.08.21.15.24.25a1.1,1.1,0,0,1,0,.4Z"/><path class="cls-23" d="M19,4.09l-.14-.57.35.14Z"/></svg>