<svg id="Capa_1" data-name="Capa 1" xmlns="http://www.w3.org/2000/svg" xmlns:xlink="http://www.w3.org/1999/xlink" viewBox="0 0 200 57"><defs><style>.cls-1{fill:#005099;}.cls-2{fill:url(#Degradado_sin_nombre_5);}.cls-3{fill:url(#linear-gradient);}.cls-4{fill:url(#Degradado_sin_nombre_4);}.cls-5{fill:#444140;}</style><linearGradient id="Degradado_sin_nombre_5" x1="39.84" y1="23.17" x2="4.09" y2="23.17" gradientUnits="userSpaceOnUse"><stop offset="0.07" stop-color="#005099"/><stop offset="0.36" stop-color="#054c91"/><stop offset="1" stop-color="#0e4582"/></linearGradient><linearGradient id="linear-gradient" x1="50.12" y1="36.2" x2="30.18" y2="24.69" gradientUnits="userSpaceOnUse"><stop offset="0.22" stop-color="#df0073"/><stop offset="0.3" stop-color="#df0073"/><stop offset="0.86" stop-color="#c21265"/></linearGradient><linearGradient id="Degradado_sin_nombre_4" x1="48.34" y1="35.26" x2="1.3" y2="35.26" gradientUnits="userSpaceOnUse"><stop offset="0" stop-color="#ffef5e"/><stop offset="0.09" stop-color="#ffee42"/><stop offset="0.2" stop-color="#ffec2a"/><stop offset="0.32" stop-color="#ffeb17"/><stop offset="0.46" stop-color="#ffeb0a"/><stop offset="0.64" stop-color="#ffea02"/><stop offset="1" stop-color="#ffea00"/></linearGradient></defs><path class="cls-1" d="M83.72,33.8H69.66L66.8,42.18H60.73L73.93,6.27H79.6L92.65,42.18H86.56Zm-12.33-5H82l-5.2-15.34h-.15Z"/><path class="cls-1" d="M106.24,42.7a11.62,11.62,0,0,1-9-3.71,13.62,13.62,0,0,1-3.37-9.53v-1a14.22,14.22,0,0,1,3.34-9.66A10.59,10.59,0,0,1,105.55,15q5.4,0,8.27,3.27A12.79,12.79,0,0,1,116.7,27v3.53H100.05l0,.12a8.41,8.41,0,0,0,1.86,5.19,5.91,5.91,0,0,0,4.75,2,12.94,12.94,0,0,0,4.14-.59,13.8,13.8,0,0,0,3.33-1.7L116,39.53a12.52,12.52,0,0,1-4,2.25A16.44,16.44,0,0,1,106.24,42.7Zm-.69-22.89a4.5,4.5,0,0,0-3.65,1.76,8.65,8.65,0,0,0-1.78,4.48l0,.13h10.58v-.62a6.41,6.41,0,0,0-1.29-4.15A4.76,4.76,0,0,0,105.55,19.81Z"/><path class="cls-1" d="M125.7,15.49l.34,3.85a9.49,9.49,0,0,1,3.3-3.19A8.7,8.7,0,0,1,133.81,15a8.38,8.38,0,0,1,6.5,2.53c1.56,1.68,2.33,4.31,2.33,7.88V42.18h-6V25.46c0-2-.42-3.43-1.25-4.28a5.06,5.06,0,0,0-3.78-1.27,6.28,6.28,0,0,0-3.14.78,6.4,6.4,0,0,0-2.26,2.13V42.18h-6V15.49Z"/><path class="cls-1" d="M149.57,42.18V19.93H145.5V15.49h4.07v-3.1q0-4.43,2.4-6.81a9.16,9.16,0,0,1,6.75-2.4,11.57,11.57,0,0,1,1.75.14c.59.09,1.26.22,2,.38l-.62,4.64c-.33-.07-.69-.12-1.09-.17a10.68,10.68,0,0,0-1.3-.08,3.68,3.68,0,0,0-2.92,1.11,4.68,4.68,0,0,0-1,3.19v3.1H161v4.44h-5.43V42.18Z"/><path class="cls-1" d="M170.48,9h-6V3.7h6Zm0,33.22h-6V15.49h6Z"/><path class="cls-1" d="M190.93,34.93a2.79,2.79,0,0,0-1.19-2.29A11.76,11.76,0,0,0,185.33,31a18.25,18.25,0,0,1-7.24-2.87,6,6,0,0,1-2.46-5.07,7.21,7.21,0,0,1,2.84-5.72A11.26,11.26,0,0,1,185.94,15a11.66,11.66,0,0,1,7.76,2.41,7.1,7.1,0,0,1,2.75,5.95l0,.15h-5.74a3.77,3.77,0,0,0-1.26-2.84,4.84,4.84,0,0,0-3.46-1.18,4.92,4.92,0,0,0-3.3,1,3,3,0,0,0-1.14,2.38,2.67,2.67,0,0,0,1.08,2.24,11.49,11.49,0,0,0,4.35,1.47,18.13,18.13,0,0,1,7.46,2.92,6.16,6.16,0,0,1,2.43,5.14,7,7,0,0,1-3,5.85A12.7,12.7,0,0,1,186,42.7q-5.21,0-8.22-2.66a7.55,7.55,0,0,1-2.86-6.12l.05-.15h5.58a4,4,0,0,0,1.67,3.38,6.75,6.75,0,0,0,3.85,1.06,6.09,6.09,0,0,0,3.58-.89A2.78,2.78,0,0,0,190.93,34.93Z"/><path class="cls-2" d="M39.74,8.14A24.92,24.92,0,0,0,4.09,17.23,29.26,29.26,0,0,0,22.45,42.3,37.23,37.23,0,0,0,39.74,8.14Z"/><path class="cls-3" d="M39.74,8.14A37.25,37.25,0,0,1,22.46,42.3a29.23,29.23,0,0,0,20.07.54c1.65-.56,4.64-1.35,5.46-3A24.68,24.68,0,0,0,39.74,8.14Z"/><path class="cls-4" d="M48.34,39.18c-3.62,3.66-9.85,5.13-15.1,5.13A29.22,29.22,0,0,1,4.1,17.21c0,.09-2.8,6.11-2.8,11.41a24.71,24.71,0,0,0,47,10.56Z"/><path class="cls-5" d="M63.53,50.9H61.29V53h2.58v.35h-3v-5h3v.35H61.29v1.88h2.24Z"/><path class="cls-5" d="M67.48,52.1a.78.78,0,0,0-.31-.63,2.84,2.84,0,0,0-1-.47,3.51,3.51,0,0,1-1.21-.55,1.08,1.08,0,0,1-.42-.89,1.15,1.15,0,0,1,.47-.94,1.81,1.81,0,0,1,1.18-.37,1.76,1.76,0,0,1,1.22.41,1.33,1.33,0,0,1,.45,1.06v0h-.39a1.09,1.09,0,0,0-.35-.82,1.36,1.36,0,0,0-.93-.32,1.41,1.41,0,0,0-.91.27.86.86,0,0,0-.33.68.78.78,0,0,0,.3.63,3.07,3.07,0,0,0,1.06.46,3.54,3.54,0,0,1,1.2.56,1.13,1.13,0,0,1,.41.9,1.12,1.12,0,0,1-.48.94,2.07,2.07,0,0,1-1.22.35A2.19,2.19,0,0,1,64.91,53a1.21,1.21,0,0,1-.53-1.1v0h.38a1,1,0,0,0,.44.86,1.77,1.77,0,0,0,1,.29,1.51,1.51,0,0,0,.93-.27A.8.8,0,0,0,67.48,52.1Z"/><path class="cls-5" d="M72.25,51.76v0A1.44,1.44,0,0,1,71.78,53a1.84,1.84,0,0,1-1.29.44,1.68,1.68,0,0,1-1.34-.6,2.33,2.33,0,0,1-.51-1.56v-.82a2.36,2.36,0,0,1,.51-1.56,1.68,1.68,0,0,1,1.34-.6,1.89,1.89,0,0,1,1.3.43,1.46,1.46,0,0,1,.47,1.18v0h-.38a1.21,1.21,0,0,0-.37-1,1.45,1.45,0,0,0-1-.33,1.25,1.25,0,0,0-1,.51,2.05,2.05,0,0,0-.39,1.3v.82a2.1,2.1,0,0,0,.39,1.31,1.25,1.25,0,0,0,1,.51,1.45,1.45,0,0,0,1-.33,1.21,1.21,0,0,0,.37-1Z"/><path class="cls-5" d="M76.74,48.32v3.32a1.66,1.66,0,0,1-.51,1.29,1.8,1.8,0,0,1-1.29.46,1.77,1.77,0,0,1-1.27-.46,1.68,1.68,0,0,1-.49-1.29V48.32h.41v3.32a1.38,1.38,0,0,0,.38,1,1.33,1.33,0,0,0,1,.38,1.32,1.32,0,0,0,1.39-1.41V48.32Z"/><path class="cls-5" d="M80.51,50.9H78.28V53h2.58v.35h-3v-5h3v.35H78.28v1.88h2.23Z"/><path class="cls-5" d="M82.06,53h2.57v.35h-3v-5h.41Z"/><path class="cls-5" d="M88.11,51.93H85.92l-.5,1.39H85l1.83-5h.38l1.82,5H88.6Zm-2.06-.37H88L87,48.91h0Z"/><path class="cls-5" d="M92.53,52.1a.8.8,0,0,0-.3-.63,3,3,0,0,0-1-.47A3.51,3.51,0,0,1,90,50.45a1.1,1.1,0,0,1-.41-.89,1.14,1.14,0,0,1,.46-.94,1.84,1.84,0,0,1,1.19-.37,1.8,1.8,0,0,1,1.22.41,1.36,1.36,0,0,1,.45,1.06v0H92.5a1.06,1.06,0,0,0-.36-.82,1.36,1.36,0,0,0-.92-.32,1.39,1.39,0,0,0-.91.27.86.86,0,0,0-.33.68.78.78,0,0,0,.3.63,3.09,3.09,0,0,0,1,.46,3.54,3.54,0,0,1,1.2.56,1.1,1.1,0,0,1,.41.9,1.12,1.12,0,0,1-.48.94,2,2,0,0,1-1.22.35A2.19,2.19,0,0,1,90,53a1.23,1.23,0,0,1-.53-1.1v0h.38a1,1,0,0,0,.43.86,1.77,1.77,0,0,0,1,.29,1.51,1.51,0,0,0,.93-.27A.8.8,0,0,0,92.53,52.1Z"/><path class="cls-5" d="M95.51,53.32v-5H97a2,2,0,0,1,1.51.61,2.18,2.18,0,0,1,.59,1.57v.64a2.18,2.18,0,0,1-.59,1.57,2,2,0,0,1-1.51.61Zm.41-4.65V53H97a1.59,1.59,0,0,0,1.21-.51,1.88,1.88,0,0,0,.48-1.32v-.65a1.83,1.83,0,0,0-.48-1.3A1.56,1.56,0,0,0,97,48.67Z"/><path class="cls-5" d="M102.79,50.9h-2.23V53h2.58v.35h-3v-5h3v.35h-2.56v1.88h2.23Z"/><path class="cls-5" d="M106.08,53.32h-.41v-5h.41Z"/><path class="cls-5" d="M107.39,53.32v-5h1.52a2,2,0,0,1,1.51.61A2.18,2.18,0,0,1,111,50.5v.64a2.18,2.18,0,0,1-.59,1.57,2,2,0,0,1-1.51.61Zm.41-4.65V53h1.11a1.57,1.57,0,0,0,1.21-.51,1.88,1.88,0,0,0,.48-1.32v-.65a1.83,1.83,0,0,0-.48-1.3,1.56,1.56,0,0,0-1.21-.52Z"/><path class="cls-5" d="M112.55,53.32h-.42v-5h.42Z"/><path class="cls-5" d="M117.5,51.23A2.26,2.26,0,0,1,117,52.8a1.8,1.8,0,0,1-1.41.59,1.78,1.78,0,0,1-1.4-.59,2.31,2.31,0,0,1-.52-1.57v-.82a2.28,2.28,0,0,1,.52-1.56,1.75,1.75,0,0,1,1.39-.6,1.79,1.79,0,0,1,1.42.6,2.24,2.24,0,0,1,.53,1.56Zm-.41-.82a2,2,0,0,0-.4-1.31,1.4,1.4,0,0,0-1.14-.49,1.32,1.32,0,0,0-1.1.49,2,2,0,0,0-.4,1.31v.82a2,2,0,0,0,.4,1.31,1.33,1.33,0,0,0,1.11.5,1.39,1.39,0,0,0,1.13-.5,2,2,0,0,0,.4-1.31Z"/><path class="cls-5" d="M120.88,52.72h0l1.86-4.4h.49v5h-.41v-4.2h0L121,53.32h-.29L118.92,49h0v4.3h-.41v-5H119Z"/><path class="cls-5" d="M127.12,51.93h-2.18l-.51,1.39H124l1.83-5h.39l1.81,5h-.42Zm-2.05-.37H127L126,48.91h0Z"/><path class="cls-5" d="M131.54,52.1a.8.8,0,0,0-.3-.63,2.93,2.93,0,0,0-1-.47,3.42,3.42,0,0,1-1.21-.55,1.08,1.08,0,0,1-.42-.89,1.15,1.15,0,0,1,.47-.94,1.81,1.81,0,0,1,1.18-.37,1.78,1.78,0,0,1,1.22.41,1.33,1.33,0,0,1,.45,1.06v0h-.38a1.06,1.06,0,0,0-.36-.82,1.34,1.34,0,0,0-.92-.32,1.39,1.39,0,0,0-.91.27.86.86,0,0,0-.33.68.78.78,0,0,0,.3.63,3.09,3.09,0,0,0,1.05.46,3.36,3.36,0,0,1,1.2.56,1.16,1.16,0,0,1-.07,1.84,2,2,0,0,1-1.22.35A2.24,2.24,0,0,1,129,53a1.23,1.23,0,0,1-.53-1.1v0h.38a1,1,0,0,0,.43.86,1.77,1.77,0,0,0,1,.29,1.47,1.47,0,0,0,.93-.27A.8.8,0,0,0,131.54,52.1Z"/><path class="cls-5" d="M138.09,53.32h-1L135.59,50h0l-.5,3.37h-1l.75-5h1l1.51,3.37h0l.5-3.37h1Z"/><path class="cls-5" d="M139.47,49.4a1.29,1.29,0,0,1,.45-.84,1.32,1.32,0,0,1,.91-.31,1,1,0,0,1,.8.32,1,1,0,0,1,.21.83l-.06.4a1.34,1.34,0,0,1-.45.84,1.36,1.36,0,0,1-.9.31,1,1,0,0,1-.81-.32,1,1,0,0,1-.21-.83Zm.54.4a.59.59,0,0,0,.08.47.46.46,0,0,0,.41.18.63.63,0,0,0,.46-.18.83.83,0,0,0,.22-.47l.06-.4a.63.63,0,0,0-.08-.47.46.46,0,0,0-.41-.18.64.64,0,0,0-.46.19.74.74,0,0,0-.22.46Z"/><path class="cls-5" d="M144.33,53.32h-1l.61-4.13h-1l.11-.77,2.05-.17Z"/><path class="cls-5" d="M150.86,51.12H149l-.21,1.43H151l-.12.77h-3.19l.74-5h3.19l-.11.77h-2.19l-.19,1.26H151Z"/><path class="cls-5" d="M155.53,53.32h-1L153,50h0l-.5,3.37h-1l.75-5h1l1.51,3.37h0l.5-3.37h1Z"/><path class="cls-5" d="M160.81,52.24h-1.62l-.49,1.08h-1l2.43-5h1l.92,5h-1Zm-1.25-.78h1.12l-.29-1.77h0Z"/><path class="cls-5" d="M163.7,51.51l-.27,1.81h-1l.75-5h1.9a1.75,1.75,0,0,1,1.27.44,1.3,1.3,0,0,1,.34,1.16,1.75,1.75,0,0,1-.67,1.16,2.2,2.2,0,0,1-1.41.43Zm.12-.78h.9a.92.92,0,0,0,.66-.23,1,1,0,0,0,.31-.58.74.74,0,0,0-.12-.6.73.73,0,0,0-.6-.23h-.91Z"/><path class="cls-5" d="M168.12,51.32l-.3,2h-1l.75-5h1.72a1.82,1.82,0,0,1,1.25.39,1.13,1.13,0,0,1,.34,1.09,1.32,1.32,0,0,1-.3.68,1.74,1.74,0,0,1-.67.44,1,1,0,0,1,.57.44,1.27,1.27,0,0,1,.09.74l-.06.37a2.16,2.16,0,0,0,0,.44.54.54,0,0,0,.15.34l0,.07h-1a.46.46,0,0,1-.12-.36,4,4,0,0,1,0-.49l0-.36a.73.73,0,0,0-.11-.59.7.7,0,0,0-.55-.2Zm.11-.77h.71a1,1,0,0,0,.64-.18.81.81,0,0,0,.3-.53.65.65,0,0,0-.13-.55.73.73,0,0,0-.57-.2h-.73Z"/><path class="cls-5" d="M175.54,51.27a2.44,2.44,0,0,1-.8,1.54,2.32,2.32,0,0,1-1.6.58,1.69,1.69,0,0,1-1.38-.6,1.84,1.84,0,0,1-.37-1.52l.14-.9a2.42,2.42,0,0,1,.79-1.54,2.31,2.31,0,0,1,1.59-.58,1.69,1.69,0,0,1,1.39.61,1.82,1.82,0,0,1,.38,1.51Zm-.86-.91a1.43,1.43,0,0,0-.14-1,.84.84,0,0,0-.75-.36,1.1,1.1,0,0,0-.84.38,1.78,1.78,0,0,0-.43,1l-.13.91a1.39,1.39,0,0,0,.13,1,.81.81,0,0,0,.74.36,1.09,1.09,0,0,0,.84-.37,1.79,1.79,0,0,0,.45-1Z"/><path class="cls-5" d="M176,53.32l.74-5h1.63a2.05,2.05,0,0,1,1.3.35,1,1,0,0,1,.36,1,1.3,1.3,0,0,1-.27.62,1.26,1.26,0,0,1-.57.4.88.88,0,0,1,.63.41,1.21,1.21,0,0,1,.13.74,1.57,1.57,0,0,1-.64,1.11,2.46,2.46,0,0,1-1.39.35Zm1.32-2.21-.21,1.44H178a1.08,1.08,0,0,0,.62-.17.74.74,0,0,0,.29-.52.62.62,0,0,0-.12-.56.75.75,0,0,0-.59-.19Zm.11-.7h.7a1,1,0,0,0,.61-.17.7.7,0,0,0,.28-.47.51.51,0,0,0-.14-.52.92.92,0,0,0-.62-.16h-.63Z"/><path class="cls-5" d="M183.1,52.24h-1.61l-.5,1.08h-1l2.42-5h1l.93,5h-1Zm-1.25-.78H183l-.28-1.77h0Z"/><path class="cls-5" d="M184.73,53.32l.74-5h1.74A1.73,1.73,0,0,1,189,50.41l-.12.83a2.35,2.35,0,0,1-2.41,2.08Zm1.62-4.23-.51,3.46h.74a1.16,1.16,0,0,0,.84-.37,1.7,1.7,0,0,0,.45-.94l.12-.84a1.26,1.26,0,0,0-.16-.95.83.83,0,0,0-.74-.36Z"/><path class="cls-5" d="M193.62,51.27a2.5,2.5,0,0,1-.81,1.54,2.29,2.29,0,0,1-1.59.58,1.72,1.72,0,0,1-1.39-.6,1.87,1.87,0,0,1-.36-1.52l.13-.9a2.44,2.44,0,0,1,.8-1.54,2.27,2.27,0,0,1,1.58-.58,1.71,1.71,0,0,1,1.4.61,1.82,1.82,0,0,1,.37,1.51Zm-.86-.91a1.37,1.37,0,0,0-.15-1,.82.82,0,0,0-.75-.36,1.1,1.1,0,0,0-.83.38,1.79,1.79,0,0,0-.44,1l-.13.91a1.5,1.5,0,0,0,.13,1,.83.83,0,0,0,.75.36,1.11,1.11,0,0,0,.84-.37,1.78,1.78,0,0,0,.44-1Z"/><path class="cls-5" d="M196.89,52.11a.52.52,0,0,0-.14-.51,2.33,2.33,0,0,0-.74-.38,3.33,3.33,0,0,1-1.27-.66,1.09,1.09,0,0,1-.31-1,1.33,1.33,0,0,1,.61-.95,2.29,2.29,0,0,1,1.28-.34,1.91,1.91,0,0,1,1.31.41,1.11,1.11,0,0,1,.34,1.12v0h-1a.61.61,0,0,0-.17-.56.85.85,0,0,0-.63-.22.93.93,0,0,0-.52.15.52.52,0,0,0-.25.36.5.5,0,0,0,.15.49,3.29,3.29,0,0,0,.85.39,2.83,2.83,0,0,1,1.18.65,1.15,1.15,0,0,1,.28,1,1.3,1.3,0,0,1-.62,1,2.35,2.35,0,0,1-1.29.33A2.43,2.43,0,0,1,194.6,53a1.06,1.06,0,0,1-.42-1.16v0h1a.55.55,0,0,0,.23.61,1.41,1.41,0,0,0,.71.17,1,1,0,0,0,.53-.14A.52.52,0,0,0,196.89,52.11Z"/></svg>